<?xml version="1.0" standalone="no"?>
<!DOCTYPE svg PUBLIC "-//W3C//DTD SVG 20010904//EN"
 "http://www.w3.org/TR/2001/REC-SVG-20010904/DTD/svg10.dtd">
<svg version="1.0" xmlns="http://www.w3.org/2000/svg"
 width="736.000000pt" height="512.000000pt" viewBox="0 0 736.000000 512.000000"
 preserveAspectRatio="xMidYMid meet">
<metadata>
Created by potrace 1.16, written by Peter Selinger 2001-2019
</metadata>
<g transform="translate(0.000000,512.000000) scale(0.100000,-0.100000)"
fill="#000000" stroke="none">
<path d="M1700 4903 c-57 -6 -190 -33 -270 -55 -519 -141 -958 -550 -1134
-1057 -61 -174 -80 -298 -81 -511 0 -110 5 -215 13 -260 121 -684 637 -1208
1332 -1351 124 -26 377 -43 510 -34 347 21 635 121 913 315 189 132 458 429
642 708 26 39 51 72 55 72 4 0 29 -33 55 -72 183 -279 452 -575 645 -711 178
-126 422 -233 632 -277 224 -47 563 -48 788 -1 605 125 1081 541 1270 1109 60
182 74 275 74 502 0 164 -4 212 -23 300 -86 401 -300 740 -622 984 -211 160
-428 258 -704 317 -126 27 -416 37 -561 20 -601 -71 -1083 -385 -1494 -975
-30 -42 -57 -76 -60 -76 -3 0 -30 34 -60 76 -407 584 -888 900 -1480 974 -79
9 -361 12 -440 3z m480 -603 c405 -78 703 -322 1067 -873 46 -70 83 -132 81
-136 -2 -5 -43 -71 -91 -148 -353 -555 -614 -799 -953 -890 -92 -25 -114 -27
-314 -27 -220 -1 -259 3 -405 46 -226 65 -463 237 -589 427 -62 92 -119 217
-146 316 -31 114 -39 331 -15 446 42 208 124 367 269 518 187 194 413 307 686
340 101 13 293 4 410 -19z m3498 5 c217 -41 402 -137 564 -293 141 -136 227
-277 284 -468 36 -120 45 -330 19 -455 -57 -281 -214 -517 -450 -674 -220
-146 -434 -201 -750 -192 -139 4 -188 10 -269 31 -288 75 -529 274 -799 659
-80 114 -247 373 -247 383 0 3 47 76 104 162 382 571 710 814 1166 862 107 11
276 4 378 -15z"/>
<path d="M1430 3320 l0 -170 520 0 520 0 0 170 0 170 -520 0 -520 0 0 -170z"/>
<path d="M5190 3665 l0 -155 -160 0 -160 0 0 -185 0 -185 160 0 160 0 0 -160
0 -160 185 0 185 0 0 160 0 160 155 0 155 0 0 185 0 185 -155 0 -155 0 0 155
0 155 -185 0 -185 0 0 -155z"/>
<path d="M6870 4700 c0 -64 3 -80 15 -80 11 0 15 12 16 48 l1 47 16 -47 c10
-32 21 -48 32 -48 11 0 22 16 32 48 l16 47 1 -47 c1 -36 5 -48 16 -48 12 0 15
16 15 80 0 78 -1 80 -24 80 -19 0 -27 -8 -37 -37 -18 -59 -21 -60 -36 -10 -11
40 -18 47 -38 47 -25 0 -25 -2 -25 -80z"/>
<path d="M6540 1332 c-30 -10 -66 -24 -80 -32 -90 -47 -165 -146 -207 -273
-25 -75 -27 -95 -27 -247 -1 -128 3 -179 17 -230 27 -99 61 -164 114 -221 79
-85 169 -119 313 -119 143 1 225 29 314 111 63 58 109 140 137 246 29 111 29
335 0 446 -41 157 -123 263 -239 308 -80 31 -262 37 -342 11z m203 -183 c83
-23 138 -105 157 -236 30 -206 -9 -403 -92 -466 -40 -31 -113 -49 -160 -41
-138 26 -194 151 -186 412 4 109 9 148 26 193 45 114 145 169 255 138z"/>
<path d="M635 1328 c-2 -7 -77 -249 -165 -538 -88 -289 -163 -533 -166 -542
-5 -16 5 -18 108 -18 l113 0 30 103 30 102 196 3 195 2 29 -102 30 -103 123
-3 c67 -1 122 1 122 5 1 4 -75 254 -167 556 l-167 547 -153 0 c-114 0 -155 -3
-158 -12z m220 -466 c37 -128 65 -235 62 -238 -2 -2 -65 -3 -139 -2 l-135 3
59 200 c32 110 63 217 69 239 6 21 12 36 13 35 2 -2 34 -109 71 -237z"/>
<path d="M1390 785 l0 -555 115 0 115 0 0 225 0 225 35 0 c54 0 111 -34 138
-82 14 -24 58 -116 98 -205 l73 -163 132 0 133 0 -94 191 c-115 233 -136 270
-175 302 -16 14 -30 28 -30 30 0 3 13 7 28 10 54 11 125 69 156 127 26 47 30
66 30 135 1 106 -20 161 -84 218 -83 75 -197 97 -497 97 l-173 0 0 -555z m421
354 c57 -18 91 -58 96 -116 9 -102 -59 -158 -205 -170 l-82 -6 0 152 0 151 76
0 c42 0 94 -5 115 -11z"/>
<path d="M2340 786 l0 -556 203 0 c214 0 296 11 383 50 114 50 203 151 242
272 29 90 34 129 33 258 -1 290 -106 449 -333 506 -44 11 -135 17 -295 21
l-233 6 0 -557z m475 337 c88 -46 130 -122 144 -259 4 -49 5 -118 1 -154 -22
-202 -110 -288 -306 -298 l-94 -5 0 373 0 373 108 -5 c82 -4 116 -9 147 -25z"/>
<path d="M3322 903 c4 -493 4 -492 80 -578 72 -82 168 -115 331 -115 214 0
336 77 399 251 22 62 23 76 26 472 l3 407 -115 0 -115 0 -3 -412 c-3 -410 -3
-413 -26 -456 -32 -61 -89 -86 -183 -80 -104 6 -152 50 -169 153 -5 33 -10
225 -10 428 l0 367 -111 0 -110 0 3 -437z"/>
<path d="M4360 1250 l0 -90 125 0 125 0 0 -375 0 -375 -125 0 -125 0 0 -90 0
-90 360 0 360 0 0 90 0 90 -125 0 -125 0 0 375 0 375 125 0 125 0 0 90 0 90
-360 0 -360 0 0 -90z"/>
<path d="M5290 785 l0 -555 100 0 100 0 0 388 1 387 29 -65 c16 -36 96 -209
178 -385 l149 -320 137 -3 136 -3 0 556 0 555 -100 0 -100 0 0 -387 -1 -388
-21 50 c-12 28 -93 201 -179 385 l-157 335 -136 3 -136 3 0 -556z"/>
</g>
</svg>
