<?xml version="1.0" standalone="no"?>
<!DOCTYPE svg PUBLIC "-//W3C//DTD SVG 20010904//EN"
 "http://www.w3.org/TR/2001/REC-SVG-20010904/DTD/svg10.dtd">
<svg version="1.0" xmlns="http://www.w3.org/2000/svg"
 width="300.000000pt" height="300.000000pt" viewBox="0 0 300.000000 300.000000"
 preserveAspectRatio="xMidYMid meet">
<metadata>
Created by potrace 1.10, written by Peter Selinger 2001-2011
</metadata>
<g transform="translate(0.000000,300.000000) scale(0.100000,-0.100000)"
fill="#000000" stroke="none">
<path d="M1595 2381 c11 -5 34 -10 52 -10 43 -1 184 -47 253 -81 140 -70 277
-205 357 -351 110 -202 137 -401 83 -627 -71 -295 -309 -542 -597 -617 -91
-24 -103 -38 -17 -18 100 22 203 64 286 116 76 47 194 159 249 237 77 107 139
284 154 441 8 87 -19 264 -54 354 -103 264 -327 467 -591 534 -85 22 -207 37
-175 22z"/>
<path d="M1370 2370 c-19 -4 8 -5 60 -2 52 2 97 6 99 8 8 7 -123 2 -159 -6z"/>
<path d="M1092 2275 c-122 -66 -210 -142 -290 -254 -38 -51 -96 -163 -106
-201 -3 -14 11 12 33 56 88 184 205 306 384 400 45 24 78 43 72 44 -5 0 -47
-20 -93 -45z"/>
<path d="M1499 1971 c-144 -46 -309 -177 -407 -321 -62 -93 -89 -203 -59 -243
12 -16 39 4 201 151 l39 35 38 -44 c21 -24 39 -39 39 -34 0 6 34 53 75 105 73
93 74 95 55 115 -18 20 -17 21 96 118 63 54 114 102 114 107 0 12 -59 30 -99
29 -20 0 -61 -8 -92 -18z m111 -28 c0 -5 -38 -43 -85 -86 -79 -73 -85 -81 -83
-116 1 -32 -7 -49 -47 -100 -26 -33 -50 -61 -52 -61 -3 0 -16 9 -30 20 -43 34
-56 28 -180 -81 -31 -27 -60 -49 -65 -49 -15 0 2 60 35 125 38 74 188 225 272
275 90 53 235 98 235 73z"/>
<path d="M1561 1729 c-1 -15 -72 -113 -153 -210 -32 -40 -36 -48 -23 -59 10
-9 12 -18 4 -37 -5 -14 -8 -27 -7 -29 2 -2 29 29 60 69 31 40 73 93 93 119 29
37 35 51 26 61 -8 10 -8 22 0 45 6 18 9 37 6 44 -4 9 -6 8 -6 -3z"/>
<path d="M1594 1578 c-21 -29 -63 -83 -92 -121 -43 -53 -52 -70 -43 -81 8 -10
8 -21 1 -41 -14 -36 -7 -42 13 -12 9 14 52 70 96 125 66 83 77 103 66 112 -10
9 -11 18 -4 37 16 43 3 37 -37 -19z"/>
<path d="M643 1520 c0 -47 2 -66 4 -42 2 23 2 61 0 85 -2 23 -4 4 -4 -43z"/>
<path d="M1688 1523 c-9 -16 -26 -39 -37 -53 -117 -145 -130 -165 -119 -177
10 -13 8 -27 -8 -68 -4 -11 38 37 94 108 90 112 101 129 90 146 -9 15 -9 25 0
45 15 35 1 33 -20 -1z"/>
<path d="M1769 1448 c-7 -11 -34 -47 -59 -78 -25 -32 -56 -72 -70 -90 -14 -18
-30 -39 -37 -46 -10 -9 -9 -15 2 -24 10 -9 11 -18 4 -37 -5 -14 -8 -27 -6 -29
1 -2 44 49 95 113 73 91 90 118 81 129 -8 10 -8 22 0 45 14 39 10 46 -10 17z"/>
<path d="M661 1344 c-1 -33 46 -161 85 -233 85 -154 219 -283 369 -356 50 -24
104 -47 120 -50 17 -4 -8 9 -54 28 -247 103 -435 319 -506 580 -7 29 -14 43
-14 31z"/>
<path d="M1747 1235 c-46 -57 -72 -97 -65 -99 7 -2 45 -12 83 -21 39 -9 78
-18 88 -21 18 -6 18 0 11 88 -4 51 -7 100 -7 108 0 16 -15 40 -26 40 -4 0 -41
-43 -84 -95z m73 -12 c0 -10 3 -28 6 -40 7 -27 -13 -38 -51 -29 -32 8 -31 17
1 55 29 35 44 39 44 14z"/>
<path d="M1288 690 c13 -5 49 -12 80 -15 48 -3 51 -3 17 4 -93 19 -121 22 -97
11z"/>
<path d="M1468 663 c17 -2 47 -2 65 0 17 2 3 4 -33 4 -36 0 -50 -2 -32 -4z"/>
</g>
</svg>
