<?xml version="1.0" standalone="no"?>
<!DOCTYPE svg PUBLIC "-//W3C//DTD SVG 20010904//EN"
 "http://www.w3.org/TR/2001/REC-SVG-20010904/DTD/svg10.dtd">
<svg version="1.0" xmlns="http://www.w3.org/2000/svg"
 width="679.000000pt" height="308.000000pt" viewBox="0 0 679.000000 308.000000"
 preserveAspectRatio="xMidYMid meet">
<metadata>
Created by potrace 1.16, written by Peter Selinger 2001-2019
</metadata>
<g transform="translate(0.000000,308.000000) scale(0.100000,-0.100000)"
fill="#000000" stroke="none">
<path d="M2172 2870 c-68 -34 -110 -77 -146 -148 -60 -119 -33 -315 60 -437
l26 -35 -555 0 -556 0 -15 -22 c-14 -20 -16 -123 -16 -910 0 -634 3 -894 11
-912 6 -13 21 -27 33 -30 11 -3 436 -6 942 -6 917 0 921 0 948 21 l26 20 0
852 0 851 88 82 c107 100 147 165 169 270 13 65 14 92 5 156 -13 90 -36 139
-89 189 -58 56 -117 81 -199 87 -125 8 -222 -43 -283 -150 l-28 -49 -13 33
c-18 46 -86 115 -142 144 -38 19 -63 24 -126 24 -68 0 -87 -4 -140 -30z m-635
-870 c-39 -64 -42 -84 -44 -305 l-3 -220 28 34 c15 19 74 94 132 165 147 184
190 250 190 292 l0 34 183 1 c100 0 206 2 235 3 28 1 52 1 52 0 0 -1 -30 -33
-68 -70 -50 -51 -384 -458 -484 -590 -8 -11 29 -65 336 -484 67 -90 145 -190
175 -222 l53 -58 -246 0 -246 0 0 37 c0 46 -26 99 -92 188 -28 39 -68 93 -88
120 -20 28 -65 88 -99 135 l-62 85 3 -235 c3 -217 5 -239 25 -283 l22 -47
-220 0 c-120 0 -219 2 -219 4 0 3 10 22 23 43 l22 38 0 625 0 625 -22 42 c-13
23 -23 44 -23 45 0 2 99 3 220 3 121 0 219 -2 217 -5z m1233 -853 c0 -463 1
-484 20 -522 11 -22 20 -41 20 -42 0 -2 -94 -3 -210 -3 l-210 0 20 32 c19 32
20 52 20 493 -1 380 -3 464 -15 485 -8 14 -14 28 -15 33 0 4 83 7 185 7 l185
0 0 -483z"/>
<path d="M5770 2086 c0 -2 7 -17 15 -32 12 -23 15 -74 15 -256 l0 -227 -57 30
c-152 78 -334 50 -449 -67 -82 -85 -127 -218 -139 -414 -16 -240 77 -442 238
-518 128 -60 279 -45 400 40 l27 19 0 -35 0 -35 175 -3 c153 -3 174 -1 169 12
-32 73 -34 116 -34 802 l0 688 -180 0 c-99 0 -180 -2 -180 -4z m-10 -706 l40
-21 -2 -246 -3 -247 -46 -23 c-51 -26 -132 -33 -168 -14 -39 21 -71 87 -83
171 -15 102 1 251 35 319 44 88 129 111 227 61z"/>
<path d="M3522 2006 c-165 -40 -334 -179 -411 -336 -64 -133 -76 -190 -76
-375 0 -175 13 -247 65 -360 119 -260 368 -402 645 -367 107 13 174 35 277 90
l76 40 -76 125 -76 125 -44 -39 c-85 -75 -220 -101 -315 -60 -53 23 -118 84
-145 138 -45 88 -57 150 -56 308 1 132 4 159 26 225 42 129 95 192 187 225 90
31 211 8 280 -55 18 -17 35 -29 38 -26 3 2 40 55 83 116 l79 112 -91 45 c-127
61 -213 83 -323 82 -49 0 -114 -6 -143 -13z"/>
<path d="M4530 1641 c-50 -7 -300 -61 -309 -67 -5 -4 82 -214 89 -214 3 0 35
12 71 26 44 18 91 27 150 31 l86 6 37 -34 c27 -25 38 -46 45 -81 l8 -48 -102
0 c-244 0 -410 -72 -476 -208 -19 -39 -23 -63 -23 -142 0 -81 4 -103 25 -150
63 -136 227 -215 390 -189 64 10 146 46 168 73 21 25 31 19 31 -19 l0 -34 174
-3 173 -3 -18 35 c-17 32 -19 61 -19 337 0 170 -5 335 -11 377 -15 99 -60 190
-117 233 -76 58 -239 90 -372 74z m168 -683 c3 -86 3 -87 -29 -118 -102 -97
-279 -33 -255 93 13 72 100 118 216 114 l65 -2 3 -87z"/>
</g>
</svg>
