M48
; DRILL file {KiCad 7.0.1} date Сб 20 янв 2024 16:33:46
; FORMAT={-:-/ absolute / metric / decimal}
; #@! TF.CreationDate,2024-01-20T16:33:46+00:00
; #@! TF.GenerationSoftware,Kicad,Pcbnew,7.0.1
; #@! TF.FileFunction,Plated,1,2,PTH
FMAT,2
METRIC
; #@! TA.AperFunction,Plated,PTH,ViaDrill
T1C0.400
; #@! TA.AperFunction,Plated,PTH,ComponentDrill
T2C0.500
; #@! TA.AperFunction,Plated,PTH,ComponentDrill
T3C0.600
; #@! TA.AperFunction,Plated,PTH,ComponentDrill
T4C0.700
; #@! TA.AperFunction,Plated,PTH,ComponentDrill
T5C0.800
; #@! TA.AperFunction,Plated,PTH,ComponentDrill
T6C1.000
; #@! TA.AperFunction,Plated,PTH,ComponentDrill
T7C1.118
; #@! TA.AperFunction,Plated,PTH,ComponentDrill
T8C1.500
; #@! TA.AperFunction,Plated,PTH,ComponentDrill
T9C1.700
%
G90
G05
T1
X31.23Y-18.93
X31.23Y-66.29
X31.24Y-27.9
X31.24Y-58.97
X31.29Y-23.86
X31.29Y-62.5
X33.19Y-30.46
X33.19Y-32.59
X33.19Y-34.67
X33.19Y-48.72
X33.2Y-36.58
X33.2Y-38.71
X33.2Y-40.79
X33.2Y-42.55
X33.2Y-44.68
X33.2Y-46.76
X35.16Y-48.75
X35.53Y-30.46
X35.66Y-66.28
X36.45Y-18.85
X38.09Y-48.81
X38.19Y-30.46
X40.51Y-48.77
X40.67Y-30.45
X42.9Y-48.76
X42.91Y-30.45
X45.12Y-48.74
X45.15Y-30.47
X46.34Y-47.62
X47.05Y-18.84
X47.36Y-48.74
X47.41Y-47.655
X47.65Y-30.47
X48.41Y-47.615
X49.41Y-47.605
X49.81Y-30.46
X50.39Y-41.157
X50.42Y-47.615
X51.64Y-47.575
X52.01Y-30.47
X52.02Y-18.84
X52.05Y-43.065
X52.58Y-48.74
X54.11Y-30.44
X54.98Y-48.75
X55.81Y-30.46
X55.9Y-18.84
X57.48Y-30.47
X57.51Y-36.99
X57.52Y-35.0
X57.55Y-39.02
X57.55Y-41.43
X57.55Y-43.94
X57.55Y-46.5
X57.55Y-48.74
X61.11Y-40.68
X61.47Y-47.31
X61.73Y-49.21
X67.4Y-56.83
X68.61Y-18.86
X69.68Y-61.01
X70.93Y-18.85
X72.2Y-28.58
X73.29Y-28.58
X73.66Y-36.99
X73.69Y-38.25
X73.72Y-39.59
X75.03Y-36.429
X77.219Y-58.714
X77.54Y-60.57
X80.54Y-18.87
X84.8Y-18.86
X87.001Y-58.325
X87.265Y-28.69
X88.365Y-28.68
X89.559Y-38.627
X93.375Y-36.83
X95.27Y-18.86
X97.536Y-34.544
X97.68Y-36.068
X110.64Y-18.85
X110.87Y-66.26
X115.24Y-18.76
X115.25Y-27.91
X115.26Y-23.87
X115.26Y-62.48
X115.28Y-58.98
X115.28Y-66.27
T2
X38.08Y-41.04
X39.98Y-41.04
T3
X101.0Y-62.31
X101.067Y-35.55
X103.0Y-62.31
X103.067Y-35.55
X107.518Y-37.85
X109.518Y-37.85
T4
X36.33Y-34.45
X41.755Y-34.54
T5
X35.4Y-44.1
X35.43Y-46.47
X37.9Y-44.1
X37.93Y-46.47
X68.32Y-22.65
X68.32Y-27.73
X73.02Y-31.25
X75.02Y-31.25
X87.54Y-31.28
X89.54Y-31.28
X93.375Y-31.41
X95.375Y-31.41
X106.71Y-44.31
X106.71Y-52.71
X107.982Y-59.69
X109.982Y-59.69
X110.51Y-44.31
X110.51Y-52.71
T6
X49.92Y-21.42
X53.92Y-21.42
X64.04Y-54.15
X66.58Y-54.15
X69.12Y-54.15
X71.66Y-54.15
X74.2Y-54.15
X76.74Y-54.15
X79.28Y-54.15
X81.82Y-54.15
X84.36Y-54.15
X86.9Y-54.15
X89.44Y-54.15
X91.98Y-54.15
X114.21Y-45.74
X114.21Y-48.28
X114.21Y-50.82
T7
X95.44Y-38.88
X95.44Y-41.42
X95.44Y-43.96
X95.44Y-46.5
X95.44Y-49.04
X95.44Y-51.58
X95.44Y-54.12
X95.44Y-56.66
X95.44Y-59.2
X103.06Y-38.88
X103.06Y-41.42
X103.06Y-43.96
X103.06Y-46.5
X103.06Y-49.04
X103.06Y-51.58
X103.06Y-54.12
X103.06Y-56.66
X103.06Y-59.2
T8
X41.236Y-22.652
X62.176Y-22.622
T9
X38.696Y-20.112
X38.696Y-25.192
X43.776Y-20.112
X43.776Y-25.192
X59.636Y-20.082
X59.636Y-25.162
X64.716Y-20.082
X64.716Y-25.162
T0
M30
