%TF.GenerationSoftware,KiCad,Pcbnew,7.0.1*%
%TF.CreationDate,2024-02-20T22:54:35+00:00*%
%TF.ProjectId,SI4735,53493437-3335-42e6-9b69-6361645f7063,rev?*%
%TF.SameCoordinates,Original*%
%TF.FileFunction,Other,User*%
%FSLAX45Y45*%
G04 Gerber Fmt 4.5, Leading zero omitted, Abs format (unit mm)*
G04 Created by KiCad (PCBNEW 7.0.1) date 2024-02-20 22:54:35*
%MOMM*%
%LPD*%
G01*
G04 APERTURE LIST*
%ADD10C,0.050000*%
%TA.AperFunction,Profile*%
%ADD11C,0.100000*%
%TD*%
%TA.AperFunction,Profile*%
%ADD12C,0.050000*%
%TD*%
G04 APERTURE END LIST*
D10*
%TO.C,C24*%
X3438000Y-4542000D02*
X3898000Y-4542000D01*
X3438000Y-4752000D02*
X3438000Y-4542000D01*
X3898000Y-4542000D02*
X3898000Y-4752000D01*
X3898000Y-4752000D02*
X3438000Y-4752000D01*
%TO.C,J2*%
X10978417Y-3258500D02*
X10978417Y-1458500D01*
X10978417Y-1458500D02*
X9858417Y-1458500D01*
X9858417Y-3258500D02*
X10978417Y-3258500D01*
X9858417Y-1458500D02*
X9858417Y-3258500D01*
%TO.C,C14*%
X9913740Y-6001500D02*
X10143740Y-6001500D01*
X10143740Y-6001500D02*
X10143740Y-5541500D01*
X9913740Y-5541500D02*
X9913740Y-6001500D01*
X10143740Y-5541500D02*
X9913740Y-5541500D01*
%TO.C,L1*%
X7022000Y-2075000D02*
X7022000Y-2879000D01*
X6642000Y-2075000D02*
X7022000Y-2075000D01*
X7022000Y-2879000D02*
X6642000Y-2879000D01*
X6642000Y-2879000D02*
X6642000Y-2075000D01*
%TO.C,C8*%
X9129000Y-3128000D02*
G75*
G03*
X9129000Y-3128000I-275000J0D01*
G01*
%TO.C,C23*%
X5388000Y-4589000D02*
X5618000Y-4589000D01*
X5618000Y-4589000D02*
X5618000Y-4129000D01*
X5388000Y-4129000D02*
X5388000Y-4589000D01*
X5618000Y-4129000D02*
X5388000Y-4129000D01*
%TO.C,D10*%
X4698000Y-2356000D02*
X4698000Y-2580000D01*
X4698000Y-2580000D02*
X5154000Y-2580000D01*
X5154000Y-2356000D02*
X4698000Y-2356000D01*
X5154000Y-2580000D02*
X5154000Y-2356000D01*
%TO.C,J5*%
X6647574Y-1062210D02*
X6647574Y-2692210D01*
X6647574Y-1062210D02*
X5787574Y-1062210D01*
X5787574Y-2692210D02*
X6647574Y-2692210D01*
X5787574Y-2692210D02*
X5787574Y-1062210D01*
%TO.C,J7*%
X11601000Y-5259000D02*
X11601000Y-4394000D01*
X11601000Y-4394000D02*
X11246000Y-4394000D01*
X11246000Y-5259000D02*
X11601000Y-5259000D01*
X11246000Y-4394000D02*
X11246000Y-5259000D01*
%TO.C,U5*%
X6867945Y-6495375D02*
X6867945Y-5755375D01*
X7407945Y-6495375D02*
X6867945Y-6495375D01*
X6867945Y-5755375D02*
X7407945Y-5755375D01*
X7407945Y-5755375D02*
X7407945Y-6495375D01*
%TO.C,R24*%
X7538695Y-5230375D02*
X7538695Y-5006375D01*
X7538695Y-5006375D02*
X7082695Y-5006375D01*
X7082695Y-5230375D02*
X7538695Y-5230375D01*
X7082695Y-5006375D02*
X7082695Y-5230375D01*
%TO.C,C17*%
X11173200Y-5969000D02*
G75*
G03*
X11173200Y-5969000I-275000J0D01*
G01*
%TO.C,R22*%
X4407000Y-3648750D02*
X4631000Y-3648750D01*
X4631000Y-3648750D02*
X4631000Y-3192750D01*
X4407000Y-3192750D02*
X4407000Y-3648750D01*
X4631000Y-3192750D02*
X4407000Y-3192750D01*
%TO.C,C11*%
X5435000Y-3317000D02*
X5205000Y-3317000D01*
X5205000Y-3317000D02*
X5205000Y-3777000D01*
X5435000Y-3777000D02*
X5435000Y-3317000D01*
X5205000Y-3777000D02*
X5435000Y-3777000D01*
%TO.C,C20*%
X8631000Y-5758500D02*
X8401000Y-5758500D01*
X8401000Y-5758500D02*
X8401000Y-6254500D01*
X8631000Y-6254500D02*
X8631000Y-5758500D01*
X8401000Y-6254500D02*
X8631000Y-6254500D01*
%TO.C,C18*%
X10425000Y-6231000D02*
G75*
G03*
X10425000Y-6231000I-225000J0D01*
G01*
%TO.C,C12*%
X11286000Y-4431000D02*
G75*
G03*
X11286000Y-4431000I-425000J0D01*
G01*
%TO.C,C13*%
X11286000Y-5271000D02*
G75*
G03*
X11286000Y-5271000I-425000J0D01*
G01*
%TO.C,R26*%
X7538250Y-4991000D02*
X7538250Y-4767000D01*
X7538250Y-4767000D02*
X7082250Y-4767000D01*
X7082250Y-4991000D02*
X7538250Y-4991000D01*
X7082250Y-4767000D02*
X7082250Y-4991000D01*
%TO.C,C26*%
X3435000Y-4305000D02*
X3895000Y-4305000D01*
X3435000Y-4515000D02*
X3435000Y-4305000D01*
X3895000Y-4305000D02*
X3895000Y-4515000D01*
X3895000Y-4515000D02*
X3435000Y-4515000D01*
%TO.C,C7*%
X10431740Y-3555000D02*
G75*
G03*
X10431740Y-3555000I-225000J0D01*
G01*
%TO.C,C19*%
X7663000Y-5776750D02*
X7433000Y-5776750D01*
X7433000Y-5776750D02*
X7433000Y-6272750D01*
X7663000Y-6272750D02*
X7663000Y-5776750D01*
X7433000Y-6272750D02*
X7663000Y-6272750D01*
%TO.C,C6*%
X11076760Y-3785000D02*
G75*
G03*
X11076760Y-3785000I-225000J0D01*
G01*
%TO.C,C22*%
X4125000Y-4185500D02*
X4355000Y-4185500D01*
X4355000Y-4185500D02*
X4355000Y-3725500D01*
X4125000Y-3725500D02*
X4125000Y-4185500D01*
X4355000Y-3725500D02*
X4125000Y-3725500D01*
%TO.C,C9*%
X7677000Y-3125000D02*
G75*
G03*
X7677000Y-3125000I-275000J0D01*
G01*
%TO.C,C10*%
X5194000Y-3323000D02*
X4964000Y-3323000D01*
X4964000Y-3323000D02*
X4964000Y-3783000D01*
X5194000Y-3783000D02*
X5194000Y-3323000D01*
X4964000Y-3783000D02*
X5194000Y-3783000D01*
%TO.C,R25*%
X8008195Y-5231000D02*
X8008195Y-5007000D01*
X8008195Y-5007000D02*
X7552195Y-5007000D01*
X7552195Y-5231000D02*
X8008195Y-5231000D01*
X7552195Y-5007000D02*
X7552195Y-5231000D01*
%TO.C,D9*%
X5697000Y-2582000D02*
X5697000Y-2358000D01*
X5697000Y-2358000D02*
X5241000Y-2358000D01*
X5241000Y-2582000D02*
X5697000Y-2582000D01*
X5241000Y-2358000D02*
X5241000Y-2582000D01*
%TO.C,U6*%
X7836625Y-6497000D02*
X7836625Y-5757000D01*
X8376625Y-6497000D02*
X7836625Y-6497000D01*
X7836625Y-5757000D02*
X8376625Y-5757000D01*
X8376625Y-5757000D02*
X8376625Y-6497000D01*
%TO.C,D8*%
X5152000Y-2809000D02*
X5152000Y-2585000D01*
X5152000Y-2585000D02*
X4696000Y-2585000D01*
X4696000Y-2809000D02*
X5152000Y-2809000D01*
X4696000Y-2585000D02*
X4696000Y-2809000D01*
%TO.C,L2*%
X5541000Y-2142000D02*
G75*
G03*
X5541000Y-2142000I-349000J0D01*
G01*
%TO.C,U7*%
X5348250Y-3883597D02*
X5348250Y-4573597D01*
X4418250Y-3883597D02*
X5348250Y-3883597D01*
X4418250Y-3883597D02*
X4418250Y-4573597D01*
X4418250Y-4573597D02*
X5348250Y-4573597D01*
%TO.C,R23*%
X8008250Y-4990000D02*
X8008250Y-4766000D01*
X8008250Y-4766000D02*
X7552250Y-4766000D01*
X7552250Y-4990000D02*
X8008250Y-4990000D01*
X7552250Y-4766000D02*
X7552250Y-4990000D01*
%TO.C,C5*%
X9712520Y-3140989D02*
G75*
G03*
X9712520Y-3140989I-275000J0D01*
G01*
%TO.C,Y1*%
X3678000Y-2974000D02*
X4128000Y-2974000D01*
X3678000Y-4184000D02*
X3678000Y-2974000D01*
X4128000Y-2974000D02*
X4128000Y-4184000D01*
X4128000Y-4184000D02*
X3678000Y-4184000D01*
%TO.C,C21*%
X3949500Y-4438000D02*
X3949500Y-4668000D01*
X3949500Y-4668000D02*
X4409500Y-4668000D01*
X4409500Y-4438000D02*
X3949500Y-4438000D01*
X4409500Y-4668000D02*
X4409500Y-4438000D01*
%TO.C,C25*%
X3447000Y-4185000D02*
X3677000Y-4185000D01*
X3677000Y-4185000D02*
X3677000Y-3725000D01*
X3447000Y-3725000D02*
X3447000Y-4185000D01*
X3677000Y-3725000D02*
X3447000Y-3725000D01*
%TO.C,C16*%
X10149740Y-3805500D02*
X9919740Y-3805500D01*
X9919740Y-3805500D02*
X9919740Y-4265500D01*
X10149740Y-4265500D02*
X10149740Y-3805500D01*
X9919740Y-4265500D02*
X10149740Y-4265500D01*
%TO.C,C15*%
X10152000Y-4311500D02*
X9922000Y-4311500D01*
X9922000Y-4311500D02*
X9922000Y-4771500D01*
X10152000Y-4771500D02*
X10152000Y-4311500D01*
X9922000Y-4771500D02*
X10152000Y-4771500D01*
%TO.C,R21*%
X4634000Y-3648750D02*
X4858000Y-3648750D01*
X4858000Y-3648750D02*
X4858000Y-3192750D01*
X4634000Y-3192750D02*
X4634000Y-3648750D01*
X4858000Y-3192750D02*
X4634000Y-3192750D01*
%TO.C,J6*%
X3748000Y-3265000D02*
X3518000Y-3265000D01*
X3518000Y-3265000D02*
X3518000Y-3620000D01*
X3748000Y-3620000D02*
X3748000Y-3265000D01*
X3518000Y-3620000D02*
X3748000Y-3620000D01*
%TO.C,J4*%
X4290500Y-3274000D02*
X4060500Y-3274000D01*
X4060500Y-3274000D02*
X4060500Y-3629000D01*
X4290500Y-3629000D02*
X4290500Y-3274000D01*
X4060500Y-3629000D02*
X4290500Y-3629000D01*
%TO.C,D7*%
X5243000Y-2589000D02*
X5243000Y-2813000D01*
X5243000Y-2813000D02*
X5699000Y-2813000D01*
X5699000Y-2589000D02*
X5243000Y-2589000D01*
X5699000Y-2813000D02*
X5699000Y-2589000D01*
%TO.C,J3*%
X4553574Y-1065210D02*
X4553574Y-2695210D01*
X4553574Y-1065210D02*
X3693574Y-1065210D01*
X3693574Y-2695210D02*
X4553574Y-2695210D01*
X3693574Y-2695210D02*
X3693574Y-1065210D01*
%TD*%
D11*
X3555840Y-2268000D02*
G75*
G03*
X3555840Y-2268000I-154840J0D01*
G01*
D12*
X3060000Y-1815000D02*
X11602000Y-1815000D01*
X11602000Y-6713000D01*
X3060000Y-6713000D01*
X3060000Y-1815000D01*
D11*
X11459840Y-6259000D02*
G75*
G03*
X11459840Y-6259000I-154840J0D01*
G01*
X11453840Y-2268000D02*
G75*
G03*
X11453840Y-2268000I-154840J0D01*
G01*
X3567840Y-6261000D02*
G75*
G03*
X3567840Y-6261000I-154840J0D01*
G01*
%TO.C,J5*%
X5787574Y-1812210D02*
X6647574Y-1812210D01*
%TO.C,J3*%
X3693574Y-1815210D02*
X4553574Y-1815210D01*
%TD*%
M02*
