%TF.GenerationSoftware,KiCad,Pcbnew,7.0.1*%
%TF.CreationDate,2024-02-20T22:54:35+00:00*%
%TF.ProjectId,SI4735,53493437-3335-42e6-9b69-6361645f7063,rev?*%
%TF.SameCoordinates,Original*%
%TF.FileFunction,Soldermask,Bot*%
%TF.FilePolarity,Negative*%
%FSLAX45Y45*%
G04 Gerber Fmt 4.5, Leading zero omitted, Abs format (unit mm)*
G04 Created by KiCad (PCBNEW 7.0.1) date 2024-02-20 22:54:35*
%MOMM*%
%LPD*%
G01*
G04 APERTURE LIST*
G04 Aperture macros list*
%AMRoundRect*
0 Rectangle with rounded corners*
0 $1 Rounding radius*
0 $2 $3 $4 $5 $6 $7 $8 $9 X,Y pos of 4 corners*
0 Add a 4 corners polygon primitive as box body*
4,1,4,$2,$3,$4,$5,$6,$7,$8,$9,$2,$3,0*
0 Add four circle primitives for the rounded corners*
1,1,$1+$1,$2,$3*
1,1,$1+$1,$4,$5*
1,1,$1+$1,$6,$7*
1,1,$1+$1,$8,$9*
0 Add four rect primitives between the rounded corners*
20,1,$1+$1,$2,$3,$4,$5,0*
20,1,$1+$1,$4,$5,$6,$7,0*
20,1,$1+$1,$6,$7,$8,$9,0*
20,1,$1+$1,$8,$9,$2,$3,0*%
G04 Aperture macros list end*
%ADD10C,0.100000*%
%ADD11C,1.970668*%
%ADD12C,0.200000*%
%ADD13R,1.700000X1.700000*%
%ADD14O,1.700000X1.700000*%
%ADD15R,1.676400X1.676400*%
%ADD16C,2.076400*%
%ADD17C,1.676400*%
%ADD18C,1.600000*%
%ADD19C,1.700000*%
%ADD20R,2.800000X2.200000*%
%ADD21R,2.800000X2.800000*%
%ADD22RoundRect,0.250000X0.650000X-0.325000X0.650000X0.325000X-0.650000X0.325000X-0.650000X-0.325000X0*%
%ADD23O,1.600000X1.600000*%
%ADD24R,1.600000X1.600000*%
%ADD25RoundRect,0.250000X-0.375000X-0.625000X0.375000X-0.625000X0.375000X0.625000X-0.375000X0.625000X0*%
%ADD26RoundRect,0.200100X0.949900X0.949900X-0.949900X0.949900X-0.949900X-0.949900X0.949900X-0.949900X0*%
%ADD27C,2.500000*%
%ADD28RoundRect,0.150000X0.150000X-0.825000X0.150000X0.825000X-0.150000X0.825000X-0.150000X-0.825000X0*%
%ADD29RoundRect,0.250000X0.312500X0.625000X-0.312500X0.625000X-0.312500X-0.625000X0.312500X-0.625000X0*%
%ADD30RoundRect,0.250000X0.625000X-0.312500X0.625000X0.312500X-0.625000X0.312500X-0.625000X-0.312500X0*%
%ADD31RoundRect,0.250000X-0.650000X0.325000X-0.650000X-0.325000X0.650000X-0.325000X0.650000X0.325000X0*%
%ADD32RoundRect,0.250000X-0.650000X0.412500X-0.650000X-0.412500X0.650000X-0.412500X0.650000X0.412500X0*%
%ADD33R,1.200000X1.200000*%
%ADD34C,1.200000*%
%ADD35RoundRect,0.250000X0.375000X0.625000X-0.375000X0.625000X-0.375000X-0.625000X0.375000X-0.625000X0*%
%ADD36C,2.000000*%
%ADD37R,0.400000X1.200000*%
%ADD38C,1.000000*%
%ADD39RoundRect,0.250000X-0.325000X-0.650000X0.325000X-0.650000X0.325000X0.650000X-0.325000X0.650000X0*%
%ADD40R,1.000000X1.000000*%
%TA.AperFunction,Profile*%
%ADD41C,0.100000*%
%TD*%
%TA.AperFunction,Profile*%
%ADD42C,0.050000*%
%TD*%
G04 APERTURE END LIST*
D10*
X5367000Y-2854000D02*
X5947000Y-2854000D01*
X5947000Y-3002000D01*
X5367000Y-3002000D01*
X5367000Y-2854000D01*
G36*
X5367000Y-2854000D02*
G01*
X5947000Y-2854000D01*
X5947000Y-3002000D01*
X5367000Y-3002000D01*
X5367000Y-2854000D01*
G37*
X3730000Y-3157500D02*
X4073000Y-3157500D01*
X4073000Y-3889500D01*
X3730000Y-3889500D01*
X3730000Y-3157500D01*
G36*
X3730000Y-3157500D02*
G01*
X4073000Y-3157500D01*
X4073000Y-3889500D01*
X3730000Y-3889500D01*
X3730000Y-3157500D01*
G37*
X5129000Y-2853000D02*
X5267000Y-2853000D01*
X5267000Y-3001000D01*
X5129000Y-3001000D01*
X5129000Y-2853000D01*
G36*
X5129000Y-2853000D02*
G01*
X5267000Y-2853000D01*
X5267000Y-3001000D01*
X5129000Y-3001000D01*
X5129000Y-2853000D01*
G37*
X3766500Y-4921500D02*
X5003500Y-4921500D01*
X5003500Y-5069500D01*
X3766500Y-5069500D01*
X3766500Y-4921500D01*
G36*
X3766500Y-4921500D02*
G01*
X5003500Y-4921500D01*
X5003500Y-5069500D01*
X3766500Y-5069500D01*
X3766500Y-4921500D01*
G37*
X3124000Y-4922000D02*
X3765000Y-4922000D01*
X3765000Y-5070000D01*
X3124000Y-5070000D01*
X3124000Y-4922000D01*
G36*
X3124000Y-4922000D02*
G01*
X3765000Y-4922000D01*
X3765000Y-5070000D01*
X3124000Y-5070000D01*
X3124000Y-4922000D01*
G37*
X5798500Y-2870230D02*
X5946500Y-2870230D01*
X5946500Y-5070770D01*
X5798500Y-5070770D01*
X5798500Y-2870230D01*
G36*
X5798500Y-2870230D02*
G01*
X5946500Y-2870230D01*
X5946500Y-5070770D01*
X5798500Y-5070770D01*
X5798500Y-2870230D01*
G37*
X3124500Y-2853000D02*
X5023500Y-2853000D01*
X5023500Y-3001000D01*
X3124500Y-3001000D01*
X3124500Y-2853000D01*
G36*
X3124500Y-2853000D02*
G01*
X5023500Y-2853000D01*
X5023500Y-3001000D01*
X3124500Y-3001000D01*
X3124500Y-2853000D01*
G37*
X3123000Y-2852230D02*
X3271000Y-2852230D01*
X3271000Y-5067770D01*
X3123000Y-5067770D01*
X3123000Y-2852230D01*
G36*
X3123000Y-2852230D02*
G01*
X3271000Y-2852230D01*
X3271000Y-5067770D01*
X3123000Y-5067770D01*
X3123000Y-2852230D01*
G37*
D11*
X3509533Y-6266000D02*
G75*
G03*
X3509533Y-6266000I-98533J0D01*
G01*
X11404533Y-6262933D02*
G75*
G03*
X11404533Y-6262933I-98533J0D01*
G01*
D12*
X10646500Y-1852000D02*
X10935500Y-1852000D01*
X10935500Y-2257000D01*
X10646500Y-2257000D01*
X10646500Y-1852000D01*
G36*
X10646500Y-1852000D02*
G01*
X10935500Y-1852000D01*
X10935500Y-2257000D01*
X10646500Y-2257000D01*
X10646500Y-1852000D01*
G37*
D11*
X3500533Y-2269933D02*
G75*
G03*
X3500533Y-2269933I-98533J0D01*
G01*
X11393533Y-2270933D02*
G75*
G03*
X11393533Y-2270933I-98533J0D01*
G01*
D10*
X5204000Y-4922000D02*
X5947000Y-4922000D01*
X5947000Y-5070000D01*
X5204000Y-5070000D01*
X5204000Y-4922000D01*
G36*
X5204000Y-4922000D02*
G01*
X5947000Y-4922000D01*
X5947000Y-5070000D01*
X5204000Y-5070000D01*
X5204000Y-4922000D01*
G37*
D13*
%TO.C,J1*%
X9198000Y-5415000D03*
D14*
X8944000Y-5415000D03*
X8690000Y-5415000D03*
X8436000Y-5415000D03*
X8182000Y-5415000D03*
X7928000Y-5415000D03*
X7674000Y-5415000D03*
X7420000Y-5415000D03*
X7166000Y-5415000D03*
X6912000Y-5415000D03*
X6658000Y-5415000D03*
X6404000Y-5415000D03*
%TD*%
D15*
%TO.C,U4*%
X10306000Y-5920000D03*
D16*
X10306000Y-5666000D03*
D17*
X10306000Y-5412000D03*
X10306000Y-5158000D03*
D16*
X10306000Y-4904000D03*
D17*
X10306000Y-4650000D03*
X10306000Y-4396000D03*
X10306000Y-4142000D03*
X10306000Y-3888000D03*
D16*
X9544000Y-3888000D03*
X9544000Y-4142000D03*
X9544000Y-4396000D03*
X9544000Y-4650000D03*
X9544000Y-4904000D03*
X9544000Y-5158000D03*
X9544000Y-5412000D03*
X9544000Y-5666000D03*
X9544000Y-5920000D03*
%TD*%
D18*
%TO.C,C24*%
X3543000Y-4647000D03*
X3793000Y-4647000D03*
%TD*%
D19*
%TO.C,J2*%
X10418417Y-2808500D03*
X10418417Y-2108500D03*
D20*
X10048417Y-2198500D03*
X10788417Y-1998500D03*
D21*
X10788417Y-2938500D03*
%TD*%
D22*
%TO.C,C14*%
X10028740Y-5919000D03*
X10028740Y-5624000D03*
%TD*%
D18*
%TO.C,L1*%
X6832000Y-2265000D03*
D23*
X6832000Y-2773000D03*
%TD*%
D24*
%TO.C,C8*%
X8954000Y-3128000D03*
D18*
X8754000Y-3128000D03*
%TD*%
D22*
%TO.C,C23*%
X5503000Y-4506500D03*
X5503000Y-4211500D03*
%TD*%
D25*
%TO.C,D10*%
X4786000Y-2468000D03*
X5066000Y-2468000D03*
%TD*%
D26*
%TO.C,J5*%
X6217574Y-2262210D03*
D27*
X6471574Y-2516210D03*
X6471574Y-2008210D03*
X5963574Y-2516210D03*
X5963574Y-2008210D03*
%TD*%
D13*
%TO.C,J7*%
X11421000Y-4574000D03*
D14*
X11421000Y-4828000D03*
X11421000Y-5082000D03*
%TD*%
D28*
%TO.C,U5*%
X7328445Y-6372875D03*
X7201445Y-6372875D03*
X7074445Y-6372875D03*
X6947445Y-6372875D03*
X6947445Y-5877875D03*
X7074445Y-5877875D03*
X7201445Y-5877875D03*
X7328445Y-5877875D03*
%TD*%
D29*
%TO.C,R24*%
X7456945Y-5118375D03*
X7164445Y-5118375D03*
%TD*%
D24*
%TO.C,C17*%
X10798200Y-5969000D03*
D18*
X10998200Y-5969000D03*
%TD*%
D30*
%TO.C,R22*%
X4519000Y-3567000D03*
X4519000Y-3274500D03*
%TD*%
D31*
%TO.C,C11*%
X5320000Y-3399500D03*
X5320000Y-3694500D03*
%TD*%
D32*
%TO.C,C20*%
X8516000Y-5850250D03*
X8516000Y-6162750D03*
%TD*%
D33*
%TO.C,C18*%
X10300000Y-6231000D03*
D34*
X10100000Y-6231000D03*
%TD*%
D24*
%TO.C,C12*%
X10671000Y-4431000D03*
D18*
X11051000Y-4431000D03*
%TD*%
D24*
%TO.C,C13*%
X10671000Y-5271000D03*
D18*
X11051000Y-5271000D03*
%TD*%
D29*
%TO.C,R26*%
X7456500Y-4879000D03*
X7164000Y-4879000D03*
%TD*%
D18*
%TO.C,C26*%
X3540000Y-4410000D03*
X3790000Y-4410000D03*
%TD*%
D33*
%TO.C,C7*%
X10306740Y-3555000D03*
D34*
X10106740Y-3555000D03*
%TD*%
D32*
%TO.C,C19*%
X7548000Y-5868500D03*
X7548000Y-6181000D03*
%TD*%
D33*
%TO.C,C6*%
X10751760Y-3785000D03*
D34*
X10951760Y-3785000D03*
%TD*%
D22*
%TO.C,C22*%
X4240000Y-4103000D03*
X4240000Y-3808000D03*
%TD*%
D24*
%TO.C,C9*%
X7502000Y-3125000D03*
D18*
X7302000Y-3125000D03*
%TD*%
D31*
%TO.C,C10*%
X5079000Y-3405500D03*
X5079000Y-3700500D03*
%TD*%
D29*
%TO.C,R25*%
X7926445Y-5119000D03*
X7633945Y-5119000D03*
%TD*%
D35*
%TO.C,D9*%
X5609000Y-2470000D03*
X5329000Y-2470000D03*
%TD*%
D28*
%TO.C,U6*%
X8297125Y-6374500D03*
X8170125Y-6374500D03*
X8043125Y-6374500D03*
X7916125Y-6374500D03*
X7916125Y-5879500D03*
X8043125Y-5879500D03*
X8170125Y-5879500D03*
X8297125Y-5879500D03*
%TD*%
D35*
%TO.C,D8*%
X5064000Y-2697000D03*
X4784000Y-2697000D03*
%TD*%
D36*
%TO.C,L2*%
X4992000Y-2142000D03*
X5392000Y-2142000D03*
%TD*%
D37*
%TO.C,U7*%
X4534000Y-3968597D03*
X4597500Y-3968597D03*
X4661000Y-3968597D03*
X4724500Y-3968597D03*
X4788000Y-3968597D03*
X4851500Y-3968597D03*
X4915000Y-3968597D03*
X4978500Y-3968597D03*
X5042000Y-3968597D03*
X5105500Y-3968597D03*
X5169000Y-3968597D03*
X5232500Y-3968597D03*
X5232500Y-4488597D03*
X5169000Y-4488597D03*
X5105500Y-4488597D03*
X5042000Y-4488597D03*
X4978500Y-4488597D03*
X4915000Y-4488597D03*
X4851500Y-4488597D03*
X4788000Y-4488597D03*
X4724500Y-4488597D03*
X4661000Y-4488597D03*
X4597500Y-4488597D03*
X4534000Y-4488597D03*
%TD*%
D29*
%TO.C,R23*%
X7926500Y-4878000D03*
X7634000Y-4878000D03*
%TD*%
D24*
%TO.C,C5*%
X9337520Y-3140989D03*
D18*
X9537520Y-3140989D03*
%TD*%
D38*
%TO.C,Y1*%
X3808000Y-4104000D03*
X3998000Y-4104000D03*
%TD*%
D39*
%TO.C,C21*%
X4032000Y-4553000D03*
X4327000Y-4553000D03*
%TD*%
D22*
%TO.C,C25*%
X3562000Y-4102500D03*
X3562000Y-3807500D03*
%TD*%
D31*
%TO.C,C16*%
X10034740Y-3888000D03*
X10034740Y-4183000D03*
%TD*%
%TO.C,C15*%
X10037000Y-4394000D03*
X10037000Y-4689000D03*
%TD*%
D30*
%TO.C,R21*%
X4746000Y-3567000D03*
X4746000Y-3274500D03*
%TD*%
D40*
%TO.C,J6*%
X3633000Y-3445000D03*
%TD*%
%TO.C,J4*%
X4175500Y-3454000D03*
%TD*%
D25*
%TO.C,D7*%
X5331000Y-2701000D03*
X5611000Y-2701000D03*
%TD*%
D26*
%TO.C,J3*%
X4123574Y-2265210D03*
D27*
X4377574Y-2519210D03*
X4377574Y-2011210D03*
X3869574Y-2519210D03*
X3869574Y-2011210D03*
%TD*%
G36*
X10184181Y-2040738D02*
G01*
X10188728Y-2045284D01*
X10190387Y-2051496D01*
X10189933Y-2404095D01*
X10188262Y-2410294D01*
X10183716Y-2414827D01*
X10177511Y-2416479D01*
X9909295Y-2416021D01*
X9903104Y-2414353D01*
X9898574Y-2409815D01*
X9896917Y-2403621D01*
X9896917Y-2051881D01*
X9898575Y-2045687D01*
X9903106Y-2041149D01*
X9909298Y-2039481D01*
X10177968Y-2039080D01*
X10184181Y-2040738D01*
G37*
G36*
X10942800Y-2685661D02*
G01*
X10947339Y-2690200D01*
X10949000Y-2696400D01*
X10949000Y-3098600D01*
X10947339Y-3104800D01*
X10942800Y-3109339D01*
X10936600Y-3111000D01*
X10639400Y-3111000D01*
X10633200Y-3109339D01*
X10628661Y-3104800D01*
X10627000Y-3098600D01*
X10627000Y-2696400D01*
X10628661Y-2690200D01*
X10633200Y-2685661D01*
X10639400Y-2684000D01*
X10936600Y-2684000D01*
X10942800Y-2685661D01*
G37*
D41*
X3555840Y-2268000D02*
G75*
G03*
X3555840Y-2268000I-154840J0D01*
G01*
D42*
X3060000Y-1815000D02*
X11602000Y-1815000D01*
X11602000Y-6713000D01*
X3060000Y-6713000D01*
X3060000Y-1815000D01*
D41*
X11459840Y-6259000D02*
G75*
G03*
X11459840Y-6259000I-154840J0D01*
G01*
X11453840Y-2268000D02*
G75*
G03*
X11453840Y-2268000I-154840J0D01*
G01*
X3567840Y-6261000D02*
G75*
G03*
X3567840Y-6261000I-154840J0D01*
G01*
%TO.C,J5*%
X5787574Y-1812210D02*
X6647574Y-1812210D01*
%TO.C,J3*%
X3693574Y-1815210D02*
X4553574Y-1815210D01*
%TD*%
M02*
