%TF.GenerationSoftware,KiCad,Pcbnew,7.0.1*%
%TF.CreationDate,2024-02-20T22:54:35+00:00*%
%TF.ProjectId,SI4735,53493437-3335-42e6-9b69-6361645f7063,rev?*%
%TF.SameCoordinates,Original*%
%TF.FileFunction,Paste,Bot*%
%TF.FilePolarity,Positive*%
%FSLAX45Y45*%
G04 Gerber Fmt 4.5, Leading zero omitted, Abs format (unit mm)*
G04 Created by KiCad (PCBNEW 7.0.1) date 2024-02-20 22:54:35*
%MOMM*%
%LPD*%
G01*
G04 APERTURE LIST*
G04 Aperture macros list*
%AMRoundRect*
0 Rectangle with rounded corners*
0 $1 Rounding radius*
0 $2 $3 $4 $5 $6 $7 $8 $9 X,Y pos of 4 corners*
0 Add a 4 corners polygon primitive as box body*
4,1,4,$2,$3,$4,$5,$6,$7,$8,$9,$2,$3,0*
0 Add four circle primitives for the rounded corners*
1,1,$1+$1,$2,$3*
1,1,$1+$1,$4,$5*
1,1,$1+$1,$6,$7*
1,1,$1+$1,$8,$9*
0 Add four rect primitives between the rounded corners*
20,1,$1+$1,$2,$3,$4,$5,0*
20,1,$1+$1,$4,$5,$6,$7,0*
20,1,$1+$1,$6,$7,$8,$9,0*
20,1,$1+$1,$8,$9,$2,$3,0*%
G04 Aperture macros list end*
%ADD10R,2.800000X2.200000*%
%ADD11R,2.800000X2.800000*%
%ADD12RoundRect,0.250000X0.650000X-0.325000X0.650000X0.325000X-0.650000X0.325000X-0.650000X-0.325000X0*%
%ADD13RoundRect,0.250000X-0.375000X-0.625000X0.375000X-0.625000X0.375000X0.625000X-0.375000X0.625000X0*%
%ADD14RoundRect,0.150000X0.150000X-0.825000X0.150000X0.825000X-0.150000X0.825000X-0.150000X-0.825000X0*%
%ADD15RoundRect,0.250000X0.312500X0.625000X-0.312500X0.625000X-0.312500X-0.625000X0.312500X-0.625000X0*%
%ADD16RoundRect,0.250000X0.625000X-0.312500X0.625000X0.312500X-0.625000X0.312500X-0.625000X-0.312500X0*%
%ADD17RoundRect,0.250000X-0.650000X0.325000X-0.650000X-0.325000X0.650000X-0.325000X0.650000X0.325000X0*%
%ADD18RoundRect,0.250000X-0.650000X0.412500X-0.650000X-0.412500X0.650000X-0.412500X0.650000X0.412500X0*%
%ADD19RoundRect,0.250000X0.375000X0.625000X-0.375000X0.625000X-0.375000X-0.625000X0.375000X-0.625000X0*%
%ADD20R,0.400000X1.200000*%
%ADD21RoundRect,0.250000X-0.325000X-0.650000X0.325000X-0.650000X0.325000X0.650000X-0.325000X0.650000X0*%
%TA.AperFunction,Profile*%
%ADD22C,0.100000*%
%TD*%
%TA.AperFunction,Profile*%
%ADD23C,0.050000*%
%TD*%
G04 APERTURE END LIST*
D10*
%TO.C,J2*%
X10048417Y-2198500D03*
X10788417Y-1998500D03*
D11*
X10788417Y-2938500D03*
%TD*%
D12*
%TO.C,C14*%
X10028740Y-5919000D03*
X10028740Y-5624000D03*
%TD*%
%TO.C,C23*%
X5503000Y-4506500D03*
X5503000Y-4211500D03*
%TD*%
D13*
%TO.C,D10*%
X4786000Y-2468000D03*
X5066000Y-2468000D03*
%TD*%
D14*
%TO.C,U5*%
X7328445Y-6372875D03*
X7201445Y-6372875D03*
X7074445Y-6372875D03*
X6947445Y-6372875D03*
X6947445Y-5877875D03*
X7074445Y-5877875D03*
X7201445Y-5877875D03*
X7328445Y-5877875D03*
%TD*%
D15*
%TO.C,R24*%
X7456945Y-5118375D03*
X7164445Y-5118375D03*
%TD*%
D16*
%TO.C,R22*%
X4519000Y-3567000D03*
X4519000Y-3274500D03*
%TD*%
D17*
%TO.C,C11*%
X5320000Y-3399500D03*
X5320000Y-3694500D03*
%TD*%
D18*
%TO.C,C20*%
X8516000Y-5850250D03*
X8516000Y-6162750D03*
%TD*%
D15*
%TO.C,R26*%
X7456500Y-4879000D03*
X7164000Y-4879000D03*
%TD*%
D18*
%TO.C,C19*%
X7548000Y-5868500D03*
X7548000Y-6181000D03*
%TD*%
D12*
%TO.C,C22*%
X4240000Y-4103000D03*
X4240000Y-3808000D03*
%TD*%
D17*
%TO.C,C10*%
X5079000Y-3405500D03*
X5079000Y-3700500D03*
%TD*%
D15*
%TO.C,R25*%
X7926445Y-5119000D03*
X7633945Y-5119000D03*
%TD*%
D19*
%TO.C,D9*%
X5609000Y-2470000D03*
X5329000Y-2470000D03*
%TD*%
D14*
%TO.C,U6*%
X8297125Y-6374500D03*
X8170125Y-6374500D03*
X8043125Y-6374500D03*
X7916125Y-6374500D03*
X7916125Y-5879500D03*
X8043125Y-5879500D03*
X8170125Y-5879500D03*
X8297125Y-5879500D03*
%TD*%
D19*
%TO.C,D8*%
X5064000Y-2697000D03*
X4784000Y-2697000D03*
%TD*%
D20*
%TO.C,U7*%
X4534000Y-3968597D03*
X4597500Y-3968597D03*
X4661000Y-3968597D03*
X4724500Y-3968597D03*
X4788000Y-3968597D03*
X4851500Y-3968597D03*
X4915000Y-3968597D03*
X4978500Y-3968597D03*
X5042000Y-3968597D03*
X5105500Y-3968597D03*
X5169000Y-3968597D03*
X5232500Y-3968597D03*
X5232500Y-4488597D03*
X5169000Y-4488597D03*
X5105500Y-4488597D03*
X5042000Y-4488597D03*
X4978500Y-4488597D03*
X4915000Y-4488597D03*
X4851500Y-4488597D03*
X4788000Y-4488597D03*
X4724500Y-4488597D03*
X4661000Y-4488597D03*
X4597500Y-4488597D03*
X4534000Y-4488597D03*
%TD*%
D15*
%TO.C,R23*%
X7926500Y-4878000D03*
X7634000Y-4878000D03*
%TD*%
D21*
%TO.C,C21*%
X4032000Y-4553000D03*
X4327000Y-4553000D03*
%TD*%
D12*
%TO.C,C25*%
X3562000Y-4102500D03*
X3562000Y-3807500D03*
%TD*%
D17*
%TO.C,C16*%
X10034740Y-3888000D03*
X10034740Y-4183000D03*
%TD*%
%TO.C,C15*%
X10037000Y-4394000D03*
X10037000Y-4689000D03*
%TD*%
D16*
%TO.C,R21*%
X4746000Y-3567000D03*
X4746000Y-3274500D03*
%TD*%
D13*
%TO.C,D7*%
X5331000Y-2701000D03*
X5611000Y-2701000D03*
%TD*%
D22*
X3555840Y-2268000D02*
G75*
G03*
X3555840Y-2268000I-154840J0D01*
G01*
D23*
X3060000Y-1815000D02*
X11602000Y-1815000D01*
X11602000Y-6713000D01*
X3060000Y-6713000D01*
X3060000Y-1815000D01*
D22*
X11459840Y-6259000D02*
G75*
G03*
X11459840Y-6259000I-154840J0D01*
G01*
X11453840Y-2268000D02*
G75*
G03*
X11453840Y-2268000I-154840J0D01*
G01*
X3567840Y-6261000D02*
G75*
G03*
X3567840Y-6261000I-154840J0D01*
G01*
%TO.C,J5*%
X5787574Y-1812210D02*
X6647574Y-1812210D01*
%TO.C,J3*%
X3693574Y-1815210D02*
X4553574Y-1815210D01*
%TD*%
M02*
