%TF.GenerationSoftware,KiCad,Pcbnew,7.0.1*%
%TF.CreationDate,2024-02-20T22:54:35+00:00*%
%TF.ProjectId,SI4735,53493437-3335-42e6-9b69-6361645f7063,rev?*%
%TF.SameCoordinates,Original*%
%TF.FileFunction,AssemblyDrawing,Top*%
%FSLAX45Y45*%
G04 Gerber Fmt 4.5, Leading zero omitted, Abs format (unit mm)*
G04 Created by KiCad (PCBNEW 7.0.1) date 2024-02-20 22:54:35*
%MOMM*%
%LPD*%
G01*
G04 APERTURE LIST*
%ADD10C,0.150000*%
%ADD11C,0.120000*%
%ADD12C,0.050000*%
%ADD13C,0.100000*%
%ADD14C,0.127000*%
%ADD15C,0.200000*%
%ADD16C,0.100000*%
%TD*%
%TA.AperFunction,Profile*%
%ADD17C,0.100000*%
%TD*%
%TA.AperFunction,Profile*%
%ADD18C,0.050000*%
%TD*%
G04 APERTURE END LIST*
D10*
%TO.C,C1*%
X4371226Y-4436262D02*
X4314083Y-4436262D01*
X4342655Y-4436262D02*
X4342655Y-4336262D01*
X4342655Y-4336262D02*
X4333131Y-4350548D01*
X4333131Y-4350548D02*
X4323607Y-4360071D01*
X4323607Y-4360071D02*
X4314083Y-4364833D01*
X4456940Y-4369595D02*
X4456940Y-4436262D01*
X4414083Y-4369595D02*
X4414083Y-4421976D01*
X4414083Y-4421976D02*
X4418845Y-4431500D01*
X4418845Y-4431500D02*
X4428369Y-4436262D01*
X4428369Y-4436262D02*
X4442655Y-4436262D01*
X4442655Y-4436262D02*
X4452179Y-4431500D01*
X4452179Y-4431500D02*
X4456940Y-4426738D01*
X4537893Y-4383881D02*
X4504560Y-4383881D01*
X4504560Y-4436262D02*
X4504560Y-4336262D01*
X4504560Y-4336262D02*
X4552179Y-4336262D01*
D11*
X4417417Y-4604390D02*
X4413607Y-4608200D01*
X4413607Y-4608200D02*
X4402179Y-4612010D01*
X4402179Y-4612010D02*
X4394560Y-4612010D01*
X4394560Y-4612010D02*
X4383131Y-4608200D01*
X4383131Y-4608200D02*
X4375512Y-4600581D01*
X4375512Y-4600581D02*
X4371702Y-4592962D01*
X4371702Y-4592962D02*
X4367893Y-4577724D01*
X4367893Y-4577724D02*
X4367893Y-4566295D01*
X4367893Y-4566295D02*
X4371702Y-4551057D01*
X4371702Y-4551057D02*
X4375512Y-4543438D01*
X4375512Y-4543438D02*
X4383131Y-4535819D01*
X4383131Y-4535819D02*
X4394560Y-4532010D01*
X4394560Y-4532010D02*
X4402179Y-4532010D01*
X4402179Y-4532010D02*
X4413607Y-4535819D01*
X4413607Y-4535819D02*
X4417417Y-4539629D01*
X4493607Y-4612010D02*
X4447893Y-4612010D01*
X4470750Y-4612010D02*
X4470750Y-4532010D01*
X4470750Y-4532010D02*
X4463131Y-4543438D01*
X4463131Y-4543438D02*
X4455512Y-4551057D01*
X4455512Y-4551057D02*
X4447893Y-4554867D01*
D10*
%TO.C,R15*%
X7393047Y-5887149D02*
X7393047Y-5944292D01*
X7393047Y-5915720D02*
X7293047Y-5915720D01*
X7293047Y-5915720D02*
X7307333Y-5925244D01*
X7307333Y-5925244D02*
X7316857Y-5934768D01*
X7316857Y-5934768D02*
X7321619Y-5944292D01*
X7293047Y-5825244D02*
X7293047Y-5815720D01*
X7293047Y-5815720D02*
X7297809Y-5806196D01*
X7297809Y-5806196D02*
X7302571Y-5801434D01*
X7302571Y-5801434D02*
X7312095Y-5796673D01*
X7312095Y-5796673D02*
X7331142Y-5791911D01*
X7331142Y-5791911D02*
X7354952Y-5791911D01*
X7354952Y-5791911D02*
X7374000Y-5796673D01*
X7374000Y-5796673D02*
X7383523Y-5801434D01*
X7383523Y-5801434D02*
X7388285Y-5806196D01*
X7388285Y-5806196D02*
X7393047Y-5815720D01*
X7393047Y-5815720D02*
X7393047Y-5825244D01*
X7393047Y-5825244D02*
X7388285Y-5834768D01*
X7388285Y-5834768D02*
X7383523Y-5839530D01*
X7383523Y-5839530D02*
X7374000Y-5844292D01*
X7374000Y-5844292D02*
X7354952Y-5849053D01*
X7354952Y-5849053D02*
X7331142Y-5849053D01*
X7331142Y-5849053D02*
X7312095Y-5844292D01*
X7312095Y-5844292D02*
X7302571Y-5839530D01*
X7302571Y-5839530D02*
X7297809Y-5834768D01*
X7297809Y-5834768D02*
X7293047Y-5825244D01*
X7393047Y-5749053D02*
X7293047Y-5749053D01*
X7354952Y-5739530D02*
X7393047Y-5710958D01*
X7326381Y-5710958D02*
X7364476Y-5749053D01*
D11*
X7201955Y-5853053D02*
X7163860Y-5879720D01*
X7201955Y-5898768D02*
X7121955Y-5898768D01*
X7121955Y-5898768D02*
X7121955Y-5868292D01*
X7121955Y-5868292D02*
X7125764Y-5860673D01*
X7125764Y-5860673D02*
X7129574Y-5856863D01*
X7129574Y-5856863D02*
X7137193Y-5853053D01*
X7137193Y-5853053D02*
X7148621Y-5853053D01*
X7148621Y-5853053D02*
X7156241Y-5856863D01*
X7156241Y-5856863D02*
X7160050Y-5860673D01*
X7160050Y-5860673D02*
X7163860Y-5868292D01*
X7163860Y-5868292D02*
X7163860Y-5898768D01*
X7201955Y-5776863D02*
X7201955Y-5822577D01*
X7201955Y-5799720D02*
X7121955Y-5799720D01*
X7121955Y-5799720D02*
X7133383Y-5807339D01*
X7133383Y-5807339D02*
X7141002Y-5814958D01*
X7141002Y-5814958D02*
X7144812Y-5822577D01*
X7121955Y-5704482D02*
X7121955Y-5742577D01*
X7121955Y-5742577D02*
X7160050Y-5746387D01*
X7160050Y-5746387D02*
X7156241Y-5742577D01*
X7156241Y-5742577D02*
X7152431Y-5734958D01*
X7152431Y-5734958D02*
X7152431Y-5715911D01*
X7152431Y-5715911D02*
X7156241Y-5708292D01*
X7156241Y-5708292D02*
X7160050Y-5704482D01*
X7160050Y-5704482D02*
X7167669Y-5700673D01*
X7167669Y-5700673D02*
X7186717Y-5700673D01*
X7186717Y-5700673D02*
X7194336Y-5704482D01*
X7194336Y-5704482D02*
X7198145Y-5708292D01*
X7198145Y-5708292D02*
X7201955Y-5715911D01*
X7201955Y-5715911D02*
X7201955Y-5734958D01*
X7201955Y-5734958D02*
X7198145Y-5742577D01*
X7198145Y-5742577D02*
X7194336Y-5746387D01*
D10*
%TO.C,Q3*%
X4374881Y-6531714D02*
X4379643Y-6517428D01*
X4379643Y-6517428D02*
X4384405Y-6512667D01*
X4384405Y-6512667D02*
X4393929Y-6507905D01*
X4393929Y-6507905D02*
X4408214Y-6507905D01*
X4408214Y-6507905D02*
X4417738Y-6512667D01*
X4417738Y-6512667D02*
X4422500Y-6517428D01*
X4422500Y-6517428D02*
X4427262Y-6526952D01*
X4427262Y-6526952D02*
X4427262Y-6565047D01*
X4427262Y-6565047D02*
X4327262Y-6565047D01*
X4327262Y-6565047D02*
X4327262Y-6531714D01*
X4327262Y-6531714D02*
X4332024Y-6522190D01*
X4332024Y-6522190D02*
X4336786Y-6517428D01*
X4336786Y-6517428D02*
X4346310Y-6512667D01*
X4346310Y-6512667D02*
X4355833Y-6512667D01*
X4355833Y-6512667D02*
X4365357Y-6517428D01*
X4365357Y-6517428D02*
X4370119Y-6522190D01*
X4370119Y-6522190D02*
X4374881Y-6531714D01*
X4374881Y-6531714D02*
X4374881Y-6565047D01*
X4417738Y-6407905D02*
X4422500Y-6412667D01*
X4422500Y-6412667D02*
X4427262Y-6426952D01*
X4427262Y-6426952D02*
X4427262Y-6436476D01*
X4427262Y-6436476D02*
X4422500Y-6450762D01*
X4422500Y-6450762D02*
X4412976Y-6460286D01*
X4412976Y-6460286D02*
X4403452Y-6465047D01*
X4403452Y-6465047D02*
X4384405Y-6469809D01*
X4384405Y-6469809D02*
X4370119Y-6469809D01*
X4370119Y-6469809D02*
X4351071Y-6465047D01*
X4351071Y-6465047D02*
X4341548Y-6460286D01*
X4341548Y-6460286D02*
X4332024Y-6450762D01*
X4332024Y-6450762D02*
X4327262Y-6436476D01*
X4327262Y-6436476D02*
X4327262Y-6426952D01*
X4327262Y-6426952D02*
X4332024Y-6412667D01*
X4332024Y-6412667D02*
X4336786Y-6407905D01*
X4370119Y-6350762D02*
X4365357Y-6360286D01*
X4365357Y-6360286D02*
X4360595Y-6365047D01*
X4360595Y-6365047D02*
X4351071Y-6369809D01*
X4351071Y-6369809D02*
X4346310Y-6369809D01*
X4346310Y-6369809D02*
X4336786Y-6365047D01*
X4336786Y-6365047D02*
X4332024Y-6360286D01*
X4332024Y-6360286D02*
X4327262Y-6350762D01*
X4327262Y-6350762D02*
X4327262Y-6331714D01*
X4327262Y-6331714D02*
X4332024Y-6322190D01*
X4332024Y-6322190D02*
X4336786Y-6317428D01*
X4336786Y-6317428D02*
X4346310Y-6312667D01*
X4346310Y-6312667D02*
X4351071Y-6312667D01*
X4351071Y-6312667D02*
X4360595Y-6317428D01*
X4360595Y-6317428D02*
X4365357Y-6322190D01*
X4365357Y-6322190D02*
X4370119Y-6331714D01*
X4370119Y-6331714D02*
X4370119Y-6350762D01*
X4370119Y-6350762D02*
X4374881Y-6360286D01*
X4374881Y-6360286D02*
X4379643Y-6365047D01*
X4379643Y-6365047D02*
X4389167Y-6369809D01*
X4389167Y-6369809D02*
X4408214Y-6369809D01*
X4408214Y-6369809D02*
X4417738Y-6365047D01*
X4417738Y-6365047D02*
X4422500Y-6360286D01*
X4422500Y-6360286D02*
X4427262Y-6350762D01*
X4427262Y-6350762D02*
X4427262Y-6331714D01*
X4427262Y-6331714D02*
X4422500Y-6322190D01*
X4422500Y-6322190D02*
X4417738Y-6317428D01*
X4417738Y-6317428D02*
X4408214Y-6312667D01*
X4408214Y-6312667D02*
X4389167Y-6312667D01*
X4389167Y-6312667D02*
X4379643Y-6317428D01*
X4379643Y-6317428D02*
X4374881Y-6322190D01*
X4374881Y-6322190D02*
X4370119Y-6331714D01*
X4427262Y-6217428D02*
X4427262Y-6274571D01*
X4427262Y-6246000D02*
X4327262Y-6246000D01*
X4327262Y-6246000D02*
X4341548Y-6255524D01*
X4341548Y-6255524D02*
X4351071Y-6265047D01*
X4351071Y-6265047D02*
X4355833Y-6274571D01*
X4370119Y-6160286D02*
X4365357Y-6169809D01*
X4365357Y-6169809D02*
X4360595Y-6174571D01*
X4360595Y-6174571D02*
X4351071Y-6179333D01*
X4351071Y-6179333D02*
X4346310Y-6179333D01*
X4346310Y-6179333D02*
X4336786Y-6174571D01*
X4336786Y-6174571D02*
X4332024Y-6169809D01*
X4332024Y-6169809D02*
X4327262Y-6160286D01*
X4327262Y-6160286D02*
X4327262Y-6141238D01*
X4327262Y-6141238D02*
X4332024Y-6131714D01*
X4332024Y-6131714D02*
X4336786Y-6126952D01*
X4336786Y-6126952D02*
X4346310Y-6122190D01*
X4346310Y-6122190D02*
X4351071Y-6122190D01*
X4351071Y-6122190D02*
X4360595Y-6126952D01*
X4360595Y-6126952D02*
X4365357Y-6131714D01*
X4365357Y-6131714D02*
X4370119Y-6141238D01*
X4370119Y-6141238D02*
X4370119Y-6160286D01*
X4370119Y-6160286D02*
X4374881Y-6169809D01*
X4374881Y-6169809D02*
X4379643Y-6174571D01*
X4379643Y-6174571D02*
X4389167Y-6179333D01*
X4389167Y-6179333D02*
X4408214Y-6179333D01*
X4408214Y-6179333D02*
X4417738Y-6174571D01*
X4417738Y-6174571D02*
X4422500Y-6169809D01*
X4422500Y-6169809D02*
X4427262Y-6160286D01*
X4427262Y-6160286D02*
X4427262Y-6141238D01*
X4427262Y-6141238D02*
X4422500Y-6131714D01*
X4422500Y-6131714D02*
X4417738Y-6126952D01*
X4417738Y-6126952D02*
X4408214Y-6122190D01*
X4408214Y-6122190D02*
X4389167Y-6122190D01*
X4389167Y-6122190D02*
X4379643Y-6126952D01*
X4379643Y-6126952D02*
X4374881Y-6131714D01*
X4374881Y-6131714D02*
X4370119Y-6141238D01*
D12*
X4356601Y-5907048D02*
X4355078Y-5910095D01*
X4355078Y-5910095D02*
X4352030Y-5913143D01*
X4352030Y-5913143D02*
X4347459Y-5917714D01*
X4347459Y-5917714D02*
X4345935Y-5920762D01*
X4345935Y-5920762D02*
X4345935Y-5923809D01*
X4353554Y-5922286D02*
X4352030Y-5925333D01*
X4352030Y-5925333D02*
X4348982Y-5928381D01*
X4348982Y-5928381D02*
X4342887Y-5929905D01*
X4342887Y-5929905D02*
X4332220Y-5929905D01*
X4332220Y-5929905D02*
X4326125Y-5928381D01*
X4326125Y-5928381D02*
X4323078Y-5925333D01*
X4323078Y-5925333D02*
X4321554Y-5922286D01*
X4321554Y-5922286D02*
X4321554Y-5916190D01*
X4321554Y-5916190D02*
X4323078Y-5913143D01*
X4323078Y-5913143D02*
X4326125Y-5910095D01*
X4326125Y-5910095D02*
X4332220Y-5908571D01*
X4332220Y-5908571D02*
X4342887Y-5908571D01*
X4342887Y-5908571D02*
X4348982Y-5910095D01*
X4348982Y-5910095D02*
X4352030Y-5913143D01*
X4352030Y-5913143D02*
X4353554Y-5916190D01*
X4353554Y-5916190D02*
X4353554Y-5922286D01*
X4321554Y-5897905D02*
X4321554Y-5878095D01*
X4321554Y-5878095D02*
X4333744Y-5888762D01*
X4333744Y-5888762D02*
X4333744Y-5884190D01*
X4333744Y-5884190D02*
X4335268Y-5881143D01*
X4335268Y-5881143D02*
X4336792Y-5879619D01*
X4336792Y-5879619D02*
X4339840Y-5878095D01*
X4339840Y-5878095D02*
X4347459Y-5878095D01*
X4347459Y-5878095D02*
X4350506Y-5879619D01*
X4350506Y-5879619D02*
X4352030Y-5881143D01*
X4352030Y-5881143D02*
X4353554Y-5884190D01*
X4353554Y-5884190D02*
X4353554Y-5893333D01*
X4353554Y-5893333D02*
X4352030Y-5896381D01*
X4352030Y-5896381D02*
X4350506Y-5897905D01*
D10*
%TO.C,D4*%
X8728262Y-4349286D02*
X8728262Y-4406429D01*
X8728262Y-4377857D02*
X8628262Y-4377857D01*
X8628262Y-4377857D02*
X8642548Y-4387381D01*
X8642548Y-4387381D02*
X8652071Y-4396905D01*
X8652071Y-4396905D02*
X8656833Y-4406429D01*
X8728262Y-4306429D02*
X8628262Y-4306429D01*
X8628262Y-4306429D02*
X8728262Y-4249286D01*
X8728262Y-4249286D02*
X8628262Y-4249286D01*
X8628262Y-4154048D02*
X8628262Y-4201667D01*
X8628262Y-4201667D02*
X8675881Y-4206429D01*
X8675881Y-4206429D02*
X8671119Y-4201667D01*
X8671119Y-4201667D02*
X8666357Y-4192143D01*
X8666357Y-4192143D02*
X8666357Y-4168333D01*
X8666357Y-4168333D02*
X8671119Y-4158809D01*
X8671119Y-4158809D02*
X8675881Y-4154048D01*
X8675881Y-4154048D02*
X8685405Y-4149286D01*
X8685405Y-4149286D02*
X8709214Y-4149286D01*
X8709214Y-4149286D02*
X8718738Y-4154048D01*
X8718738Y-4154048D02*
X8723500Y-4158809D01*
X8723500Y-4158809D02*
X8728262Y-4168333D01*
X8728262Y-4168333D02*
X8728262Y-4192143D01*
X8728262Y-4192143D02*
X8723500Y-4201667D01*
X8723500Y-4201667D02*
X8718738Y-4206429D01*
X8661595Y-4063571D02*
X8728262Y-4063571D01*
X8623500Y-4087381D02*
X8694929Y-4111190D01*
X8694929Y-4111190D02*
X8694929Y-4049286D01*
X8628262Y-3992143D02*
X8628262Y-3982619D01*
X8628262Y-3982619D02*
X8633024Y-3973095D01*
X8633024Y-3973095D02*
X8637786Y-3968333D01*
X8637786Y-3968333D02*
X8647310Y-3963571D01*
X8647310Y-3963571D02*
X8666357Y-3958809D01*
X8666357Y-3958809D02*
X8690167Y-3958809D01*
X8690167Y-3958809D02*
X8709214Y-3963571D01*
X8709214Y-3963571D02*
X8718738Y-3968333D01*
X8718738Y-3968333D02*
X8723500Y-3973095D01*
X8723500Y-3973095D02*
X8728262Y-3982619D01*
X8728262Y-3982619D02*
X8728262Y-3992143D01*
X8728262Y-3992143D02*
X8723500Y-4001667D01*
X8723500Y-4001667D02*
X8718738Y-4006428D01*
X8718738Y-4006428D02*
X8709214Y-4011190D01*
X8709214Y-4011190D02*
X8690167Y-4015952D01*
X8690167Y-4015952D02*
X8666357Y-4015952D01*
X8666357Y-4015952D02*
X8647310Y-4011190D01*
X8647310Y-4011190D02*
X8637786Y-4006428D01*
X8637786Y-4006428D02*
X8633024Y-4001667D01*
X8633024Y-4001667D02*
X8628262Y-3992143D01*
X8637786Y-3920714D02*
X8633024Y-3915952D01*
X8633024Y-3915952D02*
X8628262Y-3906428D01*
X8628262Y-3906428D02*
X8628262Y-3882619D01*
X8628262Y-3882619D02*
X8633024Y-3873095D01*
X8633024Y-3873095D02*
X8637786Y-3868333D01*
X8637786Y-3868333D02*
X8647310Y-3863571D01*
X8647310Y-3863571D02*
X8656833Y-3863571D01*
X8656833Y-3863571D02*
X8671119Y-3868333D01*
X8671119Y-3868333D02*
X8728262Y-3925476D01*
X8728262Y-3925476D02*
X8728262Y-3863571D01*
D11*
X8730955Y-5061423D02*
X8650955Y-5061423D01*
X8650955Y-5061423D02*
X8650955Y-5042375D01*
X8650955Y-5042375D02*
X8654764Y-5030946D01*
X8654764Y-5030946D02*
X8662383Y-5023327D01*
X8662383Y-5023327D02*
X8670003Y-5019518D01*
X8670003Y-5019518D02*
X8685241Y-5015708D01*
X8685241Y-5015708D02*
X8696669Y-5015708D01*
X8696669Y-5015708D02*
X8711907Y-5019518D01*
X8711907Y-5019518D02*
X8719526Y-5023327D01*
X8719526Y-5023327D02*
X8727145Y-5030946D01*
X8727145Y-5030946D02*
X8730955Y-5042375D01*
X8730955Y-5042375D02*
X8730955Y-5061423D01*
X8677622Y-4947137D02*
X8730955Y-4947137D01*
X8647145Y-4966184D02*
X8704288Y-4985232D01*
X8704288Y-4985232D02*
X8704288Y-4935708D01*
D10*
%TO.C,D2*%
X8331262Y-2785286D02*
X8331262Y-2832905D01*
X8331262Y-2832905D02*
X8231262Y-2832905D01*
X8278881Y-2751952D02*
X8278881Y-2718619D01*
X8331262Y-2704333D02*
X8331262Y-2751952D01*
X8331262Y-2751952D02*
X8231262Y-2751952D01*
X8231262Y-2751952D02*
X8231262Y-2704333D01*
X8331262Y-2661476D02*
X8231262Y-2661476D01*
X8231262Y-2661476D02*
X8231262Y-2637667D01*
X8231262Y-2637667D02*
X8236024Y-2623381D01*
X8236024Y-2623381D02*
X8245548Y-2613857D01*
X8245548Y-2613857D02*
X8255071Y-2609095D01*
X8255071Y-2609095D02*
X8274119Y-2604333D01*
X8274119Y-2604333D02*
X8288405Y-2604333D01*
X8288405Y-2604333D02*
X8307452Y-2609095D01*
X8307452Y-2609095D02*
X8316976Y-2613857D01*
X8316976Y-2613857D02*
X8326500Y-2623381D01*
X8326500Y-2623381D02*
X8331262Y-2637667D01*
X8331262Y-2637667D02*
X8331262Y-2661476D01*
D11*
X8140009Y-2780048D02*
X8060009Y-2780048D01*
X8060009Y-2780048D02*
X8060009Y-2761000D01*
X8060009Y-2761000D02*
X8063819Y-2749571D01*
X8063819Y-2749571D02*
X8071438Y-2741952D01*
X8071438Y-2741952D02*
X8079057Y-2738143D01*
X8079057Y-2738143D02*
X8094295Y-2734333D01*
X8094295Y-2734333D02*
X8105724Y-2734333D01*
X8105724Y-2734333D02*
X8120962Y-2738143D01*
X8120962Y-2738143D02*
X8128581Y-2741952D01*
X8128581Y-2741952D02*
X8136200Y-2749571D01*
X8136200Y-2749571D02*
X8140009Y-2761000D01*
X8140009Y-2761000D02*
X8140009Y-2780048D01*
X8067628Y-2703857D02*
X8063819Y-2700048D01*
X8063819Y-2700048D02*
X8060009Y-2692429D01*
X8060009Y-2692429D02*
X8060009Y-2673381D01*
X8060009Y-2673381D02*
X8063819Y-2665762D01*
X8063819Y-2665762D02*
X8067628Y-2661952D01*
X8067628Y-2661952D02*
X8075248Y-2658143D01*
X8075248Y-2658143D02*
X8082867Y-2658143D01*
X8082867Y-2658143D02*
X8094295Y-2661952D01*
X8094295Y-2661952D02*
X8140009Y-2707667D01*
X8140009Y-2707667D02*
X8140009Y-2658143D01*
D10*
%TO.C,J1*%
X6163738Y-5779286D02*
X6168500Y-5784048D01*
X6168500Y-5784048D02*
X6173262Y-5798333D01*
X6173262Y-5798333D02*
X6173262Y-5807857D01*
X6173262Y-5807857D02*
X6168500Y-5822143D01*
X6168500Y-5822143D02*
X6158976Y-5831667D01*
X6158976Y-5831667D02*
X6149452Y-5836429D01*
X6149452Y-5836429D02*
X6130405Y-5841190D01*
X6130405Y-5841190D02*
X6116119Y-5841190D01*
X6116119Y-5841190D02*
X6097071Y-5836429D01*
X6097071Y-5836429D02*
X6087548Y-5831667D01*
X6087548Y-5831667D02*
X6078024Y-5822143D01*
X6078024Y-5822143D02*
X6073262Y-5807857D01*
X6073262Y-5807857D02*
X6073262Y-5798333D01*
X6073262Y-5798333D02*
X6078024Y-5784048D01*
X6078024Y-5784048D02*
X6082786Y-5779286D01*
X6173262Y-5722143D02*
X6168500Y-5731667D01*
X6168500Y-5731667D02*
X6163738Y-5736429D01*
X6163738Y-5736429D02*
X6154214Y-5741190D01*
X6154214Y-5741190D02*
X6125643Y-5741190D01*
X6125643Y-5741190D02*
X6116119Y-5736429D01*
X6116119Y-5736429D02*
X6111357Y-5731667D01*
X6111357Y-5731667D02*
X6106595Y-5722143D01*
X6106595Y-5722143D02*
X6106595Y-5707857D01*
X6106595Y-5707857D02*
X6111357Y-5698333D01*
X6111357Y-5698333D02*
X6116119Y-5693571D01*
X6116119Y-5693571D02*
X6125643Y-5688810D01*
X6125643Y-5688810D02*
X6154214Y-5688810D01*
X6154214Y-5688810D02*
X6163738Y-5693571D01*
X6163738Y-5693571D02*
X6168500Y-5698333D01*
X6168500Y-5698333D02*
X6173262Y-5707857D01*
X6173262Y-5707857D02*
X6173262Y-5722143D01*
X6106595Y-5645952D02*
X6173262Y-5645952D01*
X6116119Y-5645952D02*
X6111357Y-5641190D01*
X6111357Y-5641190D02*
X6106595Y-5631667D01*
X6106595Y-5631667D02*
X6106595Y-5617381D01*
X6106595Y-5617381D02*
X6111357Y-5607857D01*
X6111357Y-5607857D02*
X6120881Y-5603095D01*
X6120881Y-5603095D02*
X6173262Y-5603095D01*
X6106595Y-5569762D02*
X6106595Y-5531667D01*
X6073262Y-5555476D02*
X6158976Y-5555476D01*
X6158976Y-5555476D02*
X6168500Y-5550714D01*
X6168500Y-5550714D02*
X6173262Y-5541191D01*
X6173262Y-5541191D02*
X6173262Y-5531667D01*
X6173262Y-5498333D02*
X6106595Y-5498333D01*
X6125643Y-5498333D02*
X6116119Y-5493571D01*
X6116119Y-5493571D02*
X6111357Y-5488810D01*
X6111357Y-5488810D02*
X6106595Y-5479286D01*
X6106595Y-5479286D02*
X6106595Y-5469762D01*
X6173262Y-5422143D02*
X6168500Y-5431667D01*
X6168500Y-5431667D02*
X6163738Y-5436429D01*
X6163738Y-5436429D02*
X6154214Y-5441190D01*
X6154214Y-5441190D02*
X6125643Y-5441190D01*
X6125643Y-5441190D02*
X6116119Y-5436429D01*
X6116119Y-5436429D02*
X6111357Y-5431667D01*
X6111357Y-5431667D02*
X6106595Y-5422143D01*
X6106595Y-5422143D02*
X6106595Y-5407857D01*
X6106595Y-5407857D02*
X6111357Y-5398333D01*
X6111357Y-5398333D02*
X6116119Y-5393571D01*
X6116119Y-5393571D02*
X6125643Y-5388810D01*
X6125643Y-5388810D02*
X6154214Y-5388810D01*
X6154214Y-5388810D02*
X6163738Y-5393571D01*
X6163738Y-5393571D02*
X6168500Y-5398333D01*
X6168500Y-5398333D02*
X6173262Y-5407857D01*
X6173262Y-5407857D02*
X6173262Y-5422143D01*
X6173262Y-5331667D02*
X6168500Y-5341190D01*
X6168500Y-5341190D02*
X6158976Y-5345952D01*
X6158976Y-5345952D02*
X6073262Y-5345952D01*
X6120881Y-5184048D02*
X6125643Y-5169762D01*
X6125643Y-5169762D02*
X6130405Y-5165000D01*
X6130405Y-5165000D02*
X6139928Y-5160238D01*
X6139928Y-5160238D02*
X6154214Y-5160238D01*
X6154214Y-5160238D02*
X6163738Y-5165000D01*
X6163738Y-5165000D02*
X6168500Y-5169762D01*
X6168500Y-5169762D02*
X6173262Y-5179286D01*
X6173262Y-5179286D02*
X6173262Y-5217381D01*
X6173262Y-5217381D02*
X6073262Y-5217381D01*
X6073262Y-5217381D02*
X6073262Y-5184048D01*
X6073262Y-5184048D02*
X6078024Y-5174524D01*
X6078024Y-5174524D02*
X6082786Y-5169762D01*
X6082786Y-5169762D02*
X6092309Y-5165000D01*
X6092309Y-5165000D02*
X6101833Y-5165000D01*
X6101833Y-5165000D02*
X6111357Y-5169762D01*
X6111357Y-5169762D02*
X6116119Y-5174524D01*
X6116119Y-5174524D02*
X6120881Y-5184048D01*
X6120881Y-5184048D02*
X6120881Y-5217381D01*
X6106595Y-5074524D02*
X6173262Y-5074524D01*
X6106595Y-5117381D02*
X6158976Y-5117381D01*
X6158976Y-5117381D02*
X6168500Y-5112619D01*
X6168500Y-5112619D02*
X6173262Y-5103095D01*
X6173262Y-5103095D02*
X6173262Y-5088809D01*
X6173262Y-5088809D02*
X6168500Y-5079286D01*
X6168500Y-5079286D02*
X6163738Y-5074524D01*
X6168500Y-5031667D02*
X6173262Y-5022143D01*
X6173262Y-5022143D02*
X6173262Y-5003095D01*
X6173262Y-5003095D02*
X6168500Y-4993571D01*
X6168500Y-4993571D02*
X6158976Y-4988809D01*
X6158976Y-4988809D02*
X6154214Y-4988809D01*
X6154214Y-4988809D02*
X6144690Y-4993571D01*
X6144690Y-4993571D02*
X6139928Y-5003095D01*
X6139928Y-5003095D02*
X6139928Y-5017381D01*
X6139928Y-5017381D02*
X6135167Y-5026905D01*
X6135167Y-5026905D02*
X6125643Y-5031667D01*
X6125643Y-5031667D02*
X6120881Y-5031667D01*
X6120881Y-5031667D02*
X6111357Y-5026905D01*
X6111357Y-5026905D02*
X6106595Y-5017381D01*
X6106595Y-5017381D02*
X6106595Y-5003095D01*
X6106595Y-5003095D02*
X6111357Y-4993571D01*
X7767667Y-5361262D02*
X7767667Y-5432690D01*
X7767667Y-5432690D02*
X7762905Y-5446976D01*
X7762905Y-5446976D02*
X7753381Y-5456500D01*
X7753381Y-5456500D02*
X7739095Y-5461262D01*
X7739095Y-5461262D02*
X7729571Y-5461262D01*
X7867667Y-5461262D02*
X7810524Y-5461262D01*
X7839095Y-5461262D02*
X7839095Y-5361262D01*
X7839095Y-5361262D02*
X7829571Y-5375548D01*
X7829571Y-5375548D02*
X7820048Y-5385071D01*
X7820048Y-5385071D02*
X7810524Y-5389833D01*
%TO.C,D6*%
X9238262Y-4346286D02*
X9238262Y-4403429D01*
X9238262Y-4374857D02*
X9138262Y-4374857D01*
X9138262Y-4374857D02*
X9152548Y-4384381D01*
X9152548Y-4384381D02*
X9162071Y-4393905D01*
X9162071Y-4393905D02*
X9166833Y-4403429D01*
X9238262Y-4303429D02*
X9138262Y-4303429D01*
X9138262Y-4303429D02*
X9238262Y-4246286D01*
X9238262Y-4246286D02*
X9138262Y-4246286D01*
X9138262Y-4151048D02*
X9138262Y-4198667D01*
X9138262Y-4198667D02*
X9185881Y-4203429D01*
X9185881Y-4203429D02*
X9181119Y-4198667D01*
X9181119Y-4198667D02*
X9176357Y-4189143D01*
X9176357Y-4189143D02*
X9176357Y-4165333D01*
X9176357Y-4165333D02*
X9181119Y-4155809D01*
X9181119Y-4155809D02*
X9185881Y-4151048D01*
X9185881Y-4151048D02*
X9195405Y-4146286D01*
X9195405Y-4146286D02*
X9219214Y-4146286D01*
X9219214Y-4146286D02*
X9228738Y-4151048D01*
X9228738Y-4151048D02*
X9233500Y-4155809D01*
X9233500Y-4155809D02*
X9238262Y-4165333D01*
X9238262Y-4165333D02*
X9238262Y-4189143D01*
X9238262Y-4189143D02*
X9233500Y-4198667D01*
X9233500Y-4198667D02*
X9228738Y-4203429D01*
X9171595Y-4060571D02*
X9238262Y-4060571D01*
X9133500Y-4084381D02*
X9204929Y-4108190D01*
X9204929Y-4108190D02*
X9204929Y-4046286D01*
X9138262Y-3989143D02*
X9138262Y-3979619D01*
X9138262Y-3979619D02*
X9143024Y-3970095D01*
X9143024Y-3970095D02*
X9147786Y-3965333D01*
X9147786Y-3965333D02*
X9157310Y-3960571D01*
X9157310Y-3960571D02*
X9176357Y-3955809D01*
X9176357Y-3955809D02*
X9200167Y-3955809D01*
X9200167Y-3955809D02*
X9219214Y-3960571D01*
X9219214Y-3960571D02*
X9228738Y-3965333D01*
X9228738Y-3965333D02*
X9233500Y-3970095D01*
X9233500Y-3970095D02*
X9238262Y-3979619D01*
X9238262Y-3979619D02*
X9238262Y-3989143D01*
X9238262Y-3989143D02*
X9233500Y-3998667D01*
X9233500Y-3998667D02*
X9228738Y-4003428D01*
X9228738Y-4003428D02*
X9219214Y-4008190D01*
X9219214Y-4008190D02*
X9200167Y-4012952D01*
X9200167Y-4012952D02*
X9176357Y-4012952D01*
X9176357Y-4012952D02*
X9157310Y-4008190D01*
X9157310Y-4008190D02*
X9147786Y-4003428D01*
X9147786Y-4003428D02*
X9143024Y-3998667D01*
X9143024Y-3998667D02*
X9138262Y-3989143D01*
X9147786Y-3917714D02*
X9143024Y-3912952D01*
X9143024Y-3912952D02*
X9138262Y-3903428D01*
X9138262Y-3903428D02*
X9138262Y-3879619D01*
X9138262Y-3879619D02*
X9143024Y-3870095D01*
X9143024Y-3870095D02*
X9147786Y-3865333D01*
X9147786Y-3865333D02*
X9157310Y-3860571D01*
X9157310Y-3860571D02*
X9166833Y-3860571D01*
X9166833Y-3860571D02*
X9181119Y-3865333D01*
X9181119Y-3865333D02*
X9238262Y-3922476D01*
X9238262Y-3922476D02*
X9238262Y-3860571D01*
D11*
X9240010Y-5061048D02*
X9160010Y-5061048D01*
X9160010Y-5061048D02*
X9160010Y-5042000D01*
X9160010Y-5042000D02*
X9163819Y-5030571D01*
X9163819Y-5030571D02*
X9171438Y-5022952D01*
X9171438Y-5022952D02*
X9179057Y-5019143D01*
X9179057Y-5019143D02*
X9194295Y-5015333D01*
X9194295Y-5015333D02*
X9205724Y-5015333D01*
X9205724Y-5015333D02*
X9220962Y-5019143D01*
X9220962Y-5019143D02*
X9228581Y-5022952D01*
X9228581Y-5022952D02*
X9236200Y-5030571D01*
X9236200Y-5030571D02*
X9240010Y-5042000D01*
X9240010Y-5042000D02*
X9240010Y-5061048D01*
X9160010Y-4946762D02*
X9160010Y-4962000D01*
X9160010Y-4962000D02*
X9163819Y-4969619D01*
X9163819Y-4969619D02*
X9167629Y-4973429D01*
X9167629Y-4973429D02*
X9179057Y-4981048D01*
X9179057Y-4981048D02*
X9194295Y-4984857D01*
X9194295Y-4984857D02*
X9224771Y-4984857D01*
X9224771Y-4984857D02*
X9232390Y-4981048D01*
X9232390Y-4981048D02*
X9236200Y-4977238D01*
X9236200Y-4977238D02*
X9240010Y-4969619D01*
X9240010Y-4969619D02*
X9240010Y-4954381D01*
X9240010Y-4954381D02*
X9236200Y-4946762D01*
X9236200Y-4946762D02*
X9232390Y-4942952D01*
X9232390Y-4942952D02*
X9224771Y-4939143D01*
X9224771Y-4939143D02*
X9205724Y-4939143D01*
X9205724Y-4939143D02*
X9198105Y-4942952D01*
X9198105Y-4942952D02*
X9194295Y-4946762D01*
X9194295Y-4946762D02*
X9190486Y-4954381D01*
X9190486Y-4954381D02*
X9190486Y-4969619D01*
X9190486Y-4969619D02*
X9194295Y-4977238D01*
X9194295Y-4977238D02*
X9198105Y-4981048D01*
X9198105Y-4981048D02*
X9205724Y-4984857D01*
D10*
%TO.C,C2*%
X4871726Y-4808262D02*
X4814583Y-4808262D01*
X4843155Y-4808262D02*
X4843155Y-4708262D01*
X4843155Y-4708262D02*
X4833631Y-4722548D01*
X4833631Y-4722548D02*
X4824107Y-4732071D01*
X4824107Y-4732071D02*
X4814583Y-4736833D01*
X4957440Y-4741595D02*
X4957440Y-4808262D01*
X4914583Y-4741595D02*
X4914583Y-4793976D01*
X4914583Y-4793976D02*
X4919345Y-4803500D01*
X4919345Y-4803500D02*
X4928869Y-4808262D01*
X4928869Y-4808262D02*
X4943155Y-4808262D01*
X4943155Y-4808262D02*
X4952679Y-4803500D01*
X4952679Y-4803500D02*
X4957440Y-4798738D01*
X5038393Y-4755881D02*
X5005060Y-4755881D01*
X5005060Y-4808262D02*
X5005060Y-4708262D01*
X5005060Y-4708262D02*
X5052679Y-4708262D01*
D11*
X4917917Y-4606390D02*
X4914107Y-4610200D01*
X4914107Y-4610200D02*
X4902679Y-4614010D01*
X4902679Y-4614010D02*
X4895060Y-4614010D01*
X4895060Y-4614010D02*
X4883631Y-4610200D01*
X4883631Y-4610200D02*
X4876012Y-4602581D01*
X4876012Y-4602581D02*
X4872202Y-4594962D01*
X4872202Y-4594962D02*
X4868393Y-4579724D01*
X4868393Y-4579724D02*
X4868393Y-4568295D01*
X4868393Y-4568295D02*
X4872202Y-4553057D01*
X4872202Y-4553057D02*
X4876012Y-4545438D01*
X4876012Y-4545438D02*
X4883631Y-4537819D01*
X4883631Y-4537819D02*
X4895060Y-4534010D01*
X4895060Y-4534010D02*
X4902679Y-4534010D01*
X4902679Y-4534010D02*
X4914107Y-4537819D01*
X4914107Y-4537819D02*
X4917917Y-4541629D01*
X4948393Y-4541629D02*
X4952202Y-4537819D01*
X4952202Y-4537819D02*
X4959821Y-4534010D01*
X4959821Y-4534010D02*
X4978869Y-4534010D01*
X4978869Y-4534010D02*
X4986488Y-4537819D01*
X4986488Y-4537819D02*
X4990298Y-4541629D01*
X4990298Y-4541629D02*
X4994107Y-4549248D01*
X4994107Y-4549248D02*
X4994107Y-4556867D01*
X4994107Y-4556867D02*
X4990298Y-4568295D01*
X4990298Y-4568295D02*
X4944583Y-4614010D01*
X4944583Y-4614010D02*
X4994107Y-4614010D01*
D10*
%TO.C,R20*%
X7605952Y-6473786D02*
X7610714Y-6469024D01*
X7610714Y-6469024D02*
X7620238Y-6464262D01*
X7620238Y-6464262D02*
X7644048Y-6464262D01*
X7644048Y-6464262D02*
X7653571Y-6469024D01*
X7653571Y-6469024D02*
X7658333Y-6473786D01*
X7658333Y-6473786D02*
X7663095Y-6483309D01*
X7663095Y-6483309D02*
X7663095Y-6492833D01*
X7663095Y-6492833D02*
X7658333Y-6507119D01*
X7658333Y-6507119D02*
X7601190Y-6564262D01*
X7601190Y-6564262D02*
X7663095Y-6564262D01*
X7705952Y-6564262D02*
X7705952Y-6464262D01*
X7715476Y-6526167D02*
X7744048Y-6564262D01*
X7744048Y-6497595D02*
X7705952Y-6535690D01*
%TO.C,R19*%
X8022857Y-4635262D02*
X7965714Y-4635262D01*
X7994286Y-4635262D02*
X7994286Y-4535262D01*
X7994286Y-4535262D02*
X7984762Y-4549548D01*
X7984762Y-4549548D02*
X7975238Y-4559071D01*
X7975238Y-4559071D02*
X7965714Y-4563833D01*
X8084762Y-4535262D02*
X8094286Y-4535262D01*
X8094286Y-4535262D02*
X8103809Y-4540024D01*
X8103809Y-4540024D02*
X8108571Y-4544786D01*
X8108571Y-4544786D02*
X8113333Y-4554310D01*
X8113333Y-4554310D02*
X8118095Y-4573357D01*
X8118095Y-4573357D02*
X8118095Y-4597167D01*
X8118095Y-4597167D02*
X8113333Y-4616214D01*
X8113333Y-4616214D02*
X8108571Y-4625738D01*
X8108571Y-4625738D02*
X8103809Y-4630500D01*
X8103809Y-4630500D02*
X8094286Y-4635262D01*
X8094286Y-4635262D02*
X8084762Y-4635262D01*
X8084762Y-4635262D02*
X8075238Y-4630500D01*
X8075238Y-4630500D02*
X8070476Y-4625738D01*
X8070476Y-4625738D02*
X8065714Y-4616214D01*
X8065714Y-4616214D02*
X8060952Y-4597167D01*
X8060952Y-4597167D02*
X8060952Y-4573357D01*
X8060952Y-4573357D02*
X8065714Y-4554310D01*
X8065714Y-4554310D02*
X8070476Y-4544786D01*
X8070476Y-4544786D02*
X8075238Y-4540024D01*
X8075238Y-4540024D02*
X8084762Y-4535262D01*
X8180000Y-4535262D02*
X8189524Y-4535262D01*
X8189524Y-4535262D02*
X8199048Y-4540024D01*
X8199048Y-4540024D02*
X8203809Y-4544786D01*
X8203809Y-4544786D02*
X8208571Y-4554310D01*
X8208571Y-4554310D02*
X8213333Y-4573357D01*
X8213333Y-4573357D02*
X8213333Y-4597167D01*
X8213333Y-4597167D02*
X8208571Y-4616214D01*
X8208571Y-4616214D02*
X8203809Y-4625738D01*
X8203809Y-4625738D02*
X8199048Y-4630500D01*
X8199048Y-4630500D02*
X8189524Y-4635262D01*
X8189524Y-4635262D02*
X8180000Y-4635262D01*
X8180000Y-4635262D02*
X8170476Y-4630500D01*
X8170476Y-4630500D02*
X8165714Y-4625738D01*
X8165714Y-4625738D02*
X8160952Y-4616214D01*
X8160952Y-4616214D02*
X8156190Y-4597167D01*
X8156190Y-4597167D02*
X8156190Y-4573357D01*
X8156190Y-4573357D02*
X8160952Y-4554310D01*
X8160952Y-4554310D02*
X8165714Y-4544786D01*
X8165714Y-4544786D02*
X8170476Y-4540024D01*
X8170476Y-4540024D02*
X8180000Y-4535262D01*
X8256190Y-4635262D02*
X8256190Y-4535262D01*
X8265714Y-4597167D02*
X8294286Y-4635262D01*
X8294286Y-4568595D02*
X8256190Y-4606690D01*
D11*
X7350571Y-4627010D02*
X7323905Y-4588914D01*
X7304857Y-4627010D02*
X7304857Y-4547010D01*
X7304857Y-4547010D02*
X7335333Y-4547010D01*
X7335333Y-4547010D02*
X7342952Y-4550819D01*
X7342952Y-4550819D02*
X7346762Y-4554629D01*
X7346762Y-4554629D02*
X7350571Y-4562248D01*
X7350571Y-4562248D02*
X7350571Y-4573676D01*
X7350571Y-4573676D02*
X7346762Y-4581295D01*
X7346762Y-4581295D02*
X7342952Y-4585105D01*
X7342952Y-4585105D02*
X7335333Y-4588914D01*
X7335333Y-4588914D02*
X7304857Y-4588914D01*
X7426762Y-4627010D02*
X7381047Y-4627010D01*
X7403905Y-4627010D02*
X7403905Y-4547010D01*
X7403905Y-4547010D02*
X7396286Y-4558438D01*
X7396286Y-4558438D02*
X7388667Y-4566057D01*
X7388667Y-4566057D02*
X7381047Y-4569867D01*
X7464857Y-4627010D02*
X7480095Y-4627010D01*
X7480095Y-4627010D02*
X7487714Y-4623200D01*
X7487714Y-4623200D02*
X7491524Y-4619390D01*
X7491524Y-4619390D02*
X7499143Y-4607962D01*
X7499143Y-4607962D02*
X7502952Y-4592724D01*
X7502952Y-4592724D02*
X7502952Y-4562248D01*
X7502952Y-4562248D02*
X7499143Y-4554629D01*
X7499143Y-4554629D02*
X7495333Y-4550819D01*
X7495333Y-4550819D02*
X7487714Y-4547010D01*
X7487714Y-4547010D02*
X7472476Y-4547010D01*
X7472476Y-4547010D02*
X7464857Y-4550819D01*
X7464857Y-4550819D02*
X7461048Y-4554629D01*
X7461048Y-4554629D02*
X7457238Y-4562248D01*
X7457238Y-4562248D02*
X7457238Y-4581295D01*
X7457238Y-4581295D02*
X7461048Y-4588914D01*
X7461048Y-4588914D02*
X7464857Y-4592724D01*
X7464857Y-4592724D02*
X7472476Y-4596533D01*
X7472476Y-4596533D02*
X7487714Y-4596533D01*
X7487714Y-4596533D02*
X7495333Y-4592724D01*
X7495333Y-4592724D02*
X7499143Y-4588914D01*
X7499143Y-4588914D02*
X7502952Y-4581295D01*
D10*
%TO.C,R6*%
X11435262Y-3534155D02*
X11435262Y-3591297D01*
X11435262Y-3562726D02*
X11335262Y-3562726D01*
X11335262Y-3562726D02*
X11349548Y-3572250D01*
X11349548Y-3572250D02*
X11359071Y-3581774D01*
X11359071Y-3581774D02*
X11363833Y-3591297D01*
X11435262Y-3491297D02*
X11335262Y-3491297D01*
X11397167Y-3481774D02*
X11435262Y-3453202D01*
X11368595Y-3453202D02*
X11406690Y-3491297D01*
D11*
X11244009Y-3535583D02*
X11205914Y-3562250D01*
X11244009Y-3581297D02*
X11164010Y-3581297D01*
X11164010Y-3581297D02*
X11164010Y-3550821D01*
X11164010Y-3550821D02*
X11167819Y-3543202D01*
X11167819Y-3543202D02*
X11171629Y-3539393D01*
X11171629Y-3539393D02*
X11179248Y-3535583D01*
X11179248Y-3535583D02*
X11190676Y-3535583D01*
X11190676Y-3535583D02*
X11198295Y-3539393D01*
X11198295Y-3539393D02*
X11202105Y-3543202D01*
X11202105Y-3543202D02*
X11205914Y-3550821D01*
X11205914Y-3550821D02*
X11205914Y-3581297D01*
X11164010Y-3467012D02*
X11164010Y-3482250D01*
X11164010Y-3482250D02*
X11167819Y-3489869D01*
X11167819Y-3489869D02*
X11171629Y-3493678D01*
X11171629Y-3493678D02*
X11183057Y-3501297D01*
X11183057Y-3501297D02*
X11198295Y-3505107D01*
X11198295Y-3505107D02*
X11228771Y-3505107D01*
X11228771Y-3505107D02*
X11236390Y-3501297D01*
X11236390Y-3501297D02*
X11240200Y-3497488D01*
X11240200Y-3497488D02*
X11244009Y-3489869D01*
X11244009Y-3489869D02*
X11244009Y-3474631D01*
X11244009Y-3474631D02*
X11240200Y-3467012D01*
X11240200Y-3467012D02*
X11236390Y-3463202D01*
X11236390Y-3463202D02*
X11228771Y-3459393D01*
X11228771Y-3459393D02*
X11209724Y-3459393D01*
X11209724Y-3459393D02*
X11202105Y-3463202D01*
X11202105Y-3463202D02*
X11198295Y-3467012D01*
X11198295Y-3467012D02*
X11194486Y-3474631D01*
X11194486Y-3474631D02*
X11194486Y-3489869D01*
X11194486Y-3489869D02*
X11198295Y-3497488D01*
X11198295Y-3497488D02*
X11202105Y-3501297D01*
X11202105Y-3501297D02*
X11209724Y-3505107D01*
D10*
%TO.C,R9*%
X5082595Y-5502857D02*
X5149262Y-5502857D01*
X5044500Y-5526667D02*
X5115929Y-5550476D01*
X5115929Y-5550476D02*
X5115929Y-5488571D01*
X5139738Y-5450476D02*
X5144500Y-5445714D01*
X5144500Y-5445714D02*
X5149262Y-5450476D01*
X5149262Y-5450476D02*
X5144500Y-5455238D01*
X5144500Y-5455238D02*
X5139738Y-5450476D01*
X5139738Y-5450476D02*
X5149262Y-5450476D01*
X5049262Y-5412381D02*
X5049262Y-5345714D01*
X5049262Y-5345714D02*
X5149262Y-5388571D01*
X5149262Y-5307619D02*
X5049262Y-5307619D01*
X5111167Y-5298095D02*
X5149262Y-5269524D01*
X5082595Y-5269524D02*
X5120690Y-5307619D01*
D11*
X5020010Y-5449333D02*
X4981914Y-5476000D01*
X5020010Y-5495048D02*
X4940010Y-5495048D01*
X4940010Y-5495048D02*
X4940010Y-5464571D01*
X4940010Y-5464571D02*
X4943819Y-5456952D01*
X4943819Y-5456952D02*
X4947629Y-5453143D01*
X4947629Y-5453143D02*
X4955248Y-5449333D01*
X4955248Y-5449333D02*
X4966676Y-5449333D01*
X4966676Y-5449333D02*
X4974295Y-5453143D01*
X4974295Y-5453143D02*
X4978105Y-5456952D01*
X4978105Y-5456952D02*
X4981914Y-5464571D01*
X4981914Y-5464571D02*
X4981914Y-5495048D01*
X5020010Y-5411238D02*
X5020010Y-5396000D01*
X5020010Y-5396000D02*
X5016200Y-5388381D01*
X5016200Y-5388381D02*
X5012390Y-5384571D01*
X5012390Y-5384571D02*
X5000962Y-5376952D01*
X5000962Y-5376952D02*
X4985724Y-5373143D01*
X4985724Y-5373143D02*
X4955248Y-5373143D01*
X4955248Y-5373143D02*
X4947629Y-5376952D01*
X4947629Y-5376952D02*
X4943819Y-5380762D01*
X4943819Y-5380762D02*
X4940010Y-5388381D01*
X4940010Y-5388381D02*
X4940010Y-5403619D01*
X4940010Y-5403619D02*
X4943819Y-5411238D01*
X4943819Y-5411238D02*
X4947629Y-5415048D01*
X4947629Y-5415048D02*
X4955248Y-5418857D01*
X4955248Y-5418857D02*
X4974295Y-5418857D01*
X4974295Y-5418857D02*
X4981914Y-5415048D01*
X4981914Y-5415048D02*
X4985724Y-5411238D01*
X4985724Y-5411238D02*
X4989533Y-5403619D01*
X4989533Y-5403619D02*
X4989533Y-5388381D01*
X4989533Y-5388381D02*
X4985724Y-5380762D01*
X4985724Y-5380762D02*
X4981914Y-5376952D01*
X4981914Y-5376952D02*
X4974295Y-5373143D01*
D10*
%TO.C,D1*%
X8647262Y-2791286D02*
X8647262Y-2838905D01*
X8647262Y-2838905D02*
X8547262Y-2838905D01*
X8594881Y-2757952D02*
X8594881Y-2724619D01*
X8647262Y-2710333D02*
X8647262Y-2757952D01*
X8647262Y-2757952D02*
X8547262Y-2757952D01*
X8547262Y-2757952D02*
X8547262Y-2710333D01*
X8647262Y-2667476D02*
X8547262Y-2667476D01*
X8547262Y-2667476D02*
X8547262Y-2643667D01*
X8547262Y-2643667D02*
X8552024Y-2629381D01*
X8552024Y-2629381D02*
X8561548Y-2619857D01*
X8561548Y-2619857D02*
X8571071Y-2615095D01*
X8571071Y-2615095D02*
X8590119Y-2610333D01*
X8590119Y-2610333D02*
X8604405Y-2610333D01*
X8604405Y-2610333D02*
X8623452Y-2615095D01*
X8623452Y-2615095D02*
X8632976Y-2619857D01*
X8632976Y-2619857D02*
X8642500Y-2629381D01*
X8642500Y-2629381D02*
X8647262Y-2643667D01*
X8647262Y-2643667D02*
X8647262Y-2667476D01*
D11*
X8456010Y-2786048D02*
X8376009Y-2786048D01*
X8376009Y-2786048D02*
X8376009Y-2767000D01*
X8376009Y-2767000D02*
X8379819Y-2755571D01*
X8379819Y-2755571D02*
X8387438Y-2747952D01*
X8387438Y-2747952D02*
X8395057Y-2744143D01*
X8395057Y-2744143D02*
X8410295Y-2740333D01*
X8410295Y-2740333D02*
X8421724Y-2740333D01*
X8421724Y-2740333D02*
X8436962Y-2744143D01*
X8436962Y-2744143D02*
X8444581Y-2747952D01*
X8444581Y-2747952D02*
X8452200Y-2755571D01*
X8452200Y-2755571D02*
X8456010Y-2767000D01*
X8456010Y-2767000D02*
X8456010Y-2786048D01*
X8456010Y-2664143D02*
X8456010Y-2709857D01*
X8456010Y-2687000D02*
X8376009Y-2687000D01*
X8376009Y-2687000D02*
X8387438Y-2694619D01*
X8387438Y-2694619D02*
X8395057Y-2702238D01*
X8395057Y-2702238D02*
X8398867Y-2709857D01*
D10*
%TO.C,D5*%
X9001262Y-4351286D02*
X9001262Y-4408429D01*
X9001262Y-4379857D02*
X8901262Y-4379857D01*
X8901262Y-4379857D02*
X8915548Y-4389381D01*
X8915548Y-4389381D02*
X8925071Y-4398905D01*
X8925071Y-4398905D02*
X8929833Y-4408429D01*
X9001262Y-4308429D02*
X8901262Y-4308429D01*
X8901262Y-4308429D02*
X9001262Y-4251286D01*
X9001262Y-4251286D02*
X8901262Y-4251286D01*
X8901262Y-4156048D02*
X8901262Y-4203667D01*
X8901262Y-4203667D02*
X8948881Y-4208429D01*
X8948881Y-4208429D02*
X8944119Y-4203667D01*
X8944119Y-4203667D02*
X8939357Y-4194143D01*
X8939357Y-4194143D02*
X8939357Y-4170333D01*
X8939357Y-4170333D02*
X8944119Y-4160809D01*
X8944119Y-4160809D02*
X8948881Y-4156048D01*
X8948881Y-4156048D02*
X8958405Y-4151286D01*
X8958405Y-4151286D02*
X8982214Y-4151286D01*
X8982214Y-4151286D02*
X8991738Y-4156048D01*
X8991738Y-4156048D02*
X8996500Y-4160809D01*
X8996500Y-4160809D02*
X9001262Y-4170333D01*
X9001262Y-4170333D02*
X9001262Y-4194143D01*
X9001262Y-4194143D02*
X8996500Y-4203667D01*
X8996500Y-4203667D02*
X8991738Y-4208429D01*
X8934595Y-4065571D02*
X9001262Y-4065571D01*
X8896500Y-4089381D02*
X8967929Y-4113190D01*
X8967929Y-4113190D02*
X8967929Y-4051286D01*
X8901262Y-3994143D02*
X8901262Y-3984619D01*
X8901262Y-3984619D02*
X8906024Y-3975095D01*
X8906024Y-3975095D02*
X8910786Y-3970333D01*
X8910786Y-3970333D02*
X8920310Y-3965571D01*
X8920310Y-3965571D02*
X8939357Y-3960809D01*
X8939357Y-3960809D02*
X8963167Y-3960809D01*
X8963167Y-3960809D02*
X8982214Y-3965571D01*
X8982214Y-3965571D02*
X8991738Y-3970333D01*
X8991738Y-3970333D02*
X8996500Y-3975095D01*
X8996500Y-3975095D02*
X9001262Y-3984619D01*
X9001262Y-3984619D02*
X9001262Y-3994143D01*
X9001262Y-3994143D02*
X8996500Y-4003667D01*
X8996500Y-4003667D02*
X8991738Y-4008428D01*
X8991738Y-4008428D02*
X8982214Y-4013190D01*
X8982214Y-4013190D02*
X8963167Y-4017952D01*
X8963167Y-4017952D02*
X8939357Y-4017952D01*
X8939357Y-4017952D02*
X8920310Y-4013190D01*
X8920310Y-4013190D02*
X8910786Y-4008428D01*
X8910786Y-4008428D02*
X8906024Y-4003667D01*
X8906024Y-4003667D02*
X8901262Y-3994143D01*
X8910786Y-3922714D02*
X8906024Y-3917952D01*
X8906024Y-3917952D02*
X8901262Y-3908428D01*
X8901262Y-3908428D02*
X8901262Y-3884619D01*
X8901262Y-3884619D02*
X8906024Y-3875095D01*
X8906024Y-3875095D02*
X8910786Y-3870333D01*
X8910786Y-3870333D02*
X8920310Y-3865571D01*
X8920310Y-3865571D02*
X8929833Y-3865571D01*
X8929833Y-3865571D02*
X8944119Y-3870333D01*
X8944119Y-3870333D02*
X9001262Y-3927476D01*
X9001262Y-3927476D02*
X9001262Y-3865571D01*
D11*
X8992010Y-5063048D02*
X8912010Y-5063048D01*
X8912010Y-5063048D02*
X8912010Y-5044000D01*
X8912010Y-5044000D02*
X8915819Y-5032571D01*
X8915819Y-5032571D02*
X8923438Y-5024952D01*
X8923438Y-5024952D02*
X8931057Y-5021143D01*
X8931057Y-5021143D02*
X8946295Y-5017333D01*
X8946295Y-5017333D02*
X8957724Y-5017333D01*
X8957724Y-5017333D02*
X8972962Y-5021143D01*
X8972962Y-5021143D02*
X8980581Y-5024952D01*
X8980581Y-5024952D02*
X8988200Y-5032571D01*
X8988200Y-5032571D02*
X8992010Y-5044000D01*
X8992010Y-5044000D02*
X8992010Y-5063048D01*
X8912010Y-4944952D02*
X8912010Y-4983048D01*
X8912010Y-4983048D02*
X8950105Y-4986857D01*
X8950105Y-4986857D02*
X8946295Y-4983048D01*
X8946295Y-4983048D02*
X8942486Y-4975429D01*
X8942486Y-4975429D02*
X8942486Y-4956381D01*
X8942486Y-4956381D02*
X8946295Y-4948762D01*
X8946295Y-4948762D02*
X8950105Y-4944952D01*
X8950105Y-4944952D02*
X8957724Y-4941143D01*
X8957724Y-4941143D02*
X8976771Y-4941143D01*
X8976771Y-4941143D02*
X8984390Y-4944952D01*
X8984390Y-4944952D02*
X8988200Y-4948762D01*
X8988200Y-4948762D02*
X8992010Y-4956381D01*
X8992010Y-4956381D02*
X8992010Y-4975429D01*
X8992010Y-4975429D02*
X8988200Y-4983048D01*
X8988200Y-4983048D02*
X8984390Y-4986857D01*
D10*
%TO.C,R8*%
X3413857Y-5503262D02*
X3356714Y-5503262D01*
X3385286Y-5503262D02*
X3385286Y-5403262D01*
X3385286Y-5403262D02*
X3375762Y-5417548D01*
X3375762Y-5417548D02*
X3366238Y-5427071D01*
X3366238Y-5427071D02*
X3356714Y-5431833D01*
X3475762Y-5403262D02*
X3485286Y-5403262D01*
X3485286Y-5403262D02*
X3494809Y-5408024D01*
X3494809Y-5408024D02*
X3499571Y-5412786D01*
X3499571Y-5412786D02*
X3504333Y-5422310D01*
X3504333Y-5422310D02*
X3509095Y-5441357D01*
X3509095Y-5441357D02*
X3509095Y-5465167D01*
X3509095Y-5465167D02*
X3504333Y-5484214D01*
X3504333Y-5484214D02*
X3499571Y-5493738D01*
X3499571Y-5493738D02*
X3494809Y-5498500D01*
X3494809Y-5498500D02*
X3485286Y-5503262D01*
X3485286Y-5503262D02*
X3475762Y-5503262D01*
X3475762Y-5503262D02*
X3466238Y-5498500D01*
X3466238Y-5498500D02*
X3461476Y-5493738D01*
X3461476Y-5493738D02*
X3456714Y-5484214D01*
X3456714Y-5484214D02*
X3451952Y-5465167D01*
X3451952Y-5465167D02*
X3451952Y-5441357D01*
X3451952Y-5441357D02*
X3456714Y-5422310D01*
X3456714Y-5422310D02*
X3461476Y-5412786D01*
X3461476Y-5412786D02*
X3466238Y-5408024D01*
X3466238Y-5408024D02*
X3475762Y-5403262D01*
X3571000Y-5403262D02*
X3580524Y-5403262D01*
X3580524Y-5403262D02*
X3590048Y-5408024D01*
X3590048Y-5408024D02*
X3594809Y-5412786D01*
X3594809Y-5412786D02*
X3599571Y-5422310D01*
X3599571Y-5422310D02*
X3604333Y-5441357D01*
X3604333Y-5441357D02*
X3604333Y-5465167D01*
X3604333Y-5465167D02*
X3599571Y-5484214D01*
X3599571Y-5484214D02*
X3594809Y-5493738D01*
X3594809Y-5493738D02*
X3590048Y-5498500D01*
X3590048Y-5498500D02*
X3580524Y-5503262D01*
X3580524Y-5503262D02*
X3571000Y-5503262D01*
X3571000Y-5503262D02*
X3561476Y-5498500D01*
X3561476Y-5498500D02*
X3556714Y-5493738D01*
X3556714Y-5493738D02*
X3551952Y-5484214D01*
X3551952Y-5484214D02*
X3547190Y-5465167D01*
X3547190Y-5465167D02*
X3547190Y-5441357D01*
X3547190Y-5441357D02*
X3551952Y-5422310D01*
X3551952Y-5422310D02*
X3556714Y-5412786D01*
X3556714Y-5412786D02*
X3561476Y-5408024D01*
X3561476Y-5408024D02*
X3571000Y-5403262D01*
X3647190Y-5503262D02*
X3647190Y-5403262D01*
X3656714Y-5465167D02*
X3685286Y-5503262D01*
X3685286Y-5436595D02*
X3647190Y-5474690D01*
D11*
X3554667Y-5380010D02*
X3528000Y-5341914D01*
X3508952Y-5380010D02*
X3508952Y-5300010D01*
X3508952Y-5300010D02*
X3539429Y-5300010D01*
X3539429Y-5300010D02*
X3547048Y-5303819D01*
X3547048Y-5303819D02*
X3550857Y-5307629D01*
X3550857Y-5307629D02*
X3554667Y-5315248D01*
X3554667Y-5315248D02*
X3554667Y-5326676D01*
X3554667Y-5326676D02*
X3550857Y-5334295D01*
X3550857Y-5334295D02*
X3547048Y-5338105D01*
X3547048Y-5338105D02*
X3539429Y-5341914D01*
X3539429Y-5341914D02*
X3508952Y-5341914D01*
X3600381Y-5334295D02*
X3592762Y-5330486D01*
X3592762Y-5330486D02*
X3588952Y-5326676D01*
X3588952Y-5326676D02*
X3585143Y-5319057D01*
X3585143Y-5319057D02*
X3585143Y-5315248D01*
X3585143Y-5315248D02*
X3588952Y-5307629D01*
X3588952Y-5307629D02*
X3592762Y-5303819D01*
X3592762Y-5303819D02*
X3600381Y-5300010D01*
X3600381Y-5300010D02*
X3615619Y-5300010D01*
X3615619Y-5300010D02*
X3623238Y-5303819D01*
X3623238Y-5303819D02*
X3627048Y-5307629D01*
X3627048Y-5307629D02*
X3630857Y-5315248D01*
X3630857Y-5315248D02*
X3630857Y-5319057D01*
X3630857Y-5319057D02*
X3627048Y-5326676D01*
X3627048Y-5326676D02*
X3623238Y-5330486D01*
X3623238Y-5330486D02*
X3615619Y-5334295D01*
X3615619Y-5334295D02*
X3600381Y-5334295D01*
X3600381Y-5334295D02*
X3592762Y-5338105D01*
X3592762Y-5338105D02*
X3588952Y-5341914D01*
X3588952Y-5341914D02*
X3585143Y-5349533D01*
X3585143Y-5349533D02*
X3585143Y-5364771D01*
X3585143Y-5364771D02*
X3588952Y-5372390D01*
X3588952Y-5372390D02*
X3592762Y-5376200D01*
X3592762Y-5376200D02*
X3600381Y-5380010D01*
X3600381Y-5380010D02*
X3615619Y-5380010D01*
X3615619Y-5380010D02*
X3623238Y-5376200D01*
X3623238Y-5376200D02*
X3627048Y-5372390D01*
X3627048Y-5372390D02*
X3630857Y-5364771D01*
X3630857Y-5364771D02*
X3630857Y-5349533D01*
X3630857Y-5349533D02*
X3627048Y-5341914D01*
X3627048Y-5341914D02*
X3623238Y-5338105D01*
X3623238Y-5338105D02*
X3615619Y-5334295D01*
D10*
%TO.C,R1*%
X8282262Y-2379893D02*
X8282262Y-2437036D01*
X8282262Y-2408464D02*
X8182262Y-2408464D01*
X8182262Y-2408464D02*
X8196548Y-2417988D01*
X8196548Y-2417988D02*
X8206071Y-2427512D01*
X8206071Y-2427512D02*
X8210833Y-2437036D01*
X8182262Y-2317988D02*
X8182262Y-2308464D01*
X8182262Y-2308464D02*
X8187024Y-2298940D01*
X8187024Y-2298940D02*
X8191786Y-2294179D01*
X8191786Y-2294179D02*
X8201309Y-2289417D01*
X8201309Y-2289417D02*
X8220357Y-2284655D01*
X8220357Y-2284655D02*
X8244167Y-2284655D01*
X8244167Y-2284655D02*
X8263214Y-2289417D01*
X8263214Y-2289417D02*
X8272738Y-2294179D01*
X8272738Y-2294179D02*
X8277500Y-2298940D01*
X8277500Y-2298940D02*
X8282262Y-2308464D01*
X8282262Y-2308464D02*
X8282262Y-2317988D01*
X8282262Y-2317988D02*
X8277500Y-2327512D01*
X8277500Y-2327512D02*
X8272738Y-2332274D01*
X8272738Y-2332274D02*
X8263214Y-2337036D01*
X8263214Y-2337036D02*
X8244167Y-2341798D01*
X8244167Y-2341798D02*
X8220357Y-2341798D01*
X8220357Y-2341798D02*
X8201309Y-2337036D01*
X8201309Y-2337036D02*
X8191786Y-2332274D01*
X8191786Y-2332274D02*
X8187024Y-2327512D01*
X8187024Y-2327512D02*
X8182262Y-2317988D01*
X8182262Y-2222750D02*
X8182262Y-2213226D01*
X8182262Y-2213226D02*
X8187024Y-2203702D01*
X8187024Y-2203702D02*
X8191786Y-2198940D01*
X8191786Y-2198940D02*
X8201309Y-2194179D01*
X8201309Y-2194179D02*
X8220357Y-2189417D01*
X8220357Y-2189417D02*
X8244167Y-2189417D01*
X8244167Y-2189417D02*
X8263214Y-2194179D01*
X8263214Y-2194179D02*
X8272738Y-2198940D01*
X8272738Y-2198940D02*
X8277500Y-2203702D01*
X8277500Y-2203702D02*
X8282262Y-2213226D01*
X8282262Y-2213226D02*
X8282262Y-2222750D01*
X8282262Y-2222750D02*
X8277500Y-2232274D01*
X8277500Y-2232274D02*
X8272738Y-2237036D01*
X8272738Y-2237036D02*
X8263214Y-2241798D01*
X8263214Y-2241798D02*
X8244167Y-2246559D01*
X8244167Y-2246559D02*
X8220357Y-2246559D01*
X8220357Y-2246559D02*
X8201309Y-2241798D01*
X8201309Y-2241798D02*
X8191786Y-2237036D01*
X8191786Y-2237036D02*
X8187024Y-2232274D01*
X8187024Y-2232274D02*
X8182262Y-2222750D01*
X8282262Y-2146559D02*
X8182262Y-2146559D01*
X8244167Y-2137036D02*
X8282262Y-2108464D01*
X8215595Y-2108464D02*
X8253690Y-2146559D01*
D11*
X8455010Y-2286083D02*
X8416914Y-2312750D01*
X8455010Y-2331798D02*
X8375009Y-2331798D01*
X8375009Y-2331798D02*
X8375009Y-2301321D01*
X8375009Y-2301321D02*
X8378819Y-2293702D01*
X8378819Y-2293702D02*
X8382628Y-2289893D01*
X8382628Y-2289893D02*
X8390248Y-2286083D01*
X8390248Y-2286083D02*
X8401676Y-2286083D01*
X8401676Y-2286083D02*
X8409295Y-2289893D01*
X8409295Y-2289893D02*
X8413105Y-2293702D01*
X8413105Y-2293702D02*
X8416914Y-2301321D01*
X8416914Y-2301321D02*
X8416914Y-2331798D01*
X8455010Y-2209893D02*
X8455010Y-2255607D01*
X8455010Y-2232750D02*
X8375009Y-2232750D01*
X8375009Y-2232750D02*
X8386438Y-2240369D01*
X8386438Y-2240369D02*
X8394057Y-2247988D01*
X8394057Y-2247988D02*
X8397867Y-2255607D01*
D10*
%TO.C,R4*%
X9498262Y-2308393D02*
X9498262Y-2365536D01*
X9498262Y-2336964D02*
X9398262Y-2336964D01*
X9398262Y-2336964D02*
X9412548Y-2346488D01*
X9412548Y-2346488D02*
X9422071Y-2356012D01*
X9422071Y-2356012D02*
X9426833Y-2365536D01*
X9398262Y-2246488D02*
X9398262Y-2236964D01*
X9398262Y-2236964D02*
X9403024Y-2227440D01*
X9403024Y-2227440D02*
X9407786Y-2222679D01*
X9407786Y-2222679D02*
X9417310Y-2217917D01*
X9417310Y-2217917D02*
X9436357Y-2213155D01*
X9436357Y-2213155D02*
X9460167Y-2213155D01*
X9460167Y-2213155D02*
X9479214Y-2217917D01*
X9479214Y-2217917D02*
X9488738Y-2222679D01*
X9488738Y-2222679D02*
X9493500Y-2227440D01*
X9493500Y-2227440D02*
X9498262Y-2236964D01*
X9498262Y-2236964D02*
X9498262Y-2246488D01*
X9498262Y-2246488D02*
X9493500Y-2256012D01*
X9493500Y-2256012D02*
X9488738Y-2260774D01*
X9488738Y-2260774D02*
X9479214Y-2265536D01*
X9479214Y-2265536D02*
X9460167Y-2270298D01*
X9460167Y-2270298D02*
X9436357Y-2270298D01*
X9436357Y-2270298D02*
X9417310Y-2265536D01*
X9417310Y-2265536D02*
X9407786Y-2260774D01*
X9407786Y-2260774D02*
X9403024Y-2256012D01*
X9403024Y-2256012D02*
X9398262Y-2246488D01*
X9398262Y-2151250D02*
X9398262Y-2141726D01*
X9398262Y-2141726D02*
X9403024Y-2132202D01*
X9403024Y-2132202D02*
X9407786Y-2127440D01*
X9407786Y-2127440D02*
X9417310Y-2122679D01*
X9417310Y-2122679D02*
X9436357Y-2117917D01*
X9436357Y-2117917D02*
X9460167Y-2117917D01*
X9460167Y-2117917D02*
X9479214Y-2122679D01*
X9479214Y-2122679D02*
X9488738Y-2127440D01*
X9488738Y-2127440D02*
X9493500Y-2132202D01*
X9493500Y-2132202D02*
X9498262Y-2141726D01*
X9498262Y-2141726D02*
X9498262Y-2151250D01*
X9498262Y-2151250D02*
X9493500Y-2160774D01*
X9493500Y-2160774D02*
X9488738Y-2165536D01*
X9488738Y-2165536D02*
X9479214Y-2170298D01*
X9479214Y-2170298D02*
X9460167Y-2175059D01*
X9460167Y-2175059D02*
X9436357Y-2175059D01*
X9436357Y-2175059D02*
X9417310Y-2170298D01*
X9417310Y-2170298D02*
X9407786Y-2165536D01*
X9407786Y-2165536D02*
X9403024Y-2160774D01*
X9403024Y-2160774D02*
X9398262Y-2151250D01*
X9498262Y-2075059D02*
X9398262Y-2075059D01*
X9460167Y-2065536D02*
X9498262Y-2036964D01*
X9431595Y-2036964D02*
X9469690Y-2075059D01*
D11*
X9671010Y-2214583D02*
X9632914Y-2241250D01*
X9671010Y-2260298D02*
X9591010Y-2260298D01*
X9591010Y-2260298D02*
X9591010Y-2229821D01*
X9591010Y-2229821D02*
X9594819Y-2222202D01*
X9594819Y-2222202D02*
X9598629Y-2218393D01*
X9598629Y-2218393D02*
X9606248Y-2214583D01*
X9606248Y-2214583D02*
X9617676Y-2214583D01*
X9617676Y-2214583D02*
X9625295Y-2218393D01*
X9625295Y-2218393D02*
X9629105Y-2222202D01*
X9629105Y-2222202D02*
X9632914Y-2229821D01*
X9632914Y-2229821D02*
X9632914Y-2260298D01*
X9617676Y-2146012D02*
X9671010Y-2146012D01*
X9587200Y-2165059D02*
X9644343Y-2184107D01*
X9644343Y-2184107D02*
X9644343Y-2134583D01*
D10*
%TO.C,R16*%
X8563952Y-6472786D02*
X8568714Y-6468024D01*
X8568714Y-6468024D02*
X8578238Y-6463262D01*
X8578238Y-6463262D02*
X8602048Y-6463262D01*
X8602048Y-6463262D02*
X8611571Y-6468024D01*
X8611571Y-6468024D02*
X8616333Y-6472786D01*
X8616333Y-6472786D02*
X8621095Y-6482309D01*
X8621095Y-6482309D02*
X8621095Y-6491833D01*
X8621095Y-6491833D02*
X8616333Y-6506119D01*
X8616333Y-6506119D02*
X8559191Y-6563262D01*
X8559191Y-6563262D02*
X8621095Y-6563262D01*
X8663952Y-6563262D02*
X8663952Y-6463262D01*
X8673476Y-6525167D02*
X8702048Y-6563262D01*
X8702048Y-6496595D02*
X8663952Y-6534690D01*
D11*
X8609571Y-6436009D02*
X8582905Y-6397914D01*
X8563857Y-6436009D02*
X8563857Y-6356009D01*
X8563857Y-6356009D02*
X8594333Y-6356009D01*
X8594333Y-6356009D02*
X8601952Y-6359819D01*
X8601952Y-6359819D02*
X8605762Y-6363628D01*
X8605762Y-6363628D02*
X8609571Y-6371248D01*
X8609571Y-6371248D02*
X8609571Y-6382676D01*
X8609571Y-6382676D02*
X8605762Y-6390295D01*
X8605762Y-6390295D02*
X8601952Y-6394105D01*
X8601952Y-6394105D02*
X8594333Y-6397914D01*
X8594333Y-6397914D02*
X8563857Y-6397914D01*
X8685762Y-6436009D02*
X8640048Y-6436009D01*
X8662905Y-6436009D02*
X8662905Y-6356009D01*
X8662905Y-6356009D02*
X8655286Y-6367438D01*
X8655286Y-6367438D02*
X8647667Y-6375057D01*
X8647667Y-6375057D02*
X8640048Y-6378867D01*
X8754333Y-6356009D02*
X8739095Y-6356009D01*
X8739095Y-6356009D02*
X8731476Y-6359819D01*
X8731476Y-6359819D02*
X8727667Y-6363628D01*
X8727667Y-6363628D02*
X8720048Y-6375057D01*
X8720048Y-6375057D02*
X8716238Y-6390295D01*
X8716238Y-6390295D02*
X8716238Y-6420771D01*
X8716238Y-6420771D02*
X8720048Y-6428390D01*
X8720048Y-6428390D02*
X8723857Y-6432200D01*
X8723857Y-6432200D02*
X8731476Y-6436009D01*
X8731476Y-6436009D02*
X8746714Y-6436009D01*
X8746714Y-6436009D02*
X8754333Y-6432200D01*
X8754333Y-6432200D02*
X8758143Y-6428390D01*
X8758143Y-6428390D02*
X8761952Y-6420771D01*
X8761952Y-6420771D02*
X8761952Y-6401724D01*
X8761952Y-6401724D02*
X8758143Y-6394105D01*
X8758143Y-6394105D02*
X8754333Y-6390295D01*
X8754333Y-6390295D02*
X8746714Y-6386486D01*
X8746714Y-6386486D02*
X8731476Y-6386486D01*
X8731476Y-6386486D02*
X8723857Y-6390295D01*
X8723857Y-6390295D02*
X8720048Y-6394105D01*
X8720048Y-6394105D02*
X8716238Y-6401724D01*
D10*
%TO.C,D3*%
X9863262Y-2717286D02*
X9863262Y-2764905D01*
X9863262Y-2764905D02*
X9763262Y-2764905D01*
X9810881Y-2683952D02*
X9810881Y-2650619D01*
X9863262Y-2636333D02*
X9863262Y-2683952D01*
X9863262Y-2683952D02*
X9763262Y-2683952D01*
X9763262Y-2683952D02*
X9763262Y-2636333D01*
X9863262Y-2593476D02*
X9763262Y-2593476D01*
X9763262Y-2593476D02*
X9763262Y-2569667D01*
X9763262Y-2569667D02*
X9768024Y-2555381D01*
X9768024Y-2555381D02*
X9777548Y-2545857D01*
X9777548Y-2545857D02*
X9787071Y-2541095D01*
X9787071Y-2541095D02*
X9806119Y-2536333D01*
X9806119Y-2536333D02*
X9820405Y-2536333D01*
X9820405Y-2536333D02*
X9839452Y-2541095D01*
X9839452Y-2541095D02*
X9848976Y-2545857D01*
X9848976Y-2545857D02*
X9858500Y-2555381D01*
X9858500Y-2555381D02*
X9863262Y-2569667D01*
X9863262Y-2569667D02*
X9863262Y-2593476D01*
D11*
X9672010Y-2712048D02*
X9592010Y-2712048D01*
X9592010Y-2712048D02*
X9592010Y-2693000D01*
X9592010Y-2693000D02*
X9595819Y-2681571D01*
X9595819Y-2681571D02*
X9603438Y-2673952D01*
X9603438Y-2673952D02*
X9611057Y-2670143D01*
X9611057Y-2670143D02*
X9626295Y-2666333D01*
X9626295Y-2666333D02*
X9637724Y-2666333D01*
X9637724Y-2666333D02*
X9652962Y-2670143D01*
X9652962Y-2670143D02*
X9660581Y-2673952D01*
X9660581Y-2673952D02*
X9668200Y-2681571D01*
X9668200Y-2681571D02*
X9672010Y-2693000D01*
X9672010Y-2693000D02*
X9672010Y-2712048D01*
X9592010Y-2639667D02*
X9592010Y-2590143D01*
X9592010Y-2590143D02*
X9622486Y-2616809D01*
X9622486Y-2616809D02*
X9622486Y-2605381D01*
X9622486Y-2605381D02*
X9626295Y-2597762D01*
X9626295Y-2597762D02*
X9630105Y-2593952D01*
X9630105Y-2593952D02*
X9637724Y-2590143D01*
X9637724Y-2590143D02*
X9656771Y-2590143D01*
X9656771Y-2590143D02*
X9664390Y-2593952D01*
X9664390Y-2593952D02*
X9668200Y-2597762D01*
X9668200Y-2597762D02*
X9672010Y-2605381D01*
X9672010Y-2605381D02*
X9672010Y-2628238D01*
X9672010Y-2628238D02*
X9668200Y-2635857D01*
X9668200Y-2635857D02*
X9664390Y-2639667D01*
D10*
%TO.C,R10*%
X5049595Y-5984857D02*
X5116262Y-5984857D01*
X5011500Y-6008667D02*
X5082929Y-6032476D01*
X5082929Y-6032476D02*
X5082929Y-5970571D01*
X5106738Y-5932476D02*
X5111500Y-5927714D01*
X5111500Y-5927714D02*
X5116262Y-5932476D01*
X5116262Y-5932476D02*
X5111500Y-5937238D01*
X5111500Y-5937238D02*
X5106738Y-5932476D01*
X5106738Y-5932476D02*
X5116262Y-5932476D01*
X5016262Y-5894381D02*
X5016262Y-5827714D01*
X5016262Y-5827714D02*
X5116262Y-5870571D01*
X5116262Y-5789619D02*
X5016262Y-5789619D01*
X5078167Y-5780095D02*
X5116262Y-5751524D01*
X5049595Y-5751524D02*
X5087690Y-5789619D01*
D11*
X4979010Y-5999428D02*
X4940914Y-6026095D01*
X4979010Y-6045143D02*
X4899010Y-6045143D01*
X4899010Y-6045143D02*
X4899010Y-6014667D01*
X4899010Y-6014667D02*
X4902819Y-6007048D01*
X4902819Y-6007048D02*
X4906629Y-6003238D01*
X4906629Y-6003238D02*
X4914248Y-5999428D01*
X4914248Y-5999428D02*
X4925676Y-5999428D01*
X4925676Y-5999428D02*
X4933295Y-6003238D01*
X4933295Y-6003238D02*
X4937105Y-6007048D01*
X4937105Y-6007048D02*
X4940914Y-6014667D01*
X4940914Y-6014667D02*
X4940914Y-6045143D01*
X4979010Y-5923238D02*
X4979010Y-5968952D01*
X4979010Y-5946095D02*
X4899010Y-5946095D01*
X4899010Y-5946095D02*
X4910438Y-5953714D01*
X4910438Y-5953714D02*
X4918057Y-5961333D01*
X4918057Y-5961333D02*
X4921867Y-5968952D01*
X4899010Y-5873714D02*
X4899010Y-5866095D01*
X4899010Y-5866095D02*
X4902819Y-5858476D01*
X4902819Y-5858476D02*
X4906629Y-5854667D01*
X4906629Y-5854667D02*
X4914248Y-5850857D01*
X4914248Y-5850857D02*
X4929486Y-5847048D01*
X4929486Y-5847048D02*
X4948533Y-5847048D01*
X4948533Y-5847048D02*
X4963771Y-5850857D01*
X4963771Y-5850857D02*
X4971390Y-5854667D01*
X4971390Y-5854667D02*
X4975200Y-5858476D01*
X4975200Y-5858476D02*
X4979010Y-5866095D01*
X4979010Y-5866095D02*
X4979010Y-5873714D01*
X4979010Y-5873714D02*
X4975200Y-5881333D01*
X4975200Y-5881333D02*
X4971390Y-5885143D01*
X4971390Y-5885143D02*
X4963771Y-5888952D01*
X4963771Y-5888952D02*
X4948533Y-5892762D01*
X4948533Y-5892762D02*
X4929486Y-5892762D01*
X4929486Y-5892762D02*
X4914248Y-5888952D01*
X4914248Y-5888952D02*
X4906629Y-5885143D01*
X4906629Y-5885143D02*
X4902819Y-5881333D01*
X4902819Y-5881333D02*
X4899010Y-5873714D01*
D10*
%TO.C,R3*%
X11499595Y-2746857D02*
X11566262Y-2746857D01*
X11461500Y-2770667D02*
X11532928Y-2794476D01*
X11532928Y-2794476D02*
X11532928Y-2732571D01*
X11556738Y-2694476D02*
X11561500Y-2689714D01*
X11561500Y-2689714D02*
X11566262Y-2694476D01*
X11566262Y-2694476D02*
X11561500Y-2699238D01*
X11561500Y-2699238D02*
X11556738Y-2694476D01*
X11556738Y-2694476D02*
X11566262Y-2694476D01*
X11466262Y-2656381D02*
X11466262Y-2589714D01*
X11466262Y-2589714D02*
X11566262Y-2632571D01*
X11566262Y-2551619D02*
X11466262Y-2551619D01*
X11528167Y-2542095D02*
X11566262Y-2513524D01*
X11499595Y-2513524D02*
X11537690Y-2551619D01*
D11*
X11433009Y-3086333D02*
X11394914Y-3113000D01*
X11433009Y-3132047D02*
X11353009Y-3132047D01*
X11353009Y-3132047D02*
X11353009Y-3101571D01*
X11353009Y-3101571D02*
X11356819Y-3093952D01*
X11356819Y-3093952D02*
X11360628Y-3090143D01*
X11360628Y-3090143D02*
X11368248Y-3086333D01*
X11368248Y-3086333D02*
X11379676Y-3086333D01*
X11379676Y-3086333D02*
X11387295Y-3090143D01*
X11387295Y-3090143D02*
X11391105Y-3093952D01*
X11391105Y-3093952D02*
X11394914Y-3101571D01*
X11394914Y-3101571D02*
X11394914Y-3132047D01*
X11353009Y-3059667D02*
X11353009Y-3010143D01*
X11353009Y-3010143D02*
X11383486Y-3036809D01*
X11383486Y-3036809D02*
X11383486Y-3025381D01*
X11383486Y-3025381D02*
X11387295Y-3017762D01*
X11387295Y-3017762D02*
X11391105Y-3013952D01*
X11391105Y-3013952D02*
X11398724Y-3010143D01*
X11398724Y-3010143D02*
X11417771Y-3010143D01*
X11417771Y-3010143D02*
X11425390Y-3013952D01*
X11425390Y-3013952D02*
X11429200Y-3017762D01*
X11429200Y-3017762D02*
X11433009Y-3025381D01*
X11433009Y-3025381D02*
X11433009Y-3048238D01*
X11433009Y-3048238D02*
X11429200Y-3055857D01*
X11429200Y-3055857D02*
X11425390Y-3059667D01*
D10*
%TO.C,R11*%
X7141207Y-5936768D02*
X7141207Y-5993911D01*
X7141207Y-5965339D02*
X7041207Y-5965339D01*
X7041207Y-5965339D02*
X7055493Y-5974863D01*
X7055493Y-5974863D02*
X7065017Y-5984387D01*
X7065017Y-5984387D02*
X7069779Y-5993911D01*
X7041207Y-5874863D02*
X7041207Y-5865339D01*
X7041207Y-5865339D02*
X7045969Y-5855815D01*
X7045969Y-5855815D02*
X7050731Y-5851053D01*
X7050731Y-5851053D02*
X7060255Y-5846292D01*
X7060255Y-5846292D02*
X7079302Y-5841530D01*
X7079302Y-5841530D02*
X7103112Y-5841530D01*
X7103112Y-5841530D02*
X7122160Y-5846292D01*
X7122160Y-5846292D02*
X7131683Y-5851053D01*
X7131683Y-5851053D02*
X7136445Y-5855815D01*
X7136445Y-5855815D02*
X7141207Y-5865339D01*
X7141207Y-5865339D02*
X7141207Y-5874863D01*
X7141207Y-5874863D02*
X7136445Y-5884387D01*
X7136445Y-5884387D02*
X7131683Y-5889149D01*
X7131683Y-5889149D02*
X7122160Y-5893911D01*
X7122160Y-5893911D02*
X7103112Y-5898672D01*
X7103112Y-5898672D02*
X7079302Y-5898672D01*
X7079302Y-5898672D02*
X7060255Y-5893911D01*
X7060255Y-5893911D02*
X7050731Y-5889149D01*
X7050731Y-5889149D02*
X7045969Y-5884387D01*
X7045969Y-5884387D02*
X7041207Y-5874863D01*
X7041207Y-5779625D02*
X7041207Y-5770101D01*
X7041207Y-5770101D02*
X7045969Y-5760577D01*
X7045969Y-5760577D02*
X7050731Y-5755815D01*
X7050731Y-5755815D02*
X7060255Y-5751053D01*
X7060255Y-5751053D02*
X7079302Y-5746292D01*
X7079302Y-5746292D02*
X7103112Y-5746292D01*
X7103112Y-5746292D02*
X7122160Y-5751053D01*
X7122160Y-5751053D02*
X7131683Y-5755815D01*
X7131683Y-5755815D02*
X7136445Y-5760577D01*
X7136445Y-5760577D02*
X7141207Y-5770101D01*
X7141207Y-5770101D02*
X7141207Y-5779625D01*
X7141207Y-5779625D02*
X7136445Y-5789149D01*
X7136445Y-5789149D02*
X7131683Y-5793911D01*
X7131683Y-5793911D02*
X7122160Y-5798672D01*
X7122160Y-5798672D02*
X7103112Y-5803434D01*
X7103112Y-5803434D02*
X7079302Y-5803434D01*
X7079302Y-5803434D02*
X7060255Y-5798672D01*
X7060255Y-5798672D02*
X7050731Y-5793911D01*
X7050731Y-5793911D02*
X7045969Y-5789149D01*
X7045969Y-5789149D02*
X7041207Y-5779625D01*
X7141207Y-5703434D02*
X7041207Y-5703434D01*
X7103112Y-5693911D02*
X7141207Y-5665339D01*
X7074541Y-5665339D02*
X7112636Y-5703434D01*
D11*
X6949955Y-5881053D02*
X6911860Y-5907720D01*
X6949955Y-5926768D02*
X6869955Y-5926768D01*
X6869955Y-5926768D02*
X6869955Y-5896292D01*
X6869955Y-5896292D02*
X6873764Y-5888673D01*
X6873764Y-5888673D02*
X6877574Y-5884863D01*
X6877574Y-5884863D02*
X6885193Y-5881053D01*
X6885193Y-5881053D02*
X6896621Y-5881053D01*
X6896621Y-5881053D02*
X6904241Y-5884863D01*
X6904241Y-5884863D02*
X6908050Y-5888673D01*
X6908050Y-5888673D02*
X6911860Y-5896292D01*
X6911860Y-5896292D02*
X6911860Y-5926768D01*
X6949955Y-5804863D02*
X6949955Y-5850577D01*
X6949955Y-5827720D02*
X6869955Y-5827720D01*
X6869955Y-5827720D02*
X6881383Y-5835339D01*
X6881383Y-5835339D02*
X6889002Y-5842958D01*
X6889002Y-5842958D02*
X6892812Y-5850577D01*
X6949955Y-5728673D02*
X6949955Y-5774387D01*
X6949955Y-5751530D02*
X6869955Y-5751530D01*
X6869955Y-5751530D02*
X6881383Y-5759149D01*
X6881383Y-5759149D02*
X6889002Y-5766768D01*
X6889002Y-5766768D02*
X6892812Y-5774387D01*
D10*
%TO.C,Q2*%
X4248881Y-6532464D02*
X4253643Y-6518178D01*
X4253643Y-6518178D02*
X4258405Y-6513417D01*
X4258405Y-6513417D02*
X4267929Y-6508655D01*
X4267929Y-6508655D02*
X4282214Y-6508655D01*
X4282214Y-6508655D02*
X4291738Y-6513417D01*
X4291738Y-6513417D02*
X4296500Y-6518178D01*
X4296500Y-6518178D02*
X4301262Y-6527702D01*
X4301262Y-6527702D02*
X4301262Y-6565797D01*
X4301262Y-6565797D02*
X4201262Y-6565797D01*
X4201262Y-6565797D02*
X4201262Y-6532464D01*
X4201262Y-6532464D02*
X4206024Y-6522940D01*
X4206024Y-6522940D02*
X4210786Y-6518178D01*
X4210786Y-6518178D02*
X4220310Y-6513417D01*
X4220310Y-6513417D02*
X4229833Y-6513417D01*
X4229833Y-6513417D02*
X4239357Y-6518178D01*
X4239357Y-6518178D02*
X4244119Y-6522940D01*
X4244119Y-6522940D02*
X4248881Y-6532464D01*
X4248881Y-6532464D02*
X4248881Y-6565797D01*
X4291738Y-6408655D02*
X4296500Y-6413417D01*
X4296500Y-6413417D02*
X4301262Y-6427702D01*
X4301262Y-6427702D02*
X4301262Y-6437226D01*
X4301262Y-6437226D02*
X4296500Y-6451512D01*
X4296500Y-6451512D02*
X4286976Y-6461036D01*
X4286976Y-6461036D02*
X4277452Y-6465797D01*
X4277452Y-6465797D02*
X4258405Y-6470559D01*
X4258405Y-6470559D02*
X4244119Y-6470559D01*
X4244119Y-6470559D02*
X4225071Y-6465797D01*
X4225071Y-6465797D02*
X4215548Y-6461036D01*
X4215548Y-6461036D02*
X4206024Y-6451512D01*
X4206024Y-6451512D02*
X4201262Y-6437226D01*
X4201262Y-6437226D02*
X4201262Y-6427702D01*
X4201262Y-6427702D02*
X4206024Y-6413417D01*
X4206024Y-6413417D02*
X4210786Y-6408655D01*
X4244119Y-6351512D02*
X4239357Y-6361036D01*
X4239357Y-6361036D02*
X4234595Y-6365797D01*
X4234595Y-6365797D02*
X4225071Y-6370559D01*
X4225071Y-6370559D02*
X4220310Y-6370559D01*
X4220310Y-6370559D02*
X4210786Y-6365797D01*
X4210786Y-6365797D02*
X4206024Y-6361036D01*
X4206024Y-6361036D02*
X4201262Y-6351512D01*
X4201262Y-6351512D02*
X4201262Y-6332464D01*
X4201262Y-6332464D02*
X4206024Y-6322940D01*
X4206024Y-6322940D02*
X4210786Y-6318178D01*
X4210786Y-6318178D02*
X4220310Y-6313417D01*
X4220310Y-6313417D02*
X4225071Y-6313417D01*
X4225071Y-6313417D02*
X4234595Y-6318178D01*
X4234595Y-6318178D02*
X4239357Y-6322940D01*
X4239357Y-6322940D02*
X4244119Y-6332464D01*
X4244119Y-6332464D02*
X4244119Y-6351512D01*
X4244119Y-6351512D02*
X4248881Y-6361036D01*
X4248881Y-6361036D02*
X4253643Y-6365797D01*
X4253643Y-6365797D02*
X4263167Y-6370559D01*
X4263167Y-6370559D02*
X4282214Y-6370559D01*
X4282214Y-6370559D02*
X4291738Y-6365797D01*
X4291738Y-6365797D02*
X4296500Y-6361036D01*
X4296500Y-6361036D02*
X4301262Y-6351512D01*
X4301262Y-6351512D02*
X4301262Y-6332464D01*
X4301262Y-6332464D02*
X4296500Y-6322940D01*
X4296500Y-6322940D02*
X4291738Y-6318178D01*
X4291738Y-6318178D02*
X4282214Y-6313417D01*
X4282214Y-6313417D02*
X4263167Y-6313417D01*
X4263167Y-6313417D02*
X4253643Y-6318178D01*
X4253643Y-6318178D02*
X4248881Y-6322940D01*
X4248881Y-6322940D02*
X4244119Y-6332464D01*
X4301262Y-6218178D02*
X4301262Y-6275321D01*
X4301262Y-6246750D02*
X4201262Y-6246750D01*
X4201262Y-6246750D02*
X4215548Y-6256274D01*
X4215548Y-6256274D02*
X4225071Y-6265797D01*
X4225071Y-6265797D02*
X4229833Y-6275321D01*
X4244119Y-6161036D02*
X4239357Y-6170559D01*
X4239357Y-6170559D02*
X4234595Y-6175321D01*
X4234595Y-6175321D02*
X4225071Y-6180083D01*
X4225071Y-6180083D02*
X4220310Y-6180083D01*
X4220310Y-6180083D02*
X4210786Y-6175321D01*
X4210786Y-6175321D02*
X4206024Y-6170559D01*
X4206024Y-6170559D02*
X4201262Y-6161036D01*
X4201262Y-6161036D02*
X4201262Y-6141988D01*
X4201262Y-6141988D02*
X4206024Y-6132464D01*
X4206024Y-6132464D02*
X4210786Y-6127702D01*
X4210786Y-6127702D02*
X4220310Y-6122940D01*
X4220310Y-6122940D02*
X4225071Y-6122940D01*
X4225071Y-6122940D02*
X4234595Y-6127702D01*
X4234595Y-6127702D02*
X4239357Y-6132464D01*
X4239357Y-6132464D02*
X4244119Y-6141988D01*
X4244119Y-6141988D02*
X4244119Y-6161036D01*
X4244119Y-6161036D02*
X4248881Y-6170559D01*
X4248881Y-6170559D02*
X4253643Y-6175321D01*
X4253643Y-6175321D02*
X4263167Y-6180083D01*
X4263167Y-6180083D02*
X4282214Y-6180083D01*
X4282214Y-6180083D02*
X4291738Y-6175321D01*
X4291738Y-6175321D02*
X4296500Y-6170559D01*
X4296500Y-6170559D02*
X4301262Y-6161036D01*
X4301262Y-6161036D02*
X4301262Y-6141988D01*
X4301262Y-6141988D02*
X4296500Y-6132464D01*
X4296500Y-6132464D02*
X4291738Y-6127702D01*
X4291738Y-6127702D02*
X4282214Y-6122940D01*
X4282214Y-6122940D02*
X4263167Y-6122940D01*
X4263167Y-6122940D02*
X4253643Y-6127702D01*
X4253643Y-6127702D02*
X4248881Y-6132464D01*
X4248881Y-6132464D02*
X4244119Y-6141988D01*
D12*
X4371851Y-5392048D02*
X4370328Y-5395095D01*
X4370328Y-5395095D02*
X4367280Y-5398143D01*
X4367280Y-5398143D02*
X4362709Y-5402714D01*
X4362709Y-5402714D02*
X4361185Y-5405762D01*
X4361185Y-5405762D02*
X4361185Y-5408810D01*
X4368804Y-5407286D02*
X4367280Y-5410333D01*
X4367280Y-5410333D02*
X4364232Y-5413381D01*
X4364232Y-5413381D02*
X4358137Y-5414905D01*
X4358137Y-5414905D02*
X4347470Y-5414905D01*
X4347470Y-5414905D02*
X4341375Y-5413381D01*
X4341375Y-5413381D02*
X4338328Y-5410333D01*
X4338328Y-5410333D02*
X4336804Y-5407286D01*
X4336804Y-5407286D02*
X4336804Y-5401190D01*
X4336804Y-5401190D02*
X4338328Y-5398143D01*
X4338328Y-5398143D02*
X4341375Y-5395095D01*
X4341375Y-5395095D02*
X4347470Y-5393571D01*
X4347470Y-5393571D02*
X4358137Y-5393571D01*
X4358137Y-5393571D02*
X4364232Y-5395095D01*
X4364232Y-5395095D02*
X4367280Y-5398143D01*
X4367280Y-5398143D02*
X4368804Y-5401190D01*
X4368804Y-5401190D02*
X4368804Y-5407286D01*
X4339851Y-5381381D02*
X4338328Y-5379857D01*
X4338328Y-5379857D02*
X4336804Y-5376810D01*
X4336804Y-5376810D02*
X4336804Y-5369190D01*
X4336804Y-5369190D02*
X4338328Y-5366143D01*
X4338328Y-5366143D02*
X4339851Y-5364619D01*
X4339851Y-5364619D02*
X4342899Y-5363095D01*
X4342899Y-5363095D02*
X4345947Y-5363095D01*
X4345947Y-5363095D02*
X4350518Y-5364619D01*
X4350518Y-5364619D02*
X4368804Y-5382905D01*
X4368804Y-5382905D02*
X4368804Y-5363095D01*
D10*
%TO.C,R7*%
X3440857Y-5846262D02*
X3383714Y-5846262D01*
X3412286Y-5846262D02*
X3412286Y-5746262D01*
X3412286Y-5746262D02*
X3402762Y-5760548D01*
X3402762Y-5760548D02*
X3393238Y-5770071D01*
X3393238Y-5770071D02*
X3383714Y-5774833D01*
X3502762Y-5746262D02*
X3512286Y-5746262D01*
X3512286Y-5746262D02*
X3521809Y-5751024D01*
X3521809Y-5751024D02*
X3526571Y-5755786D01*
X3526571Y-5755786D02*
X3531333Y-5765309D01*
X3531333Y-5765309D02*
X3536095Y-5784357D01*
X3536095Y-5784357D02*
X3536095Y-5808167D01*
X3536095Y-5808167D02*
X3531333Y-5827214D01*
X3531333Y-5827214D02*
X3526571Y-5836738D01*
X3526571Y-5836738D02*
X3521809Y-5841500D01*
X3521809Y-5841500D02*
X3512286Y-5846262D01*
X3512286Y-5846262D02*
X3502762Y-5846262D01*
X3502762Y-5846262D02*
X3493238Y-5841500D01*
X3493238Y-5841500D02*
X3488476Y-5836738D01*
X3488476Y-5836738D02*
X3483714Y-5827214D01*
X3483714Y-5827214D02*
X3478952Y-5808167D01*
X3478952Y-5808167D02*
X3478952Y-5784357D01*
X3478952Y-5784357D02*
X3483714Y-5765309D01*
X3483714Y-5765309D02*
X3488476Y-5755786D01*
X3488476Y-5755786D02*
X3493238Y-5751024D01*
X3493238Y-5751024D02*
X3502762Y-5746262D01*
X3598000Y-5746262D02*
X3607524Y-5746262D01*
X3607524Y-5746262D02*
X3617048Y-5751024D01*
X3617048Y-5751024D02*
X3621809Y-5755786D01*
X3621809Y-5755786D02*
X3626571Y-5765309D01*
X3626571Y-5765309D02*
X3631333Y-5784357D01*
X3631333Y-5784357D02*
X3631333Y-5808167D01*
X3631333Y-5808167D02*
X3626571Y-5827214D01*
X3626571Y-5827214D02*
X3621809Y-5836738D01*
X3621809Y-5836738D02*
X3617048Y-5841500D01*
X3617048Y-5841500D02*
X3607524Y-5846262D01*
X3607524Y-5846262D02*
X3598000Y-5846262D01*
X3598000Y-5846262D02*
X3588476Y-5841500D01*
X3588476Y-5841500D02*
X3583714Y-5836738D01*
X3583714Y-5836738D02*
X3578952Y-5827214D01*
X3578952Y-5827214D02*
X3574190Y-5808167D01*
X3574190Y-5808167D02*
X3574190Y-5784357D01*
X3574190Y-5784357D02*
X3578952Y-5765309D01*
X3578952Y-5765309D02*
X3583714Y-5755786D01*
X3583714Y-5755786D02*
X3588476Y-5751024D01*
X3588476Y-5751024D02*
X3598000Y-5746262D01*
X3674190Y-5846262D02*
X3674190Y-5746262D01*
X3683714Y-5808167D02*
X3712286Y-5846262D01*
X3712286Y-5779595D02*
X3674190Y-5817690D01*
D11*
X3579667Y-5718009D02*
X3553000Y-5679914D01*
X3533952Y-5718009D02*
X3533952Y-5638009D01*
X3533952Y-5638009D02*
X3564429Y-5638009D01*
X3564429Y-5638009D02*
X3572048Y-5641819D01*
X3572048Y-5641819D02*
X3575857Y-5645628D01*
X3575857Y-5645628D02*
X3579667Y-5653248D01*
X3579667Y-5653248D02*
X3579667Y-5664676D01*
X3579667Y-5664676D02*
X3575857Y-5672295D01*
X3575857Y-5672295D02*
X3572048Y-5676105D01*
X3572048Y-5676105D02*
X3564429Y-5679914D01*
X3564429Y-5679914D02*
X3533952Y-5679914D01*
X3606333Y-5638009D02*
X3659667Y-5638009D01*
X3659667Y-5638009D02*
X3625381Y-5718009D01*
D10*
%TO.C,Q1*%
X11059381Y-2541714D02*
X11064143Y-2527429D01*
X11064143Y-2527429D02*
X11068905Y-2522667D01*
X11068905Y-2522667D02*
X11078429Y-2517905D01*
X11078429Y-2517905D02*
X11092714Y-2517905D01*
X11092714Y-2517905D02*
X11102238Y-2522667D01*
X11102238Y-2522667D02*
X11107000Y-2527429D01*
X11107000Y-2527429D02*
X11111762Y-2536952D01*
X11111762Y-2536952D02*
X11111762Y-2575048D01*
X11111762Y-2575048D02*
X11011762Y-2575048D01*
X11011762Y-2575048D02*
X11011762Y-2541714D01*
X11011762Y-2541714D02*
X11016524Y-2532190D01*
X11016524Y-2532190D02*
X11021286Y-2527429D01*
X11021286Y-2527429D02*
X11030810Y-2522667D01*
X11030810Y-2522667D02*
X11040333Y-2522667D01*
X11040333Y-2522667D02*
X11049857Y-2527429D01*
X11049857Y-2527429D02*
X11054619Y-2532190D01*
X11054619Y-2532190D02*
X11059381Y-2541714D01*
X11059381Y-2541714D02*
X11059381Y-2575048D01*
X11102238Y-2417905D02*
X11107000Y-2422667D01*
X11107000Y-2422667D02*
X11111762Y-2436952D01*
X11111762Y-2436952D02*
X11111762Y-2446476D01*
X11111762Y-2446476D02*
X11107000Y-2460762D01*
X11107000Y-2460762D02*
X11097476Y-2470286D01*
X11097476Y-2470286D02*
X11087952Y-2475048D01*
X11087952Y-2475048D02*
X11068905Y-2479809D01*
X11068905Y-2479809D02*
X11054619Y-2479809D01*
X11054619Y-2479809D02*
X11035571Y-2475048D01*
X11035571Y-2475048D02*
X11026048Y-2470286D01*
X11026048Y-2470286D02*
X11016524Y-2460762D01*
X11016524Y-2460762D02*
X11011762Y-2446476D01*
X11011762Y-2446476D02*
X11011762Y-2436952D01*
X11011762Y-2436952D02*
X11016524Y-2422667D01*
X11016524Y-2422667D02*
X11021286Y-2417905D01*
X11054619Y-2360762D02*
X11049857Y-2370286D01*
X11049857Y-2370286D02*
X11045095Y-2375048D01*
X11045095Y-2375048D02*
X11035571Y-2379809D01*
X11035571Y-2379809D02*
X11030810Y-2379809D01*
X11030810Y-2379809D02*
X11021286Y-2375048D01*
X11021286Y-2375048D02*
X11016524Y-2370286D01*
X11016524Y-2370286D02*
X11011762Y-2360762D01*
X11011762Y-2360762D02*
X11011762Y-2341714D01*
X11011762Y-2341714D02*
X11016524Y-2332190D01*
X11016524Y-2332190D02*
X11021286Y-2327429D01*
X11021286Y-2327429D02*
X11030810Y-2322667D01*
X11030810Y-2322667D02*
X11035571Y-2322667D01*
X11035571Y-2322667D02*
X11045095Y-2327429D01*
X11045095Y-2327429D02*
X11049857Y-2332190D01*
X11049857Y-2332190D02*
X11054619Y-2341714D01*
X11054619Y-2341714D02*
X11054619Y-2360762D01*
X11054619Y-2360762D02*
X11059381Y-2370286D01*
X11059381Y-2370286D02*
X11064143Y-2375048D01*
X11064143Y-2375048D02*
X11073667Y-2379809D01*
X11073667Y-2379809D02*
X11092714Y-2379809D01*
X11092714Y-2379809D02*
X11102238Y-2375048D01*
X11102238Y-2375048D02*
X11107000Y-2370286D01*
X11107000Y-2370286D02*
X11111762Y-2360762D01*
X11111762Y-2360762D02*
X11111762Y-2341714D01*
X11111762Y-2341714D02*
X11107000Y-2332190D01*
X11107000Y-2332190D02*
X11102238Y-2327429D01*
X11102238Y-2327429D02*
X11092714Y-2322667D01*
X11092714Y-2322667D02*
X11073667Y-2322667D01*
X11073667Y-2322667D02*
X11064143Y-2327429D01*
X11064143Y-2327429D02*
X11059381Y-2332190D01*
X11059381Y-2332190D02*
X11054619Y-2341714D01*
X11111762Y-2227429D02*
X11111762Y-2284571D01*
X11111762Y-2256000D02*
X11011762Y-2256000D01*
X11011762Y-2256000D02*
X11026048Y-2265524D01*
X11026048Y-2265524D02*
X11035571Y-2275048D01*
X11035571Y-2275048D02*
X11040333Y-2284571D01*
X11054619Y-2170286D02*
X11049857Y-2179809D01*
X11049857Y-2179809D02*
X11045095Y-2184571D01*
X11045095Y-2184571D02*
X11035571Y-2189333D01*
X11035571Y-2189333D02*
X11030810Y-2189333D01*
X11030810Y-2189333D02*
X11021286Y-2184571D01*
X11021286Y-2184571D02*
X11016524Y-2179809D01*
X11016524Y-2179809D02*
X11011762Y-2170286D01*
X11011762Y-2170286D02*
X11011762Y-2151238D01*
X11011762Y-2151238D02*
X11016524Y-2141714D01*
X11016524Y-2141714D02*
X11021286Y-2136952D01*
X11021286Y-2136952D02*
X11030810Y-2132190D01*
X11030810Y-2132190D02*
X11035571Y-2132190D01*
X11035571Y-2132190D02*
X11045095Y-2136952D01*
X11045095Y-2136952D02*
X11049857Y-2141714D01*
X11049857Y-2141714D02*
X11054619Y-2151238D01*
X11054619Y-2151238D02*
X11054619Y-2170286D01*
X11054619Y-2170286D02*
X11059381Y-2179809D01*
X11059381Y-2179809D02*
X11064143Y-2184571D01*
X11064143Y-2184571D02*
X11073667Y-2189333D01*
X11073667Y-2189333D02*
X11092714Y-2189333D01*
X11092714Y-2189333D02*
X11102238Y-2184571D01*
X11102238Y-2184571D02*
X11107000Y-2179809D01*
X11107000Y-2179809D02*
X11111762Y-2170286D01*
X11111762Y-2170286D02*
X11111762Y-2151238D01*
X11111762Y-2151238D02*
X11107000Y-2141714D01*
X11107000Y-2141714D02*
X11102238Y-2136952D01*
X11102238Y-2136952D02*
X11092714Y-2132190D01*
X11092714Y-2132190D02*
X11073667Y-2132190D01*
X11073667Y-2132190D02*
X11064143Y-2136952D01*
X11064143Y-2136952D02*
X11059381Y-2141714D01*
X11059381Y-2141714D02*
X11054619Y-2151238D01*
D12*
X11116230Y-3030916D02*
X11114706Y-3033964D01*
X11114706Y-3033964D02*
X11111659Y-3037012D01*
X11111659Y-3037012D02*
X11107087Y-3041583D01*
X11107087Y-3041583D02*
X11105563Y-3044631D01*
X11105563Y-3044631D02*
X11105563Y-3047678D01*
X11113183Y-3046154D02*
X11111659Y-3049202D01*
X11111659Y-3049202D02*
X11108611Y-3052250D01*
X11108611Y-3052250D02*
X11102516Y-3053773D01*
X11102516Y-3053773D02*
X11091849Y-3053773D01*
X11091849Y-3053773D02*
X11085754Y-3052250D01*
X11085754Y-3052250D02*
X11082706Y-3049202D01*
X11082706Y-3049202D02*
X11081183Y-3046154D01*
X11081183Y-3046154D02*
X11081183Y-3040059D01*
X11081183Y-3040059D02*
X11082706Y-3037012D01*
X11082706Y-3037012D02*
X11085754Y-3033964D01*
X11085754Y-3033964D02*
X11091849Y-3032440D01*
X11091849Y-3032440D02*
X11102516Y-3032440D01*
X11102516Y-3032440D02*
X11108611Y-3033964D01*
X11108611Y-3033964D02*
X11111659Y-3037012D01*
X11111659Y-3037012D02*
X11113183Y-3040059D01*
X11113183Y-3040059D02*
X11113183Y-3046154D01*
X11113183Y-3001964D02*
X11113183Y-3020250D01*
X11113183Y-3011107D02*
X11081183Y-3011107D01*
X11081183Y-3011107D02*
X11085754Y-3014154D01*
X11085754Y-3014154D02*
X11088802Y-3017202D01*
X11088802Y-3017202D02*
X11090325Y-3020250D01*
D10*
%TO.C,R5*%
X10426262Y-3536655D02*
X10426262Y-3593797D01*
X10426262Y-3565226D02*
X10326262Y-3565226D01*
X10326262Y-3565226D02*
X10340548Y-3574750D01*
X10340548Y-3574750D02*
X10350071Y-3584274D01*
X10350071Y-3584274D02*
X10354833Y-3593797D01*
X10426262Y-3493797D02*
X10326262Y-3493797D01*
X10388167Y-3484274D02*
X10426262Y-3455702D01*
X10359595Y-3455702D02*
X10397690Y-3493797D01*
D11*
X10599010Y-3538083D02*
X10560914Y-3564750D01*
X10599010Y-3583797D02*
X10519010Y-3583797D01*
X10519010Y-3583797D02*
X10519010Y-3553321D01*
X10519010Y-3553321D02*
X10522819Y-3545702D01*
X10522819Y-3545702D02*
X10526629Y-3541893D01*
X10526629Y-3541893D02*
X10534248Y-3538083D01*
X10534248Y-3538083D02*
X10545676Y-3538083D01*
X10545676Y-3538083D02*
X10553295Y-3541893D01*
X10553295Y-3541893D02*
X10557105Y-3545702D01*
X10557105Y-3545702D02*
X10560914Y-3553321D01*
X10560914Y-3553321D02*
X10560914Y-3583797D01*
X10519010Y-3465702D02*
X10519010Y-3503797D01*
X10519010Y-3503797D02*
X10557105Y-3507607D01*
X10557105Y-3507607D02*
X10553295Y-3503797D01*
X10553295Y-3503797D02*
X10549486Y-3496178D01*
X10549486Y-3496178D02*
X10549486Y-3477131D01*
X10549486Y-3477131D02*
X10553295Y-3469512D01*
X10553295Y-3469512D02*
X10557105Y-3465702D01*
X10557105Y-3465702D02*
X10564724Y-3461893D01*
X10564724Y-3461893D02*
X10583771Y-3461893D01*
X10583771Y-3461893D02*
X10591390Y-3465702D01*
X10591390Y-3465702D02*
X10595200Y-3469512D01*
X10595200Y-3469512D02*
X10599010Y-3477131D01*
X10599010Y-3477131D02*
X10599010Y-3496178D01*
X10599010Y-3496178D02*
X10595200Y-3503797D01*
X10595200Y-3503797D02*
X10591390Y-3507607D01*
D10*
%TO.C,R14*%
X8020857Y-4408262D02*
X7963714Y-4408262D01*
X7992286Y-4408262D02*
X7992286Y-4308262D01*
X7992286Y-4308262D02*
X7982762Y-4322548D01*
X7982762Y-4322548D02*
X7973238Y-4332071D01*
X7973238Y-4332071D02*
X7963714Y-4336833D01*
X8082762Y-4308262D02*
X8092286Y-4308262D01*
X8092286Y-4308262D02*
X8101809Y-4313024D01*
X8101809Y-4313024D02*
X8106571Y-4317786D01*
X8106571Y-4317786D02*
X8111333Y-4327310D01*
X8111333Y-4327310D02*
X8116095Y-4346357D01*
X8116095Y-4346357D02*
X8116095Y-4370167D01*
X8116095Y-4370167D02*
X8111333Y-4389214D01*
X8111333Y-4389214D02*
X8106571Y-4398738D01*
X8106571Y-4398738D02*
X8101809Y-4403500D01*
X8101809Y-4403500D02*
X8092286Y-4408262D01*
X8092286Y-4408262D02*
X8082762Y-4408262D01*
X8082762Y-4408262D02*
X8073238Y-4403500D01*
X8073238Y-4403500D02*
X8068476Y-4398738D01*
X8068476Y-4398738D02*
X8063714Y-4389214D01*
X8063714Y-4389214D02*
X8058952Y-4370167D01*
X8058952Y-4370167D02*
X8058952Y-4346357D01*
X8058952Y-4346357D02*
X8063714Y-4327310D01*
X8063714Y-4327310D02*
X8068476Y-4317786D01*
X8068476Y-4317786D02*
X8073238Y-4313024D01*
X8073238Y-4313024D02*
X8082762Y-4308262D01*
X8178000Y-4308262D02*
X8187524Y-4308262D01*
X8187524Y-4308262D02*
X8197048Y-4313024D01*
X8197048Y-4313024D02*
X8201809Y-4317786D01*
X8201809Y-4317786D02*
X8206571Y-4327310D01*
X8206571Y-4327310D02*
X8211333Y-4346357D01*
X8211333Y-4346357D02*
X8211333Y-4370167D01*
X8211333Y-4370167D02*
X8206571Y-4389214D01*
X8206571Y-4389214D02*
X8201809Y-4398738D01*
X8201809Y-4398738D02*
X8197048Y-4403500D01*
X8197048Y-4403500D02*
X8187524Y-4408262D01*
X8187524Y-4408262D02*
X8178000Y-4408262D01*
X8178000Y-4408262D02*
X8168476Y-4403500D01*
X8168476Y-4403500D02*
X8163714Y-4398738D01*
X8163714Y-4398738D02*
X8158952Y-4389214D01*
X8158952Y-4389214D02*
X8154190Y-4370167D01*
X8154190Y-4370167D02*
X8154190Y-4346357D01*
X8154190Y-4346357D02*
X8158952Y-4327310D01*
X8158952Y-4327310D02*
X8163714Y-4317786D01*
X8163714Y-4317786D02*
X8168476Y-4313024D01*
X8168476Y-4313024D02*
X8178000Y-4308262D01*
X8254190Y-4408262D02*
X8254190Y-4308262D01*
X8263714Y-4370167D02*
X8292286Y-4408262D01*
X8292286Y-4341595D02*
X8254190Y-4379690D01*
D11*
X7342009Y-4402010D02*
X7315342Y-4363914D01*
X7296295Y-4402010D02*
X7296295Y-4322010D01*
X7296295Y-4322010D02*
X7326771Y-4322010D01*
X7326771Y-4322010D02*
X7334390Y-4325819D01*
X7334390Y-4325819D02*
X7338199Y-4329629D01*
X7338199Y-4329629D02*
X7342009Y-4337248D01*
X7342009Y-4337248D02*
X7342009Y-4348676D01*
X7342009Y-4348676D02*
X7338199Y-4356295D01*
X7338199Y-4356295D02*
X7334390Y-4360105D01*
X7334390Y-4360105D02*
X7326771Y-4363914D01*
X7326771Y-4363914D02*
X7296295Y-4363914D01*
X7418199Y-4402010D02*
X7372485Y-4402010D01*
X7395342Y-4402010D02*
X7395342Y-4322010D01*
X7395342Y-4322010D02*
X7387723Y-4333438D01*
X7387723Y-4333438D02*
X7380104Y-4341057D01*
X7380104Y-4341057D02*
X7372485Y-4344867D01*
X7486771Y-4348676D02*
X7486771Y-4402010D01*
X7467723Y-4318200D02*
X7448675Y-4375343D01*
X7448675Y-4375343D02*
X7498199Y-4375343D01*
D10*
%TO.C,R2*%
X7969262Y-2380893D02*
X7969262Y-2438036D01*
X7969262Y-2409464D02*
X7869262Y-2409464D01*
X7869262Y-2409464D02*
X7883548Y-2418988D01*
X7883548Y-2418988D02*
X7893071Y-2428512D01*
X7893071Y-2428512D02*
X7897833Y-2438036D01*
X7869262Y-2318988D02*
X7869262Y-2309464D01*
X7869262Y-2309464D02*
X7874024Y-2299940D01*
X7874024Y-2299940D02*
X7878786Y-2295179D01*
X7878786Y-2295179D02*
X7888309Y-2290417D01*
X7888309Y-2290417D02*
X7907357Y-2285655D01*
X7907357Y-2285655D02*
X7931167Y-2285655D01*
X7931167Y-2285655D02*
X7950214Y-2290417D01*
X7950214Y-2290417D02*
X7959738Y-2295179D01*
X7959738Y-2295179D02*
X7964500Y-2299940D01*
X7964500Y-2299940D02*
X7969262Y-2309464D01*
X7969262Y-2309464D02*
X7969262Y-2318988D01*
X7969262Y-2318988D02*
X7964500Y-2328512D01*
X7964500Y-2328512D02*
X7959738Y-2333274D01*
X7959738Y-2333274D02*
X7950214Y-2338036D01*
X7950214Y-2338036D02*
X7931167Y-2342798D01*
X7931167Y-2342798D02*
X7907357Y-2342798D01*
X7907357Y-2342798D02*
X7888309Y-2338036D01*
X7888309Y-2338036D02*
X7878786Y-2333274D01*
X7878786Y-2333274D02*
X7874024Y-2328512D01*
X7874024Y-2328512D02*
X7869262Y-2318988D01*
X7869262Y-2223750D02*
X7869262Y-2214226D01*
X7869262Y-2214226D02*
X7874024Y-2204702D01*
X7874024Y-2204702D02*
X7878786Y-2199940D01*
X7878786Y-2199940D02*
X7888309Y-2195179D01*
X7888309Y-2195179D02*
X7907357Y-2190417D01*
X7907357Y-2190417D02*
X7931167Y-2190417D01*
X7931167Y-2190417D02*
X7950214Y-2195179D01*
X7950214Y-2195179D02*
X7959738Y-2199940D01*
X7959738Y-2199940D02*
X7964500Y-2204702D01*
X7964500Y-2204702D02*
X7969262Y-2214226D01*
X7969262Y-2214226D02*
X7969262Y-2223750D01*
X7969262Y-2223750D02*
X7964500Y-2233274D01*
X7964500Y-2233274D02*
X7959738Y-2238036D01*
X7959738Y-2238036D02*
X7950214Y-2242798D01*
X7950214Y-2242798D02*
X7931167Y-2247559D01*
X7931167Y-2247559D02*
X7907357Y-2247559D01*
X7907357Y-2247559D02*
X7888309Y-2242798D01*
X7888309Y-2242798D02*
X7878786Y-2238036D01*
X7878786Y-2238036D02*
X7874024Y-2233274D01*
X7874024Y-2233274D02*
X7869262Y-2223750D01*
X7969262Y-2147559D02*
X7869262Y-2147559D01*
X7931167Y-2138036D02*
X7969262Y-2109464D01*
X7902595Y-2109464D02*
X7940690Y-2147559D01*
D11*
X8142009Y-2287083D02*
X8103914Y-2313750D01*
X8142009Y-2332798D02*
X8062009Y-2332798D01*
X8062009Y-2332798D02*
X8062009Y-2302321D01*
X8062009Y-2302321D02*
X8065819Y-2294702D01*
X8065819Y-2294702D02*
X8069628Y-2290893D01*
X8069628Y-2290893D02*
X8077248Y-2287083D01*
X8077248Y-2287083D02*
X8088676Y-2287083D01*
X8088676Y-2287083D02*
X8096295Y-2290893D01*
X8096295Y-2290893D02*
X8100105Y-2294702D01*
X8100105Y-2294702D02*
X8103914Y-2302321D01*
X8103914Y-2302321D02*
X8103914Y-2332798D01*
X8069628Y-2256607D02*
X8065819Y-2252798D01*
X8065819Y-2252798D02*
X8062009Y-2245179D01*
X8062009Y-2245179D02*
X8062009Y-2226131D01*
X8062009Y-2226131D02*
X8065819Y-2218512D01*
X8065819Y-2218512D02*
X8069628Y-2214702D01*
X8069628Y-2214702D02*
X8077248Y-2210893D01*
X8077248Y-2210893D02*
X8084867Y-2210893D01*
X8084867Y-2210893D02*
X8096295Y-2214702D01*
X8096295Y-2214702D02*
X8142009Y-2260417D01*
X8142009Y-2260417D02*
X8142009Y-2210893D01*
%TO.C,C11*%
X5349390Y-3598428D02*
X5353200Y-3602238D01*
X5353200Y-3602238D02*
X5357010Y-3613667D01*
X5357010Y-3613667D02*
X5357010Y-3621286D01*
X5357010Y-3621286D02*
X5353200Y-3632714D01*
X5353200Y-3632714D02*
X5345581Y-3640333D01*
X5345581Y-3640333D02*
X5337962Y-3644143D01*
X5337962Y-3644143D02*
X5322724Y-3647952D01*
X5322724Y-3647952D02*
X5311295Y-3647952D01*
X5311295Y-3647952D02*
X5296057Y-3644143D01*
X5296057Y-3644143D02*
X5288438Y-3640333D01*
X5288438Y-3640333D02*
X5280819Y-3632714D01*
X5280819Y-3632714D02*
X5277010Y-3621286D01*
X5277010Y-3621286D02*
X5277010Y-3613667D01*
X5277010Y-3613667D02*
X5280819Y-3602238D01*
X5280819Y-3602238D02*
X5284629Y-3598428D01*
X5357010Y-3522238D02*
X5357010Y-3567952D01*
X5357010Y-3545095D02*
X5277010Y-3545095D01*
X5277010Y-3545095D02*
X5288438Y-3552714D01*
X5288438Y-3552714D02*
X5296057Y-3560333D01*
X5296057Y-3560333D02*
X5299867Y-3567952D01*
X5357010Y-3446048D02*
X5357010Y-3491762D01*
X5357010Y-3468905D02*
X5277010Y-3468905D01*
X5277010Y-3468905D02*
X5288438Y-3476524D01*
X5288438Y-3476524D02*
X5296057Y-3484143D01*
X5296057Y-3484143D02*
X5299867Y-3491762D01*
D10*
%TO.C,L2*%
X5210378Y-1971052D02*
X5162759Y-1971052D01*
X5162759Y-1971052D02*
X5162759Y-1871052D01*
%TO.C,J3*%
X5746240Y-2231742D02*
X5746240Y-2303171D01*
X5746240Y-2303171D02*
X5741479Y-2317456D01*
X5741479Y-2317456D02*
X5731955Y-2326980D01*
X5731955Y-2326980D02*
X5717669Y-2331742D01*
X5717669Y-2331742D02*
X5708145Y-2331742D01*
X5784336Y-2231742D02*
X5846240Y-2231742D01*
X5846240Y-2231742D02*
X5812907Y-2269837D01*
X5812907Y-2269837D02*
X5827193Y-2269837D01*
X5827193Y-2269837D02*
X5836717Y-2274599D01*
X5836717Y-2274599D02*
X5841479Y-2279361D01*
X5841479Y-2279361D02*
X5846240Y-2288885D01*
X5846240Y-2288885D02*
X5846240Y-2312695D01*
X5846240Y-2312695D02*
X5841479Y-2322218D01*
X5841479Y-2322218D02*
X5836717Y-2326980D01*
X5836717Y-2326980D02*
X5827193Y-2331742D01*
X5827193Y-2331742D02*
X5798621Y-2331742D01*
X5798621Y-2331742D02*
X5789098Y-2326980D01*
X5789098Y-2326980D02*
X5784336Y-2322218D01*
D13*
%TO.C,C1*%
X4590750Y-4655000D02*
X4270750Y-4655000D01*
X4590750Y-4495000D02*
X4590750Y-4655000D01*
X4270750Y-4655000D02*
X4270750Y-4495000D01*
X4270750Y-4495000D02*
X4590750Y-4495000D01*
%TO.C,R15*%
X7084945Y-5987625D02*
X7084945Y-5667625D01*
X7244945Y-5987625D02*
X7084945Y-5987625D01*
X7084945Y-5667625D02*
X7244945Y-5667625D01*
X7244945Y-5667625D02*
X7244945Y-5987625D01*
%TO.C,R12*%
X6316320Y-5136750D02*
X6316320Y-4816750D01*
X6476320Y-5136750D02*
X6316320Y-5136750D01*
X6316320Y-4816750D02*
X6476320Y-4816750D01*
X6476320Y-4816750D02*
X6476320Y-5136750D01*
%TO.C,Q3*%
X4451250Y-5839000D02*
X4483750Y-5871500D01*
X4193750Y-5839000D02*
X4451250Y-5839000D01*
X4483750Y-5871500D02*
X4483750Y-5969000D01*
X4483750Y-5969000D02*
X4193750Y-5969000D01*
X4193750Y-5969000D02*
X4193750Y-5839000D01*
%TO.C,D4*%
X8733945Y-4842375D02*
X8613945Y-4842375D01*
X8613945Y-4842375D02*
X8613945Y-5162375D01*
X8773945Y-4882375D02*
X8733945Y-4842375D01*
X8773945Y-5162375D02*
X8773945Y-4882375D01*
X8613945Y-5162375D02*
X8773945Y-5162375D01*
%TO.C,D2*%
X8063000Y-2881000D02*
X8183000Y-2881000D01*
X8183000Y-2881000D02*
X8183000Y-2561000D01*
X8023000Y-2841000D02*
X8063000Y-2881000D01*
X8023000Y-2561000D02*
X8023000Y-2841000D01*
X8183000Y-2561000D02*
X8023000Y-2561000D01*
%TO.C,J1*%
X9325000Y-5288000D02*
X9325000Y-5478500D01*
X6277000Y-5288000D02*
X9325000Y-5288000D01*
X9325000Y-5478500D02*
X9261500Y-5542000D01*
X9261500Y-5542000D02*
X6277000Y-5542000D01*
X6277000Y-5542000D02*
X6277000Y-5288000D01*
%TO.C,C3*%
X6405187Y-3759500D02*
X6405187Y-4079500D01*
X6245187Y-3759500D02*
X6405187Y-3759500D01*
X6405187Y-4079500D02*
X6245187Y-4079500D01*
X6245187Y-4079500D02*
X6245187Y-3759500D01*
%TO.C,D6*%
X9243000Y-4842000D02*
X9123000Y-4842000D01*
X9123000Y-4842000D02*
X9123000Y-5162000D01*
X9283000Y-4882000D02*
X9243000Y-4842000D01*
X9283000Y-5162000D02*
X9283000Y-4882000D01*
X9123000Y-5162000D02*
X9283000Y-5162000D01*
%TO.C,C2*%
X4771250Y-4497000D02*
X5091250Y-4497000D01*
X4771250Y-4657000D02*
X4771250Y-4497000D01*
X5091250Y-4497000D02*
X5091250Y-4657000D01*
X5091250Y-4657000D02*
X4771250Y-4657000D01*
%TO.C,R20*%
X7849945Y-5987625D02*
X7849945Y-5667625D01*
X8009945Y-5987625D02*
X7849945Y-5987625D01*
X7849945Y-5667625D02*
X8009945Y-5667625D01*
X8009945Y-5667625D02*
X8009945Y-5987625D01*
%TO.C,R19*%
X7549937Y-4670000D02*
X7229937Y-4670000D01*
X7549937Y-4510000D02*
X7549937Y-4670000D01*
X7229937Y-4670000D02*
X7229937Y-4510000D01*
X7229937Y-4510000D02*
X7549937Y-4510000D01*
%TO.C,R6*%
X11127000Y-3682250D02*
X11127000Y-3362250D01*
X11287000Y-3682250D02*
X11127000Y-3682250D01*
X11127000Y-3362250D02*
X11287000Y-3362250D01*
X11287000Y-3362250D02*
X11287000Y-3682250D01*
%TO.C,R9*%
X4561000Y-5598250D02*
X4561000Y-5278250D01*
X4721000Y-5598250D02*
X4561000Y-5598250D01*
X4561000Y-5278250D02*
X4721000Y-5278250D01*
X4721000Y-5278250D02*
X4721000Y-5598250D01*
%TO.C,D1*%
X8379000Y-2887000D02*
X8499000Y-2887000D01*
X8499000Y-2887000D02*
X8499000Y-2567000D01*
X8339000Y-2847000D02*
X8379000Y-2887000D01*
X8339000Y-2567000D02*
X8339000Y-2847000D01*
X8499000Y-2567000D02*
X8339000Y-2567000D01*
%TO.C,U2*%
X8780250Y-2559500D02*
X9350250Y-2559500D01*
X8780250Y-2559500D02*
X8680250Y-2459500D01*
X9350250Y-2559500D02*
X9350250Y-2189500D01*
X8680250Y-2459500D02*
X8680250Y-2189500D01*
X8680250Y-2189500D02*
X9350250Y-2189500D01*
%TO.C,D5*%
X8995945Y-4844375D02*
X8875945Y-4844375D01*
X8875945Y-4844375D02*
X8875945Y-5164375D01*
X9035945Y-4884375D02*
X8995945Y-4844375D01*
X9035945Y-5164375D02*
X9035945Y-4884375D01*
X8875945Y-5164375D02*
X9035945Y-5164375D01*
%TO.C,R8*%
X3995000Y-5488250D02*
X3995000Y-5168250D01*
X4155000Y-5488250D02*
X3995000Y-5488250D01*
X3995000Y-5168250D02*
X4155000Y-5168250D01*
X4155000Y-5168250D02*
X4155000Y-5488250D01*
%TO.C,R18*%
X6568820Y-5136250D02*
X6568820Y-4816250D01*
X6728820Y-5136250D02*
X6568820Y-5136250D01*
X6568820Y-4816250D02*
X6728820Y-4816250D01*
X6728820Y-4816250D02*
X6728820Y-5136250D01*
%TO.C,R1*%
X8498000Y-2112750D02*
X8498000Y-2432750D01*
X8338000Y-2112750D02*
X8498000Y-2112750D01*
X8498000Y-2432750D02*
X8338000Y-2432750D01*
X8338000Y-2432750D02*
X8338000Y-2112750D01*
%TO.C,R17*%
X6862187Y-3764250D02*
X6862187Y-4084250D01*
X6702187Y-3764250D02*
X6862187Y-3764250D01*
X6862187Y-4084250D02*
X6702187Y-4084250D01*
X6702187Y-4084250D02*
X6702187Y-3764250D01*
%TO.C,R4*%
X9714000Y-2041250D02*
X9714000Y-2361250D01*
X9554000Y-2041250D02*
X9714000Y-2041250D01*
X9714000Y-2361250D02*
X9554000Y-2361250D01*
X9554000Y-2361250D02*
X9554000Y-2041250D01*
%TO.C,R13*%
X6642187Y-3756750D02*
X6642187Y-4076750D01*
X6482187Y-3756750D02*
X6642187Y-3756750D01*
X6642187Y-4076750D02*
X6482187Y-4076750D01*
X6482187Y-4076750D02*
X6482187Y-3756750D01*
%TO.C,R16*%
X8105945Y-5989625D02*
X8105945Y-5669625D01*
X8265945Y-5989625D02*
X8105945Y-5989625D01*
X8105945Y-5669625D02*
X8265945Y-5669625D01*
X8265945Y-5669625D02*
X8265945Y-5989625D01*
%TO.C,D3*%
X9595000Y-2813000D02*
X9715000Y-2813000D01*
X9715000Y-2813000D02*
X9715000Y-2493000D01*
X9555000Y-2773000D02*
X9595000Y-2813000D01*
X9555000Y-2493000D02*
X9555000Y-2773000D01*
X9715000Y-2493000D02*
X9555000Y-2493000D01*
%TO.C,R10*%
X4541750Y-6115750D02*
X4541750Y-5795750D01*
X4701750Y-6115750D02*
X4541750Y-6115750D01*
X4541750Y-5795750D02*
X4701750Y-5795750D01*
X4701750Y-5795750D02*
X4701750Y-6115750D01*
%TO.C,R3*%
X11313371Y-3234881D02*
X11313371Y-2914881D01*
X11473371Y-3234881D02*
X11313371Y-3234881D01*
X11313371Y-2914881D02*
X11473371Y-2914881D01*
X11473371Y-2914881D02*
X11473371Y-3234881D01*
%TO.C,R11*%
X6832945Y-5989625D02*
X6832945Y-5669625D01*
X6992945Y-5989625D02*
X6832945Y-5989625D01*
X6832945Y-5669625D02*
X6992945Y-5669625D01*
X6992945Y-5669625D02*
X6992945Y-5989625D01*
%TO.C,U4*%
X10361880Y-5975880D02*
X10361880Y-5864120D01*
X10361880Y-5864120D02*
X10250120Y-5864120D01*
X10361880Y-5721880D02*
X10361880Y-5610120D01*
X10361880Y-5610120D02*
X10250120Y-5610120D01*
X10361880Y-5467880D02*
X10361880Y-5356120D01*
X10361880Y-5356120D02*
X10250120Y-5356120D01*
X10361880Y-5213880D02*
X10361880Y-5102120D01*
X10361880Y-5102120D02*
X10250120Y-5102120D01*
X10361880Y-4959880D02*
X10361880Y-4848120D01*
X10361880Y-4848120D02*
X10250120Y-4848120D01*
X10361880Y-4705880D02*
X10361880Y-4594120D01*
X10361880Y-4594120D02*
X10250120Y-4594120D01*
X10361880Y-4451880D02*
X10361880Y-4340120D01*
X10361880Y-4340120D02*
X10250120Y-4340120D01*
X10361880Y-4197880D02*
X10361880Y-4086120D01*
X10361880Y-4086120D02*
X10250120Y-4086120D01*
X10361880Y-3943880D02*
X10361880Y-3832120D01*
X10361880Y-3832120D02*
X10250120Y-3832120D01*
X10250120Y-5996200D02*
X10250120Y-3811800D01*
X10250120Y-5975880D02*
X10361880Y-5975880D01*
X10250120Y-5864120D02*
X10250120Y-5975880D01*
X10250120Y-5721880D02*
X10361880Y-5721880D01*
X10250120Y-5610120D02*
X10250120Y-5721880D01*
X10250120Y-5467880D02*
X10361880Y-5467880D01*
X10250120Y-5356120D02*
X10250120Y-5467880D01*
X10250120Y-5213880D02*
X10361880Y-5213880D01*
X10250120Y-5102120D02*
X10250120Y-5213880D01*
X10250120Y-4959880D02*
X10361880Y-4959880D01*
X10250120Y-4848120D02*
X10250120Y-4959880D01*
X10250120Y-4705880D02*
X10361880Y-4705880D01*
X10250120Y-4594120D02*
X10250120Y-4705880D01*
X10250120Y-4451880D02*
X10361880Y-4451880D01*
X10250120Y-4340120D02*
X10250120Y-4451880D01*
X10250120Y-4197880D02*
X10361880Y-4197880D01*
X10250120Y-4086120D02*
X10250120Y-4197880D01*
X10250120Y-3943880D02*
X10361880Y-3943880D01*
X10250120Y-3832120D02*
X10250120Y-3943880D01*
X10250120Y-3811800D02*
X9599880Y-3811800D01*
X9955480Y-5996200D02*
X10250120Y-5996200D01*
X9894520Y-5996200D02*
X9955480Y-5996200D01*
X9599880Y-5996200D02*
X9894520Y-5996200D01*
X9599880Y-5975880D02*
X9599880Y-5864120D01*
X9599880Y-5864120D02*
X9488120Y-5864120D01*
X9599880Y-5721880D02*
X9599880Y-5610120D01*
X9599880Y-5610120D02*
X9488120Y-5610120D01*
X9599880Y-5467880D02*
X9599880Y-5356120D01*
X9599880Y-5356120D02*
X9488120Y-5356120D01*
X9599880Y-5213880D02*
X9599880Y-5102120D01*
X9599880Y-5102120D02*
X9488120Y-5102120D01*
X9599880Y-4959880D02*
X9599880Y-4848120D01*
X9599880Y-4848120D02*
X9488120Y-4848120D01*
X9599880Y-4705880D02*
X9599880Y-4594120D01*
X9599880Y-4594120D02*
X9488120Y-4594120D01*
X9599880Y-4451880D02*
X9599880Y-4340120D01*
X9599880Y-4340120D02*
X9488120Y-4340120D01*
X9599880Y-4197880D02*
X9599880Y-4086120D01*
X9599880Y-4086120D02*
X9488120Y-4086120D01*
X9599880Y-3943880D02*
X9599880Y-3832120D01*
X9599880Y-3832120D02*
X9488120Y-3832120D01*
X9599880Y-3811800D02*
X9599880Y-5996200D01*
X9488120Y-5975880D02*
X9599880Y-5975880D01*
X9488120Y-5864120D02*
X9488120Y-5975880D01*
X9488120Y-5721880D02*
X9599880Y-5721880D01*
X9488120Y-5610120D02*
X9488120Y-5721880D01*
X9488120Y-5467880D02*
X9599880Y-5467880D01*
X9488120Y-5356120D02*
X9488120Y-5467880D01*
X9488120Y-5213880D02*
X9599880Y-5213880D01*
X9488120Y-5102120D02*
X9488120Y-5213880D01*
X9488120Y-4959880D02*
X9599880Y-4959880D01*
X9488120Y-4848120D02*
X9488120Y-4959880D01*
X9488120Y-4705880D02*
X9599880Y-4705880D01*
X9488120Y-4594120D02*
X9488120Y-4705880D01*
X9488120Y-4451880D02*
X9599880Y-4451880D01*
X9488120Y-4340120D02*
X9488120Y-4451880D01*
X9488120Y-4197880D02*
X9599880Y-4197880D01*
X9488120Y-4086120D02*
X9488120Y-4197880D01*
X9488120Y-3943880D02*
X9599880Y-3943880D01*
X9488120Y-3832120D02*
X9488120Y-3943880D01*
X9955480Y-5996200D02*
G75*
G03*
X9894520Y-5996200I-30480J0D01*
G01*
%TO.C,Q2*%
X4466500Y-5324000D02*
X4499000Y-5356500D01*
X4209000Y-5324000D02*
X4466500Y-5324000D01*
X4499000Y-5356500D02*
X4499000Y-5454000D01*
X4499000Y-5454000D02*
X4209000Y-5454000D01*
X4209000Y-5454000D02*
X4209000Y-5324000D01*
%TO.C,R7*%
X3976750Y-6009500D02*
X3976750Y-5689500D01*
X4136750Y-6009500D02*
X3976750Y-6009500D01*
X3976750Y-5689500D02*
X4136750Y-5689500D01*
X4136750Y-5689500D02*
X4136750Y-6009500D01*
%TO.C,Q1*%
X11210879Y-2962869D02*
X11243379Y-2995369D01*
X10953379Y-2962869D02*
X11210879Y-2962869D01*
X11243379Y-2995369D02*
X11243379Y-3092869D01*
X11243379Y-3092869D02*
X10953379Y-3092869D01*
X10953379Y-3092869D02*
X10953379Y-2962869D01*
%TO.C,U1*%
X7271000Y-2557000D02*
X7841000Y-2557000D01*
X7271000Y-2557000D02*
X7171000Y-2457000D01*
X7841000Y-2557000D02*
X7841000Y-2187000D01*
X7171000Y-2457000D02*
X7171000Y-2187000D01*
X7171000Y-2187000D02*
X7841000Y-2187000D01*
D14*
%TO.C,U3*%
X6341687Y-4202250D02*
X6341687Y-4692750D01*
X6341687Y-4202250D02*
X6731687Y-4202250D01*
X6341687Y-4692750D02*
X6731687Y-4692750D01*
X6731687Y-4202250D02*
X6731687Y-4692750D01*
D15*
X6142687Y-4217000D02*
G75*
G03*
X6142687Y-4217000I-10000J0D01*
G01*
D13*
%TO.C,C4*%
X7146000Y-3759500D02*
X7146000Y-4079500D01*
X6986000Y-3759500D02*
X7146000Y-3759500D01*
X7146000Y-4079500D02*
X6986000Y-4079500D01*
X6986000Y-4079500D02*
X6986000Y-3759500D01*
%TO.C,R5*%
X10642000Y-3364750D02*
X10642000Y-3684750D01*
X10482000Y-3364750D02*
X10642000Y-3364750D01*
X10642000Y-3684750D02*
X10482000Y-3684750D01*
X10482000Y-3684750D02*
X10482000Y-3364750D01*
%TO.C,R14*%
X7553437Y-4445000D02*
X7233437Y-4445000D01*
X7553437Y-4285000D02*
X7553437Y-4445000D01*
X7233437Y-4445000D02*
X7233437Y-4285000D01*
X7233437Y-4285000D02*
X7553437Y-4285000D01*
%TO.C,R2*%
X8185000Y-2113750D02*
X8185000Y-2433750D01*
X8025000Y-2113750D02*
X8185000Y-2113750D01*
X8185000Y-2433750D02*
X8025000Y-2433750D01*
X8025000Y-2433750D02*
X8025000Y-2113750D01*
%TD*%
D16*
%TO.C,C1*%
D13*
X4653250Y-4640000D02*
X4651347Y-4649567D01*
X4645928Y-4657678D01*
X4637817Y-4663097D01*
X4628250Y-4665000D01*
X4545750Y-4665000D01*
X4536183Y-4663097D01*
X4528072Y-4657678D01*
X4522653Y-4649567D01*
X4520750Y-4640000D01*
X4520750Y-4510000D01*
X4522653Y-4500433D01*
X4528072Y-4492322D01*
X4536183Y-4486903D01*
X4545750Y-4485000D01*
X4628250Y-4485000D01*
X4637817Y-4486903D01*
X4645928Y-4492322D01*
X4651347Y-4500433D01*
X4653250Y-4510000D01*
X4653250Y-4640000D01*
D16*
D13*
X4340750Y-4640000D02*
X4338847Y-4649567D01*
X4333428Y-4657678D01*
X4325317Y-4663097D01*
X4315750Y-4665000D01*
X4233250Y-4665000D01*
X4223683Y-4663097D01*
X4215572Y-4657678D01*
X4210153Y-4649567D01*
X4208250Y-4640000D01*
X4208250Y-4510000D01*
X4210153Y-4500433D01*
X4215572Y-4492322D01*
X4223683Y-4486903D01*
X4233250Y-4485000D01*
X4315750Y-4485000D01*
X4325317Y-4486903D01*
X4333428Y-4492322D01*
X4338847Y-4500433D01*
X4340750Y-4510000D01*
X4340750Y-4640000D01*
%TD*%
D16*
%TO.C,R15*%
D13*
X7102445Y-6030125D02*
X7092878Y-6028222D01*
X7084768Y-6022803D01*
X7079348Y-6014692D01*
X7077445Y-6005125D01*
X7077445Y-5942625D01*
X7079348Y-5933058D01*
X7084768Y-5924947D01*
X7092878Y-5919528D01*
X7102445Y-5917625D01*
X7227445Y-5917625D01*
X7237012Y-5919528D01*
X7245123Y-5924947D01*
X7250542Y-5933058D01*
X7252445Y-5942625D01*
X7252445Y-6005125D01*
X7250542Y-6014692D01*
X7245123Y-6022803D01*
X7237012Y-6028222D01*
X7227445Y-6030125D01*
X7102445Y-6030125D01*
D16*
D13*
X7102445Y-5737625D02*
X7092878Y-5735722D01*
X7084768Y-5730303D01*
X7079348Y-5722192D01*
X7077445Y-5712625D01*
X7077445Y-5650125D01*
X7079348Y-5640558D01*
X7084768Y-5632447D01*
X7092878Y-5627028D01*
X7102445Y-5625125D01*
X7227445Y-5625125D01*
X7237012Y-5627028D01*
X7245123Y-5632447D01*
X7250542Y-5640558D01*
X7252445Y-5650125D01*
X7252445Y-5712625D01*
X7250542Y-5722192D01*
X7245123Y-5730303D01*
X7237012Y-5735722D01*
X7227445Y-5737625D01*
X7102445Y-5737625D01*
%TD*%
D16*
%TO.C,R12*%
D13*
X6333820Y-5179250D02*
X6324253Y-5177347D01*
X6316143Y-5171928D01*
X6310723Y-5163817D01*
X6308820Y-5154250D01*
X6308820Y-5091750D01*
X6310723Y-5082183D01*
X6316143Y-5074072D01*
X6324253Y-5068653D01*
X6333820Y-5066750D01*
X6458820Y-5066750D01*
X6468387Y-5068653D01*
X6476498Y-5074072D01*
X6481917Y-5082183D01*
X6483820Y-5091750D01*
X6483820Y-5154250D01*
X6481917Y-5163817D01*
X6476498Y-5171928D01*
X6468387Y-5177347D01*
X6458820Y-5179250D01*
X6333820Y-5179250D01*
D16*
D13*
X6333820Y-4886750D02*
X6324253Y-4884847D01*
X6316143Y-4879428D01*
X6310723Y-4871317D01*
X6308820Y-4861750D01*
X6308820Y-4799250D01*
X6310723Y-4789683D01*
X6316143Y-4781572D01*
X6324253Y-4776153D01*
X6333820Y-4774250D01*
X6458820Y-4774250D01*
X6468387Y-4776153D01*
X6476498Y-4781572D01*
X6481917Y-4789683D01*
X6483820Y-4799250D01*
X6483820Y-4861750D01*
X6481917Y-4871317D01*
X6476498Y-4879428D01*
X6468387Y-4884847D01*
X6458820Y-4886750D01*
X6333820Y-4886750D01*
%TD*%
D16*
%TO.C,Q3*%
D13*
X4448750Y-5736500D02*
X4454490Y-5737642D01*
X4459357Y-5740893D01*
X4462608Y-5745760D01*
X4463750Y-5751500D01*
X4463750Y-5869000D01*
X4462608Y-5874740D01*
X4459357Y-5879607D01*
X4454490Y-5882858D01*
X4448750Y-5884000D01*
X4418750Y-5884000D01*
X4413010Y-5882858D01*
X4408143Y-5879607D01*
X4404892Y-5874740D01*
X4403750Y-5869000D01*
X4403750Y-5751500D01*
X4404892Y-5745760D01*
X4408143Y-5740893D01*
X4413010Y-5737642D01*
X4418750Y-5736500D01*
X4448750Y-5736500D01*
D16*
D13*
X4258750Y-5736500D02*
X4264490Y-5737642D01*
X4269357Y-5740893D01*
X4272608Y-5745760D01*
X4273750Y-5751500D01*
X4273750Y-5869000D01*
X4272608Y-5874740D01*
X4269357Y-5879607D01*
X4264490Y-5882858D01*
X4258750Y-5884000D01*
X4228750Y-5884000D01*
X4223010Y-5882858D01*
X4218143Y-5879607D01*
X4214892Y-5874740D01*
X4213750Y-5869000D01*
X4213750Y-5751500D01*
X4214892Y-5745760D01*
X4218143Y-5740893D01*
X4223010Y-5737642D01*
X4228750Y-5736500D01*
X4258750Y-5736500D01*
D16*
D13*
X4353750Y-5924000D02*
X4359490Y-5925142D01*
X4364357Y-5928393D01*
X4367608Y-5933260D01*
X4368750Y-5939000D01*
X4368750Y-6056500D01*
X4367608Y-6062240D01*
X4364357Y-6067107D01*
X4359490Y-6070358D01*
X4353750Y-6071500D01*
X4323750Y-6071500D01*
X4318010Y-6070358D01*
X4313143Y-6067107D01*
X4309892Y-6062240D01*
X4308750Y-6056500D01*
X4308750Y-5939000D01*
X4309892Y-5933260D01*
X4313143Y-5928393D01*
X4318010Y-5925142D01*
X4323750Y-5924000D01*
X4353750Y-5924000D01*
%TD*%
D16*
%TO.C,D4*%
D13*
X8756445Y-4799875D02*
X8766013Y-4801778D01*
X8774123Y-4807197D01*
X8779542Y-4815308D01*
X8781445Y-4824875D01*
X8781445Y-4899875D01*
X8779542Y-4909442D01*
X8774123Y-4917553D01*
X8766013Y-4922972D01*
X8756445Y-4924875D01*
X8631445Y-4924875D01*
X8621878Y-4922972D01*
X8613768Y-4917553D01*
X8608348Y-4909442D01*
X8606445Y-4899875D01*
X8606445Y-4824875D01*
X8608348Y-4815308D01*
X8613768Y-4807197D01*
X8621878Y-4801778D01*
X8631445Y-4799875D01*
X8756445Y-4799875D01*
D16*
D13*
X8756445Y-5079875D02*
X8766013Y-5081778D01*
X8774123Y-5087197D01*
X8779542Y-5095308D01*
X8781445Y-5104875D01*
X8781445Y-5179875D01*
X8779542Y-5189442D01*
X8774123Y-5197553D01*
X8766013Y-5202972D01*
X8756445Y-5204875D01*
X8631445Y-5204875D01*
X8621878Y-5202972D01*
X8613768Y-5197553D01*
X8608348Y-5189442D01*
X8606445Y-5179875D01*
X8606445Y-5104875D01*
X8608348Y-5095308D01*
X8613768Y-5087197D01*
X8621878Y-5081778D01*
X8631445Y-5079875D01*
X8756445Y-5079875D01*
%TD*%
D16*
%TO.C,D2*%
D13*
X8040500Y-2923500D02*
X8030933Y-2921597D01*
X8022822Y-2916178D01*
X8017403Y-2908067D01*
X8015500Y-2898500D01*
X8015500Y-2823500D01*
X8017403Y-2813933D01*
X8022822Y-2805822D01*
X8030933Y-2800403D01*
X8040500Y-2798500D01*
X8165500Y-2798500D01*
X8175067Y-2800403D01*
X8183178Y-2805822D01*
X8188597Y-2813933D01*
X8190500Y-2823500D01*
X8190500Y-2898500D01*
X8188597Y-2908067D01*
X8183178Y-2916178D01*
X8175067Y-2921597D01*
X8165500Y-2923500D01*
X8040500Y-2923500D01*
D16*
D13*
X8040500Y-2643500D02*
X8030933Y-2641597D01*
X8022822Y-2636178D01*
X8017403Y-2628067D01*
X8015500Y-2618500D01*
X8015500Y-2543500D01*
X8017403Y-2533933D01*
X8022822Y-2525822D01*
X8030933Y-2520403D01*
X8040500Y-2518500D01*
X8165500Y-2518500D01*
X8175067Y-2520403D01*
X8183178Y-2525822D01*
X8188597Y-2533933D01*
X8190500Y-2543500D01*
X8190500Y-2618500D01*
X8188597Y-2628067D01*
X8183178Y-2636178D01*
X8175067Y-2641597D01*
X8165500Y-2643500D01*
X8040500Y-2643500D01*
%TD*%
%TO.C,J1*%
X9113000Y-5330000D02*
X9113000Y-5500000D01*
X9283000Y-5500000D01*
X9283000Y-5330000D01*
X9113000Y-5330000D01*
X8944000Y-5330000D02*
X8944000Y-5330000D01*
X8944000Y-5330000D02*
G75*
G03*
X8944000Y-5500000I0J-85000D01*
G01*
X8944000Y-5500000D02*
X8944000Y-5500000D01*
X8944000Y-5500000D02*
G75*
G03*
X8944000Y-5330000I0J85000D01*
G01*
X8690000Y-5330000D02*
X8690000Y-5330000D01*
X8690000Y-5330000D02*
G75*
G03*
X8690000Y-5500000I0J-85000D01*
G01*
X8690000Y-5500000D02*
X8690000Y-5500000D01*
X8690000Y-5500000D02*
G75*
G03*
X8690000Y-5330000I0J85000D01*
G01*
X8436000Y-5330000D02*
X8436000Y-5330000D01*
X8436000Y-5330000D02*
G75*
G03*
X8436000Y-5500000I0J-85000D01*
G01*
X8436000Y-5500000D02*
X8436000Y-5500000D01*
X8436000Y-5500000D02*
G75*
G03*
X8436000Y-5330000I0J85000D01*
G01*
X8182000Y-5330000D02*
X8182000Y-5330000D01*
X8182000Y-5330000D02*
G75*
G03*
X8182000Y-5500000I0J-85000D01*
G01*
X8182000Y-5500000D02*
X8182000Y-5500000D01*
X8182000Y-5500000D02*
G75*
G03*
X8182000Y-5330000I0J85000D01*
G01*
X7928000Y-5330000D02*
X7928000Y-5330000D01*
X7928000Y-5330000D02*
G75*
G03*
X7928000Y-5500000I0J-85000D01*
G01*
X7928000Y-5500000D02*
X7928000Y-5500000D01*
X7928000Y-5500000D02*
G75*
G03*
X7928000Y-5330000I0J85000D01*
G01*
X7674000Y-5330000D02*
X7674000Y-5330000D01*
X7674000Y-5330000D02*
G75*
G03*
X7674000Y-5500000I0J-85000D01*
G01*
X7674000Y-5500000D02*
X7674000Y-5500000D01*
X7674000Y-5500000D02*
G75*
G03*
X7674000Y-5330000I0J85000D01*
G01*
X7420000Y-5330000D02*
X7420000Y-5330000D01*
X7420000Y-5330000D02*
G75*
G03*
X7420000Y-5500000I0J-85000D01*
G01*
X7420000Y-5500000D02*
X7420000Y-5500000D01*
X7420000Y-5500000D02*
G75*
G03*
X7420000Y-5330000I0J85000D01*
G01*
X7166000Y-5330000D02*
X7166000Y-5330000D01*
X7166000Y-5330000D02*
G75*
G03*
X7166000Y-5500000I0J-85000D01*
G01*
X7166000Y-5500000D02*
X7166000Y-5500000D01*
X7166000Y-5500000D02*
G75*
G03*
X7166000Y-5330000I0J85000D01*
G01*
X6912000Y-5330000D02*
X6912000Y-5330000D01*
X6912000Y-5330000D02*
G75*
G03*
X6912000Y-5500000I0J-85000D01*
G01*
X6912000Y-5500000D02*
X6912000Y-5500000D01*
X6912000Y-5500000D02*
G75*
G03*
X6912000Y-5330000I0J85000D01*
G01*
X6658000Y-5330000D02*
X6658000Y-5330000D01*
X6658000Y-5330000D02*
G75*
G03*
X6658000Y-5500000I0J-85000D01*
G01*
X6658000Y-5500000D02*
X6658000Y-5500000D01*
X6658000Y-5500000D02*
G75*
G03*
X6658000Y-5330000I0J85000D01*
G01*
X6404000Y-5330000D02*
X6404000Y-5330000D01*
X6404000Y-5330000D02*
G75*
G03*
X6404000Y-5500000I0J-85000D01*
G01*
X6404000Y-5500000D02*
X6404000Y-5500000D01*
X6404000Y-5500000D02*
G75*
G03*
X6404000Y-5330000I0J85000D01*
G01*
%TD*%
D16*
%TO.C,C3*%
D13*
X6390187Y-3714500D02*
X6399755Y-3716403D01*
X6407865Y-3721822D01*
X6413284Y-3729933D01*
X6415187Y-3739500D01*
X6415187Y-3804500D01*
X6413284Y-3814067D01*
X6407865Y-3822178D01*
X6399755Y-3827597D01*
X6390187Y-3829500D01*
X6260187Y-3829500D01*
X6250620Y-3827597D01*
X6242510Y-3822178D01*
X6237090Y-3814067D01*
X6235187Y-3804500D01*
X6235187Y-3739500D01*
X6237090Y-3729933D01*
X6242510Y-3721822D01*
X6250620Y-3716403D01*
X6260187Y-3714500D01*
X6390187Y-3714500D01*
D16*
D13*
X6390187Y-4009500D02*
X6399755Y-4011403D01*
X6407865Y-4016822D01*
X6413284Y-4024933D01*
X6415187Y-4034500D01*
X6415187Y-4099500D01*
X6413284Y-4109067D01*
X6407865Y-4117178D01*
X6399755Y-4122597D01*
X6390187Y-4124500D01*
X6260187Y-4124500D01*
X6250620Y-4122597D01*
X6242510Y-4117178D01*
X6237090Y-4109067D01*
X6235187Y-4099500D01*
X6235187Y-4034500D01*
X6237090Y-4024933D01*
X6242510Y-4016822D01*
X6250620Y-4011403D01*
X6260187Y-4009500D01*
X6390187Y-4009500D01*
%TD*%
D16*
%TO.C,D6*%
D13*
X9265500Y-4799500D02*
X9275067Y-4801403D01*
X9283178Y-4806822D01*
X9288597Y-4814933D01*
X9290500Y-4824500D01*
X9290500Y-4899500D01*
X9288597Y-4909067D01*
X9283178Y-4917178D01*
X9275067Y-4922597D01*
X9265500Y-4924500D01*
X9140500Y-4924500D01*
X9130933Y-4922597D01*
X9122822Y-4917178D01*
X9117403Y-4909067D01*
X9115500Y-4899500D01*
X9115500Y-4824500D01*
X9117403Y-4814933D01*
X9122822Y-4806822D01*
X9130933Y-4801403D01*
X9140500Y-4799500D01*
X9265500Y-4799500D01*
D16*
D13*
X9265500Y-5079500D02*
X9275067Y-5081403D01*
X9283178Y-5086822D01*
X9288597Y-5094933D01*
X9290500Y-5104500D01*
X9290500Y-5179500D01*
X9288597Y-5189067D01*
X9283178Y-5197178D01*
X9275067Y-5202597D01*
X9265500Y-5204500D01*
X9140500Y-5204500D01*
X9130933Y-5202597D01*
X9122822Y-5197178D01*
X9117403Y-5189067D01*
X9115500Y-5179500D01*
X9115500Y-5104500D01*
X9117403Y-5094933D01*
X9122822Y-5086822D01*
X9130933Y-5081403D01*
X9140500Y-5079500D01*
X9265500Y-5079500D01*
%TD*%
D16*
%TO.C,C2*%
D13*
X4708750Y-4512000D02*
X4710653Y-4502433D01*
X4716072Y-4494322D01*
X4724183Y-4488903D01*
X4733750Y-4487000D01*
X4816250Y-4487000D01*
X4825817Y-4488903D01*
X4833928Y-4494322D01*
X4839347Y-4502433D01*
X4841250Y-4512000D01*
X4841250Y-4642000D01*
X4839347Y-4651567D01*
X4833928Y-4659678D01*
X4825817Y-4665097D01*
X4816250Y-4667000D01*
X4733750Y-4667000D01*
X4724183Y-4665097D01*
X4716072Y-4659678D01*
X4710653Y-4651567D01*
X4708750Y-4642000D01*
X4708750Y-4512000D01*
D16*
D13*
X5021250Y-4512000D02*
X5023153Y-4502433D01*
X5028572Y-4494322D01*
X5036683Y-4488903D01*
X5046250Y-4487000D01*
X5128750Y-4487000D01*
X5138317Y-4488903D01*
X5146428Y-4494322D01*
X5151847Y-4502433D01*
X5153750Y-4512000D01*
X5153750Y-4642000D01*
X5151847Y-4651567D01*
X5146428Y-4659678D01*
X5138317Y-4665097D01*
X5128750Y-4667000D01*
X5046250Y-4667000D01*
X5036683Y-4665097D01*
X5028572Y-4659678D01*
X5023153Y-4651567D01*
X5021250Y-4642000D01*
X5021250Y-4512000D01*
%TD*%
D16*
%TO.C,R20*%
D13*
X7867445Y-6030125D02*
X7857878Y-6028222D01*
X7849768Y-6022803D01*
X7844348Y-6014692D01*
X7842445Y-6005125D01*
X7842445Y-5942625D01*
X7844348Y-5933058D01*
X7849768Y-5924947D01*
X7857878Y-5919528D01*
X7867445Y-5917625D01*
X7992445Y-5917625D01*
X8002012Y-5919528D01*
X8010123Y-5924947D01*
X8015542Y-5933058D01*
X8017445Y-5942625D01*
X8017445Y-6005125D01*
X8015542Y-6014692D01*
X8010123Y-6022803D01*
X8002012Y-6028222D01*
X7992445Y-6030125D01*
X7867445Y-6030125D01*
D16*
D13*
X7867445Y-5737625D02*
X7857878Y-5735722D01*
X7849768Y-5730303D01*
X7844348Y-5722192D01*
X7842445Y-5712625D01*
X7842445Y-5650125D01*
X7844348Y-5640558D01*
X7849768Y-5632447D01*
X7857878Y-5627028D01*
X7867445Y-5625125D01*
X7992445Y-5625125D01*
X8002012Y-5627028D01*
X8010123Y-5632447D01*
X8015542Y-5640558D01*
X8017445Y-5650125D01*
X8017445Y-5712625D01*
X8015542Y-5722192D01*
X8010123Y-5730303D01*
X8002012Y-5735722D01*
X7992445Y-5737625D01*
X7867445Y-5737625D01*
%TD*%
D16*
%TO.C,R19*%
D13*
X7592437Y-4652500D02*
X7590534Y-4662067D01*
X7585115Y-4670178D01*
X7577005Y-4675597D01*
X7567437Y-4677500D01*
X7504937Y-4677500D01*
X7495370Y-4675597D01*
X7487260Y-4670178D01*
X7481840Y-4662067D01*
X7479937Y-4652500D01*
X7479937Y-4527500D01*
X7481840Y-4517933D01*
X7487260Y-4509822D01*
X7495370Y-4504403D01*
X7504937Y-4502500D01*
X7567437Y-4502500D01*
X7577005Y-4504403D01*
X7585115Y-4509822D01*
X7590534Y-4517933D01*
X7592437Y-4527500D01*
X7592437Y-4652500D01*
D16*
D13*
X7299937Y-4652500D02*
X7298034Y-4662067D01*
X7292615Y-4670178D01*
X7284505Y-4675597D01*
X7274937Y-4677500D01*
X7212437Y-4677500D01*
X7202870Y-4675597D01*
X7194760Y-4670178D01*
X7189340Y-4662067D01*
X7187437Y-4652500D01*
X7187437Y-4527500D01*
X7189340Y-4517933D01*
X7194760Y-4509822D01*
X7202870Y-4504403D01*
X7212437Y-4502500D01*
X7274937Y-4502500D01*
X7284505Y-4504403D01*
X7292615Y-4509822D01*
X7298034Y-4517933D01*
X7299937Y-4527500D01*
X7299937Y-4652500D01*
%TD*%
D16*
%TO.C,R6*%
D13*
X11144500Y-3724750D02*
X11134933Y-3722847D01*
X11126822Y-3717428D01*
X11121403Y-3709317D01*
X11119500Y-3699750D01*
X11119500Y-3637250D01*
X11121403Y-3627683D01*
X11126822Y-3619572D01*
X11134933Y-3614153D01*
X11144500Y-3612250D01*
X11269500Y-3612250D01*
X11279067Y-3614153D01*
X11287178Y-3619572D01*
X11292597Y-3627683D01*
X11294500Y-3637250D01*
X11294500Y-3699750D01*
X11292597Y-3709317D01*
X11287178Y-3717428D01*
X11279067Y-3722847D01*
X11269500Y-3724750D01*
X11144500Y-3724750D01*
D16*
D13*
X11144500Y-3432250D02*
X11134933Y-3430347D01*
X11126822Y-3424928D01*
X11121403Y-3416817D01*
X11119500Y-3407250D01*
X11119500Y-3344750D01*
X11121403Y-3335183D01*
X11126822Y-3327072D01*
X11134933Y-3321653D01*
X11144500Y-3319750D01*
X11269500Y-3319750D01*
X11279067Y-3321653D01*
X11287178Y-3327072D01*
X11292597Y-3335183D01*
X11294500Y-3344750D01*
X11294500Y-3407250D01*
X11292597Y-3416817D01*
X11287178Y-3424928D01*
X11279067Y-3430347D01*
X11269500Y-3432250D01*
X11144500Y-3432250D01*
%TD*%
D16*
%TO.C,R9*%
D13*
X4578500Y-5640750D02*
X4568933Y-5638847D01*
X4560822Y-5633428D01*
X4555403Y-5625317D01*
X4553500Y-5615750D01*
X4553500Y-5553250D01*
X4555403Y-5543683D01*
X4560822Y-5535572D01*
X4568933Y-5530153D01*
X4578500Y-5528250D01*
X4703500Y-5528250D01*
X4713067Y-5530153D01*
X4721178Y-5535572D01*
X4726597Y-5543683D01*
X4728500Y-5553250D01*
X4728500Y-5615750D01*
X4726597Y-5625317D01*
X4721178Y-5633428D01*
X4713067Y-5638847D01*
X4703500Y-5640750D01*
X4578500Y-5640750D01*
D16*
D13*
X4578500Y-5348250D02*
X4568933Y-5346347D01*
X4560822Y-5340928D01*
X4555403Y-5332817D01*
X4553500Y-5323250D01*
X4553500Y-5260750D01*
X4555403Y-5251183D01*
X4560822Y-5243072D01*
X4568933Y-5237653D01*
X4578500Y-5235750D01*
X4703500Y-5235750D01*
X4713067Y-5237653D01*
X4721178Y-5243072D01*
X4726597Y-5251183D01*
X4728500Y-5260750D01*
X4728500Y-5323250D01*
X4726597Y-5332817D01*
X4721178Y-5340928D01*
X4713067Y-5346347D01*
X4703500Y-5348250D01*
X4578500Y-5348250D01*
%TD*%
D16*
%TO.C,D1*%
D13*
X8356500Y-2929500D02*
X8346933Y-2927597D01*
X8338822Y-2922178D01*
X8333403Y-2914067D01*
X8331500Y-2904500D01*
X8331500Y-2829500D01*
X8333403Y-2819933D01*
X8338822Y-2811822D01*
X8346933Y-2806403D01*
X8356500Y-2804500D01*
X8481500Y-2804500D01*
X8491067Y-2806403D01*
X8499178Y-2811822D01*
X8504597Y-2819933D01*
X8506500Y-2829500D01*
X8506500Y-2904500D01*
X8504597Y-2914067D01*
X8499178Y-2922178D01*
X8491067Y-2927597D01*
X8481500Y-2929500D01*
X8356500Y-2929500D01*
D16*
D13*
X8356500Y-2649500D02*
X8346933Y-2647597D01*
X8338822Y-2642178D01*
X8333403Y-2634067D01*
X8331500Y-2624500D01*
X8331500Y-2549500D01*
X8333403Y-2539933D01*
X8338822Y-2531822D01*
X8346933Y-2526403D01*
X8356500Y-2524500D01*
X8481500Y-2524500D01*
X8491067Y-2526403D01*
X8499178Y-2531822D01*
X8504597Y-2539933D01*
X8506500Y-2549500D01*
X8506500Y-2624500D01*
X8504597Y-2634067D01*
X8499178Y-2642178D01*
X8491067Y-2647597D01*
X8481500Y-2649500D01*
X8356500Y-2649500D01*
%TD*%
%TO.C,U2*%
X8710250Y-2589500D02*
X8710250Y-2789500D01*
X8860250Y-2789500D01*
X8860250Y-2589500D01*
X8710250Y-2589500D01*
X8940250Y-2589500D02*
X8940250Y-2789500D01*
X9090250Y-2789500D01*
X9090250Y-2589500D01*
X8940250Y-2589500D01*
X8825250Y-1959500D02*
X8825250Y-2159500D01*
X9205250Y-2159500D01*
X9205250Y-1959500D01*
X8825250Y-1959500D01*
X9170250Y-2589500D02*
X9170250Y-2789500D01*
X9320250Y-2789500D01*
X9320250Y-2589500D01*
X9170250Y-2589500D01*
%TD*%
D16*
%TO.C,D5*%
D13*
X9018445Y-4801875D02*
X9028013Y-4803778D01*
X9036123Y-4809197D01*
X9041542Y-4817308D01*
X9043445Y-4826875D01*
X9043445Y-4901875D01*
X9041542Y-4911442D01*
X9036123Y-4919553D01*
X9028013Y-4924972D01*
X9018445Y-4926875D01*
X8893445Y-4926875D01*
X8883878Y-4924972D01*
X8875768Y-4919553D01*
X8870348Y-4911442D01*
X8868445Y-4901875D01*
X8868445Y-4826875D01*
X8870348Y-4817308D01*
X8875768Y-4809197D01*
X8883878Y-4803778D01*
X8893445Y-4801875D01*
X9018445Y-4801875D01*
D16*
D13*
X9018445Y-5081875D02*
X9028013Y-5083778D01*
X9036123Y-5089197D01*
X9041542Y-5097308D01*
X9043445Y-5106875D01*
X9043445Y-5181875D01*
X9041542Y-5191442D01*
X9036123Y-5199553D01*
X9028013Y-5204972D01*
X9018445Y-5206875D01*
X8893445Y-5206875D01*
X8883878Y-5204972D01*
X8875768Y-5199553D01*
X8870348Y-5191442D01*
X8868445Y-5181875D01*
X8868445Y-5106875D01*
X8870348Y-5097308D01*
X8875768Y-5089197D01*
X8883878Y-5083778D01*
X8893445Y-5081875D01*
X9018445Y-5081875D01*
%TD*%
D16*
%TO.C,R8*%
D13*
X4012500Y-5530750D02*
X4002933Y-5528847D01*
X3994822Y-5523428D01*
X3989403Y-5515317D01*
X3987500Y-5505750D01*
X3987500Y-5443250D01*
X3989403Y-5433683D01*
X3994822Y-5425572D01*
X4002933Y-5420153D01*
X4012500Y-5418250D01*
X4137500Y-5418250D01*
X4147067Y-5420153D01*
X4155178Y-5425572D01*
X4160597Y-5433683D01*
X4162500Y-5443250D01*
X4162500Y-5505750D01*
X4160597Y-5515317D01*
X4155178Y-5523428D01*
X4147067Y-5528847D01*
X4137500Y-5530750D01*
X4012500Y-5530750D01*
D16*
D13*
X4012500Y-5238250D02*
X4002933Y-5236347D01*
X3994822Y-5230928D01*
X3989403Y-5222817D01*
X3987500Y-5213250D01*
X3987500Y-5150750D01*
X3989403Y-5141183D01*
X3994822Y-5133072D01*
X4002933Y-5127653D01*
X4012500Y-5125750D01*
X4137500Y-5125750D01*
X4147067Y-5127653D01*
X4155178Y-5133072D01*
X4160597Y-5141183D01*
X4162500Y-5150750D01*
X4162500Y-5213250D01*
X4160597Y-5222817D01*
X4155178Y-5230928D01*
X4147067Y-5236347D01*
X4137500Y-5238250D01*
X4012500Y-5238250D01*
%TD*%
D16*
%TO.C,R18*%
D13*
X6586320Y-5178750D02*
X6576753Y-5176847D01*
X6568643Y-5171428D01*
X6563223Y-5163317D01*
X6561320Y-5153750D01*
X6561320Y-5091250D01*
X6563223Y-5081683D01*
X6568643Y-5073572D01*
X6576753Y-5068153D01*
X6586320Y-5066250D01*
X6711320Y-5066250D01*
X6720887Y-5068153D01*
X6728998Y-5073572D01*
X6734417Y-5081683D01*
X6736320Y-5091250D01*
X6736320Y-5153750D01*
X6734417Y-5163317D01*
X6728998Y-5171428D01*
X6720887Y-5176847D01*
X6711320Y-5178750D01*
X6586320Y-5178750D01*
D16*
D13*
X6586320Y-4886250D02*
X6576753Y-4884347D01*
X6568643Y-4878928D01*
X6563223Y-4870817D01*
X6561320Y-4861250D01*
X6561320Y-4798750D01*
X6563223Y-4789183D01*
X6568643Y-4781072D01*
X6576753Y-4775653D01*
X6586320Y-4773750D01*
X6711320Y-4773750D01*
X6720887Y-4775653D01*
X6728998Y-4781072D01*
X6734417Y-4789183D01*
X6736320Y-4798750D01*
X6736320Y-4861250D01*
X6734417Y-4870817D01*
X6728998Y-4878928D01*
X6720887Y-4884347D01*
X6711320Y-4886250D01*
X6586320Y-4886250D01*
%TD*%
D16*
%TO.C,R1*%
D13*
X8480500Y-2070250D02*
X8490067Y-2072153D01*
X8498178Y-2077572D01*
X8503597Y-2085683D01*
X8505500Y-2095250D01*
X8505500Y-2157750D01*
X8503597Y-2167317D01*
X8498178Y-2175428D01*
X8490067Y-2180847D01*
X8480500Y-2182750D01*
X8355500Y-2182750D01*
X8345933Y-2180847D01*
X8337822Y-2175428D01*
X8332403Y-2167317D01*
X8330500Y-2157750D01*
X8330500Y-2095250D01*
X8332403Y-2085683D01*
X8337822Y-2077572D01*
X8345933Y-2072153D01*
X8355500Y-2070250D01*
X8480500Y-2070250D01*
D16*
D13*
X8480500Y-2362750D02*
X8490067Y-2364653D01*
X8498178Y-2370072D01*
X8503597Y-2378183D01*
X8505500Y-2387750D01*
X8505500Y-2450250D01*
X8503597Y-2459817D01*
X8498178Y-2467928D01*
X8490067Y-2473347D01*
X8480500Y-2475250D01*
X8355500Y-2475250D01*
X8345933Y-2473347D01*
X8337822Y-2467928D01*
X8332403Y-2459817D01*
X8330500Y-2450250D01*
X8330500Y-2387750D01*
X8332403Y-2378183D01*
X8337822Y-2370072D01*
X8345933Y-2364653D01*
X8355500Y-2362750D01*
X8480500Y-2362750D01*
%TD*%
D16*
%TO.C,R17*%
D13*
X6844687Y-3721750D02*
X6854255Y-3723653D01*
X6862365Y-3729072D01*
X6867784Y-3737183D01*
X6869687Y-3746750D01*
X6869687Y-3809250D01*
X6867784Y-3818817D01*
X6862365Y-3826928D01*
X6854255Y-3832347D01*
X6844687Y-3834250D01*
X6719687Y-3834250D01*
X6710120Y-3832347D01*
X6702010Y-3826928D01*
X6696590Y-3818817D01*
X6694687Y-3809250D01*
X6694687Y-3746750D01*
X6696590Y-3737183D01*
X6702010Y-3729072D01*
X6710120Y-3723653D01*
X6719687Y-3721750D01*
X6844687Y-3721750D01*
D16*
D13*
X6844687Y-4014250D02*
X6854255Y-4016153D01*
X6862365Y-4021572D01*
X6867784Y-4029683D01*
X6869687Y-4039250D01*
X6869687Y-4101750D01*
X6867784Y-4111317D01*
X6862365Y-4119428D01*
X6854255Y-4124847D01*
X6844687Y-4126750D01*
X6719687Y-4126750D01*
X6710120Y-4124847D01*
X6702010Y-4119428D01*
X6696590Y-4111317D01*
X6694687Y-4101750D01*
X6694687Y-4039250D01*
X6696590Y-4029683D01*
X6702010Y-4021572D01*
X6710120Y-4016153D01*
X6719687Y-4014250D01*
X6844687Y-4014250D01*
%TD*%
D16*
%TO.C,R4*%
D13*
X9696500Y-1998750D02*
X9706067Y-2000653D01*
X9714178Y-2006072D01*
X9719597Y-2014183D01*
X9721500Y-2023750D01*
X9721500Y-2086250D01*
X9719597Y-2095817D01*
X9714178Y-2103928D01*
X9706067Y-2109347D01*
X9696500Y-2111250D01*
X9571500Y-2111250D01*
X9561933Y-2109347D01*
X9553822Y-2103928D01*
X9548403Y-2095817D01*
X9546500Y-2086250D01*
X9546500Y-2023750D01*
X9548403Y-2014183D01*
X9553822Y-2006072D01*
X9561933Y-2000653D01*
X9571500Y-1998750D01*
X9696500Y-1998750D01*
D16*
D13*
X9696500Y-2291250D02*
X9706067Y-2293153D01*
X9714178Y-2298572D01*
X9719597Y-2306683D01*
X9721500Y-2316250D01*
X9721500Y-2378750D01*
X9719597Y-2388317D01*
X9714178Y-2396428D01*
X9706067Y-2401847D01*
X9696500Y-2403750D01*
X9571500Y-2403750D01*
X9561933Y-2401847D01*
X9553822Y-2396428D01*
X9548403Y-2388317D01*
X9546500Y-2378750D01*
X9546500Y-2316250D01*
X9548403Y-2306683D01*
X9553822Y-2298572D01*
X9561933Y-2293153D01*
X9571500Y-2291250D01*
X9696500Y-2291250D01*
%TD*%
D16*
%TO.C,R13*%
D13*
X6624687Y-3714250D02*
X6634255Y-3716153D01*
X6642365Y-3721572D01*
X6647784Y-3729683D01*
X6649687Y-3739250D01*
X6649687Y-3801750D01*
X6647784Y-3811317D01*
X6642365Y-3819428D01*
X6634255Y-3824847D01*
X6624687Y-3826750D01*
X6499687Y-3826750D01*
X6490120Y-3824847D01*
X6482010Y-3819428D01*
X6476590Y-3811317D01*
X6474687Y-3801750D01*
X6474687Y-3739250D01*
X6476590Y-3729683D01*
X6482010Y-3721572D01*
X6490120Y-3716153D01*
X6499687Y-3714250D01*
X6624687Y-3714250D01*
D16*
D13*
X6624687Y-4006750D02*
X6634255Y-4008653D01*
X6642365Y-4014072D01*
X6647784Y-4022183D01*
X6649687Y-4031750D01*
X6649687Y-4094250D01*
X6647784Y-4103817D01*
X6642365Y-4111928D01*
X6634255Y-4117347D01*
X6624687Y-4119250D01*
X6499687Y-4119250D01*
X6490120Y-4117347D01*
X6482010Y-4111928D01*
X6476590Y-4103817D01*
X6474687Y-4094250D01*
X6474687Y-4031750D01*
X6476590Y-4022183D01*
X6482010Y-4014072D01*
X6490120Y-4008653D01*
X6499687Y-4006750D01*
X6624687Y-4006750D01*
%TD*%
D16*
%TO.C,R16*%
D13*
X8123445Y-6032125D02*
X8113878Y-6030222D01*
X8105768Y-6024803D01*
X8100348Y-6016692D01*
X8098445Y-6007125D01*
X8098445Y-5944625D01*
X8100348Y-5935058D01*
X8105768Y-5926947D01*
X8113878Y-5921528D01*
X8123445Y-5919625D01*
X8248445Y-5919625D01*
X8258012Y-5921528D01*
X8266123Y-5926947D01*
X8271542Y-5935058D01*
X8273445Y-5944625D01*
X8273445Y-6007125D01*
X8271542Y-6016692D01*
X8266123Y-6024803D01*
X8258012Y-6030222D01*
X8248445Y-6032125D01*
X8123445Y-6032125D01*
D16*
D13*
X8123445Y-5739625D02*
X8113878Y-5737722D01*
X8105768Y-5732303D01*
X8100348Y-5724192D01*
X8098445Y-5714625D01*
X8098445Y-5652125D01*
X8100348Y-5642558D01*
X8105768Y-5634447D01*
X8113878Y-5629028D01*
X8123445Y-5627125D01*
X8248445Y-5627125D01*
X8258012Y-5629028D01*
X8266123Y-5634447D01*
X8271542Y-5642558D01*
X8273445Y-5652125D01*
X8273445Y-5714625D01*
X8271542Y-5724192D01*
X8266123Y-5732303D01*
X8258012Y-5737722D01*
X8248445Y-5739625D01*
X8123445Y-5739625D01*
%TD*%
D16*
%TO.C,D3*%
D13*
X9572500Y-2855500D02*
X9562933Y-2853597D01*
X9554822Y-2848178D01*
X9549403Y-2840067D01*
X9547500Y-2830500D01*
X9547500Y-2755500D01*
X9549403Y-2745933D01*
X9554822Y-2737822D01*
X9562933Y-2732403D01*
X9572500Y-2730500D01*
X9697500Y-2730500D01*
X9707067Y-2732403D01*
X9715178Y-2737822D01*
X9720597Y-2745933D01*
X9722500Y-2755500D01*
X9722500Y-2830500D01*
X9720597Y-2840067D01*
X9715178Y-2848178D01*
X9707067Y-2853597D01*
X9697500Y-2855500D01*
X9572500Y-2855500D01*
D16*
D13*
X9572500Y-2575500D02*
X9562933Y-2573597D01*
X9554822Y-2568178D01*
X9549403Y-2560067D01*
X9547500Y-2550500D01*
X9547500Y-2475500D01*
X9549403Y-2465933D01*
X9554822Y-2457822D01*
X9562933Y-2452403D01*
X9572500Y-2450500D01*
X9697500Y-2450500D01*
X9707067Y-2452403D01*
X9715178Y-2457822D01*
X9720597Y-2465933D01*
X9722500Y-2475500D01*
X9722500Y-2550500D01*
X9720597Y-2560067D01*
X9715178Y-2568178D01*
X9707067Y-2573597D01*
X9697500Y-2575500D01*
X9572500Y-2575500D01*
%TD*%
D16*
%TO.C,R10*%
D13*
X4559250Y-6158250D02*
X4549683Y-6156347D01*
X4541572Y-6150928D01*
X4536153Y-6142817D01*
X4534250Y-6133250D01*
X4534250Y-6070750D01*
X4536153Y-6061183D01*
X4541572Y-6053072D01*
X4549683Y-6047653D01*
X4559250Y-6045750D01*
X4684250Y-6045750D01*
X4693817Y-6047653D01*
X4701928Y-6053072D01*
X4707347Y-6061183D01*
X4709250Y-6070750D01*
X4709250Y-6133250D01*
X4707347Y-6142817D01*
X4701928Y-6150928D01*
X4693817Y-6156347D01*
X4684250Y-6158250D01*
X4559250Y-6158250D01*
D16*
D13*
X4559250Y-5865750D02*
X4549683Y-5863847D01*
X4541572Y-5858428D01*
X4536153Y-5850317D01*
X4534250Y-5840750D01*
X4534250Y-5778250D01*
X4536153Y-5768683D01*
X4541572Y-5760572D01*
X4549683Y-5755153D01*
X4559250Y-5753250D01*
X4684250Y-5753250D01*
X4693817Y-5755153D01*
X4701928Y-5760572D01*
X4707347Y-5768683D01*
X4709250Y-5778250D01*
X4709250Y-5840750D01*
X4707347Y-5850317D01*
X4701928Y-5858428D01*
X4693817Y-5863847D01*
X4684250Y-5865750D01*
X4559250Y-5865750D01*
%TD*%
D16*
%TO.C,R3*%
D13*
X11330871Y-3277381D02*
X11321304Y-3275478D01*
X11313194Y-3270059D01*
X11307774Y-3261948D01*
X11305871Y-3252381D01*
X11305871Y-3189881D01*
X11307774Y-3180314D01*
X11313194Y-3172203D01*
X11321304Y-3166784D01*
X11330871Y-3164881D01*
X11455871Y-3164881D01*
X11465438Y-3166784D01*
X11473549Y-3172203D01*
X11478968Y-3180314D01*
X11480871Y-3189881D01*
X11480871Y-3252381D01*
X11478968Y-3261948D01*
X11473549Y-3270059D01*
X11465438Y-3275478D01*
X11455871Y-3277381D01*
X11330871Y-3277381D01*
D16*
D13*
X11330871Y-2984881D02*
X11321304Y-2982978D01*
X11313194Y-2977559D01*
X11307774Y-2969448D01*
X11305871Y-2959881D01*
X11305871Y-2897381D01*
X11307774Y-2887814D01*
X11313194Y-2879703D01*
X11321304Y-2874284D01*
X11330871Y-2872381D01*
X11455871Y-2872381D01*
X11465438Y-2874284D01*
X11473549Y-2879703D01*
X11478968Y-2887814D01*
X11480871Y-2897381D01*
X11480871Y-2959881D01*
X11478968Y-2969448D01*
X11473549Y-2977559D01*
X11465438Y-2982978D01*
X11455871Y-2984881D01*
X11330871Y-2984881D01*
%TD*%
D16*
%TO.C,R11*%
D13*
X6850445Y-6032125D02*
X6840878Y-6030222D01*
X6832768Y-6024803D01*
X6827348Y-6016692D01*
X6825445Y-6007125D01*
X6825445Y-5944625D01*
X6827348Y-5935058D01*
X6832768Y-5926947D01*
X6840878Y-5921528D01*
X6850445Y-5919625D01*
X6975445Y-5919625D01*
X6985012Y-5921528D01*
X6993123Y-5926947D01*
X6998542Y-5935058D01*
X7000445Y-5944625D01*
X7000445Y-6007125D01*
X6998542Y-6016692D01*
X6993123Y-6024803D01*
X6985012Y-6030222D01*
X6975445Y-6032125D01*
X6850445Y-6032125D01*
D16*
D13*
X6850445Y-5739625D02*
X6840878Y-5737722D01*
X6832768Y-5732303D01*
X6827348Y-5724192D01*
X6825445Y-5714625D01*
X6825445Y-5652125D01*
X6827348Y-5642558D01*
X6832768Y-5634447D01*
X6840878Y-5629028D01*
X6850445Y-5627125D01*
X6975445Y-5627125D01*
X6985012Y-5629028D01*
X6993123Y-5634447D01*
X6998542Y-5642558D01*
X7000445Y-5652125D01*
X7000445Y-5714625D01*
X6998542Y-5724192D01*
X6993123Y-5732303D01*
X6985012Y-5737722D01*
X6975445Y-5739625D01*
X6850445Y-5739625D01*
%TD*%
%TO.C,U4*%
X10222180Y-5836180D02*
X10222180Y-6003820D01*
X10389820Y-6003820D01*
X10389820Y-5836180D01*
X10222180Y-5836180D01*
X10389820Y-5666000D02*
G75*
G03*
X10389820Y-5666000I-83820J0D01*
G01*
X10389820Y-5412000D02*
G75*
G03*
X10389820Y-5412000I-83820J0D01*
G01*
X10389820Y-5158000D02*
G75*
G03*
X10389820Y-5158000I-83820J0D01*
G01*
X10389820Y-4904000D02*
G75*
G03*
X10389820Y-4904000I-83820J0D01*
G01*
X10389820Y-4650000D02*
G75*
G03*
X10389820Y-4650000I-83820J0D01*
G01*
X10389820Y-4396000D02*
G75*
G03*
X10389820Y-4396000I-83820J0D01*
G01*
X10389820Y-4142000D02*
G75*
G03*
X10389820Y-4142000I-83820J0D01*
G01*
X10389820Y-3888000D02*
G75*
G03*
X10389820Y-3888000I-83820J0D01*
G01*
X9627820Y-3888000D02*
G75*
G03*
X9627820Y-3888000I-83820J0D01*
G01*
X9627820Y-4142000D02*
G75*
G03*
X9627820Y-4142000I-83820J0D01*
G01*
X9627820Y-4396000D02*
G75*
G03*
X9627820Y-4396000I-83820J0D01*
G01*
X9627820Y-4650000D02*
G75*
G03*
X9627820Y-4650000I-83820J0D01*
G01*
X9627820Y-4904000D02*
G75*
G03*
X9627820Y-4904000I-83820J0D01*
G01*
X9627820Y-5158000D02*
G75*
G03*
X9627820Y-5158000I-83820J0D01*
G01*
X9627820Y-5412000D02*
G75*
G03*
X9627820Y-5412000I-83820J0D01*
G01*
X9627820Y-5666000D02*
G75*
G03*
X9627820Y-5666000I-83820J0D01*
G01*
X9627820Y-5920000D02*
G75*
G03*
X9627820Y-5920000I-83820J0D01*
G01*
%TD*%
D16*
%TO.C,Q2*%
D13*
X4464000Y-5221500D02*
X4469740Y-5222642D01*
X4474607Y-5225893D01*
X4477858Y-5230760D01*
X4479000Y-5236500D01*
X4479000Y-5354000D01*
X4477858Y-5359740D01*
X4474607Y-5364607D01*
X4469740Y-5367858D01*
X4464000Y-5369000D01*
X4434000Y-5369000D01*
X4428260Y-5367858D01*
X4423393Y-5364607D01*
X4420142Y-5359740D01*
X4419000Y-5354000D01*
X4419000Y-5236500D01*
X4420142Y-5230760D01*
X4423393Y-5225893D01*
X4428260Y-5222642D01*
X4434000Y-5221500D01*
X4464000Y-5221500D01*
D16*
D13*
X4274000Y-5221500D02*
X4279740Y-5222642D01*
X4284607Y-5225893D01*
X4287858Y-5230760D01*
X4289000Y-5236500D01*
X4289000Y-5354000D01*
X4287858Y-5359740D01*
X4284607Y-5364607D01*
X4279740Y-5367858D01*
X4274000Y-5369000D01*
X4244000Y-5369000D01*
X4238260Y-5367858D01*
X4233393Y-5364607D01*
X4230142Y-5359740D01*
X4229000Y-5354000D01*
X4229000Y-5236500D01*
X4230142Y-5230760D01*
X4233393Y-5225893D01*
X4238260Y-5222642D01*
X4244000Y-5221500D01*
X4274000Y-5221500D01*
D16*
D13*
X4369000Y-5409000D02*
X4374740Y-5410142D01*
X4379607Y-5413393D01*
X4382858Y-5418260D01*
X4384000Y-5424000D01*
X4384000Y-5541500D01*
X4382858Y-5547240D01*
X4379607Y-5552107D01*
X4374740Y-5555358D01*
X4369000Y-5556500D01*
X4339000Y-5556500D01*
X4333260Y-5555358D01*
X4328393Y-5552107D01*
X4325142Y-5547240D01*
X4324000Y-5541500D01*
X4324000Y-5424000D01*
X4325142Y-5418260D01*
X4328393Y-5413393D01*
X4333260Y-5410142D01*
X4339000Y-5409000D01*
X4369000Y-5409000D01*
%TD*%
D16*
%TO.C,R7*%
D13*
X3994250Y-6052000D02*
X3984683Y-6050097D01*
X3976572Y-6044678D01*
X3971153Y-6036567D01*
X3969250Y-6027000D01*
X3969250Y-5964500D01*
X3971153Y-5954933D01*
X3976572Y-5946822D01*
X3984683Y-5941403D01*
X3994250Y-5939500D01*
X4119250Y-5939500D01*
X4128817Y-5941403D01*
X4136928Y-5946822D01*
X4142347Y-5954933D01*
X4144250Y-5964500D01*
X4144250Y-6027000D01*
X4142347Y-6036567D01*
X4136928Y-6044678D01*
X4128817Y-6050097D01*
X4119250Y-6052000D01*
X3994250Y-6052000D01*
D16*
D13*
X3994250Y-5759500D02*
X3984683Y-5757597D01*
X3976572Y-5752178D01*
X3971153Y-5744067D01*
X3969250Y-5734500D01*
X3969250Y-5672000D01*
X3971153Y-5662433D01*
X3976572Y-5654322D01*
X3984683Y-5648903D01*
X3994250Y-5647000D01*
X4119250Y-5647000D01*
X4128817Y-5648903D01*
X4136928Y-5654322D01*
X4142347Y-5662433D01*
X4144250Y-5672000D01*
X4144250Y-5734500D01*
X4142347Y-5744067D01*
X4136928Y-5752178D01*
X4128817Y-5757597D01*
X4119250Y-5759500D01*
X3994250Y-5759500D01*
%TD*%
D16*
%TO.C,Q1*%
D13*
X11208379Y-2860369D02*
X11214119Y-2861511D01*
X11218985Y-2864762D01*
X11222237Y-2869628D01*
X11223379Y-2875369D01*
X11223379Y-2992869D01*
X11222237Y-2998609D01*
X11218985Y-3003475D01*
X11214119Y-3006727D01*
X11208379Y-3007869D01*
X11178379Y-3007869D01*
X11172638Y-3006727D01*
X11167772Y-3003475D01*
X11164521Y-2998609D01*
X11163379Y-2992869D01*
X11163379Y-2875369D01*
X11164521Y-2869628D01*
X11167772Y-2864762D01*
X11172638Y-2861511D01*
X11178379Y-2860369D01*
X11208379Y-2860369D01*
D16*
D13*
X11018379Y-2860369D02*
X11024119Y-2861511D01*
X11028985Y-2864762D01*
X11032237Y-2869628D01*
X11033379Y-2875369D01*
X11033379Y-2992869D01*
X11032237Y-2998609D01*
X11028985Y-3003475D01*
X11024119Y-3006727D01*
X11018379Y-3007869D01*
X10988379Y-3007869D01*
X10982638Y-3006727D01*
X10977772Y-3003475D01*
X10974521Y-2998609D01*
X10973379Y-2992869D01*
X10973379Y-2875369D01*
X10974521Y-2869628D01*
X10977772Y-2864762D01*
X10982638Y-2861511D01*
X10988379Y-2860369D01*
X11018379Y-2860369D01*
D16*
D13*
X11113379Y-3047869D02*
X11119119Y-3049011D01*
X11123985Y-3052262D01*
X11127237Y-3057128D01*
X11128379Y-3062869D01*
X11128379Y-3180369D01*
X11127237Y-3186109D01*
X11123985Y-3190975D01*
X11119119Y-3194227D01*
X11113379Y-3195369D01*
X11083379Y-3195369D01*
X11077638Y-3194227D01*
X11072772Y-3190975D01*
X11069521Y-3186109D01*
X11068379Y-3180369D01*
X11068379Y-3062869D01*
X11069521Y-3057128D01*
X11072772Y-3052262D01*
X11077638Y-3049011D01*
X11083379Y-3047869D01*
X11113379Y-3047869D01*
%TD*%
%TO.C,U1*%
X7201000Y-2587000D02*
X7201000Y-2787000D01*
X7351000Y-2787000D01*
X7351000Y-2587000D01*
X7201000Y-2587000D01*
X7431000Y-2587000D02*
X7431000Y-2787000D01*
X7581000Y-2787000D01*
X7581000Y-2587000D01*
X7431000Y-2587000D01*
X7316000Y-1957000D02*
X7316000Y-2157000D01*
X7696000Y-2157000D01*
X7696000Y-1957000D01*
X7316000Y-1957000D01*
X7661000Y-2587000D02*
X7661000Y-2787000D01*
X7811000Y-2787000D01*
X7811000Y-2587000D01*
X7661000Y-2587000D01*
%TD*%
D16*
%TO.C,U3*%
D13*
X6191187Y-4231200D02*
X6191507Y-4229593D01*
X6192418Y-4228230D01*
X6193780Y-4227320D01*
X6195387Y-4227000D01*
X6383987Y-4227000D01*
X6385595Y-4227320D01*
X6386957Y-4228230D01*
X6387868Y-4229593D01*
X6388187Y-4231200D01*
X6388187Y-4282800D01*
X6387868Y-4284407D01*
X6386957Y-4285770D01*
X6385595Y-4286680D01*
X6383987Y-4287000D01*
X6195387Y-4287000D01*
X6193780Y-4286680D01*
X6192418Y-4285770D01*
X6191507Y-4284407D01*
X6191187Y-4282800D01*
X6191187Y-4231200D01*
D16*
D13*
X6191187Y-4358200D02*
X6191507Y-4356593D01*
X6192418Y-4355230D01*
X6193780Y-4354320D01*
X6195387Y-4354000D01*
X6383987Y-4354000D01*
X6385595Y-4354320D01*
X6386957Y-4355230D01*
X6387868Y-4356593D01*
X6388187Y-4358200D01*
X6388187Y-4409800D01*
X6387868Y-4411407D01*
X6386957Y-4412770D01*
X6385595Y-4413680D01*
X6383987Y-4414000D01*
X6195387Y-4414000D01*
X6193780Y-4413680D01*
X6192418Y-4412770D01*
X6191507Y-4411407D01*
X6191187Y-4409800D01*
X6191187Y-4358200D01*
D16*
D13*
X6191187Y-4485200D02*
X6191507Y-4483593D01*
X6192418Y-4482230D01*
X6193780Y-4481320D01*
X6195387Y-4481000D01*
X6383987Y-4481000D01*
X6385595Y-4481320D01*
X6386957Y-4482230D01*
X6387868Y-4483593D01*
X6388187Y-4485200D01*
X6388187Y-4536800D01*
X6387868Y-4538407D01*
X6386957Y-4539770D01*
X6385595Y-4540680D01*
X6383987Y-4541000D01*
X6195387Y-4541000D01*
X6193780Y-4540680D01*
X6192418Y-4539770D01*
X6191507Y-4538407D01*
X6191187Y-4536800D01*
X6191187Y-4485200D01*
D16*
D13*
X6191187Y-4612200D02*
X6191507Y-4610593D01*
X6192418Y-4609230D01*
X6193780Y-4608320D01*
X6195387Y-4608000D01*
X6383987Y-4608000D01*
X6385595Y-4608320D01*
X6386957Y-4609230D01*
X6387868Y-4610593D01*
X6388187Y-4612200D01*
X6388187Y-4663800D01*
X6387868Y-4665407D01*
X6386957Y-4666770D01*
X6385595Y-4667680D01*
X6383987Y-4668000D01*
X6195387Y-4668000D01*
X6193780Y-4667680D01*
X6192418Y-4666770D01*
X6191507Y-4665407D01*
X6191187Y-4663800D01*
X6191187Y-4612200D01*
D16*
D13*
X6685187Y-4612200D02*
X6685507Y-4610593D01*
X6686418Y-4609230D01*
X6687780Y-4608320D01*
X6689387Y-4608000D01*
X6877987Y-4608000D01*
X6879595Y-4608320D01*
X6880957Y-4609230D01*
X6881868Y-4610593D01*
X6882187Y-4612200D01*
X6882187Y-4663800D01*
X6881868Y-4665407D01*
X6880957Y-4666770D01*
X6879595Y-4667680D01*
X6877987Y-4668000D01*
X6689387Y-4668000D01*
X6687780Y-4667680D01*
X6686418Y-4666770D01*
X6685507Y-4665407D01*
X6685187Y-4663800D01*
X6685187Y-4612200D01*
D16*
D13*
X6685187Y-4485200D02*
X6685507Y-4483593D01*
X6686418Y-4482230D01*
X6687780Y-4481320D01*
X6689387Y-4481000D01*
X6877987Y-4481000D01*
X6879595Y-4481320D01*
X6880957Y-4482230D01*
X6881868Y-4483593D01*
X6882187Y-4485200D01*
X6882187Y-4536800D01*
X6881868Y-4538407D01*
X6880957Y-4539770D01*
X6879595Y-4540680D01*
X6877987Y-4541000D01*
X6689387Y-4541000D01*
X6687780Y-4540680D01*
X6686418Y-4539770D01*
X6685507Y-4538407D01*
X6685187Y-4536800D01*
X6685187Y-4485200D01*
D16*
D13*
X6685187Y-4358200D02*
X6685507Y-4356593D01*
X6686418Y-4355230D01*
X6687780Y-4354320D01*
X6689387Y-4354000D01*
X6877987Y-4354000D01*
X6879595Y-4354320D01*
X6880957Y-4355230D01*
X6881868Y-4356593D01*
X6882187Y-4358200D01*
X6882187Y-4409800D01*
X6881868Y-4411407D01*
X6880957Y-4412770D01*
X6879595Y-4413680D01*
X6877987Y-4414000D01*
X6689387Y-4414000D01*
X6687780Y-4413680D01*
X6686418Y-4412770D01*
X6685507Y-4411407D01*
X6685187Y-4409800D01*
X6685187Y-4358200D01*
D16*
D13*
X6685187Y-4231200D02*
X6685507Y-4229593D01*
X6686418Y-4228230D01*
X6687780Y-4227320D01*
X6689387Y-4227000D01*
X6877987Y-4227000D01*
X6879595Y-4227320D01*
X6880957Y-4228230D01*
X6881868Y-4229593D01*
X6882187Y-4231200D01*
X6882187Y-4282800D01*
X6881868Y-4284407D01*
X6880957Y-4285770D01*
X6879595Y-4286680D01*
X6877987Y-4287000D01*
X6689387Y-4287000D01*
X6687780Y-4286680D01*
X6686418Y-4285770D01*
X6685507Y-4284407D01*
X6685187Y-4282800D01*
X6685187Y-4231200D01*
%TD*%
D16*
%TO.C,C4*%
D13*
X7131000Y-3714500D02*
X7140567Y-3716403D01*
X7148678Y-3721822D01*
X7154097Y-3729933D01*
X7156000Y-3739500D01*
X7156000Y-3804500D01*
X7154097Y-3814067D01*
X7148678Y-3822178D01*
X7140567Y-3827597D01*
X7131000Y-3829500D01*
X7001000Y-3829500D01*
X6991433Y-3827597D01*
X6983322Y-3822178D01*
X6977903Y-3814067D01*
X6976000Y-3804500D01*
X6976000Y-3739500D01*
X6977903Y-3729933D01*
X6983322Y-3721822D01*
X6991433Y-3716403D01*
X7001000Y-3714500D01*
X7131000Y-3714500D01*
D16*
D13*
X7131000Y-4009500D02*
X7140567Y-4011403D01*
X7148678Y-4016822D01*
X7154097Y-4024933D01*
X7156000Y-4034500D01*
X7156000Y-4099500D01*
X7154097Y-4109067D01*
X7148678Y-4117178D01*
X7140567Y-4122597D01*
X7131000Y-4124500D01*
X7001000Y-4124500D01*
X6991433Y-4122597D01*
X6983322Y-4117178D01*
X6977903Y-4109067D01*
X6976000Y-4099500D01*
X6976000Y-4034500D01*
X6977903Y-4024933D01*
X6983322Y-4016822D01*
X6991433Y-4011403D01*
X7001000Y-4009500D01*
X7131000Y-4009500D01*
%TD*%
D16*
%TO.C,R5*%
D13*
X10624500Y-3322250D02*
X10634067Y-3324153D01*
X10642178Y-3329572D01*
X10647597Y-3337683D01*
X10649500Y-3347250D01*
X10649500Y-3409750D01*
X10647597Y-3419317D01*
X10642178Y-3427428D01*
X10634067Y-3432847D01*
X10624500Y-3434750D01*
X10499500Y-3434750D01*
X10489933Y-3432847D01*
X10481822Y-3427428D01*
X10476403Y-3419317D01*
X10474500Y-3409750D01*
X10474500Y-3347250D01*
X10476403Y-3337683D01*
X10481822Y-3329572D01*
X10489933Y-3324153D01*
X10499500Y-3322250D01*
X10624500Y-3322250D01*
D16*
D13*
X10624500Y-3614750D02*
X10634067Y-3616653D01*
X10642178Y-3622072D01*
X10647597Y-3630183D01*
X10649500Y-3639750D01*
X10649500Y-3702250D01*
X10647597Y-3711817D01*
X10642178Y-3719928D01*
X10634067Y-3725347D01*
X10624500Y-3727250D01*
X10499500Y-3727250D01*
X10489933Y-3725347D01*
X10481822Y-3719928D01*
X10476403Y-3711817D01*
X10474500Y-3702250D01*
X10474500Y-3639750D01*
X10476403Y-3630183D01*
X10481822Y-3622072D01*
X10489933Y-3616653D01*
X10499500Y-3614750D01*
X10624500Y-3614750D01*
%TD*%
D16*
%TO.C,R14*%
D13*
X7595937Y-4427500D02*
X7594034Y-4437067D01*
X7588615Y-4445178D01*
X7580505Y-4450597D01*
X7570937Y-4452500D01*
X7508437Y-4452500D01*
X7498870Y-4450597D01*
X7490760Y-4445178D01*
X7485340Y-4437067D01*
X7483437Y-4427500D01*
X7483437Y-4302500D01*
X7485340Y-4292933D01*
X7490760Y-4284822D01*
X7498870Y-4279403D01*
X7508437Y-4277500D01*
X7570937Y-4277500D01*
X7580505Y-4279403D01*
X7588615Y-4284822D01*
X7594034Y-4292933D01*
X7595937Y-4302500D01*
X7595937Y-4427500D01*
D16*
D13*
X7303437Y-4427500D02*
X7301534Y-4437067D01*
X7296115Y-4445178D01*
X7288005Y-4450597D01*
X7278437Y-4452500D01*
X7215937Y-4452500D01*
X7206370Y-4450597D01*
X7198260Y-4445178D01*
X7192840Y-4437067D01*
X7190937Y-4427500D01*
X7190937Y-4302500D01*
X7192840Y-4292933D01*
X7198260Y-4284822D01*
X7206370Y-4279403D01*
X7215937Y-4277500D01*
X7278437Y-4277500D01*
X7288005Y-4279403D01*
X7296115Y-4284822D01*
X7301534Y-4292933D01*
X7303437Y-4302500D01*
X7303437Y-4427500D01*
%TD*%
D16*
%TO.C,R2*%
D13*
X8167500Y-2071250D02*
X8177067Y-2073153D01*
X8185178Y-2078572D01*
X8190597Y-2086683D01*
X8192500Y-2096250D01*
X8192500Y-2158750D01*
X8190597Y-2168317D01*
X8185178Y-2176428D01*
X8177067Y-2181847D01*
X8167500Y-2183750D01*
X8042500Y-2183750D01*
X8032933Y-2181847D01*
X8024822Y-2176428D01*
X8019403Y-2168317D01*
X8017500Y-2158750D01*
X8017500Y-2096250D01*
X8019403Y-2086683D01*
X8024822Y-2078572D01*
X8032933Y-2073153D01*
X8042500Y-2071250D01*
X8167500Y-2071250D01*
D16*
D13*
X8167500Y-2363750D02*
X8177067Y-2365653D01*
X8185178Y-2371072D01*
X8190597Y-2379183D01*
X8192500Y-2388750D01*
X8192500Y-2451250D01*
X8190597Y-2460817D01*
X8185178Y-2468928D01*
X8177067Y-2474347D01*
X8167500Y-2476250D01*
X8042500Y-2476250D01*
X8032933Y-2474347D01*
X8024822Y-2468928D01*
X8019403Y-2460817D01*
X8017500Y-2451250D01*
X8017500Y-2388750D01*
X8019403Y-2379183D01*
X8024822Y-2371072D01*
X8032933Y-2365653D01*
X8042500Y-2363750D01*
X8167500Y-2363750D01*
%TD*%
%TO.C,C24*%
X3623000Y-4647000D02*
G75*
G03*
X3623000Y-4647000I-80000J0D01*
G01*
X3873000Y-4647000D02*
G75*
G03*
X3873000Y-4647000I-80000J0D01*
G01*
%TD*%
%TO.C,J2*%
X10503417Y-2808500D02*
G75*
G03*
X10503417Y-2808500I-85000J0D01*
G01*
X10503417Y-2108500D02*
G75*
G03*
X10503417Y-2108500I-85000J0D01*
G01*
%TD*%
%TO.C,L1*%
X6912000Y-2265000D02*
G75*
G03*
X6912000Y-2265000I-80000J0D01*
G01*
X6832000Y-2693000D02*
X6832000Y-2693000D01*
X6832000Y-2693000D02*
G75*
G03*
X6832000Y-2853000I0J-80000D01*
G01*
X6832000Y-2853000D02*
X6832000Y-2853000D01*
X6832000Y-2853000D02*
G75*
G03*
X6832000Y-2693000I0J80000D01*
G01*
%TD*%
%TO.C,C8*%
X8874000Y-3048000D02*
X8874000Y-3208000D01*
X9034000Y-3208000D01*
X9034000Y-3048000D01*
X8874000Y-3048000D01*
X8834000Y-3128000D02*
G75*
G03*
X8834000Y-3128000I-80000J0D01*
G01*
%TD*%
D16*
%TO.C,J5*%
D13*
X6332574Y-2357200D02*
X6331051Y-2364858D01*
X6326713Y-2371350D01*
X6320221Y-2375687D01*
X6312564Y-2377210D01*
X6122584Y-2377210D01*
X6114926Y-2375687D01*
X6108435Y-2371350D01*
X6104097Y-2364858D01*
X6102574Y-2357200D01*
X6102574Y-2167220D01*
X6104097Y-2159563D01*
X6108435Y-2153071D01*
X6114926Y-2148734D01*
X6122584Y-2147210D01*
X6312564Y-2147210D01*
X6320221Y-2148734D01*
X6326713Y-2153071D01*
X6331051Y-2159563D01*
X6332574Y-2167220D01*
X6332574Y-2357200D01*
X6596574Y-2516210D02*
G75*
G03*
X6596574Y-2516210I-125000J0D01*
G01*
X6596574Y-2008210D02*
G75*
G03*
X6596574Y-2008210I-125000J0D01*
G01*
X6088574Y-2516210D02*
G75*
G03*
X6088574Y-2516210I-125000J0D01*
G01*
X6088574Y-2008210D02*
G75*
G03*
X6088574Y-2008210I-125000J0D01*
G01*
%TD*%
%TO.C,J7*%
X11336000Y-4489000D02*
X11336000Y-4659000D01*
X11506000Y-4659000D01*
X11506000Y-4489000D01*
X11336000Y-4489000D01*
X11506000Y-4828000D02*
X11506000Y-4828000D01*
X11506000Y-4828000D02*
G75*
G03*
X11336000Y-4828000I-85000J0D01*
G01*
X11336000Y-4828000D02*
X11336000Y-4828000D01*
X11336000Y-4828000D02*
G75*
G03*
X11506000Y-4828000I85000J0D01*
G01*
X11506000Y-5082000D02*
X11506000Y-5082000D01*
X11506000Y-5082000D02*
G75*
G03*
X11336000Y-5082000I-85000J0D01*
G01*
X11336000Y-5082000D02*
X11336000Y-5082000D01*
X11336000Y-5082000D02*
G75*
G03*
X11506000Y-5082000I85000J0D01*
G01*
%TD*%
%TO.C,C17*%
X10718200Y-5889000D02*
X10718200Y-6049000D01*
X10878200Y-6049000D01*
X10878200Y-5889000D01*
X10718200Y-5889000D01*
X11078200Y-5969000D02*
G75*
G03*
X11078200Y-5969000I-80000J0D01*
G01*
%TD*%
%TO.C,C18*%
X10240000Y-6171000D02*
X10240000Y-6291000D01*
X10360000Y-6291000D01*
X10360000Y-6171000D01*
X10240000Y-6171000D01*
X10160000Y-6231000D02*
G75*
G03*
X10160000Y-6231000I-60000J0D01*
G01*
%TD*%
%TO.C,C12*%
X10591000Y-4351000D02*
X10591000Y-4511000D01*
X10751000Y-4511000D01*
X10751000Y-4351000D01*
X10591000Y-4351000D01*
X11131000Y-4431000D02*
G75*
G03*
X11131000Y-4431000I-80000J0D01*
G01*
%TD*%
%TO.C,C13*%
X10591000Y-5191000D02*
X10591000Y-5351000D01*
X10751000Y-5351000D01*
X10751000Y-5191000D01*
X10591000Y-5191000D01*
X11131000Y-5271000D02*
G75*
G03*
X11131000Y-5271000I-80000J0D01*
G01*
%TD*%
%TO.C,C26*%
X3620000Y-4410000D02*
G75*
G03*
X3620000Y-4410000I-80000J0D01*
G01*
X3870000Y-4410000D02*
G75*
G03*
X3870000Y-4410000I-80000J0D01*
G01*
%TD*%
%TO.C,C7*%
X10246740Y-3495000D02*
X10246740Y-3615000D01*
X10366740Y-3615000D01*
X10366740Y-3495000D01*
X10246740Y-3495000D01*
X10166740Y-3555000D02*
G75*
G03*
X10166740Y-3555000I-60000J0D01*
G01*
%TD*%
%TO.C,C6*%
X10691760Y-3725000D02*
X10691760Y-3845000D01*
X10811760Y-3845000D01*
X10811760Y-3725000D01*
X10691760Y-3725000D01*
X11011760Y-3785000D02*
G75*
G03*
X11011760Y-3785000I-60000J0D01*
G01*
%TD*%
%TO.C,C9*%
X7422000Y-3045000D02*
X7422000Y-3205000D01*
X7582000Y-3205000D01*
X7582000Y-3045000D01*
X7422000Y-3045000D01*
X7382000Y-3125000D02*
G75*
G03*
X7382000Y-3125000I-80000J0D01*
G01*
%TD*%
%TO.C,L2*%
X5092000Y-2142000D02*
G75*
G03*
X5092000Y-2142000I-100000J0D01*
G01*
X5492000Y-2142000D02*
G75*
G03*
X5492000Y-2142000I-100000J0D01*
G01*
%TD*%
%TO.C,C5*%
X9257520Y-3060989D02*
X9257520Y-3220989D01*
X9417520Y-3220989D01*
X9417520Y-3060989D01*
X9257520Y-3060989D01*
X9617520Y-3140989D02*
G75*
G03*
X9617520Y-3140989I-80000J0D01*
G01*
%TD*%
%TO.C,Y1*%
X3858000Y-4104000D02*
G75*
G03*
X3858000Y-4104000I-50000J0D01*
G01*
X4048000Y-4104000D02*
G75*
G03*
X4048000Y-4104000I-50000J0D01*
G01*
%TD*%
%TO.C,J6*%
X3583000Y-3395000D02*
X3583000Y-3495000D01*
X3683000Y-3495000D01*
X3683000Y-3395000D01*
X3583000Y-3395000D01*
%TD*%
%TO.C,J4*%
X4125500Y-3404000D02*
X4125500Y-3504000D01*
X4225500Y-3504000D01*
X4225500Y-3404000D01*
X4125500Y-3404000D01*
%TD*%
D16*
%TO.C,J3*%
D13*
X4238574Y-2360200D02*
X4237051Y-2367858D01*
X4232713Y-2374350D01*
X4226221Y-2378687D01*
X4218564Y-2380210D01*
X4028584Y-2380210D01*
X4020926Y-2378687D01*
X4014435Y-2374350D01*
X4010097Y-2367858D01*
X4008574Y-2360200D01*
X4008574Y-2170220D01*
X4010097Y-2162563D01*
X4014435Y-2156071D01*
X4020926Y-2151734D01*
X4028584Y-2150210D01*
X4218564Y-2150210D01*
X4226221Y-2151734D01*
X4232713Y-2156071D01*
X4237051Y-2162563D01*
X4238574Y-2170220D01*
X4238574Y-2360200D01*
X4502574Y-2519210D02*
G75*
G03*
X4502574Y-2519210I-125000J0D01*
G01*
X4502574Y-2011210D02*
G75*
G03*
X4502574Y-2011210I-125000J0D01*
G01*
X3994574Y-2519210D02*
G75*
G03*
X3994574Y-2519210I-125000J0D01*
G01*
X3994574Y-2011210D02*
G75*
G03*
X3994574Y-2011210I-125000J0D01*
G01*
%TD*%
D17*
X3555840Y-2268000D02*
G75*
G03*
X3555840Y-2268000I-154840J0D01*
G01*
D18*
X3060000Y-1815000D02*
X11602000Y-1815000D01*
X11602000Y-6713000D01*
X3060000Y-6713000D01*
X3060000Y-1815000D01*
D17*
X11459840Y-6259000D02*
G75*
G03*
X11459840Y-6259000I-154840J0D01*
G01*
X11453840Y-2268000D02*
G75*
G03*
X11453840Y-2268000I-154840J0D01*
G01*
X3567840Y-6261000D02*
G75*
G03*
X3567840Y-6261000I-154840J0D01*
G01*
%TO.C,J5*%
X5787574Y-1812210D02*
X6647574Y-1812210D01*
%TO.C,J3*%
X3693574Y-1815210D02*
X4553574Y-1815210D01*
%TD*%
M02*
