%TF.GenerationSoftware,KiCad,Pcbnew,7.0.1*%
%TF.CreationDate,2024-01-20T16:33:55+00:00*%
%TF.ProjectId,SI4735,53493437-3335-42e6-9b69-6361645f7063,rev?*%
%TF.SameCoordinates,Original*%
%TF.FileFunction,Other,User*%
%FSLAX45Y45*%
G04 Gerber Fmt 4.5, Leading zero omitted, Abs format (unit mm)*
G04 Created by KiCad (PCBNEW 7.0.1) date 2024-01-20 16:33:55*
%MOMM*%
%LPD*%
G01*
G04 APERTURE LIST*
%ADD10C,0.050000*%
%TA.AperFunction,Profile*%
%ADD11C,0.100000*%
%TD*%
%TA.AperFunction,Profile*%
%ADD12C,0.050000*%
%TD*%
G04 APERTURE END LIST*
D10*
%TO.C,C1*%
X4678750Y-4690000D02*
X4182750Y-4690000D01*
X4678750Y-4460000D02*
X4678750Y-4690000D01*
X4182750Y-4690000D02*
X4182750Y-4460000D01*
X4182750Y-4460000D02*
X4678750Y-4460000D01*
%TO.C,R15*%
X7052945Y-6055625D02*
X7052945Y-5599625D01*
X7276945Y-6055625D02*
X7052945Y-6055625D01*
X7052945Y-5599625D02*
X7276945Y-5599625D01*
X7276945Y-5599625D02*
X7276945Y-6055625D01*
%TO.C,R12*%
X6284320Y-5204750D02*
X6284320Y-4748750D01*
X6508320Y-5204750D02*
X6284320Y-5204750D01*
X6284320Y-4748750D02*
X6508320Y-4748750D01*
X6508320Y-4748750D02*
X6508320Y-5204750D01*
%TO.C,Q3*%
X4508750Y-5712000D02*
X4168750Y-5712000D01*
X4168750Y-5712000D02*
X4168750Y-6096000D01*
X4508750Y-6096000D02*
X4508750Y-5712000D01*
X4168750Y-6096000D02*
X4508750Y-6096000D01*
%TO.C,D4*%
X8805945Y-4774375D02*
X8805945Y-5230375D01*
X8581945Y-4774375D02*
X8805945Y-4774375D01*
X8805945Y-5230375D02*
X8581945Y-5230375D01*
X8581945Y-5230375D02*
X8581945Y-4774375D01*
%TO.C,D2*%
X7945000Y-2938000D02*
X7945000Y-2482000D01*
X8169000Y-2938000D02*
X7945000Y-2938000D01*
X7945000Y-2482000D02*
X8169000Y-2482000D01*
X8169000Y-2482000D02*
X8169000Y-2938000D01*
%TO.C,J1*%
X9378000Y-5235000D02*
X9378000Y-5590000D01*
X6228000Y-5235000D02*
X9378000Y-5235000D01*
X9378000Y-5590000D02*
X6228000Y-5590000D01*
X6228000Y-5590000D02*
X6228000Y-5235000D01*
%TO.C,C3*%
X6440187Y-3689500D02*
X6440187Y-4149500D01*
X6210187Y-3689500D02*
X6440187Y-3689500D01*
X6440187Y-4149500D02*
X6210187Y-4149500D01*
X6210187Y-4149500D02*
X6210187Y-3689500D01*
%TO.C,D6*%
X9315000Y-4774000D02*
X9315000Y-5230000D01*
X9091000Y-4774000D02*
X9315000Y-4774000D01*
X9315000Y-5230000D02*
X9091000Y-5230000D01*
X9091000Y-5230000D02*
X9091000Y-4774000D01*
%TO.C,C2*%
X4683250Y-4462000D02*
X5179250Y-4462000D01*
X4683250Y-4692000D02*
X4683250Y-4462000D01*
X5179250Y-4462000D02*
X5179250Y-4692000D01*
X5179250Y-4692000D02*
X4683250Y-4692000D01*
%TO.C,R20*%
X7817945Y-6055625D02*
X7817945Y-5599625D01*
X8041945Y-6055625D02*
X7817945Y-6055625D01*
X7817945Y-5599625D02*
X8041945Y-5599625D01*
X8041945Y-5599625D02*
X8041945Y-6055625D01*
%TO.C,R19*%
X7617937Y-4702000D02*
X7161937Y-4702000D01*
X7617937Y-4478000D02*
X7617937Y-4702000D01*
X7161937Y-4702000D02*
X7161937Y-4478000D01*
X7161937Y-4478000D02*
X7617937Y-4478000D01*
%TO.C,R6*%
X11095000Y-3750250D02*
X11095000Y-3294250D01*
X11319000Y-3750250D02*
X11095000Y-3750250D01*
X11095000Y-3294250D02*
X11319000Y-3294250D01*
X11319000Y-3294250D02*
X11319000Y-3750250D01*
%TO.C,R9*%
X4529000Y-5666250D02*
X4529000Y-5210250D01*
X4753000Y-5666250D02*
X4529000Y-5666250D01*
X4529000Y-5210250D02*
X4753000Y-5210250D01*
X4753000Y-5210250D02*
X4753000Y-5666250D01*
%TO.C,D1*%
X8307000Y-2955000D02*
X8307000Y-2499000D01*
X8531000Y-2955000D02*
X8307000Y-2955000D01*
X8307000Y-2499000D02*
X8531000Y-2499000D01*
X8531000Y-2499000D02*
X8531000Y-2955000D01*
%TO.C,U2*%
X8655250Y-2814500D02*
X9375250Y-2814500D01*
X9375250Y-2814500D02*
X9375250Y-1934500D01*
X8655250Y-1934500D02*
X8655250Y-2814500D01*
X9375250Y-1934500D02*
X8655250Y-1934500D01*
%TO.C,D5*%
X9067945Y-4776375D02*
X9067945Y-5232375D01*
X8843945Y-4776375D02*
X9067945Y-4776375D01*
X9067945Y-5232375D02*
X8843945Y-5232375D01*
X8843945Y-5232375D02*
X8843945Y-4776375D01*
%TO.C,R8*%
X3963000Y-5556250D02*
X3963000Y-5100250D01*
X4187000Y-5556250D02*
X3963000Y-5556250D01*
X3963000Y-5100250D02*
X4187000Y-5100250D01*
X4187000Y-5100250D02*
X4187000Y-5556250D01*
%TO.C,R18*%
X6536820Y-5214750D02*
X6536820Y-4758750D01*
X6760820Y-5214750D02*
X6536820Y-5214750D01*
X6536820Y-4758750D02*
X6760820Y-4758750D01*
X6760820Y-4758750D02*
X6760820Y-5214750D01*
%TO.C,R1*%
X8530000Y-2044750D02*
X8530000Y-2500750D01*
X8306000Y-2044750D02*
X8530000Y-2044750D01*
X8530000Y-2500750D02*
X8306000Y-2500750D01*
X8306000Y-2500750D02*
X8306000Y-2044750D01*
%TO.C,R17*%
X6894187Y-3696250D02*
X6894187Y-4152250D01*
X6670187Y-3696250D02*
X6894187Y-3696250D01*
X6894187Y-4152250D02*
X6670187Y-4152250D01*
X6670187Y-4152250D02*
X6670187Y-3696250D01*
%TO.C,R4*%
X9746000Y-1973250D02*
X9746000Y-2429250D01*
X9522000Y-1973250D02*
X9746000Y-1973250D01*
X9746000Y-2429250D02*
X9522000Y-2429250D01*
X9522000Y-2429250D02*
X9522000Y-1973250D01*
%TO.C,R13*%
X6674187Y-3688750D02*
X6674187Y-4144750D01*
X6450187Y-3688750D02*
X6674187Y-3688750D01*
X6674187Y-4144750D02*
X6450187Y-4144750D01*
X6450187Y-4144750D02*
X6450187Y-3688750D01*
%TO.C,R16*%
X8073945Y-6057625D02*
X8073945Y-5601625D01*
X8297945Y-6057625D02*
X8073945Y-6057625D01*
X8073945Y-5601625D02*
X8297945Y-5601625D01*
X8297945Y-5601625D02*
X8297945Y-6057625D01*
%TO.C,D3*%
X9523000Y-2881000D02*
X9523000Y-2425000D01*
X9747000Y-2881000D02*
X9523000Y-2881000D01*
X9523000Y-2425000D02*
X9747000Y-2425000D01*
X9747000Y-2425000D02*
X9747000Y-2881000D01*
%TO.C,R10*%
X4509750Y-6183750D02*
X4509750Y-5727750D01*
X4733750Y-6183750D02*
X4509750Y-6183750D01*
X4509750Y-5727750D02*
X4733750Y-5727750D01*
X4733750Y-5727750D02*
X4733750Y-6183750D01*
%TO.C,R3*%
X11281371Y-3302881D02*
X11281371Y-2846881D01*
X11505371Y-3302881D02*
X11281371Y-3302881D01*
X11281371Y-2846881D02*
X11505371Y-2846881D01*
X11505371Y-2846881D02*
X11505371Y-3302881D01*
%TO.C,R11*%
X6800945Y-6057625D02*
X6800945Y-5601625D01*
X7024945Y-6057625D02*
X6800945Y-6057625D01*
X6800945Y-5601625D02*
X7024945Y-5601625D01*
X7024945Y-5601625D02*
X7024945Y-6057625D01*
%TO.C,Q2*%
X4524000Y-5197000D02*
X4184000Y-5197000D01*
X4184000Y-5197000D02*
X4184000Y-5581000D01*
X4524000Y-5581000D02*
X4524000Y-5197000D01*
X4184000Y-5581000D02*
X4524000Y-5581000D01*
%TO.C,R7*%
X3944750Y-6077500D02*
X3944750Y-5621500D01*
X4168750Y-6077500D02*
X3944750Y-6077500D01*
X3944750Y-5621500D02*
X4168750Y-5621500D01*
X4168750Y-5621500D02*
X4168750Y-6077500D01*
%TO.C,Q1*%
X11268379Y-2835869D02*
X10928379Y-2835869D01*
X10928379Y-2835869D02*
X10928379Y-3219869D01*
X11268379Y-3219869D02*
X11268379Y-2835869D01*
X10928379Y-3219869D02*
X11268379Y-3219869D01*
%TO.C,U1*%
X7146000Y-2812000D02*
X7866000Y-2812000D01*
X7866000Y-2812000D02*
X7866000Y-1932000D01*
X7146000Y-1932000D02*
X7146000Y-2812000D01*
X7866000Y-1932000D02*
X7146000Y-1932000D01*
%TO.C,U3*%
X6166187Y-4177250D02*
X6166187Y-4717750D01*
X6166187Y-4177250D02*
X6907187Y-4177250D01*
X6166187Y-4717750D02*
X6907187Y-4717750D01*
X6907187Y-4177250D02*
X6907187Y-4717750D01*
%TO.C,C4*%
X7181000Y-3689500D02*
X7181000Y-4149500D01*
X6951000Y-3689500D02*
X7181000Y-3689500D01*
X7181000Y-4149500D02*
X6951000Y-4149500D01*
X6951000Y-4149500D02*
X6951000Y-3689500D01*
%TO.C,R5*%
X10674000Y-3296750D02*
X10674000Y-3752750D01*
X10450000Y-3296750D02*
X10674000Y-3296750D01*
X10674000Y-3752750D02*
X10450000Y-3752750D01*
X10450000Y-3752750D02*
X10450000Y-3296750D01*
%TO.C,R14*%
X7621437Y-4477000D02*
X7165437Y-4477000D01*
X7621437Y-4253000D02*
X7621437Y-4477000D01*
X7165437Y-4477000D02*
X7165437Y-4253000D01*
X7165437Y-4253000D02*
X7621437Y-4253000D01*
%TO.C,R2*%
X8171000Y-2034750D02*
X8171000Y-2490750D01*
X7947000Y-2034750D02*
X8171000Y-2034750D01*
X8171000Y-2490750D02*
X7947000Y-2490750D01*
X7947000Y-2490750D02*
X7947000Y-2034750D01*
%TD*%
D11*
X3555840Y-2268000D02*
G75*
G03*
X3555840Y-2268000I-154840J0D01*
G01*
D12*
X3060000Y-1815000D02*
X11602000Y-1815000D01*
X11602000Y-6713000D01*
X3060000Y-6713000D01*
X3060000Y-1815000D01*
D11*
X11459840Y-6259000D02*
G75*
G03*
X11459840Y-6259000I-154840J0D01*
G01*
X11453840Y-2268000D02*
G75*
G03*
X11453840Y-2268000I-154840J0D01*
G01*
X3567840Y-6261000D02*
G75*
G03*
X3567840Y-6261000I-154840J0D01*
G01*
%TO.C,J5*%
X5787574Y-1812210D02*
X6647574Y-1812210D01*
%TO.C,J3*%
X3693574Y-1815210D02*
X4553574Y-1815210D01*
%TD*%
M02*
