%TF.GenerationSoftware,KiCad,Pcbnew,7.0.1*%
%TF.CreationDate,2024-02-20T22:54:35+00:00*%
%TF.ProjectId,SI4735,53493437-3335-42e6-9b69-6361645f7063,rev?*%
%TF.SameCoordinates,Original*%
%TF.FileFunction,AssemblyDrawing,Bot*%
%FSLAX45Y45*%
G04 Gerber Fmt 4.5, Leading zero omitted, Abs format (unit mm)*
G04 Created by KiCad (PCBNEW 7.0.1) date 2024-02-20 22:54:35*
%MOMM*%
%LPD*%
G01*
G04 APERTURE LIST*
%ADD10C,0.150000*%
%ADD11C,0.090000*%
%ADD12C,0.120000*%
%ADD13C,0.100000*%
%ADD14C,0.100000*%
%TD*%
%TA.AperFunction,Profile*%
%ADD15C,0.100000*%
%TD*%
%TA.AperFunction,Profile*%
%ADD16C,0.050000*%
%TD*%
G04 APERTURE END LIST*
D10*
%TO.C,C24*%
X3737048Y-4421595D02*
X3737048Y-4488262D01*
X3760857Y-4383500D02*
X3784667Y-4454929D01*
X3784667Y-4454929D02*
X3722762Y-4454929D01*
X3641809Y-4421595D02*
X3641809Y-4488262D01*
X3684667Y-4421595D02*
X3684667Y-4473976D01*
X3684667Y-4473976D02*
X3679905Y-4483500D01*
X3679905Y-4483500D02*
X3670381Y-4488262D01*
X3670381Y-4488262D02*
X3656095Y-4488262D01*
X3656095Y-4488262D02*
X3646571Y-4483500D01*
X3646571Y-4483500D02*
X3641809Y-4478738D01*
X3560857Y-4435881D02*
X3594190Y-4435881D01*
X3594190Y-4488262D02*
X3594190Y-4388262D01*
X3594190Y-4388262D02*
X3546571Y-4388262D01*
D11*
X3706571Y-4669043D02*
X3709429Y-4671900D01*
X3709429Y-4671900D02*
X3718000Y-4674757D01*
X3718000Y-4674757D02*
X3723714Y-4674757D01*
X3723714Y-4674757D02*
X3732286Y-4671900D01*
X3732286Y-4671900D02*
X3738000Y-4666186D01*
X3738000Y-4666186D02*
X3740857Y-4660471D01*
X3740857Y-4660471D02*
X3743714Y-4649043D01*
X3743714Y-4649043D02*
X3743714Y-4640471D01*
X3743714Y-4640471D02*
X3740857Y-4629043D01*
X3740857Y-4629043D02*
X3738000Y-4623329D01*
X3738000Y-4623329D02*
X3732286Y-4617614D01*
X3732286Y-4617614D02*
X3723714Y-4614757D01*
X3723714Y-4614757D02*
X3718000Y-4614757D01*
X3718000Y-4614757D02*
X3709429Y-4617614D01*
X3709429Y-4617614D02*
X3706571Y-4620471D01*
X3683714Y-4620471D02*
X3680857Y-4617614D01*
X3680857Y-4617614D02*
X3675143Y-4614757D01*
X3675143Y-4614757D02*
X3660857Y-4614757D01*
X3660857Y-4614757D02*
X3655143Y-4617614D01*
X3655143Y-4617614D02*
X3652286Y-4620471D01*
X3652286Y-4620471D02*
X3649429Y-4626186D01*
X3649429Y-4626186D02*
X3649429Y-4631900D01*
X3649429Y-4631900D02*
X3652286Y-4640471D01*
X3652286Y-4640471D02*
X3686571Y-4674757D01*
X3686571Y-4674757D02*
X3649429Y-4674757D01*
X3598000Y-4634757D02*
X3598000Y-4674757D01*
X3612286Y-4611900D02*
X3626571Y-4654757D01*
X3626571Y-4654757D02*
X3589428Y-4654757D01*
D10*
%TO.C,J2*%
X10068536Y-1937690D02*
X10020917Y-1937690D01*
X10078059Y-1966262D02*
X10044726Y-1866262D01*
X10044726Y-1866262D02*
X10011393Y-1966262D01*
X9935202Y-1899595D02*
X9935202Y-1966262D01*
X9978059Y-1899595D02*
X9978059Y-1951976D01*
X9978059Y-1951976D02*
X9973298Y-1961500D01*
X9973298Y-1961500D02*
X9963774Y-1966262D01*
X9963774Y-1966262D02*
X9949488Y-1966262D01*
X9949488Y-1966262D02*
X9939964Y-1961500D01*
X9939964Y-1961500D02*
X9935202Y-1956738D01*
X9844726Y-1966262D02*
X9844726Y-1866262D01*
X9844726Y-1961500D02*
X9854250Y-1966262D01*
X9854250Y-1966262D02*
X9873298Y-1966262D01*
X9873298Y-1966262D02*
X9882821Y-1961500D01*
X9882821Y-1961500D02*
X9887583Y-1956738D01*
X9887583Y-1956738D02*
X9892345Y-1947214D01*
X9892345Y-1947214D02*
X9892345Y-1918643D01*
X9892345Y-1918643D02*
X9887583Y-1909119D01*
X9887583Y-1909119D02*
X9882821Y-1904357D01*
X9882821Y-1904357D02*
X9873298Y-1899595D01*
X9873298Y-1899595D02*
X9854250Y-1899595D01*
X9854250Y-1899595D02*
X9844726Y-1904357D01*
X9797107Y-1966262D02*
X9797107Y-1899595D01*
X9797107Y-1866262D02*
X9801869Y-1871024D01*
X9801869Y-1871024D02*
X9797107Y-1875786D01*
X9797107Y-1875786D02*
X9792345Y-1871024D01*
X9792345Y-1871024D02*
X9797107Y-1866262D01*
X9797107Y-1866262D02*
X9797107Y-1875786D01*
X9735202Y-1966262D02*
X9744726Y-1961500D01*
X9744726Y-1961500D02*
X9749488Y-1956738D01*
X9749488Y-1956738D02*
X9754250Y-1947214D01*
X9754250Y-1947214D02*
X9754250Y-1918643D01*
X9754250Y-1918643D02*
X9749488Y-1909119D01*
X9749488Y-1909119D02*
X9744726Y-1904357D01*
X9744726Y-1904357D02*
X9735202Y-1899595D01*
X9735202Y-1899595D02*
X9720917Y-1899595D01*
X9720917Y-1899595D02*
X9711393Y-1904357D01*
X9711393Y-1904357D02*
X9706631Y-1909119D01*
X9706631Y-1909119D02*
X9701869Y-1918643D01*
X9701869Y-1918643D02*
X9701869Y-1947214D01*
X9701869Y-1947214D02*
X9706631Y-1956738D01*
X9706631Y-1956738D02*
X9711393Y-1961500D01*
X9711393Y-1961500D02*
X9720917Y-1966262D01*
X9720917Y-1966262D02*
X9735202Y-1966262D01*
X9630440Y-1866262D02*
X9630440Y-1937690D01*
X9630440Y-1937690D02*
X9635202Y-1951976D01*
X9635202Y-1951976D02*
X9644726Y-1961500D01*
X9644726Y-1961500D02*
X9659012Y-1966262D01*
X9659012Y-1966262D02*
X9668536Y-1966262D01*
X9539964Y-1966262D02*
X9539964Y-1913881D01*
X9539964Y-1913881D02*
X9544726Y-1904357D01*
X9544726Y-1904357D02*
X9554250Y-1899595D01*
X9554250Y-1899595D02*
X9573298Y-1899595D01*
X9573298Y-1899595D02*
X9582821Y-1904357D01*
X9539964Y-1961500D02*
X9549488Y-1966262D01*
X9549488Y-1966262D02*
X9573298Y-1966262D01*
X9573298Y-1966262D02*
X9582821Y-1961500D01*
X9582821Y-1961500D02*
X9587583Y-1951976D01*
X9587583Y-1951976D02*
X9587583Y-1942452D01*
X9587583Y-1942452D02*
X9582821Y-1932928D01*
X9582821Y-1932928D02*
X9573298Y-1928167D01*
X9573298Y-1928167D02*
X9549488Y-1928167D01*
X9549488Y-1928167D02*
X9539964Y-1923405D01*
X9449488Y-1961500D02*
X9459012Y-1966262D01*
X9459012Y-1966262D02*
X9478059Y-1966262D01*
X9478059Y-1966262D02*
X9487583Y-1961500D01*
X9487583Y-1961500D02*
X9492345Y-1956738D01*
X9492345Y-1956738D02*
X9497107Y-1947214D01*
X9497107Y-1947214D02*
X9497107Y-1918643D01*
X9497107Y-1918643D02*
X9492345Y-1909119D01*
X9492345Y-1909119D02*
X9487583Y-1904357D01*
X9487583Y-1904357D02*
X9478059Y-1899595D01*
X9478059Y-1899595D02*
X9459012Y-1899595D01*
X9459012Y-1899595D02*
X9449488Y-1904357D01*
X9406631Y-1966262D02*
X9406631Y-1866262D01*
X9397107Y-1928167D02*
X9368536Y-1966262D01*
X9368536Y-1899595D02*
X9406631Y-1937690D01*
X9335202Y-1866262D02*
X9273298Y-1866262D01*
X9273298Y-1866262D02*
X9306631Y-1904357D01*
X9306631Y-1904357D02*
X9292345Y-1904357D01*
X9292345Y-1904357D02*
X9282821Y-1909119D01*
X9282821Y-1909119D02*
X9278059Y-1913881D01*
X9278059Y-1913881D02*
X9273298Y-1923405D01*
X9273298Y-1923405D02*
X9273298Y-1947214D01*
X9273298Y-1947214D02*
X9278059Y-1956738D01*
X9278059Y-1956738D02*
X9282821Y-1961500D01*
X9282821Y-1961500D02*
X9292345Y-1966262D01*
X9292345Y-1966262D02*
X9320917Y-1966262D01*
X9320917Y-1966262D02*
X9330440Y-1961500D01*
X9330440Y-1961500D02*
X9335202Y-1956738D01*
X9982250Y-1858262D02*
X9982250Y-1929690D01*
X9982250Y-1929690D02*
X9987012Y-1943976D01*
X9987012Y-1943976D02*
X9996536Y-1953500D01*
X9996536Y-1953500D02*
X10010821Y-1958262D01*
X10010821Y-1958262D02*
X10020345Y-1958262D01*
X9939393Y-1867786D02*
X9934631Y-1863024D01*
X9934631Y-1863024D02*
X9925107Y-1858262D01*
X9925107Y-1858262D02*
X9901298Y-1858262D01*
X9901298Y-1858262D02*
X9891774Y-1863024D01*
X9891774Y-1863024D02*
X9887012Y-1867786D01*
X9887012Y-1867786D02*
X9882250Y-1877309D01*
X9882250Y-1877309D02*
X9882250Y-1886833D01*
X9882250Y-1886833D02*
X9887012Y-1901119D01*
X9887012Y-1901119D02*
X9944155Y-1958262D01*
X9944155Y-1958262D02*
X9882250Y-1958262D01*
%TO.C,C14*%
X9976262Y-5040095D02*
X9976262Y-5049619D01*
X9976262Y-5049619D02*
X9981024Y-5059143D01*
X9981024Y-5059143D02*
X9985786Y-5063905D01*
X9985786Y-5063905D02*
X9995310Y-5068667D01*
X9995310Y-5068667D02*
X10014357Y-5073429D01*
X10014357Y-5073429D02*
X10038167Y-5073429D01*
X10038167Y-5073429D02*
X10057214Y-5068667D01*
X10057214Y-5068667D02*
X10066738Y-5063905D01*
X10066738Y-5063905D02*
X10071500Y-5059143D01*
X10071500Y-5059143D02*
X10076262Y-5049619D01*
X10076262Y-5049619D02*
X10076262Y-5040095D01*
X10076262Y-5040095D02*
X10071500Y-5030571D01*
X10071500Y-5030571D02*
X10066738Y-5025810D01*
X10066738Y-5025810D02*
X10057214Y-5021048D01*
X10057214Y-5021048D02*
X10038167Y-5016286D01*
X10038167Y-5016286D02*
X10014357Y-5016286D01*
X10014357Y-5016286D02*
X9995310Y-5021048D01*
X9995310Y-5021048D02*
X9985786Y-5025810D01*
X9985786Y-5025810D02*
X9981024Y-5030571D01*
X9981024Y-5030571D02*
X9976262Y-5040095D01*
X10066738Y-5116286D02*
X10071500Y-5121048D01*
X10071500Y-5121048D02*
X10076262Y-5116286D01*
X10076262Y-5116286D02*
X10071500Y-5111524D01*
X10071500Y-5111524D02*
X10066738Y-5116286D01*
X10066738Y-5116286D02*
X10076262Y-5116286D01*
X9976262Y-5182952D02*
X9976262Y-5192476D01*
X9976262Y-5192476D02*
X9981024Y-5202000D01*
X9981024Y-5202000D02*
X9985786Y-5206762D01*
X9985786Y-5206762D02*
X9995310Y-5211524D01*
X9995310Y-5211524D02*
X10014357Y-5216286D01*
X10014357Y-5216286D02*
X10038167Y-5216286D01*
X10038167Y-5216286D02*
X10057214Y-5211524D01*
X10057214Y-5211524D02*
X10066738Y-5206762D01*
X10066738Y-5206762D02*
X10071500Y-5202000D01*
X10071500Y-5202000D02*
X10076262Y-5192476D01*
X10076262Y-5192476D02*
X10076262Y-5182952D01*
X10076262Y-5182952D02*
X10071500Y-5173429D01*
X10071500Y-5173429D02*
X10066738Y-5168667D01*
X10066738Y-5168667D02*
X10057214Y-5163905D01*
X10057214Y-5163905D02*
X10038167Y-5159143D01*
X10038167Y-5159143D02*
X10014357Y-5159143D01*
X10014357Y-5159143D02*
X9995310Y-5163905D01*
X9995310Y-5163905D02*
X9985786Y-5168667D01*
X9985786Y-5168667D02*
X9981024Y-5173429D01*
X9981024Y-5173429D02*
X9976262Y-5182952D01*
X10076262Y-5311524D02*
X10076262Y-5254381D01*
X10076262Y-5282952D02*
X9976262Y-5282952D01*
X9976262Y-5282952D02*
X9990548Y-5273429D01*
X9990548Y-5273429D02*
X10000071Y-5263905D01*
X10000071Y-5263905D02*
X10004833Y-5254381D01*
X10009595Y-5397238D02*
X10076262Y-5397238D01*
X10009595Y-5354381D02*
X10061976Y-5354381D01*
X10061976Y-5354381D02*
X10071500Y-5359143D01*
X10071500Y-5359143D02*
X10076262Y-5368667D01*
X10076262Y-5368667D02*
X10076262Y-5382952D01*
X10076262Y-5382952D02*
X10071500Y-5392476D01*
X10071500Y-5392476D02*
X10066738Y-5397238D01*
X10023881Y-5478190D02*
X10023881Y-5444857D01*
X10076262Y-5444857D02*
X9976262Y-5444857D01*
X9976262Y-5444857D02*
X9976262Y-5492476D01*
D12*
X10058131Y-5720071D02*
X10061940Y-5716262D01*
X10061940Y-5716262D02*
X10065750Y-5704833D01*
X10065750Y-5704833D02*
X10065750Y-5697214D01*
X10065750Y-5697214D02*
X10061940Y-5685786D01*
X10061940Y-5685786D02*
X10054321Y-5678167D01*
X10054321Y-5678167D02*
X10046702Y-5674357D01*
X10046702Y-5674357D02*
X10031464Y-5670547D01*
X10031464Y-5670547D02*
X10020035Y-5670547D01*
X10020035Y-5670547D02*
X10004797Y-5674357D01*
X10004797Y-5674357D02*
X9997178Y-5678167D01*
X9997178Y-5678167D02*
X9989559Y-5685786D01*
X9989559Y-5685786D02*
X9985750Y-5697214D01*
X9985750Y-5697214D02*
X9985750Y-5704833D01*
X9985750Y-5704833D02*
X9989559Y-5716262D01*
X9989559Y-5716262D02*
X9993369Y-5720071D01*
X10065750Y-5796262D02*
X10065750Y-5750547D01*
X10065750Y-5773405D02*
X9985750Y-5773405D01*
X9985750Y-5773405D02*
X9997178Y-5765786D01*
X9997178Y-5765786D02*
X10004797Y-5758167D01*
X10004797Y-5758167D02*
X10008607Y-5750547D01*
X10012416Y-5864833D02*
X10065750Y-5864833D01*
X9981940Y-5845786D02*
X10039083Y-5826738D01*
X10039083Y-5826738D02*
X10039083Y-5876262D01*
D10*
%TO.C,C8*%
X8741775Y-3288714D02*
X8737013Y-3293476D01*
X8737013Y-3293476D02*
X8732251Y-3303000D01*
X8732251Y-3303000D02*
X8732251Y-3326809D01*
X8732251Y-3326809D02*
X8737013Y-3336333D01*
X8737013Y-3336333D02*
X8741775Y-3341095D01*
X8741775Y-3341095D02*
X8751298Y-3345857D01*
X8751298Y-3345857D02*
X8760822Y-3345857D01*
X8760822Y-3345857D02*
X8775108Y-3341095D01*
X8775108Y-3341095D02*
X8832251Y-3283952D01*
X8832251Y-3283952D02*
X8832251Y-3345857D01*
X8732251Y-3407762D02*
X8732251Y-3417286D01*
X8732251Y-3417286D02*
X8737013Y-3426809D01*
X8737013Y-3426809D02*
X8741775Y-3431571D01*
X8741775Y-3431571D02*
X8751298Y-3436333D01*
X8751298Y-3436333D02*
X8770346Y-3441095D01*
X8770346Y-3441095D02*
X8794155Y-3441095D01*
X8794155Y-3441095D02*
X8813203Y-3436333D01*
X8813203Y-3436333D02*
X8822727Y-3431571D01*
X8822727Y-3431571D02*
X8827489Y-3426809D01*
X8827489Y-3426809D02*
X8832251Y-3417286D01*
X8832251Y-3417286D02*
X8832251Y-3407762D01*
X8832251Y-3407762D02*
X8827489Y-3398238D01*
X8827489Y-3398238D02*
X8822727Y-3393476D01*
X8822727Y-3393476D02*
X8813203Y-3388714D01*
X8813203Y-3388714D02*
X8794155Y-3383952D01*
X8794155Y-3383952D02*
X8770346Y-3383952D01*
X8770346Y-3383952D02*
X8751298Y-3388714D01*
X8751298Y-3388714D02*
X8741775Y-3393476D01*
X8741775Y-3393476D02*
X8737013Y-3398238D01*
X8737013Y-3398238D02*
X8732251Y-3407762D01*
X8765584Y-3526809D02*
X8832251Y-3526809D01*
X8765584Y-3483952D02*
X8817965Y-3483952D01*
X8817965Y-3483952D02*
X8827489Y-3488714D01*
X8827489Y-3488714D02*
X8832251Y-3498238D01*
X8832251Y-3498238D02*
X8832251Y-3512524D01*
X8832251Y-3512524D02*
X8827489Y-3522048D01*
X8827489Y-3522048D02*
X8822727Y-3526809D01*
X8779870Y-3607762D02*
X8779870Y-3574429D01*
X8832251Y-3574429D02*
X8732251Y-3574429D01*
X8732251Y-3574429D02*
X8732251Y-3622048D01*
X8650667Y-3324738D02*
X8655429Y-3329500D01*
X8655429Y-3329500D02*
X8669714Y-3334262D01*
X8669714Y-3334262D02*
X8679238Y-3334262D01*
X8679238Y-3334262D02*
X8693524Y-3329500D01*
X8693524Y-3329500D02*
X8703048Y-3319976D01*
X8703048Y-3319976D02*
X8707809Y-3310452D01*
X8707809Y-3310452D02*
X8712571Y-3291405D01*
X8712571Y-3291405D02*
X8712571Y-3277119D01*
X8712571Y-3277119D02*
X8707809Y-3258071D01*
X8707809Y-3258071D02*
X8703048Y-3248548D01*
X8703048Y-3248548D02*
X8693524Y-3239024D01*
X8693524Y-3239024D02*
X8679238Y-3234262D01*
X8679238Y-3234262D02*
X8669714Y-3234262D01*
X8669714Y-3234262D02*
X8655429Y-3239024D01*
X8655429Y-3239024D02*
X8650667Y-3243786D01*
X8593524Y-3277119D02*
X8603048Y-3272357D01*
X8603048Y-3272357D02*
X8607809Y-3267595D01*
X8607809Y-3267595D02*
X8612571Y-3258071D01*
X8612571Y-3258071D02*
X8612571Y-3253309D01*
X8612571Y-3253309D02*
X8607809Y-3243786D01*
X8607809Y-3243786D02*
X8603048Y-3239024D01*
X8603048Y-3239024D02*
X8593524Y-3234262D01*
X8593524Y-3234262D02*
X8574476Y-3234262D01*
X8574476Y-3234262D02*
X8564952Y-3239024D01*
X8564952Y-3239024D02*
X8560190Y-3243786D01*
X8560190Y-3243786D02*
X8555429Y-3253309D01*
X8555429Y-3253309D02*
X8555429Y-3258071D01*
X8555429Y-3258071D02*
X8560190Y-3267595D01*
X8560190Y-3267595D02*
X8564952Y-3272357D01*
X8564952Y-3272357D02*
X8574476Y-3277119D01*
X8574476Y-3277119D02*
X8593524Y-3277119D01*
X8593524Y-3277119D02*
X8603048Y-3281881D01*
X8603048Y-3281881D02*
X8607809Y-3286643D01*
X8607809Y-3286643D02*
X8612571Y-3296167D01*
X8612571Y-3296167D02*
X8612571Y-3315214D01*
X8612571Y-3315214D02*
X8607809Y-3324738D01*
X8607809Y-3324738D02*
X8603048Y-3329500D01*
X8603048Y-3329500D02*
X8593524Y-3334262D01*
X8593524Y-3334262D02*
X8574476Y-3334262D01*
X8574476Y-3334262D02*
X8564952Y-3329500D01*
X8564952Y-3329500D02*
X8560190Y-3324738D01*
X8560190Y-3324738D02*
X8555429Y-3315214D01*
X8555429Y-3315214D02*
X8555429Y-3296167D01*
X8555429Y-3296167D02*
X8560190Y-3286643D01*
X8560190Y-3286643D02*
X8564952Y-3281881D01*
X8564952Y-3281881D02*
X8574476Y-3277119D01*
%TO.C,C23*%
X5394262Y-4272214D02*
X5394262Y-4215071D01*
X5394262Y-4243643D02*
X5294262Y-4243643D01*
X5294262Y-4243643D02*
X5308548Y-4234119D01*
X5308548Y-4234119D02*
X5318071Y-4224595D01*
X5318071Y-4224595D02*
X5322833Y-4215071D01*
X5294262Y-4334119D02*
X5294262Y-4343643D01*
X5294262Y-4343643D02*
X5299024Y-4353167D01*
X5299024Y-4353167D02*
X5303786Y-4357929D01*
X5303786Y-4357929D02*
X5313310Y-4362690D01*
X5313310Y-4362690D02*
X5332357Y-4367452D01*
X5332357Y-4367452D02*
X5356167Y-4367452D01*
X5356167Y-4367452D02*
X5375214Y-4362690D01*
X5375214Y-4362690D02*
X5384738Y-4357929D01*
X5384738Y-4357929D02*
X5389500Y-4353167D01*
X5389500Y-4353167D02*
X5394262Y-4343643D01*
X5394262Y-4343643D02*
X5394262Y-4334119D01*
X5394262Y-4334119D02*
X5389500Y-4324595D01*
X5389500Y-4324595D02*
X5384738Y-4319833D01*
X5384738Y-4319833D02*
X5375214Y-4315071D01*
X5375214Y-4315071D02*
X5356167Y-4310310D01*
X5356167Y-4310310D02*
X5332357Y-4310310D01*
X5332357Y-4310310D02*
X5313310Y-4315071D01*
X5313310Y-4315071D02*
X5303786Y-4319833D01*
X5303786Y-4319833D02*
X5299024Y-4324595D01*
X5299024Y-4324595D02*
X5294262Y-4334119D01*
X5327595Y-4410310D02*
X5394262Y-4410310D01*
X5337119Y-4410310D02*
X5332357Y-4415071D01*
X5332357Y-4415071D02*
X5327595Y-4424595D01*
X5327595Y-4424595D02*
X5327595Y-4438881D01*
X5327595Y-4438881D02*
X5332357Y-4448405D01*
X5332357Y-4448405D02*
X5341881Y-4453167D01*
X5341881Y-4453167D02*
X5394262Y-4453167D01*
D12*
X5532390Y-4307571D02*
X5536200Y-4303762D01*
X5536200Y-4303762D02*
X5540010Y-4292333D01*
X5540010Y-4292333D02*
X5540010Y-4284714D01*
X5540010Y-4284714D02*
X5536200Y-4273286D01*
X5536200Y-4273286D02*
X5528581Y-4265667D01*
X5528581Y-4265667D02*
X5520962Y-4261857D01*
X5520962Y-4261857D02*
X5505724Y-4258048D01*
X5505724Y-4258048D02*
X5494295Y-4258048D01*
X5494295Y-4258048D02*
X5479057Y-4261857D01*
X5479057Y-4261857D02*
X5471438Y-4265667D01*
X5471438Y-4265667D02*
X5463819Y-4273286D01*
X5463819Y-4273286D02*
X5460010Y-4284714D01*
X5460010Y-4284714D02*
X5460010Y-4292333D01*
X5460010Y-4292333D02*
X5463819Y-4303762D01*
X5463819Y-4303762D02*
X5467629Y-4307571D01*
X5467629Y-4338048D02*
X5463819Y-4341857D01*
X5463819Y-4341857D02*
X5460010Y-4349476D01*
X5460010Y-4349476D02*
X5460010Y-4368524D01*
X5460010Y-4368524D02*
X5463819Y-4376143D01*
X5463819Y-4376143D02*
X5467629Y-4379952D01*
X5467629Y-4379952D02*
X5475248Y-4383762D01*
X5475248Y-4383762D02*
X5482867Y-4383762D01*
X5482867Y-4383762D02*
X5494295Y-4379952D01*
X5494295Y-4379952D02*
X5540010Y-4334238D01*
X5540010Y-4334238D02*
X5540010Y-4383762D01*
X5460010Y-4410429D02*
X5460010Y-4459952D01*
X5460010Y-4459952D02*
X5490486Y-4433286D01*
X5490486Y-4433286D02*
X5490486Y-4444714D01*
X5490486Y-4444714D02*
X5494295Y-4452333D01*
X5494295Y-4452333D02*
X5498105Y-4456143D01*
X5498105Y-4456143D02*
X5505724Y-4459952D01*
X5505724Y-4459952D02*
X5524771Y-4459952D01*
X5524771Y-4459952D02*
X5532390Y-4456143D01*
X5532390Y-4456143D02*
X5536200Y-4452333D01*
X5536200Y-4452333D02*
X5540010Y-4444714D01*
X5540010Y-4444714D02*
X5540010Y-4421857D01*
X5540010Y-4421857D02*
X5536200Y-4414238D01*
X5536200Y-4414238D02*
X5532390Y-4410429D01*
D10*
%TO.C,D10*%
X4522095Y-2498881D02*
X4507810Y-2503643D01*
X4507810Y-2503643D02*
X4503048Y-2508405D01*
X4503048Y-2508405D02*
X4498286Y-2517929D01*
X4498286Y-2517929D02*
X4498286Y-2532214D01*
X4498286Y-2532214D02*
X4503048Y-2541738D01*
X4503048Y-2541738D02*
X4507810Y-2546500D01*
X4507810Y-2546500D02*
X4517333Y-2551262D01*
X4517333Y-2551262D02*
X4555429Y-2551262D01*
X4555429Y-2551262D02*
X4555429Y-2451262D01*
X4555429Y-2451262D02*
X4522095Y-2451262D01*
X4522095Y-2451262D02*
X4512571Y-2456024D01*
X4512571Y-2456024D02*
X4507810Y-2460786D01*
X4507810Y-2460786D02*
X4503048Y-2470310D01*
X4503048Y-2470310D02*
X4503048Y-2479833D01*
X4503048Y-2479833D02*
X4507810Y-2489357D01*
X4507810Y-2489357D02*
X4512571Y-2494119D01*
X4512571Y-2494119D02*
X4522095Y-2498881D01*
X4522095Y-2498881D02*
X4555429Y-2498881D01*
X4460190Y-2522690D02*
X4412571Y-2522690D01*
X4469714Y-2551262D02*
X4436381Y-2451262D01*
X4436381Y-2451262D02*
X4403048Y-2551262D01*
X4379238Y-2451262D02*
X4355429Y-2551262D01*
X4355429Y-2551262D02*
X4336381Y-2479833D01*
X4336381Y-2479833D02*
X4317333Y-2551262D01*
X4317333Y-2551262D02*
X4293524Y-2451262D01*
X4264952Y-2451262D02*
X4198286Y-2451262D01*
X4198286Y-2451262D02*
X4241143Y-2551262D01*
X4112571Y-2451262D02*
X4160190Y-2451262D01*
X4160190Y-2451262D02*
X4164952Y-2498881D01*
X4164952Y-2498881D02*
X4160190Y-2494119D01*
X4160190Y-2494119D02*
X4150667Y-2489357D01*
X4150667Y-2489357D02*
X4126857Y-2489357D01*
X4126857Y-2489357D02*
X4117333Y-2494119D01*
X4117333Y-2494119D02*
X4112571Y-2498881D01*
X4112571Y-2498881D02*
X4107809Y-2508405D01*
X4107809Y-2508405D02*
X4107809Y-2532214D01*
X4107809Y-2532214D02*
X4112571Y-2541738D01*
X4112571Y-2541738D02*
X4117333Y-2546500D01*
X4117333Y-2546500D02*
X4126857Y-2551262D01*
X4126857Y-2551262D02*
X4150667Y-2551262D01*
X4150667Y-2551262D02*
X4160190Y-2546500D01*
X4160190Y-2546500D02*
X4164952Y-2541738D01*
D12*
X5023143Y-2505010D02*
X5023143Y-2425010D01*
X5023143Y-2425010D02*
X5004095Y-2425010D01*
X5004095Y-2425010D02*
X4992667Y-2428819D01*
X4992667Y-2428819D02*
X4985048Y-2436438D01*
X4985048Y-2436438D02*
X4981238Y-2444057D01*
X4981238Y-2444057D02*
X4977429Y-2459295D01*
X4977429Y-2459295D02*
X4977429Y-2470724D01*
X4977429Y-2470724D02*
X4981238Y-2485962D01*
X4981238Y-2485962D02*
X4985048Y-2493581D01*
X4985048Y-2493581D02*
X4992667Y-2501200D01*
X4992667Y-2501200D02*
X5004095Y-2505010D01*
X5004095Y-2505010D02*
X5023143Y-2505010D01*
X4901238Y-2505010D02*
X4946952Y-2505010D01*
X4924095Y-2505010D02*
X4924095Y-2425010D01*
X4924095Y-2425010D02*
X4931714Y-2436438D01*
X4931714Y-2436438D02*
X4939333Y-2444057D01*
X4939333Y-2444057D02*
X4946952Y-2447867D01*
X4851714Y-2425010D02*
X4844095Y-2425010D01*
X4844095Y-2425010D02*
X4836476Y-2428819D01*
X4836476Y-2428819D02*
X4832667Y-2432629D01*
X4832667Y-2432629D02*
X4828857Y-2440248D01*
X4828857Y-2440248D02*
X4825048Y-2455486D01*
X4825048Y-2455486D02*
X4825048Y-2474533D01*
X4825048Y-2474533D02*
X4828857Y-2489771D01*
X4828857Y-2489771D02*
X4832667Y-2497390D01*
X4832667Y-2497390D02*
X4836476Y-2501200D01*
X4836476Y-2501200D02*
X4844095Y-2505010D01*
X4844095Y-2505010D02*
X4851714Y-2505010D01*
X4851714Y-2505010D02*
X4859333Y-2501200D01*
X4859333Y-2501200D02*
X4863143Y-2497390D01*
X4863143Y-2497390D02*
X4866952Y-2489771D01*
X4866952Y-2489771D02*
X4870762Y-2474533D01*
X4870762Y-2474533D02*
X4870762Y-2455486D01*
X4870762Y-2455486D02*
X4866952Y-2440248D01*
X4866952Y-2440248D02*
X4863143Y-2432629D01*
X4863143Y-2432629D02*
X4859333Y-2428819D01*
X4859333Y-2428819D02*
X4851714Y-2425010D01*
D10*
%TO.C,J5*%
X6250907Y-2208472D02*
X6250907Y-2279901D01*
X6250907Y-2279901D02*
X6255669Y-2294186D01*
X6255669Y-2294186D02*
X6265193Y-2303710D01*
X6265193Y-2303710D02*
X6279479Y-2308472D01*
X6279479Y-2308472D02*
X6289002Y-2308472D01*
X6155669Y-2208472D02*
X6203288Y-2208472D01*
X6203288Y-2208472D02*
X6208050Y-2256091D01*
X6208050Y-2256091D02*
X6203288Y-2251329D01*
X6203288Y-2251329D02*
X6193764Y-2246567D01*
X6193764Y-2246567D02*
X6169955Y-2246567D01*
X6169955Y-2246567D02*
X6160431Y-2251329D01*
X6160431Y-2251329D02*
X6155669Y-2256091D01*
X6155669Y-2256091D02*
X6150907Y-2265615D01*
X6150907Y-2265615D02*
X6150907Y-2289425D01*
X6150907Y-2289425D02*
X6155669Y-2298948D01*
X6155669Y-2298948D02*
X6160431Y-2303710D01*
X6160431Y-2303710D02*
X6169955Y-2308472D01*
X6169955Y-2308472D02*
X6193764Y-2308472D01*
X6193764Y-2308472D02*
X6203288Y-2303710D01*
X6203288Y-2303710D02*
X6208050Y-2298948D01*
%TO.C,J7*%
X11462000Y-5311810D02*
X11466762Y-5326095D01*
X11466762Y-5326095D02*
X11466762Y-5349905D01*
X11466762Y-5349905D02*
X11462000Y-5359429D01*
X11462000Y-5359429D02*
X11457238Y-5364190D01*
X11457238Y-5364190D02*
X11447714Y-5368952D01*
X11447714Y-5368952D02*
X11438190Y-5368952D01*
X11438190Y-5368952D02*
X11428667Y-5364190D01*
X11428667Y-5364190D02*
X11423905Y-5359429D01*
X11423905Y-5359429D02*
X11419143Y-5349905D01*
X11419143Y-5349905D02*
X11414381Y-5330857D01*
X11414381Y-5330857D02*
X11409619Y-5321333D01*
X11409619Y-5321333D02*
X11404857Y-5316571D01*
X11404857Y-5316571D02*
X11395333Y-5311810D01*
X11395333Y-5311810D02*
X11385809Y-5311810D01*
X11385809Y-5311810D02*
X11376286Y-5316571D01*
X11376286Y-5316571D02*
X11371524Y-5321333D01*
X11371524Y-5321333D02*
X11366762Y-5330857D01*
X11366762Y-5330857D02*
X11366762Y-5354667D01*
X11366762Y-5354667D02*
X11371524Y-5368952D01*
X11400095Y-5411810D02*
X11500095Y-5411810D01*
X11404857Y-5411810D02*
X11400095Y-5421333D01*
X11400095Y-5421333D02*
X11400095Y-5440381D01*
X11400095Y-5440381D02*
X11404857Y-5449905D01*
X11404857Y-5449905D02*
X11409619Y-5454667D01*
X11409619Y-5454667D02*
X11419143Y-5459429D01*
X11419143Y-5459429D02*
X11447714Y-5459429D01*
X11447714Y-5459429D02*
X11457238Y-5454667D01*
X11457238Y-5454667D02*
X11462000Y-5449905D01*
X11462000Y-5449905D02*
X11466762Y-5440381D01*
X11466762Y-5440381D02*
X11466762Y-5421333D01*
X11466762Y-5421333D02*
X11462000Y-5411810D01*
X11462000Y-5540381D02*
X11466762Y-5530857D01*
X11466762Y-5530857D02*
X11466762Y-5511810D01*
X11466762Y-5511810D02*
X11462000Y-5502286D01*
X11462000Y-5502286D02*
X11452476Y-5497524D01*
X11452476Y-5497524D02*
X11414381Y-5497524D01*
X11414381Y-5497524D02*
X11404857Y-5502286D01*
X11404857Y-5502286D02*
X11400095Y-5511810D01*
X11400095Y-5511810D02*
X11400095Y-5530857D01*
X11400095Y-5530857D02*
X11404857Y-5540381D01*
X11404857Y-5540381D02*
X11414381Y-5545143D01*
X11414381Y-5545143D02*
X11423905Y-5545143D01*
X11423905Y-5545143D02*
X11433428Y-5497524D01*
X11466762Y-5630857D02*
X11414381Y-5630857D01*
X11414381Y-5630857D02*
X11404857Y-5626095D01*
X11404857Y-5626095D02*
X11400095Y-5616571D01*
X11400095Y-5616571D02*
X11400095Y-5597524D01*
X11400095Y-5597524D02*
X11404857Y-5588000D01*
X11462000Y-5630857D02*
X11466762Y-5621333D01*
X11466762Y-5621333D02*
X11466762Y-5597524D01*
X11466762Y-5597524D02*
X11462000Y-5588000D01*
X11462000Y-5588000D02*
X11452476Y-5583238D01*
X11452476Y-5583238D02*
X11442952Y-5583238D01*
X11442952Y-5583238D02*
X11433428Y-5588000D01*
X11433428Y-5588000D02*
X11428667Y-5597524D01*
X11428667Y-5597524D02*
X11428667Y-5621333D01*
X11428667Y-5621333D02*
X11423905Y-5630857D01*
X11466762Y-5678476D02*
X11366762Y-5678476D01*
X11428667Y-5688000D02*
X11466762Y-5716571D01*
X11400095Y-5716571D02*
X11438190Y-5678476D01*
X11462000Y-5797524D02*
X11466762Y-5788000D01*
X11466762Y-5788000D02*
X11466762Y-5768952D01*
X11466762Y-5768952D02*
X11462000Y-5759429D01*
X11462000Y-5759429D02*
X11452476Y-5754667D01*
X11452476Y-5754667D02*
X11414381Y-5754667D01*
X11414381Y-5754667D02*
X11404857Y-5759429D01*
X11404857Y-5759429D02*
X11400095Y-5768952D01*
X11400095Y-5768952D02*
X11400095Y-5788000D01*
X11400095Y-5788000D02*
X11404857Y-5797524D01*
X11404857Y-5797524D02*
X11414381Y-5802286D01*
X11414381Y-5802286D02*
X11423905Y-5802286D01*
X11423905Y-5802286D02*
X11433428Y-5754667D01*
X11466762Y-5845143D02*
X11400095Y-5845143D01*
X11419143Y-5845143D02*
X11409619Y-5849905D01*
X11409619Y-5849905D02*
X11404857Y-5854667D01*
X11404857Y-5854667D02*
X11400095Y-5864190D01*
X11400095Y-5864190D02*
X11400095Y-5873714D01*
X11367262Y-4794667D02*
X11438690Y-4794667D01*
X11438690Y-4794667D02*
X11452976Y-4789905D01*
X11452976Y-4789905D02*
X11462500Y-4780381D01*
X11462500Y-4780381D02*
X11467262Y-4766095D01*
X11467262Y-4766095D02*
X11467262Y-4756571D01*
X11367262Y-4832762D02*
X11367262Y-4899429D01*
X11367262Y-4899429D02*
X11467262Y-4856571D01*
%TO.C,U5*%
X7085282Y-6050708D02*
X7164615Y-6050708D01*
X7164615Y-6050708D02*
X7173949Y-6055375D01*
X7173949Y-6055375D02*
X7178615Y-6060042D01*
X7178615Y-6060042D02*
X7183282Y-6069375D01*
X7183282Y-6069375D02*
X7183282Y-6088042D01*
X7183282Y-6088042D02*
X7178615Y-6097375D01*
X7178615Y-6097375D02*
X7173949Y-6102042D01*
X7173949Y-6102042D02*
X7164615Y-6106708D01*
X7164615Y-6106708D02*
X7085282Y-6106708D01*
X7085282Y-6200042D02*
X7085282Y-6153375D01*
X7085282Y-6153375D02*
X7131949Y-6148708D01*
X7131949Y-6148708D02*
X7127282Y-6153375D01*
X7127282Y-6153375D02*
X7122615Y-6162708D01*
X7122615Y-6162708D02*
X7122615Y-6186042D01*
X7122615Y-6186042D02*
X7127282Y-6195375D01*
X7127282Y-6195375D02*
X7131949Y-6200042D01*
X7131949Y-6200042D02*
X7141282Y-6204708D01*
X7141282Y-6204708D02*
X7164615Y-6204708D01*
X7164615Y-6204708D02*
X7173949Y-6200042D01*
X7173949Y-6200042D02*
X7178615Y-6195375D01*
X7178615Y-6195375D02*
X7183282Y-6186042D01*
X7183282Y-6186042D02*
X7183282Y-6162708D01*
X7183282Y-6162708D02*
X7178615Y-6153375D01*
X7178615Y-6153375D02*
X7173949Y-6148708D01*
%TO.C,R24*%
X7384505Y-5246637D02*
X7322600Y-5246637D01*
X7322600Y-5246637D02*
X7355933Y-5284732D01*
X7355933Y-5284732D02*
X7341648Y-5284732D01*
X7341648Y-5284732D02*
X7332124Y-5289494D01*
X7332124Y-5289494D02*
X7327362Y-5294256D01*
X7327362Y-5294256D02*
X7322600Y-5303780D01*
X7322600Y-5303780D02*
X7322600Y-5327589D01*
X7322600Y-5327589D02*
X7327362Y-5337113D01*
X7327362Y-5337113D02*
X7332124Y-5341875D01*
X7332124Y-5341875D02*
X7341648Y-5346637D01*
X7341648Y-5346637D02*
X7370219Y-5346637D01*
X7370219Y-5346637D02*
X7379743Y-5341875D01*
X7379743Y-5341875D02*
X7384505Y-5337113D01*
X7279743Y-5346637D02*
X7279743Y-5246637D01*
X7270219Y-5308542D02*
X7241648Y-5346637D01*
X7241648Y-5279970D02*
X7279743Y-5318065D01*
%TO.C,C20*%
X8998048Y-6800738D02*
X9002810Y-6805500D01*
X9002810Y-6805500D02*
X9017095Y-6810262D01*
X9017095Y-6810262D02*
X9026619Y-6810262D01*
X9026619Y-6810262D02*
X9040905Y-6805500D01*
X9040905Y-6805500D02*
X9050429Y-6795976D01*
X9050429Y-6795976D02*
X9055190Y-6786452D01*
X9055190Y-6786452D02*
X9059952Y-6767405D01*
X9059952Y-6767405D02*
X9059952Y-6753119D01*
X9059952Y-6753119D02*
X9055190Y-6734071D01*
X9055190Y-6734071D02*
X9050429Y-6724548D01*
X9050429Y-6724548D02*
X9040905Y-6715024D01*
X9040905Y-6715024D02*
X9026619Y-6710262D01*
X9026619Y-6710262D02*
X9017095Y-6710262D01*
X9017095Y-6710262D02*
X9002810Y-6715024D01*
X9002810Y-6715024D02*
X8998048Y-6719786D01*
X8979000Y-6819786D02*
X8902810Y-6819786D01*
X8883762Y-6805500D02*
X8869476Y-6810262D01*
X8869476Y-6810262D02*
X8845667Y-6810262D01*
X8845667Y-6810262D02*
X8836143Y-6805500D01*
X8836143Y-6805500D02*
X8831381Y-6800738D01*
X8831381Y-6800738D02*
X8826619Y-6791214D01*
X8826619Y-6791214D02*
X8826619Y-6781690D01*
X8826619Y-6781690D02*
X8831381Y-6772167D01*
X8831381Y-6772167D02*
X8836143Y-6767405D01*
X8836143Y-6767405D02*
X8845667Y-6762643D01*
X8845667Y-6762643D02*
X8864714Y-6757881D01*
X8864714Y-6757881D02*
X8874238Y-6753119D01*
X8874238Y-6753119D02*
X8879000Y-6748357D01*
X8879000Y-6748357D02*
X8883762Y-6738833D01*
X8883762Y-6738833D02*
X8883762Y-6729309D01*
X8883762Y-6729309D02*
X8879000Y-6719786D01*
X8879000Y-6719786D02*
X8874238Y-6715024D01*
X8874238Y-6715024D02*
X8864714Y-6710262D01*
X8864714Y-6710262D02*
X8840905Y-6710262D01*
X8840905Y-6710262D02*
X8826619Y-6715024D01*
X8783762Y-6810262D02*
X8783762Y-6743595D01*
X8783762Y-6753119D02*
X8779000Y-6748357D01*
X8779000Y-6748357D02*
X8769476Y-6743595D01*
X8769476Y-6743595D02*
X8755190Y-6743595D01*
X8755190Y-6743595D02*
X8745667Y-6748357D01*
X8745667Y-6748357D02*
X8740905Y-6757881D01*
X8740905Y-6757881D02*
X8740905Y-6810262D01*
X8740905Y-6757881D02*
X8736143Y-6748357D01*
X8736143Y-6748357D02*
X8726619Y-6743595D01*
X8726619Y-6743595D02*
X8712333Y-6743595D01*
X8712333Y-6743595D02*
X8702809Y-6748357D01*
X8702809Y-6748357D02*
X8698048Y-6757881D01*
X8698048Y-6757881D02*
X8698048Y-6810262D01*
X8607571Y-6810262D02*
X8607571Y-6757881D01*
X8607571Y-6757881D02*
X8612333Y-6748357D01*
X8612333Y-6748357D02*
X8621857Y-6743595D01*
X8621857Y-6743595D02*
X8640905Y-6743595D01*
X8640905Y-6743595D02*
X8650429Y-6748357D01*
X8607571Y-6805500D02*
X8617095Y-6810262D01*
X8617095Y-6810262D02*
X8640905Y-6810262D01*
X8640905Y-6810262D02*
X8650429Y-6805500D01*
X8650429Y-6805500D02*
X8655190Y-6795976D01*
X8655190Y-6795976D02*
X8655190Y-6786452D01*
X8655190Y-6786452D02*
X8650429Y-6776928D01*
X8650429Y-6776928D02*
X8640905Y-6772167D01*
X8640905Y-6772167D02*
X8617095Y-6772167D01*
X8617095Y-6772167D02*
X8607571Y-6767405D01*
X8545667Y-6810262D02*
X8555190Y-6805500D01*
X8555190Y-6805500D02*
X8559952Y-6795976D01*
X8559952Y-6795976D02*
X8559952Y-6710262D01*
X8493286Y-6810262D02*
X8502809Y-6805500D01*
X8502809Y-6805500D02*
X8507571Y-6795976D01*
X8507571Y-6795976D02*
X8507571Y-6710262D01*
D12*
X8545390Y-5955071D02*
X8549200Y-5951262D01*
X8549200Y-5951262D02*
X8553010Y-5939833D01*
X8553010Y-5939833D02*
X8553010Y-5932214D01*
X8553010Y-5932214D02*
X8549200Y-5920786D01*
X8549200Y-5920786D02*
X8541581Y-5913167D01*
X8541581Y-5913167D02*
X8533962Y-5909357D01*
X8533962Y-5909357D02*
X8518724Y-5905547D01*
X8518724Y-5905547D02*
X8507295Y-5905547D01*
X8507295Y-5905547D02*
X8492057Y-5909357D01*
X8492057Y-5909357D02*
X8484438Y-5913167D01*
X8484438Y-5913167D02*
X8476819Y-5920786D01*
X8476819Y-5920786D02*
X8473010Y-5932214D01*
X8473010Y-5932214D02*
X8473010Y-5939833D01*
X8473010Y-5939833D02*
X8476819Y-5951262D01*
X8476819Y-5951262D02*
X8480629Y-5955071D01*
X8480629Y-5985547D02*
X8476819Y-5989357D01*
X8476819Y-5989357D02*
X8473010Y-5996976D01*
X8473010Y-5996976D02*
X8473010Y-6016024D01*
X8473010Y-6016024D02*
X8476819Y-6023643D01*
X8476819Y-6023643D02*
X8480629Y-6027452D01*
X8480629Y-6027452D02*
X8488248Y-6031262D01*
X8488248Y-6031262D02*
X8495867Y-6031262D01*
X8495867Y-6031262D02*
X8507295Y-6027452D01*
X8507295Y-6027452D02*
X8553010Y-5981738D01*
X8553010Y-5981738D02*
X8553010Y-6031262D01*
X8473010Y-6080786D02*
X8473010Y-6088405D01*
X8473010Y-6088405D02*
X8476819Y-6096024D01*
X8476819Y-6096024D02*
X8480629Y-6099833D01*
X8480629Y-6099833D02*
X8488248Y-6103643D01*
X8488248Y-6103643D02*
X8503486Y-6107452D01*
X8503486Y-6107452D02*
X8522533Y-6107452D01*
X8522533Y-6107452D02*
X8537771Y-6103643D01*
X8537771Y-6103643D02*
X8545390Y-6099833D01*
X8545390Y-6099833D02*
X8549200Y-6096024D01*
X8549200Y-6096024D02*
X8553010Y-6088405D01*
X8553010Y-6088405D02*
X8553010Y-6080786D01*
X8553010Y-6080786D02*
X8549200Y-6073167D01*
X8549200Y-6073167D02*
X8545390Y-6069357D01*
X8545390Y-6069357D02*
X8537771Y-6065548D01*
X8537771Y-6065548D02*
X8522533Y-6061738D01*
X8522533Y-6061738D02*
X8503486Y-6061738D01*
X8503486Y-6061738D02*
X8488248Y-6065548D01*
X8488248Y-6065548D02*
X8480629Y-6069357D01*
X8480629Y-6069357D02*
X8476819Y-6073167D01*
X8476819Y-6073167D02*
X8473010Y-6080786D01*
D10*
%TO.C,C26*%
X3734048Y-4184595D02*
X3734048Y-4251262D01*
X3757857Y-4146500D02*
X3781667Y-4217929D01*
X3781667Y-4217929D02*
X3719762Y-4217929D01*
X3638809Y-4184595D02*
X3638809Y-4251262D01*
X3681667Y-4184595D02*
X3681667Y-4236976D01*
X3681667Y-4236976D02*
X3676905Y-4246500D01*
X3676905Y-4246500D02*
X3667381Y-4251262D01*
X3667381Y-4251262D02*
X3653095Y-4251262D01*
X3653095Y-4251262D02*
X3643571Y-4246500D01*
X3643571Y-4246500D02*
X3638809Y-4241738D01*
X3557857Y-4198881D02*
X3591190Y-4198881D01*
X3591190Y-4251262D02*
X3591190Y-4151262D01*
X3591190Y-4151262D02*
X3543571Y-4151262D01*
D11*
X3703571Y-4432043D02*
X3706429Y-4434900D01*
X3706429Y-4434900D02*
X3715000Y-4437757D01*
X3715000Y-4437757D02*
X3720714Y-4437757D01*
X3720714Y-4437757D02*
X3729286Y-4434900D01*
X3729286Y-4434900D02*
X3735000Y-4429186D01*
X3735000Y-4429186D02*
X3737857Y-4423471D01*
X3737857Y-4423471D02*
X3740714Y-4412043D01*
X3740714Y-4412043D02*
X3740714Y-4403471D01*
X3740714Y-4403471D02*
X3737857Y-4392043D01*
X3737857Y-4392043D02*
X3735000Y-4386329D01*
X3735000Y-4386329D02*
X3729286Y-4380614D01*
X3729286Y-4380614D02*
X3720714Y-4377757D01*
X3720714Y-4377757D02*
X3715000Y-4377757D01*
X3715000Y-4377757D02*
X3706429Y-4380614D01*
X3706429Y-4380614D02*
X3703571Y-4383471D01*
X3680714Y-4383471D02*
X3677857Y-4380614D01*
X3677857Y-4380614D02*
X3672143Y-4377757D01*
X3672143Y-4377757D02*
X3657857Y-4377757D01*
X3657857Y-4377757D02*
X3652143Y-4380614D01*
X3652143Y-4380614D02*
X3649286Y-4383471D01*
X3649286Y-4383471D02*
X3646429Y-4389186D01*
X3646429Y-4389186D02*
X3646429Y-4394900D01*
X3646429Y-4394900D02*
X3649286Y-4403471D01*
X3649286Y-4403471D02*
X3683571Y-4437757D01*
X3683571Y-4437757D02*
X3646429Y-4437757D01*
X3595000Y-4377757D02*
X3606428Y-4377757D01*
X3606428Y-4377757D02*
X3612143Y-4380614D01*
X3612143Y-4380614D02*
X3615000Y-4383471D01*
X3615000Y-4383471D02*
X3620714Y-4392043D01*
X3620714Y-4392043D02*
X3623571Y-4403471D01*
X3623571Y-4403471D02*
X3623571Y-4426329D01*
X3623571Y-4426329D02*
X3620714Y-4432043D01*
X3620714Y-4432043D02*
X3617857Y-4434900D01*
X3617857Y-4434900D02*
X3612143Y-4437757D01*
X3612143Y-4437757D02*
X3600714Y-4437757D01*
X3600714Y-4437757D02*
X3595000Y-4434900D01*
X3595000Y-4434900D02*
X3592143Y-4432043D01*
X3592143Y-4432043D02*
X3589286Y-4426329D01*
X3589286Y-4426329D02*
X3589286Y-4412043D01*
X3589286Y-4412043D02*
X3592143Y-4406329D01*
X3592143Y-4406329D02*
X3595000Y-4403471D01*
X3595000Y-4403471D02*
X3600714Y-4400614D01*
X3600714Y-4400614D02*
X3612143Y-4400614D01*
X3612143Y-4400614D02*
X3617857Y-4403471D01*
X3617857Y-4403471D02*
X3620714Y-4406329D01*
X3620714Y-4406329D02*
X3623571Y-4412043D01*
D10*
%TO.C,C19*%
X8999048Y-6656238D02*
X9003810Y-6661000D01*
X9003810Y-6661000D02*
X9018095Y-6665762D01*
X9018095Y-6665762D02*
X9027619Y-6665762D01*
X9027619Y-6665762D02*
X9041905Y-6661000D01*
X9041905Y-6661000D02*
X9051429Y-6651476D01*
X9051429Y-6651476D02*
X9056190Y-6641952D01*
X9056190Y-6641952D02*
X9060952Y-6622905D01*
X9060952Y-6622905D02*
X9060952Y-6608619D01*
X9060952Y-6608619D02*
X9056190Y-6589571D01*
X9056190Y-6589571D02*
X9051429Y-6580048D01*
X9051429Y-6580048D02*
X9041905Y-6570524D01*
X9041905Y-6570524D02*
X9027619Y-6565762D01*
X9027619Y-6565762D02*
X9018095Y-6565762D01*
X9018095Y-6565762D02*
X9003810Y-6570524D01*
X9003810Y-6570524D02*
X8999048Y-6575286D01*
X8980000Y-6675286D02*
X8903810Y-6675286D01*
X8884762Y-6661000D02*
X8870476Y-6665762D01*
X8870476Y-6665762D02*
X8846667Y-6665762D01*
X8846667Y-6665762D02*
X8837143Y-6661000D01*
X8837143Y-6661000D02*
X8832381Y-6656238D01*
X8832381Y-6656238D02*
X8827619Y-6646714D01*
X8827619Y-6646714D02*
X8827619Y-6637190D01*
X8827619Y-6637190D02*
X8832381Y-6627667D01*
X8832381Y-6627667D02*
X8837143Y-6622905D01*
X8837143Y-6622905D02*
X8846667Y-6618143D01*
X8846667Y-6618143D02*
X8865714Y-6613381D01*
X8865714Y-6613381D02*
X8875238Y-6608619D01*
X8875238Y-6608619D02*
X8880000Y-6603857D01*
X8880000Y-6603857D02*
X8884762Y-6594333D01*
X8884762Y-6594333D02*
X8884762Y-6584809D01*
X8884762Y-6584809D02*
X8880000Y-6575286D01*
X8880000Y-6575286D02*
X8875238Y-6570524D01*
X8875238Y-6570524D02*
X8865714Y-6565762D01*
X8865714Y-6565762D02*
X8841905Y-6565762D01*
X8841905Y-6565762D02*
X8827619Y-6570524D01*
X8784762Y-6665762D02*
X8784762Y-6599095D01*
X8784762Y-6608619D02*
X8780000Y-6603857D01*
X8780000Y-6603857D02*
X8770476Y-6599095D01*
X8770476Y-6599095D02*
X8756190Y-6599095D01*
X8756190Y-6599095D02*
X8746667Y-6603857D01*
X8746667Y-6603857D02*
X8741905Y-6613381D01*
X8741905Y-6613381D02*
X8741905Y-6665762D01*
X8741905Y-6613381D02*
X8737143Y-6603857D01*
X8737143Y-6603857D02*
X8727619Y-6599095D01*
X8727619Y-6599095D02*
X8713333Y-6599095D01*
X8713333Y-6599095D02*
X8703809Y-6603857D01*
X8703809Y-6603857D02*
X8699048Y-6613381D01*
X8699048Y-6613381D02*
X8699048Y-6665762D01*
X8608571Y-6665762D02*
X8608571Y-6613381D01*
X8608571Y-6613381D02*
X8613333Y-6603857D01*
X8613333Y-6603857D02*
X8622857Y-6599095D01*
X8622857Y-6599095D02*
X8641905Y-6599095D01*
X8641905Y-6599095D02*
X8651429Y-6603857D01*
X8608571Y-6661000D02*
X8618095Y-6665762D01*
X8618095Y-6665762D02*
X8641905Y-6665762D01*
X8641905Y-6665762D02*
X8651429Y-6661000D01*
X8651429Y-6661000D02*
X8656190Y-6651476D01*
X8656190Y-6651476D02*
X8656190Y-6641952D01*
X8656190Y-6641952D02*
X8651429Y-6632428D01*
X8651429Y-6632428D02*
X8641905Y-6627667D01*
X8641905Y-6627667D02*
X8618095Y-6627667D01*
X8618095Y-6627667D02*
X8608571Y-6622905D01*
X8546667Y-6665762D02*
X8556190Y-6661000D01*
X8556190Y-6661000D02*
X8560952Y-6651476D01*
X8560952Y-6651476D02*
X8560952Y-6565762D01*
X8494286Y-6665762D02*
X8503809Y-6661000D01*
X8503809Y-6661000D02*
X8508571Y-6651476D01*
X8508571Y-6651476D02*
X8508571Y-6565762D01*
D12*
X7577390Y-5973321D02*
X7581200Y-5969512D01*
X7581200Y-5969512D02*
X7585009Y-5958083D01*
X7585009Y-5958083D02*
X7585009Y-5950464D01*
X7585009Y-5950464D02*
X7581200Y-5939036D01*
X7581200Y-5939036D02*
X7573581Y-5931417D01*
X7573581Y-5931417D02*
X7565962Y-5927607D01*
X7565962Y-5927607D02*
X7550724Y-5923797D01*
X7550724Y-5923797D02*
X7539295Y-5923797D01*
X7539295Y-5923797D02*
X7524057Y-5927607D01*
X7524057Y-5927607D02*
X7516438Y-5931417D01*
X7516438Y-5931417D02*
X7508819Y-5939036D01*
X7508819Y-5939036D02*
X7505009Y-5950464D01*
X7505009Y-5950464D02*
X7505009Y-5958083D01*
X7505009Y-5958083D02*
X7508819Y-5969512D01*
X7508819Y-5969512D02*
X7512628Y-5973321D01*
X7585009Y-6049512D02*
X7585009Y-6003797D01*
X7585009Y-6026655D02*
X7505009Y-6026655D01*
X7505009Y-6026655D02*
X7516438Y-6019036D01*
X7516438Y-6019036D02*
X7524057Y-6011417D01*
X7524057Y-6011417D02*
X7527867Y-6003797D01*
X7585009Y-6087607D02*
X7585009Y-6102845D01*
X7585009Y-6102845D02*
X7581200Y-6110464D01*
X7581200Y-6110464D02*
X7577390Y-6114274D01*
X7577390Y-6114274D02*
X7565962Y-6121893D01*
X7565962Y-6121893D02*
X7550724Y-6125702D01*
X7550724Y-6125702D02*
X7520248Y-6125702D01*
X7520248Y-6125702D02*
X7512628Y-6121893D01*
X7512628Y-6121893D02*
X7508819Y-6118083D01*
X7508819Y-6118083D02*
X7505009Y-6110464D01*
X7505009Y-6110464D02*
X7505009Y-6095226D01*
X7505009Y-6095226D02*
X7508819Y-6087607D01*
X7508819Y-6087607D02*
X7512628Y-6083798D01*
X7512628Y-6083798D02*
X7520248Y-6079988D01*
X7520248Y-6079988D02*
X7539295Y-6079988D01*
X7539295Y-6079988D02*
X7546914Y-6083798D01*
X7546914Y-6083798D02*
X7550724Y-6087607D01*
X7550724Y-6087607D02*
X7554533Y-6095226D01*
X7554533Y-6095226D02*
X7554533Y-6110464D01*
X7554533Y-6110464D02*
X7550724Y-6118083D01*
X7550724Y-6118083D02*
X7546914Y-6121893D01*
X7546914Y-6121893D02*
X7539295Y-6125702D01*
D10*
%TO.C,C6*%
X10852796Y-3310262D02*
X10843272Y-3310262D01*
X10843272Y-3310262D02*
X10833748Y-3315024D01*
X10833748Y-3315024D02*
X10828986Y-3319786D01*
X10828986Y-3319786D02*
X10824224Y-3329309D01*
X10824224Y-3329309D02*
X10819462Y-3348357D01*
X10819462Y-3348357D02*
X10819462Y-3372167D01*
X10819462Y-3372167D02*
X10824224Y-3391214D01*
X10824224Y-3391214D02*
X10828986Y-3400738D01*
X10828986Y-3400738D02*
X10833748Y-3405500D01*
X10833748Y-3405500D02*
X10843272Y-3410262D01*
X10843272Y-3410262D02*
X10852796Y-3410262D01*
X10852796Y-3410262D02*
X10862319Y-3405500D01*
X10862319Y-3405500D02*
X10867081Y-3400738D01*
X10867081Y-3400738D02*
X10871843Y-3391214D01*
X10871843Y-3391214D02*
X10876605Y-3372167D01*
X10876605Y-3372167D02*
X10876605Y-3348357D01*
X10876605Y-3348357D02*
X10871843Y-3329309D01*
X10871843Y-3329309D02*
X10867081Y-3319786D01*
X10867081Y-3319786D02*
X10862319Y-3315024D01*
X10862319Y-3315024D02*
X10852796Y-3310262D01*
X10776605Y-3400738D02*
X10771843Y-3405500D01*
X10771843Y-3405500D02*
X10776605Y-3410262D01*
X10776605Y-3410262D02*
X10781367Y-3405500D01*
X10781367Y-3405500D02*
X10776605Y-3400738D01*
X10776605Y-3400738D02*
X10776605Y-3410262D01*
X10733748Y-3319786D02*
X10728986Y-3315024D01*
X10728986Y-3315024D02*
X10719462Y-3310262D01*
X10719462Y-3310262D02*
X10695653Y-3310262D01*
X10695653Y-3310262D02*
X10686129Y-3315024D01*
X10686129Y-3315024D02*
X10681367Y-3319786D01*
X10681367Y-3319786D02*
X10676605Y-3329309D01*
X10676605Y-3329309D02*
X10676605Y-3338833D01*
X10676605Y-3338833D02*
X10681367Y-3353119D01*
X10681367Y-3353119D02*
X10738510Y-3410262D01*
X10738510Y-3410262D02*
X10676605Y-3410262D01*
X10590891Y-3343595D02*
X10590891Y-3410262D01*
X10633748Y-3343595D02*
X10633748Y-3395976D01*
X10633748Y-3395976D02*
X10628986Y-3405500D01*
X10628986Y-3405500D02*
X10619462Y-3410262D01*
X10619462Y-3410262D02*
X10605177Y-3410262D01*
X10605177Y-3410262D02*
X10595653Y-3405500D01*
X10595653Y-3405500D02*
X10590891Y-3400738D01*
X10509938Y-3357881D02*
X10543272Y-3357881D01*
X10543272Y-3410262D02*
X10543272Y-3310262D01*
X10543272Y-3310262D02*
X10495653Y-3310262D01*
D12*
X11020093Y-3804390D02*
X11023903Y-3808200D01*
X11023903Y-3808200D02*
X11035331Y-3812009D01*
X11035331Y-3812009D02*
X11042950Y-3812009D01*
X11042950Y-3812009D02*
X11054379Y-3808200D01*
X11054379Y-3808200D02*
X11061998Y-3800581D01*
X11061998Y-3800581D02*
X11065807Y-3792962D01*
X11065807Y-3792962D02*
X11069617Y-3777724D01*
X11069617Y-3777724D02*
X11069617Y-3766295D01*
X11069617Y-3766295D02*
X11065807Y-3751057D01*
X11065807Y-3751057D02*
X11061998Y-3743438D01*
X11061998Y-3743438D02*
X11054379Y-3735819D01*
X11054379Y-3735819D02*
X11042950Y-3732009D01*
X11042950Y-3732009D02*
X11035331Y-3732009D01*
X11035331Y-3732009D02*
X11023903Y-3735819D01*
X11023903Y-3735819D02*
X11020093Y-3739628D01*
X10951522Y-3732009D02*
X10966760Y-3732009D01*
X10966760Y-3732009D02*
X10974379Y-3735819D01*
X10974379Y-3735819D02*
X10978188Y-3739628D01*
X10978188Y-3739628D02*
X10985807Y-3751057D01*
X10985807Y-3751057D02*
X10989617Y-3766295D01*
X10989617Y-3766295D02*
X10989617Y-3796771D01*
X10989617Y-3796771D02*
X10985807Y-3804390D01*
X10985807Y-3804390D02*
X10981998Y-3808200D01*
X10981998Y-3808200D02*
X10974379Y-3812009D01*
X10974379Y-3812009D02*
X10959141Y-3812009D01*
X10959141Y-3812009D02*
X10951522Y-3808200D01*
X10951522Y-3808200D02*
X10947712Y-3804390D01*
X10947712Y-3804390D02*
X10943903Y-3796771D01*
X10943903Y-3796771D02*
X10943903Y-3777724D01*
X10943903Y-3777724D02*
X10947712Y-3770105D01*
X10947712Y-3770105D02*
X10951522Y-3766295D01*
X10951522Y-3766295D02*
X10959141Y-3762486D01*
X10959141Y-3762486D02*
X10974379Y-3762486D01*
X10974379Y-3762486D02*
X10981998Y-3766295D01*
X10981998Y-3766295D02*
X10985807Y-3770105D01*
X10985807Y-3770105D02*
X10989617Y-3777724D01*
%TO.C,C10*%
X5108390Y-3501571D02*
X5112200Y-3497762D01*
X5112200Y-3497762D02*
X5116010Y-3486333D01*
X5116010Y-3486333D02*
X5116010Y-3478714D01*
X5116010Y-3478714D02*
X5112200Y-3467286D01*
X5112200Y-3467286D02*
X5104581Y-3459667D01*
X5104581Y-3459667D02*
X5096962Y-3455857D01*
X5096962Y-3455857D02*
X5081724Y-3452047D01*
X5081724Y-3452047D02*
X5070295Y-3452047D01*
X5070295Y-3452047D02*
X5055057Y-3455857D01*
X5055057Y-3455857D02*
X5047438Y-3459667D01*
X5047438Y-3459667D02*
X5039819Y-3467286D01*
X5039819Y-3467286D02*
X5036010Y-3478714D01*
X5036010Y-3478714D02*
X5036010Y-3486333D01*
X5036010Y-3486333D02*
X5039819Y-3497762D01*
X5039819Y-3497762D02*
X5043629Y-3501571D01*
X5116010Y-3577762D02*
X5116010Y-3532047D01*
X5116010Y-3554905D02*
X5036010Y-3554905D01*
X5036010Y-3554905D02*
X5047438Y-3547286D01*
X5047438Y-3547286D02*
X5055057Y-3539667D01*
X5055057Y-3539667D02*
X5058867Y-3532047D01*
X5036010Y-3627286D02*
X5036010Y-3634905D01*
X5036010Y-3634905D02*
X5039819Y-3642524D01*
X5039819Y-3642524D02*
X5043629Y-3646333D01*
X5043629Y-3646333D02*
X5051248Y-3650143D01*
X5051248Y-3650143D02*
X5066486Y-3653952D01*
X5066486Y-3653952D02*
X5085533Y-3653952D01*
X5085533Y-3653952D02*
X5100771Y-3650143D01*
X5100771Y-3650143D02*
X5108390Y-3646333D01*
X5108390Y-3646333D02*
X5112200Y-3642524D01*
X5112200Y-3642524D02*
X5116010Y-3634905D01*
X5116010Y-3634905D02*
X5116010Y-3627286D01*
X5116010Y-3627286D02*
X5112200Y-3619667D01*
X5112200Y-3619667D02*
X5108390Y-3615857D01*
X5108390Y-3615857D02*
X5100771Y-3612048D01*
X5100771Y-3612048D02*
X5085533Y-3608238D01*
X5085533Y-3608238D02*
X5066486Y-3608238D01*
X5066486Y-3608238D02*
X5051248Y-3612048D01*
X5051248Y-3612048D02*
X5043629Y-3615857D01*
X5043629Y-3615857D02*
X5039819Y-3619667D01*
X5039819Y-3619667D02*
X5036010Y-3627286D01*
D10*
%TO.C,R25*%
X7849243Y-5256786D02*
X7844481Y-5252024D01*
X7844481Y-5252024D02*
X7834957Y-5247262D01*
X7834957Y-5247262D02*
X7811148Y-5247262D01*
X7811148Y-5247262D02*
X7801624Y-5252024D01*
X7801624Y-5252024D02*
X7796862Y-5256786D01*
X7796862Y-5256786D02*
X7792100Y-5266310D01*
X7792100Y-5266310D02*
X7792100Y-5275833D01*
X7792100Y-5275833D02*
X7796862Y-5290119D01*
X7796862Y-5290119D02*
X7854005Y-5347262D01*
X7854005Y-5347262D02*
X7792100Y-5347262D01*
X7749243Y-5347262D02*
X7749243Y-5247262D01*
X7739719Y-5309167D02*
X7711148Y-5347262D01*
X7711148Y-5280595D02*
X7749243Y-5318690D01*
%TO.C,D9*%
X5674095Y-2472881D02*
X5659809Y-2477643D01*
X5659809Y-2477643D02*
X5655048Y-2482405D01*
X5655048Y-2482405D02*
X5650286Y-2491929D01*
X5650286Y-2491929D02*
X5650286Y-2506214D01*
X5650286Y-2506214D02*
X5655048Y-2515738D01*
X5655048Y-2515738D02*
X5659809Y-2520500D01*
X5659809Y-2520500D02*
X5669333Y-2525262D01*
X5669333Y-2525262D02*
X5707428Y-2525262D01*
X5707428Y-2525262D02*
X5707428Y-2425262D01*
X5707428Y-2425262D02*
X5674095Y-2425262D01*
X5674095Y-2425262D02*
X5664571Y-2430024D01*
X5664571Y-2430024D02*
X5659809Y-2434786D01*
X5659809Y-2434786D02*
X5655048Y-2444310D01*
X5655048Y-2444310D02*
X5655048Y-2453833D01*
X5655048Y-2453833D02*
X5659809Y-2463357D01*
X5659809Y-2463357D02*
X5664571Y-2468119D01*
X5664571Y-2468119D02*
X5674095Y-2472881D01*
X5674095Y-2472881D02*
X5707428Y-2472881D01*
X5612190Y-2496690D02*
X5564571Y-2496690D01*
X5621714Y-2525262D02*
X5588381Y-2425262D01*
X5588381Y-2425262D02*
X5555048Y-2525262D01*
X5531238Y-2425262D02*
X5507429Y-2525262D01*
X5507429Y-2525262D02*
X5488381Y-2453833D01*
X5488381Y-2453833D02*
X5469333Y-2525262D01*
X5469333Y-2525262D02*
X5445524Y-2425262D01*
X5416952Y-2425262D02*
X5350286Y-2425262D01*
X5350286Y-2425262D02*
X5393143Y-2525262D01*
X5264571Y-2425262D02*
X5312190Y-2425262D01*
X5312190Y-2425262D02*
X5316952Y-2472881D01*
X5316952Y-2472881D02*
X5312190Y-2468119D01*
X5312190Y-2468119D02*
X5302667Y-2463357D01*
X5302667Y-2463357D02*
X5278857Y-2463357D01*
X5278857Y-2463357D02*
X5269333Y-2468119D01*
X5269333Y-2468119D02*
X5264571Y-2472881D01*
X5264571Y-2472881D02*
X5259810Y-2482405D01*
X5259810Y-2482405D02*
X5259810Y-2506214D01*
X5259810Y-2506214D02*
X5264571Y-2515738D01*
X5264571Y-2515738D02*
X5269333Y-2520500D01*
X5269333Y-2520500D02*
X5278857Y-2525262D01*
X5278857Y-2525262D02*
X5302667Y-2525262D01*
X5302667Y-2525262D02*
X5312190Y-2520500D01*
X5312190Y-2520500D02*
X5316952Y-2515738D01*
D12*
X5528048Y-2507010D02*
X5528048Y-2427010D01*
X5528048Y-2427010D02*
X5509000Y-2427010D01*
X5509000Y-2427010D02*
X5497571Y-2430819D01*
X5497571Y-2430819D02*
X5489952Y-2438438D01*
X5489952Y-2438438D02*
X5486143Y-2446057D01*
X5486143Y-2446057D02*
X5482333Y-2461295D01*
X5482333Y-2461295D02*
X5482333Y-2472724D01*
X5482333Y-2472724D02*
X5486143Y-2487962D01*
X5486143Y-2487962D02*
X5489952Y-2495581D01*
X5489952Y-2495581D02*
X5497571Y-2503200D01*
X5497571Y-2503200D02*
X5509000Y-2507010D01*
X5509000Y-2507010D02*
X5528048Y-2507010D01*
X5444238Y-2507010D02*
X5429000Y-2507010D01*
X5429000Y-2507010D02*
X5421381Y-2503200D01*
X5421381Y-2503200D02*
X5417571Y-2499390D01*
X5417571Y-2499390D02*
X5409952Y-2487962D01*
X5409952Y-2487962D02*
X5406143Y-2472724D01*
X5406143Y-2472724D02*
X5406143Y-2442248D01*
X5406143Y-2442248D02*
X5409952Y-2434629D01*
X5409952Y-2434629D02*
X5413762Y-2430819D01*
X5413762Y-2430819D02*
X5421381Y-2427010D01*
X5421381Y-2427010D02*
X5436619Y-2427010D01*
X5436619Y-2427010D02*
X5444238Y-2430819D01*
X5444238Y-2430819D02*
X5448048Y-2434629D01*
X5448048Y-2434629D02*
X5451857Y-2442248D01*
X5451857Y-2442248D02*
X5451857Y-2461295D01*
X5451857Y-2461295D02*
X5448048Y-2468914D01*
X5448048Y-2468914D02*
X5444238Y-2472724D01*
X5444238Y-2472724D02*
X5436619Y-2476533D01*
X5436619Y-2476533D02*
X5421381Y-2476533D01*
X5421381Y-2476533D02*
X5413762Y-2472724D01*
X5413762Y-2472724D02*
X5409952Y-2468914D01*
X5409952Y-2468914D02*
X5406143Y-2461295D01*
D10*
%TO.C,U6*%
X8053962Y-6052333D02*
X8133295Y-6052333D01*
X8133295Y-6052333D02*
X8142628Y-6057000D01*
X8142628Y-6057000D02*
X8147295Y-6061667D01*
X8147295Y-6061667D02*
X8151962Y-6071000D01*
X8151962Y-6071000D02*
X8151962Y-6089667D01*
X8151962Y-6089667D02*
X8147295Y-6099000D01*
X8147295Y-6099000D02*
X8142628Y-6103667D01*
X8142628Y-6103667D02*
X8133295Y-6108333D01*
X8133295Y-6108333D02*
X8053962Y-6108333D01*
X8053962Y-6197000D02*
X8053962Y-6178333D01*
X8053962Y-6178333D02*
X8058628Y-6169000D01*
X8058628Y-6169000D02*
X8063295Y-6164333D01*
X8063295Y-6164333D02*
X8077295Y-6155000D01*
X8077295Y-6155000D02*
X8095962Y-6150333D01*
X8095962Y-6150333D02*
X8133295Y-6150333D01*
X8133295Y-6150333D02*
X8142628Y-6155000D01*
X8142628Y-6155000D02*
X8147295Y-6159667D01*
X8147295Y-6159667D02*
X8151962Y-6169000D01*
X8151962Y-6169000D02*
X8151962Y-6187667D01*
X8151962Y-6187667D02*
X8147295Y-6197000D01*
X8147295Y-6197000D02*
X8142628Y-6201667D01*
X8142628Y-6201667D02*
X8133295Y-6206333D01*
X8133295Y-6206333D02*
X8109962Y-6206333D01*
X8109962Y-6206333D02*
X8100628Y-6201667D01*
X8100628Y-6201667D02*
X8095962Y-6197000D01*
X8095962Y-6197000D02*
X8091295Y-6187667D01*
X8091295Y-6187667D02*
X8091295Y-6169000D01*
X8091295Y-6169000D02*
X8095962Y-6159667D01*
X8095962Y-6159667D02*
X8100628Y-6155000D01*
X8100628Y-6155000D02*
X8109962Y-6150333D01*
%TO.C,D8*%
X5105095Y-2687881D02*
X5090810Y-2692643D01*
X5090810Y-2692643D02*
X5086048Y-2697405D01*
X5086048Y-2697405D02*
X5081286Y-2706929D01*
X5081286Y-2706929D02*
X5081286Y-2721214D01*
X5081286Y-2721214D02*
X5086048Y-2730738D01*
X5086048Y-2730738D02*
X5090810Y-2735500D01*
X5090810Y-2735500D02*
X5100333Y-2740262D01*
X5100333Y-2740262D02*
X5138429Y-2740262D01*
X5138429Y-2740262D02*
X5138429Y-2640262D01*
X5138429Y-2640262D02*
X5105095Y-2640262D01*
X5105095Y-2640262D02*
X5095571Y-2645024D01*
X5095571Y-2645024D02*
X5090810Y-2649786D01*
X5090810Y-2649786D02*
X5086048Y-2659310D01*
X5086048Y-2659310D02*
X5086048Y-2668833D01*
X5086048Y-2668833D02*
X5090810Y-2678357D01*
X5090810Y-2678357D02*
X5095571Y-2683119D01*
X5095571Y-2683119D02*
X5105095Y-2687881D01*
X5105095Y-2687881D02*
X5138429Y-2687881D01*
X5043190Y-2711690D02*
X4995571Y-2711690D01*
X5052714Y-2740262D02*
X5019381Y-2640262D01*
X5019381Y-2640262D02*
X4986048Y-2740262D01*
X4962238Y-2640262D02*
X4938429Y-2740262D01*
X4938429Y-2740262D02*
X4919381Y-2668833D01*
X4919381Y-2668833D02*
X4900333Y-2740262D01*
X4900333Y-2740262D02*
X4876524Y-2640262D01*
X4847952Y-2640262D02*
X4781286Y-2640262D01*
X4781286Y-2640262D02*
X4824143Y-2740262D01*
X4695571Y-2640262D02*
X4743190Y-2640262D01*
X4743190Y-2640262D02*
X4747952Y-2687881D01*
X4747952Y-2687881D02*
X4743190Y-2683119D01*
X4743190Y-2683119D02*
X4733667Y-2678357D01*
X4733667Y-2678357D02*
X4709857Y-2678357D01*
X4709857Y-2678357D02*
X4700333Y-2683119D01*
X4700333Y-2683119D02*
X4695571Y-2687881D01*
X4695571Y-2687881D02*
X4690810Y-2697405D01*
X4690810Y-2697405D02*
X4690810Y-2721214D01*
X4690810Y-2721214D02*
X4695571Y-2730738D01*
X4695571Y-2730738D02*
X4700333Y-2735500D01*
X4700333Y-2735500D02*
X4709857Y-2740262D01*
X4709857Y-2740262D02*
X4733667Y-2740262D01*
X4733667Y-2740262D02*
X4743190Y-2735500D01*
X4743190Y-2735500D02*
X4747952Y-2730738D01*
D12*
X4983048Y-2734010D02*
X4983048Y-2654010D01*
X4983048Y-2654010D02*
X4964000Y-2654010D01*
X4964000Y-2654010D02*
X4952571Y-2657819D01*
X4952571Y-2657819D02*
X4944952Y-2665438D01*
X4944952Y-2665438D02*
X4941143Y-2673057D01*
X4941143Y-2673057D02*
X4937333Y-2688295D01*
X4937333Y-2688295D02*
X4937333Y-2699724D01*
X4937333Y-2699724D02*
X4941143Y-2714962D01*
X4941143Y-2714962D02*
X4944952Y-2722581D01*
X4944952Y-2722581D02*
X4952571Y-2730200D01*
X4952571Y-2730200D02*
X4964000Y-2734010D01*
X4964000Y-2734010D02*
X4983048Y-2734010D01*
X4891619Y-2688295D02*
X4899238Y-2684486D01*
X4899238Y-2684486D02*
X4903048Y-2680676D01*
X4903048Y-2680676D02*
X4906857Y-2673057D01*
X4906857Y-2673057D02*
X4906857Y-2669248D01*
X4906857Y-2669248D02*
X4903048Y-2661629D01*
X4903048Y-2661629D02*
X4899238Y-2657819D01*
X4899238Y-2657819D02*
X4891619Y-2654010D01*
X4891619Y-2654010D02*
X4876381Y-2654010D01*
X4876381Y-2654010D02*
X4868762Y-2657819D01*
X4868762Y-2657819D02*
X4864952Y-2661629D01*
X4864952Y-2661629D02*
X4861143Y-2669248D01*
X4861143Y-2669248D02*
X4861143Y-2673057D01*
X4861143Y-2673057D02*
X4864952Y-2680676D01*
X4864952Y-2680676D02*
X4868762Y-2684486D01*
X4868762Y-2684486D02*
X4876381Y-2688295D01*
X4876381Y-2688295D02*
X4891619Y-2688295D01*
X4891619Y-2688295D02*
X4899238Y-2692105D01*
X4899238Y-2692105D02*
X4903048Y-2695914D01*
X4903048Y-2695914D02*
X4906857Y-2703533D01*
X4906857Y-2703533D02*
X4906857Y-2718771D01*
X4906857Y-2718771D02*
X4903048Y-2726390D01*
X4903048Y-2726390D02*
X4899238Y-2730200D01*
X4899238Y-2730200D02*
X4891619Y-2734010D01*
X4891619Y-2734010D02*
X4876381Y-2734010D01*
X4876381Y-2734010D02*
X4868762Y-2730200D01*
X4868762Y-2730200D02*
X4864952Y-2726390D01*
X4864952Y-2726390D02*
X4861143Y-2718771D01*
X4861143Y-2718771D02*
X4861143Y-2703533D01*
X4861143Y-2703533D02*
X4864952Y-2695914D01*
X4864952Y-2695914D02*
X4868762Y-2692105D01*
X4868762Y-2692105D02*
X4876381Y-2688295D01*
D10*
%TO.C,L2*%
X5213093Y-1979052D02*
X5260712Y-1979052D01*
X5260712Y-1979052D02*
X5260712Y-1879052D01*
X5184521Y-1888575D02*
X5179759Y-1883813D01*
X5179759Y-1883813D02*
X5170236Y-1879052D01*
X5170236Y-1879052D02*
X5146426Y-1879052D01*
X5146426Y-1879052D02*
X5136902Y-1883813D01*
X5136902Y-1883813D02*
X5132140Y-1888575D01*
X5132140Y-1888575D02*
X5127378Y-1898099D01*
X5127378Y-1898099D02*
X5127378Y-1907623D01*
X5127378Y-1907623D02*
X5132140Y-1921909D01*
X5132140Y-1921909D02*
X5189283Y-1979052D01*
X5189283Y-1979052D02*
X5127378Y-1979052D01*
%TO.C,U7*%
X5698009Y-3991645D02*
X5762771Y-3991645D01*
X5762771Y-3991645D02*
X5770390Y-3995454D01*
X5770390Y-3995454D02*
X5774200Y-3999264D01*
X5774200Y-3999264D02*
X5778009Y-4006883D01*
X5778009Y-4006883D02*
X5778009Y-4022121D01*
X5778009Y-4022121D02*
X5774200Y-4029740D01*
X5774200Y-4029740D02*
X5770390Y-4033549D01*
X5770390Y-4033549D02*
X5762771Y-4037359D01*
X5762771Y-4037359D02*
X5698009Y-4037359D01*
X5698009Y-4067835D02*
X5698009Y-4121168D01*
X5698009Y-4121168D02*
X5778009Y-4086883D01*
%TO.C,C5*%
X9638317Y-4477775D02*
X9633555Y-4473013D01*
X9633555Y-4473013D02*
X9624031Y-4468251D01*
X9624031Y-4468251D02*
X9600222Y-4468251D01*
X9600222Y-4468251D02*
X9590698Y-4473013D01*
X9590698Y-4473013D02*
X9585936Y-4477775D01*
X9585936Y-4477775D02*
X9581174Y-4487298D01*
X9581174Y-4487298D02*
X9581174Y-4496822D01*
X9581174Y-4496822D02*
X9585936Y-4511108D01*
X9585936Y-4511108D02*
X9643079Y-4568251D01*
X9643079Y-4568251D02*
X9581174Y-4568251D01*
X9519269Y-4468251D02*
X9509745Y-4468251D01*
X9509745Y-4468251D02*
X9500222Y-4473013D01*
X9500222Y-4473013D02*
X9495460Y-4477775D01*
X9495460Y-4477775D02*
X9490698Y-4487298D01*
X9490698Y-4487298D02*
X9485936Y-4506346D01*
X9485936Y-4506346D02*
X9485936Y-4530155D01*
X9485936Y-4530155D02*
X9490698Y-4549203D01*
X9490698Y-4549203D02*
X9495460Y-4558727D01*
X9495460Y-4558727D02*
X9500222Y-4563489D01*
X9500222Y-4563489D02*
X9509745Y-4568251D01*
X9509745Y-4568251D02*
X9519269Y-4568251D01*
X9519269Y-4568251D02*
X9528793Y-4563489D01*
X9528793Y-4563489D02*
X9533555Y-4558727D01*
X9533555Y-4558727D02*
X9538317Y-4549203D01*
X9538317Y-4549203D02*
X9543079Y-4530155D01*
X9543079Y-4530155D02*
X9543079Y-4506346D01*
X9543079Y-4506346D02*
X9538317Y-4487298D01*
X9538317Y-4487298D02*
X9533555Y-4477775D01*
X9533555Y-4477775D02*
X9528793Y-4473013D01*
X9528793Y-4473013D02*
X9519269Y-4468251D01*
X9400222Y-4501584D02*
X9400222Y-4568251D01*
X9443079Y-4501584D02*
X9443079Y-4553965D01*
X9443079Y-4553965D02*
X9438317Y-4563489D01*
X9438317Y-4563489D02*
X9428793Y-4568251D01*
X9428793Y-4568251D02*
X9414507Y-4568251D01*
X9414507Y-4568251D02*
X9404984Y-4563489D01*
X9404984Y-4563489D02*
X9400222Y-4558727D01*
X9319269Y-4515870D02*
X9352603Y-4515870D01*
X9352603Y-4568251D02*
X9352603Y-4468251D01*
X9352603Y-4468251D02*
X9304984Y-4468251D01*
X9454187Y-3177727D02*
X9458949Y-3182489D01*
X9458949Y-3182489D02*
X9473234Y-3187251D01*
X9473234Y-3187251D02*
X9482758Y-3187251D01*
X9482758Y-3187251D02*
X9497044Y-3182489D01*
X9497044Y-3182489D02*
X9506568Y-3172965D01*
X9506568Y-3172965D02*
X9511329Y-3163441D01*
X9511329Y-3163441D02*
X9516091Y-3144393D01*
X9516091Y-3144393D02*
X9516091Y-3130108D01*
X9516091Y-3130108D02*
X9511329Y-3111060D01*
X9511329Y-3111060D02*
X9506568Y-3101536D01*
X9506568Y-3101536D02*
X9497044Y-3092013D01*
X9497044Y-3092013D02*
X9482758Y-3087251D01*
X9482758Y-3087251D02*
X9473234Y-3087251D01*
X9473234Y-3087251D02*
X9458949Y-3092013D01*
X9458949Y-3092013D02*
X9454187Y-3096774D01*
X9363710Y-3087251D02*
X9411329Y-3087251D01*
X9411329Y-3087251D02*
X9416091Y-3134870D01*
X9416091Y-3134870D02*
X9411329Y-3130108D01*
X9411329Y-3130108D02*
X9401806Y-3125346D01*
X9401806Y-3125346D02*
X9377996Y-3125346D01*
X9377996Y-3125346D02*
X9368472Y-3130108D01*
X9368472Y-3130108D02*
X9363710Y-3134870D01*
X9363710Y-3134870D02*
X9358949Y-3144393D01*
X9358949Y-3144393D02*
X9358949Y-3168203D01*
X9358949Y-3168203D02*
X9363710Y-3177727D01*
X9363710Y-3177727D02*
X9368472Y-3182489D01*
X9368472Y-3182489D02*
X9377996Y-3187251D01*
X9377996Y-3187251D02*
X9401806Y-3187251D01*
X9401806Y-3187251D02*
X9411329Y-3182489D01*
X9411329Y-3182489D02*
X9416091Y-3177727D01*
%TO.C,C16*%
X10166002Y-3823595D02*
X10166002Y-3833119D01*
X10166002Y-3833119D02*
X10170764Y-3842643D01*
X10170764Y-3842643D02*
X10175526Y-3847405D01*
X10175526Y-3847405D02*
X10185050Y-3852167D01*
X10185050Y-3852167D02*
X10204097Y-3856928D01*
X10204097Y-3856928D02*
X10227907Y-3856928D01*
X10227907Y-3856928D02*
X10246954Y-3852167D01*
X10246954Y-3852167D02*
X10256478Y-3847405D01*
X10256478Y-3847405D02*
X10261240Y-3842643D01*
X10261240Y-3842643D02*
X10266002Y-3833119D01*
X10266002Y-3833119D02*
X10266002Y-3823595D01*
X10266002Y-3823595D02*
X10261240Y-3814071D01*
X10261240Y-3814071D02*
X10256478Y-3809309D01*
X10256478Y-3809309D02*
X10246954Y-3804548D01*
X10246954Y-3804548D02*
X10227907Y-3799786D01*
X10227907Y-3799786D02*
X10204097Y-3799786D01*
X10204097Y-3799786D02*
X10185050Y-3804548D01*
X10185050Y-3804548D02*
X10175526Y-3809309D01*
X10175526Y-3809309D02*
X10170764Y-3814071D01*
X10170764Y-3814071D02*
X10166002Y-3823595D01*
X10256478Y-3899786D02*
X10261240Y-3904548D01*
X10261240Y-3904548D02*
X10266002Y-3899786D01*
X10266002Y-3899786D02*
X10261240Y-3895024D01*
X10261240Y-3895024D02*
X10256478Y-3899786D01*
X10256478Y-3899786D02*
X10266002Y-3899786D01*
X10166002Y-3966452D02*
X10166002Y-3975976D01*
X10166002Y-3975976D02*
X10170764Y-3985500D01*
X10170764Y-3985500D02*
X10175526Y-3990262D01*
X10175526Y-3990262D02*
X10185050Y-3995024D01*
X10185050Y-3995024D02*
X10204097Y-3999786D01*
X10204097Y-3999786D02*
X10227907Y-3999786D01*
X10227907Y-3999786D02*
X10246954Y-3995024D01*
X10246954Y-3995024D02*
X10256478Y-3990262D01*
X10256478Y-3990262D02*
X10261240Y-3985500D01*
X10261240Y-3985500D02*
X10266002Y-3975976D01*
X10266002Y-3975976D02*
X10266002Y-3966452D01*
X10266002Y-3966452D02*
X10261240Y-3956928D01*
X10261240Y-3956928D02*
X10256478Y-3952167D01*
X10256478Y-3952167D02*
X10246954Y-3947405D01*
X10246954Y-3947405D02*
X10227907Y-3942643D01*
X10227907Y-3942643D02*
X10204097Y-3942643D01*
X10204097Y-3942643D02*
X10185050Y-3947405D01*
X10185050Y-3947405D02*
X10175526Y-3952167D01*
X10175526Y-3952167D02*
X10170764Y-3956928D01*
X10170764Y-3956928D02*
X10166002Y-3966452D01*
X10266002Y-4095024D02*
X10266002Y-4037881D01*
X10266002Y-4066452D02*
X10166002Y-4066452D01*
X10166002Y-4066452D02*
X10180288Y-4056928D01*
X10180288Y-4056928D02*
X10189812Y-4047405D01*
X10189812Y-4047405D02*
X10194573Y-4037881D01*
X10199335Y-4180738D02*
X10266002Y-4180738D01*
X10199335Y-4137881D02*
X10251716Y-4137881D01*
X10251716Y-4137881D02*
X10261240Y-4142643D01*
X10261240Y-4142643D02*
X10266002Y-4152167D01*
X10266002Y-4152167D02*
X10266002Y-4166452D01*
X10266002Y-4166452D02*
X10261240Y-4175976D01*
X10261240Y-4175976D02*
X10256478Y-4180738D01*
X10213621Y-4261690D02*
X10213621Y-4228357D01*
X10266002Y-4228357D02*
X10166002Y-4228357D01*
X10166002Y-4228357D02*
X10166002Y-4275976D01*
D12*
X9771651Y-3972231D02*
X9775460Y-3968422D01*
X9775460Y-3968422D02*
X9779270Y-3956993D01*
X9779270Y-3956993D02*
X9779270Y-3949374D01*
X9779270Y-3949374D02*
X9775460Y-3937946D01*
X9775460Y-3937946D02*
X9767841Y-3930327D01*
X9767841Y-3930327D02*
X9760222Y-3926517D01*
X9760222Y-3926517D02*
X9744984Y-3922707D01*
X9744984Y-3922707D02*
X9733555Y-3922707D01*
X9733555Y-3922707D02*
X9718317Y-3926517D01*
X9718317Y-3926517D02*
X9710698Y-3930327D01*
X9710698Y-3930327D02*
X9703079Y-3937946D01*
X9703079Y-3937946D02*
X9699270Y-3949374D01*
X9699270Y-3949374D02*
X9699270Y-3956993D01*
X9699270Y-3956993D02*
X9703079Y-3968422D01*
X9703079Y-3968422D02*
X9706889Y-3972231D01*
X9779270Y-4048422D02*
X9779270Y-4002707D01*
X9779270Y-4025565D02*
X9699270Y-4025565D01*
X9699270Y-4025565D02*
X9710698Y-4017946D01*
X9710698Y-4017946D02*
X9718317Y-4010327D01*
X9718317Y-4010327D02*
X9722127Y-4002707D01*
X9699270Y-4116993D02*
X9699270Y-4101755D01*
X9699270Y-4101755D02*
X9703079Y-4094136D01*
X9703079Y-4094136D02*
X9706889Y-4090327D01*
X9706889Y-4090327D02*
X9718317Y-4082708D01*
X9718317Y-4082708D02*
X9733555Y-4078898D01*
X9733555Y-4078898D02*
X9764032Y-4078898D01*
X9764032Y-4078898D02*
X9771651Y-4082708D01*
X9771651Y-4082708D02*
X9775460Y-4086517D01*
X9775460Y-4086517D02*
X9779270Y-4094136D01*
X9779270Y-4094136D02*
X9779270Y-4109374D01*
X9779270Y-4109374D02*
X9775460Y-4116993D01*
X9775460Y-4116993D02*
X9771651Y-4120803D01*
X9771651Y-4120803D02*
X9764032Y-4124612D01*
X9764032Y-4124612D02*
X9744984Y-4124612D01*
X9744984Y-4124612D02*
X9737365Y-4120803D01*
X9737365Y-4120803D02*
X9733555Y-4116993D01*
X9733555Y-4116993D02*
X9729746Y-4109374D01*
X9729746Y-4109374D02*
X9729746Y-4094136D01*
X9729746Y-4094136D02*
X9733555Y-4086517D01*
X9733555Y-4086517D02*
X9737365Y-4082708D01*
X9737365Y-4082708D02*
X9744984Y-4078898D01*
D10*
%TO.C,C15*%
X9984786Y-4823714D02*
X9980024Y-4828476D01*
X9980024Y-4828476D02*
X9975262Y-4838000D01*
X9975262Y-4838000D02*
X9975262Y-4861810D01*
X9975262Y-4861810D02*
X9980024Y-4871333D01*
X9980024Y-4871333D02*
X9984786Y-4876095D01*
X9984786Y-4876095D02*
X9994310Y-4880857D01*
X9994310Y-4880857D02*
X10003833Y-4880857D01*
X10003833Y-4880857D02*
X10018119Y-4876095D01*
X10018119Y-4876095D02*
X10075262Y-4818952D01*
X10075262Y-4818952D02*
X10075262Y-4880857D01*
X9975262Y-4942762D02*
X9975262Y-4952286D01*
X9975262Y-4952286D02*
X9980024Y-4961810D01*
X9980024Y-4961810D02*
X9984786Y-4966571D01*
X9984786Y-4966571D02*
X9994310Y-4971333D01*
X9994310Y-4971333D02*
X10013357Y-4976095D01*
X10013357Y-4976095D02*
X10037167Y-4976095D01*
X10037167Y-4976095D02*
X10056214Y-4971333D01*
X10056214Y-4971333D02*
X10065738Y-4966571D01*
X10065738Y-4966571D02*
X10070500Y-4961810D01*
X10070500Y-4961810D02*
X10075262Y-4952286D01*
X10075262Y-4952286D02*
X10075262Y-4942762D01*
X10075262Y-4942762D02*
X10070500Y-4933238D01*
X10070500Y-4933238D02*
X10065738Y-4928476D01*
X10065738Y-4928476D02*
X10056214Y-4923714D01*
X10056214Y-4923714D02*
X10037167Y-4918952D01*
X10037167Y-4918952D02*
X10013357Y-4918952D01*
X10013357Y-4918952D02*
X9994310Y-4923714D01*
X9994310Y-4923714D02*
X9984786Y-4928476D01*
X9984786Y-4928476D02*
X9980024Y-4933238D01*
X9980024Y-4933238D02*
X9975262Y-4942762D01*
X10008595Y-5061810D02*
X10075262Y-5061810D01*
X10008595Y-5018952D02*
X10060976Y-5018952D01*
X10060976Y-5018952D02*
X10070500Y-5023714D01*
X10070500Y-5023714D02*
X10075262Y-5033238D01*
X10075262Y-5033238D02*
X10075262Y-5047524D01*
X10075262Y-5047524D02*
X10070500Y-5057048D01*
X10070500Y-5057048D02*
X10065738Y-5061810D01*
X10022881Y-5142762D02*
X10022881Y-5109429D01*
X10075262Y-5109429D02*
X9975262Y-5109429D01*
X9975262Y-5109429D02*
X9975262Y-5157048D01*
D12*
X10066390Y-4490071D02*
X10070200Y-4486262D01*
X10070200Y-4486262D02*
X10074010Y-4474833D01*
X10074010Y-4474833D02*
X10074010Y-4467214D01*
X10074010Y-4467214D02*
X10070200Y-4455786D01*
X10070200Y-4455786D02*
X10062581Y-4448167D01*
X10062581Y-4448167D02*
X10054962Y-4444357D01*
X10054962Y-4444357D02*
X10039724Y-4440548D01*
X10039724Y-4440548D02*
X10028295Y-4440548D01*
X10028295Y-4440548D02*
X10013057Y-4444357D01*
X10013057Y-4444357D02*
X10005438Y-4448167D01*
X10005438Y-4448167D02*
X9997819Y-4455786D01*
X9997819Y-4455786D02*
X9994010Y-4467214D01*
X9994010Y-4467214D02*
X9994010Y-4474833D01*
X9994010Y-4474833D02*
X9997819Y-4486262D01*
X9997819Y-4486262D02*
X10001629Y-4490071D01*
X10074010Y-4566262D02*
X10074010Y-4520548D01*
X10074010Y-4543405D02*
X9994010Y-4543405D01*
X9994010Y-4543405D02*
X10005438Y-4535786D01*
X10005438Y-4535786D02*
X10013057Y-4528167D01*
X10013057Y-4528167D02*
X10016867Y-4520548D01*
X9994010Y-4638643D02*
X9994010Y-4600548D01*
X9994010Y-4600548D02*
X10032105Y-4596738D01*
X10032105Y-4596738D02*
X10028295Y-4600548D01*
X10028295Y-4600548D02*
X10024486Y-4608167D01*
X10024486Y-4608167D02*
X10024486Y-4627214D01*
X10024486Y-4627214D02*
X10028295Y-4634833D01*
X10028295Y-4634833D02*
X10032105Y-4638643D01*
X10032105Y-4638643D02*
X10039724Y-4642452D01*
X10039724Y-4642452D02*
X10058771Y-4642452D01*
X10058771Y-4642452D02*
X10066390Y-4638643D01*
X10066390Y-4638643D02*
X10070200Y-4634833D01*
X10070200Y-4634833D02*
X10074010Y-4627214D01*
X10074010Y-4627214D02*
X10074010Y-4608167D01*
X10074010Y-4608167D02*
X10070200Y-4600548D01*
X10070200Y-4600548D02*
X10066390Y-4596738D01*
D10*
%TO.C,D7*%
X5696095Y-2693881D02*
X5681809Y-2698643D01*
X5681809Y-2698643D02*
X5677048Y-2703405D01*
X5677048Y-2703405D02*
X5672286Y-2712929D01*
X5672286Y-2712929D02*
X5672286Y-2727214D01*
X5672286Y-2727214D02*
X5677048Y-2736738D01*
X5677048Y-2736738D02*
X5681809Y-2741500D01*
X5681809Y-2741500D02*
X5691333Y-2746262D01*
X5691333Y-2746262D02*
X5729428Y-2746262D01*
X5729428Y-2746262D02*
X5729428Y-2646262D01*
X5729428Y-2646262D02*
X5696095Y-2646262D01*
X5696095Y-2646262D02*
X5686571Y-2651024D01*
X5686571Y-2651024D02*
X5681809Y-2655786D01*
X5681809Y-2655786D02*
X5677048Y-2665310D01*
X5677048Y-2665310D02*
X5677048Y-2674833D01*
X5677048Y-2674833D02*
X5681809Y-2684357D01*
X5681809Y-2684357D02*
X5686571Y-2689119D01*
X5686571Y-2689119D02*
X5696095Y-2693881D01*
X5696095Y-2693881D02*
X5729428Y-2693881D01*
X5634190Y-2717690D02*
X5586571Y-2717690D01*
X5643714Y-2746262D02*
X5610381Y-2646262D01*
X5610381Y-2646262D02*
X5577048Y-2746262D01*
X5553238Y-2646262D02*
X5529429Y-2746262D01*
X5529429Y-2746262D02*
X5510381Y-2674833D01*
X5510381Y-2674833D02*
X5491333Y-2746262D01*
X5491333Y-2746262D02*
X5467524Y-2646262D01*
X5438952Y-2646262D02*
X5372286Y-2646262D01*
X5372286Y-2646262D02*
X5415143Y-2746262D01*
X5286571Y-2646262D02*
X5334190Y-2646262D01*
X5334190Y-2646262D02*
X5338952Y-2693881D01*
X5338952Y-2693881D02*
X5334190Y-2689119D01*
X5334190Y-2689119D02*
X5324667Y-2684357D01*
X5324667Y-2684357D02*
X5300857Y-2684357D01*
X5300857Y-2684357D02*
X5291333Y-2689119D01*
X5291333Y-2689119D02*
X5286571Y-2693881D01*
X5286571Y-2693881D02*
X5281810Y-2703405D01*
X5281810Y-2703405D02*
X5281810Y-2727214D01*
X5281810Y-2727214D02*
X5286571Y-2736738D01*
X5286571Y-2736738D02*
X5291333Y-2741500D01*
X5291333Y-2741500D02*
X5300857Y-2746262D01*
X5300857Y-2746262D02*
X5324667Y-2746262D01*
X5324667Y-2746262D02*
X5334190Y-2741500D01*
X5334190Y-2741500D02*
X5338952Y-2736738D01*
D12*
X5530048Y-2738010D02*
X5530048Y-2658010D01*
X5530048Y-2658010D02*
X5511000Y-2658010D01*
X5511000Y-2658010D02*
X5499571Y-2661819D01*
X5499571Y-2661819D02*
X5491952Y-2669438D01*
X5491952Y-2669438D02*
X5488143Y-2677057D01*
X5488143Y-2677057D02*
X5484333Y-2692295D01*
X5484333Y-2692295D02*
X5484333Y-2703724D01*
X5484333Y-2703724D02*
X5488143Y-2718962D01*
X5488143Y-2718962D02*
X5491952Y-2726581D01*
X5491952Y-2726581D02*
X5499571Y-2734200D01*
X5499571Y-2734200D02*
X5511000Y-2738010D01*
X5511000Y-2738010D02*
X5530048Y-2738010D01*
X5457667Y-2658010D02*
X5404333Y-2658010D01*
X5404333Y-2658010D02*
X5438619Y-2738010D01*
D13*
%TO.C,C24*%
X3518000Y-4567000D02*
X3818000Y-4567000D01*
X3518000Y-4727000D02*
X3518000Y-4567000D01*
X3818000Y-4567000D02*
X3818000Y-4727000D01*
X3818000Y-4727000D02*
X3518000Y-4727000D01*
%TO.C,J2*%
X10718417Y-3208500D02*
X10718417Y-1758500D01*
X10718417Y-1758500D02*
X10668417Y-1758500D01*
X10668417Y-1758500D02*
X10668417Y-1508500D01*
X10668417Y-1508500D02*
X10168417Y-1508500D01*
X10168417Y-1758500D02*
X10118417Y-1758500D01*
X10168417Y-1508500D02*
X10168417Y-1758500D01*
X10118417Y-3208500D02*
X10718417Y-3208500D01*
X10118417Y-1758500D02*
X10118417Y-3208500D01*
%TO.C,C14*%
X9948740Y-5931500D02*
X10108740Y-5931500D01*
X10108740Y-5931500D02*
X10108740Y-5611500D01*
X9948740Y-5611500D02*
X9948740Y-5931500D01*
X10108740Y-5611500D02*
X9948740Y-5611500D01*
%TO.C,L1*%
X6832000Y-2265000D02*
X6832000Y-2773000D01*
X6997000Y-2265000D02*
G75*
G03*
X6997000Y-2265000I-165000J0D01*
G01*
%TO.C,C8*%
X9067361Y-3019250D02*
X9017361Y-3019250D01*
X9042361Y-2994250D02*
X9042361Y-3044250D01*
X9104000Y-3128000D02*
G75*
G03*
X9104000Y-3128000I-250000J0D01*
G01*
%TO.C,C23*%
X5423000Y-4519000D02*
X5583000Y-4519000D01*
X5583000Y-4519000D02*
X5583000Y-4199000D01*
X5423000Y-4199000D02*
X5423000Y-4519000D01*
X5583000Y-4199000D02*
X5423000Y-4199000D01*
%TO.C,D10*%
X4766000Y-2388000D02*
X5086000Y-2388000D01*
X4766000Y-2508000D02*
X4766000Y-2388000D01*
X4806000Y-2548000D02*
X4766000Y-2508000D01*
X5086000Y-2388000D02*
X5086000Y-2548000D01*
X5086000Y-2548000D02*
X4806000Y-2548000D01*
%TO.C,J5*%
X6567574Y-2612210D02*
X5867574Y-2612210D01*
X6567574Y-2162210D02*
X6467574Y-2262210D01*
X6567574Y-1912210D02*
X6567574Y-2612210D01*
X6567574Y-1912210D02*
X5867574Y-1912210D01*
X6517574Y-1712210D02*
X6517574Y-1912210D01*
X6517574Y-1562210D02*
X5917574Y-1512210D01*
X6517574Y-1512210D02*
X5917574Y-1462210D01*
X6517574Y-1462210D02*
X5917574Y-1412210D01*
X6517574Y-1412210D02*
X5917574Y-1362210D01*
X6517574Y-1362210D02*
X5917574Y-1312210D01*
X6517574Y-1312210D02*
X5917574Y-1262210D01*
X6467574Y-2262210D02*
X6567574Y-2362210D01*
X6467574Y-1112210D02*
X6467574Y-1712210D01*
X6467574Y-1112210D02*
X5967574Y-1112210D01*
X5967574Y-1112210D02*
X5967574Y-1712210D01*
X5917574Y-1712210D02*
X6517574Y-1712210D01*
X5917574Y-1712210D02*
X5917574Y-1912210D01*
X5867574Y-1912210D02*
X5867574Y-2612210D01*
%TO.C,J7*%
X11548000Y-5209000D02*
X11548000Y-4447000D01*
X11548000Y-4447000D02*
X11357500Y-4447000D01*
X11357500Y-4447000D02*
X11294000Y-4510500D01*
X11294000Y-5209000D02*
X11548000Y-5209000D01*
X11294000Y-4510500D02*
X11294000Y-5209000D01*
%TO.C,U5*%
X6892945Y-6320375D02*
X7285445Y-6320375D01*
X7285445Y-6320375D02*
X7382945Y-6222875D01*
X7382945Y-6222875D02*
X7382945Y-5930375D01*
X6892945Y-5930375D02*
X6892945Y-6320375D01*
X7382945Y-5930375D02*
X6892945Y-5930375D01*
%TO.C,R24*%
X7470695Y-5198375D02*
X7470695Y-5038375D01*
X7470695Y-5038375D02*
X7150695Y-5038375D01*
X7150695Y-5198375D02*
X7470695Y-5198375D01*
X7150695Y-5038375D02*
X7150695Y-5198375D01*
%TO.C,C17*%
X10684840Y-6077750D02*
X10734840Y-6077750D01*
X10709840Y-6102750D02*
X10709840Y-6052750D01*
X11148200Y-5969000D02*
G75*
G03*
X11148200Y-5969000I-250000J0D01*
G01*
%TO.C,R22*%
X4439000Y-3580750D02*
X4599000Y-3580750D01*
X4599000Y-3580750D02*
X4599000Y-3260750D01*
X4439000Y-3260750D02*
X4439000Y-3580750D01*
X4599000Y-3260750D02*
X4439000Y-3260750D01*
%TO.C,C11*%
X5400000Y-3387000D02*
X5240000Y-3387000D01*
X5240000Y-3387000D02*
X5240000Y-3707000D01*
X5400000Y-3707000D02*
X5400000Y-3387000D01*
X5240000Y-3707000D02*
X5400000Y-3707000D01*
%TO.C,C20*%
X8596000Y-5846500D02*
X8436000Y-5846500D01*
X8436000Y-5846500D02*
X8436000Y-6166500D01*
X8596000Y-6166500D02*
X8596000Y-5846500D01*
X8436000Y-6166500D02*
X8596000Y-6166500D01*
%TO.C,C18*%
X10370255Y-6144250D02*
X10330255Y-6144250D01*
X10350255Y-6124250D02*
X10350255Y-6164250D01*
X10400000Y-6231000D02*
G75*
G03*
X10400000Y-6231000I-200000J0D01*
G01*
%TO.C,C12*%
X10518324Y-4605750D02*
X10598324Y-4605750D01*
X10558324Y-4645750D02*
X10558324Y-4565750D01*
X11261000Y-4431000D02*
G75*
G03*
X11261000Y-4431000I-400000J0D01*
G01*
%TO.C,C13*%
X10518324Y-5445750D02*
X10598324Y-5445750D01*
X10558324Y-5485750D02*
X10558324Y-5405750D01*
X11261000Y-5271000D02*
G75*
G03*
X11261000Y-5271000I-400000J0D01*
G01*
%TO.C,R26*%
X7470250Y-4959000D02*
X7470250Y-4799000D01*
X7470250Y-4799000D02*
X7150250Y-4799000D01*
X7150250Y-4959000D02*
X7470250Y-4959000D01*
X7150250Y-4799000D02*
X7150250Y-4959000D01*
%TO.C,C26*%
X3515000Y-4330000D02*
X3815000Y-4330000D01*
X3515000Y-4490000D02*
X3515000Y-4330000D01*
X3815000Y-4330000D02*
X3815000Y-4490000D01*
X3815000Y-4490000D02*
X3515000Y-4490000D01*
%TO.C,C7*%
X10376996Y-3468250D02*
X10336996Y-3468250D01*
X10356996Y-3448250D02*
X10356996Y-3488250D01*
X10406740Y-3555000D02*
G75*
G03*
X10406740Y-3555000I-200000J0D01*
G01*
%TO.C,C19*%
X7628000Y-5864750D02*
X7468000Y-5864750D01*
X7468000Y-5864750D02*
X7468000Y-6184750D01*
X7628000Y-6184750D02*
X7628000Y-5864750D01*
X7468000Y-6184750D02*
X7628000Y-6184750D01*
%TO.C,C6*%
X10681505Y-3871750D02*
X10721505Y-3871750D01*
X10701505Y-3891750D02*
X10701505Y-3851750D01*
X11051760Y-3785000D02*
G75*
G03*
X11051760Y-3785000I-200000J0D01*
G01*
%TO.C,C22*%
X4160000Y-4115500D02*
X4320000Y-4115500D01*
X4320000Y-4115500D02*
X4320000Y-3795500D01*
X4160000Y-3795500D02*
X4160000Y-4115500D01*
X4320000Y-3795500D02*
X4160000Y-3795500D01*
%TO.C,C9*%
X7615360Y-3016250D02*
X7565360Y-3016250D01*
X7590360Y-2991250D02*
X7590360Y-3041250D01*
X7652000Y-3125000D02*
G75*
G03*
X7652000Y-3125000I-250000J0D01*
G01*
%TO.C,C10*%
X5159000Y-3393000D02*
X4999000Y-3393000D01*
X4999000Y-3393000D02*
X4999000Y-3713000D01*
X5159000Y-3713000D02*
X5159000Y-3393000D01*
X4999000Y-3713000D02*
X5159000Y-3713000D01*
%TO.C,R25*%
X7940195Y-5199000D02*
X7940195Y-5039000D01*
X7940195Y-5039000D02*
X7620195Y-5039000D01*
X7620195Y-5199000D02*
X7940195Y-5199000D01*
X7620195Y-5039000D02*
X7620195Y-5199000D01*
%TO.C,D9*%
X5629000Y-2550000D02*
X5309000Y-2550000D01*
X5629000Y-2430000D02*
X5629000Y-2550000D01*
X5589000Y-2390000D02*
X5629000Y-2430000D01*
X5309000Y-2550000D02*
X5309000Y-2390000D01*
X5309000Y-2390000D02*
X5589000Y-2390000D01*
%TO.C,U6*%
X7861625Y-6322000D02*
X8254125Y-6322000D01*
X8254125Y-6322000D02*
X8351625Y-6224500D01*
X8351625Y-6224500D02*
X8351625Y-5932000D01*
X7861625Y-5932000D02*
X7861625Y-6322000D01*
X8351625Y-5932000D02*
X7861625Y-5932000D01*
%TO.C,D8*%
X5084000Y-2777000D02*
X4764000Y-2777000D01*
X5084000Y-2657000D02*
X5084000Y-2777000D01*
X5044000Y-2617000D02*
X5084000Y-2657000D01*
X4764000Y-2777000D02*
X4764000Y-2617000D01*
X4764000Y-2617000D02*
X5044000Y-2617000D01*
%TO.C,L2*%
X5492000Y-2142000D02*
G75*
G03*
X5492000Y-2142000I-300000J0D01*
G01*
D10*
%TO.C,U7*%
X5318250Y-4033597D02*
X4548250Y-4033597D01*
X4548250Y-4033597D02*
X4448250Y-4133597D01*
X4448250Y-4133597D02*
X4448250Y-4423597D01*
X5318250Y-4423597D02*
X5318250Y-4033597D01*
X4448250Y-4423597D02*
X5318250Y-4423597D01*
D13*
%TO.C,R23*%
X7940250Y-4958000D02*
X7940250Y-4798000D01*
X7940250Y-4798000D02*
X7620250Y-4798000D01*
X7620250Y-4958000D02*
X7940250Y-4958000D01*
X7620250Y-4798000D02*
X7620250Y-4958000D01*
%TO.C,C5*%
X9224160Y-3249739D02*
X9274160Y-3249739D01*
X9249160Y-3274739D02*
X9249160Y-3224739D01*
X9687520Y-3140989D02*
G75*
G03*
X9687520Y-3140989I-250000J0D01*
G01*
%TO.C,Y1*%
X3753000Y-3054000D02*
X4053000Y-3054000D01*
X3753000Y-3854000D02*
X3753000Y-3054000D01*
X3808000Y-3979000D02*
X3808000Y-4104000D01*
X3848500Y-3854000D02*
X3808000Y-3979000D01*
X3957500Y-3854000D02*
X3998000Y-3979000D01*
X3998000Y-3979000D02*
X3998000Y-4104000D01*
X4053000Y-3054000D02*
X4053000Y-3854000D01*
X4053000Y-3854000D02*
X3753000Y-3854000D01*
%TO.C,C21*%
X4019500Y-4473000D02*
X4019500Y-4633000D01*
X4019500Y-4633000D02*
X4339500Y-4633000D01*
X4339500Y-4473000D02*
X4019500Y-4473000D01*
X4339500Y-4633000D02*
X4339500Y-4473000D01*
%TO.C,C25*%
X3482000Y-4115000D02*
X3642000Y-4115000D01*
X3642000Y-4115000D02*
X3642000Y-3795000D01*
X3482000Y-3795000D02*
X3482000Y-4115000D01*
X3642000Y-3795000D02*
X3482000Y-3795000D01*
%TO.C,C16*%
X10114740Y-3875500D02*
X9954740Y-3875500D01*
X9954740Y-3875500D02*
X9954740Y-4195500D01*
X10114740Y-4195500D02*
X10114740Y-3875500D01*
X9954740Y-4195500D02*
X10114740Y-4195500D01*
%TO.C,C15*%
X10117000Y-4381500D02*
X9957000Y-4381500D01*
X9957000Y-4381500D02*
X9957000Y-4701500D01*
X10117000Y-4701500D02*
X10117000Y-4381500D01*
X9957000Y-4701500D02*
X10117000Y-4701500D01*
%TO.C,R21*%
X4666000Y-3580750D02*
X4826000Y-3580750D01*
X4826000Y-3580750D02*
X4826000Y-3260750D01*
X4666000Y-3260750D02*
X4666000Y-3580750D01*
X4826000Y-3260750D02*
X4666000Y-3260750D01*
%TO.C,J6*%
X3696500Y-3318000D02*
X3569500Y-3318000D01*
X3569500Y-3318000D02*
X3569500Y-3540250D01*
X3569500Y-3540250D02*
X3601250Y-3572000D01*
X3696500Y-3572000D02*
X3696500Y-3318000D01*
X3601250Y-3572000D02*
X3696500Y-3572000D01*
%TO.C,J4*%
X4239000Y-3327000D02*
X4112000Y-3327000D01*
X4112000Y-3327000D02*
X4112000Y-3549250D01*
X4112000Y-3549250D02*
X4143750Y-3581000D01*
X4239000Y-3581000D02*
X4239000Y-3327000D01*
X4143750Y-3581000D02*
X4239000Y-3581000D01*
%TO.C,D7*%
X5311000Y-2621000D02*
X5631000Y-2621000D01*
X5311000Y-2741000D02*
X5311000Y-2621000D01*
X5351000Y-2781000D02*
X5311000Y-2741000D01*
X5631000Y-2621000D02*
X5631000Y-2781000D01*
X5631000Y-2781000D02*
X5351000Y-2781000D01*
%TO.C,J3*%
X4473574Y-2615210D02*
X3773574Y-2615210D01*
X4473574Y-2165210D02*
X4373574Y-2265210D01*
X4473574Y-1915210D02*
X4473574Y-2615210D01*
X4473574Y-1915210D02*
X3773574Y-1915210D01*
X4423574Y-1715210D02*
X4423574Y-1915210D01*
X4423574Y-1565210D02*
X3823574Y-1515210D01*
X4423574Y-1515210D02*
X3823574Y-1465210D01*
X4423574Y-1465210D02*
X3823574Y-1415210D01*
X4423574Y-1415210D02*
X3823574Y-1365210D01*
X4423574Y-1365210D02*
X3823574Y-1315210D01*
X4423574Y-1315210D02*
X3823574Y-1265210D01*
X4373574Y-2265210D02*
X4473574Y-2365210D01*
X4373574Y-1115210D02*
X4373574Y-1715210D01*
X4373574Y-1115210D02*
X3873574Y-1115210D01*
X3873574Y-1115210D02*
X3873574Y-1715210D01*
X3823574Y-1715210D02*
X4423574Y-1715210D01*
X3823574Y-1715210D02*
X3823574Y-1915210D01*
X3773574Y-1915210D02*
X3773574Y-2615210D01*
%TD*%
%TO.C,J1*%
X9113000Y-5330000D02*
X9113000Y-5500000D01*
X9283000Y-5500000D01*
X9283000Y-5330000D01*
X9113000Y-5330000D01*
X8944000Y-5330000D02*
X8944000Y-5330000D01*
X8944000Y-5330000D02*
G75*
G03*
X8944000Y-5500000I0J-85000D01*
G01*
X8944000Y-5500000D02*
X8944000Y-5500000D01*
X8944000Y-5500000D02*
G75*
G03*
X8944000Y-5330000I0J85000D01*
G01*
X8690000Y-5330000D02*
X8690000Y-5330000D01*
X8690000Y-5330000D02*
G75*
G03*
X8690000Y-5500000I0J-85000D01*
G01*
X8690000Y-5500000D02*
X8690000Y-5500000D01*
X8690000Y-5500000D02*
G75*
G03*
X8690000Y-5330000I0J85000D01*
G01*
X8436000Y-5330000D02*
X8436000Y-5330000D01*
X8436000Y-5330000D02*
G75*
G03*
X8436000Y-5500000I0J-85000D01*
G01*
X8436000Y-5500000D02*
X8436000Y-5500000D01*
X8436000Y-5500000D02*
G75*
G03*
X8436000Y-5330000I0J85000D01*
G01*
X8182000Y-5330000D02*
X8182000Y-5330000D01*
X8182000Y-5330000D02*
G75*
G03*
X8182000Y-5500000I0J-85000D01*
G01*
X8182000Y-5500000D02*
X8182000Y-5500000D01*
X8182000Y-5500000D02*
G75*
G03*
X8182000Y-5330000I0J85000D01*
G01*
X7928000Y-5330000D02*
X7928000Y-5330000D01*
X7928000Y-5330000D02*
G75*
G03*
X7928000Y-5500000I0J-85000D01*
G01*
X7928000Y-5500000D02*
X7928000Y-5500000D01*
X7928000Y-5500000D02*
G75*
G03*
X7928000Y-5330000I0J85000D01*
G01*
X7674000Y-5330000D02*
X7674000Y-5330000D01*
X7674000Y-5330000D02*
G75*
G03*
X7674000Y-5500000I0J-85000D01*
G01*
X7674000Y-5500000D02*
X7674000Y-5500000D01*
X7674000Y-5500000D02*
G75*
G03*
X7674000Y-5330000I0J85000D01*
G01*
X7420000Y-5330000D02*
X7420000Y-5330000D01*
X7420000Y-5330000D02*
G75*
G03*
X7420000Y-5500000I0J-85000D01*
G01*
X7420000Y-5500000D02*
X7420000Y-5500000D01*
X7420000Y-5500000D02*
G75*
G03*
X7420000Y-5330000I0J85000D01*
G01*
X7166000Y-5330000D02*
X7166000Y-5330000D01*
X7166000Y-5330000D02*
G75*
G03*
X7166000Y-5500000I0J-85000D01*
G01*
X7166000Y-5500000D02*
X7166000Y-5500000D01*
X7166000Y-5500000D02*
G75*
G03*
X7166000Y-5330000I0J85000D01*
G01*
X6912000Y-5330000D02*
X6912000Y-5330000D01*
X6912000Y-5330000D02*
G75*
G03*
X6912000Y-5500000I0J-85000D01*
G01*
X6912000Y-5500000D02*
X6912000Y-5500000D01*
X6912000Y-5500000D02*
G75*
G03*
X6912000Y-5330000I0J85000D01*
G01*
X6658000Y-5330000D02*
X6658000Y-5330000D01*
X6658000Y-5330000D02*
G75*
G03*
X6658000Y-5500000I0J-85000D01*
G01*
X6658000Y-5500000D02*
X6658000Y-5500000D01*
X6658000Y-5500000D02*
G75*
G03*
X6658000Y-5330000I0J85000D01*
G01*
X6404000Y-5330000D02*
X6404000Y-5330000D01*
X6404000Y-5330000D02*
G75*
G03*
X6404000Y-5500000I0J-85000D01*
G01*
X6404000Y-5500000D02*
X6404000Y-5500000D01*
X6404000Y-5500000D02*
G75*
G03*
X6404000Y-5330000I0J85000D01*
G01*
%TD*%
%TO.C,U4*%
X10222180Y-5836180D02*
X10222180Y-6003820D01*
X10389820Y-6003820D01*
X10389820Y-5836180D01*
X10222180Y-5836180D01*
X10389820Y-5666000D02*
G75*
G03*
X10389820Y-5666000I-83820J0D01*
G01*
X10389820Y-5412000D02*
G75*
G03*
X10389820Y-5412000I-83820J0D01*
G01*
X10389820Y-5158000D02*
G75*
G03*
X10389820Y-5158000I-83820J0D01*
G01*
X10389820Y-4904000D02*
G75*
G03*
X10389820Y-4904000I-83820J0D01*
G01*
X10389820Y-4650000D02*
G75*
G03*
X10389820Y-4650000I-83820J0D01*
G01*
X10389820Y-4396000D02*
G75*
G03*
X10389820Y-4396000I-83820J0D01*
G01*
X10389820Y-4142000D02*
G75*
G03*
X10389820Y-4142000I-83820J0D01*
G01*
X10389820Y-3888000D02*
G75*
G03*
X10389820Y-3888000I-83820J0D01*
G01*
X9627820Y-3888000D02*
G75*
G03*
X9627820Y-3888000I-83820J0D01*
G01*
X9627820Y-4142000D02*
G75*
G03*
X9627820Y-4142000I-83820J0D01*
G01*
X9627820Y-4396000D02*
G75*
G03*
X9627820Y-4396000I-83820J0D01*
G01*
X9627820Y-4650000D02*
G75*
G03*
X9627820Y-4650000I-83820J0D01*
G01*
X9627820Y-4904000D02*
G75*
G03*
X9627820Y-4904000I-83820J0D01*
G01*
X9627820Y-5158000D02*
G75*
G03*
X9627820Y-5158000I-83820J0D01*
G01*
X9627820Y-5412000D02*
G75*
G03*
X9627820Y-5412000I-83820J0D01*
G01*
X9627820Y-5666000D02*
G75*
G03*
X9627820Y-5666000I-83820J0D01*
G01*
X9627820Y-5920000D02*
G75*
G03*
X9627820Y-5920000I-83820J0D01*
G01*
%TD*%
%TO.C,C24*%
X3623000Y-4647000D02*
G75*
G03*
X3623000Y-4647000I-80000J0D01*
G01*
X3873000Y-4647000D02*
G75*
G03*
X3873000Y-4647000I-80000J0D01*
G01*
%TD*%
%TO.C,J2*%
X10503417Y-2808500D02*
G75*
G03*
X10503417Y-2808500I-85000J0D01*
G01*
X10503417Y-2108500D02*
G75*
G03*
X10503417Y-2108500I-85000J0D01*
G01*
X9908417Y-2088500D02*
X9908417Y-2308500D01*
X10188417Y-2308500D01*
X10188417Y-2088500D01*
X9908417Y-2088500D01*
X10648417Y-1888500D02*
X10648417Y-2108500D01*
X10928417Y-2108500D01*
X10928417Y-1888500D01*
X10648417Y-1888500D01*
X10648417Y-2798500D02*
X10648417Y-3078500D01*
X10928417Y-3078500D01*
X10928417Y-2798500D01*
X10648417Y-2798500D01*
%TD*%
D14*
%TO.C,C14*%
D13*
X9963740Y-5976500D02*
X9954173Y-5974597D01*
X9946062Y-5969178D01*
X9940643Y-5961067D01*
X9938740Y-5951500D01*
X9938740Y-5886500D01*
X9940643Y-5876933D01*
X9946062Y-5868822D01*
X9954173Y-5863403D01*
X9963740Y-5861500D01*
X10093740Y-5861500D01*
X10103307Y-5863403D01*
X10111418Y-5868822D01*
X10116837Y-5876933D01*
X10118740Y-5886500D01*
X10118740Y-5951500D01*
X10116837Y-5961067D01*
X10111418Y-5969178D01*
X10103307Y-5974597D01*
X10093740Y-5976500D01*
X9963740Y-5976500D01*
D14*
D13*
X9963740Y-5681500D02*
X9954173Y-5679597D01*
X9946062Y-5674178D01*
X9940643Y-5666067D01*
X9938740Y-5656500D01*
X9938740Y-5591500D01*
X9940643Y-5581933D01*
X9946062Y-5573822D01*
X9954173Y-5568403D01*
X9963740Y-5566500D01*
X10093740Y-5566500D01*
X10103307Y-5568403D01*
X10111418Y-5573822D01*
X10116837Y-5581933D01*
X10118740Y-5591500D01*
X10118740Y-5656500D01*
X10116837Y-5666067D01*
X10111418Y-5674178D01*
X10103307Y-5679597D01*
X10093740Y-5681500D01*
X9963740Y-5681500D01*
%TD*%
%TO.C,L1*%
X6912000Y-2265000D02*
G75*
G03*
X6912000Y-2265000I-80000J0D01*
G01*
X6832000Y-2693000D02*
X6832000Y-2693000D01*
X6832000Y-2693000D02*
G75*
G03*
X6832000Y-2853000I0J-80000D01*
G01*
X6832000Y-2853000D02*
X6832000Y-2853000D01*
X6832000Y-2853000D02*
G75*
G03*
X6832000Y-2693000I0J80000D01*
G01*
%TD*%
%TO.C,C8*%
X8874000Y-3048000D02*
X8874000Y-3208000D01*
X9034000Y-3208000D01*
X9034000Y-3048000D01*
X8874000Y-3048000D01*
X8834000Y-3128000D02*
G75*
G03*
X8834000Y-3128000I-80000J0D01*
G01*
%TD*%
D14*
%TO.C,C23*%
D13*
X5438000Y-4564000D02*
X5428433Y-4562097D01*
X5420322Y-4556678D01*
X5414903Y-4548567D01*
X5413000Y-4539000D01*
X5413000Y-4474000D01*
X5414903Y-4464433D01*
X5420322Y-4456322D01*
X5428433Y-4450903D01*
X5438000Y-4449000D01*
X5568000Y-4449000D01*
X5577567Y-4450903D01*
X5585678Y-4456322D01*
X5591097Y-4464433D01*
X5593000Y-4474000D01*
X5593000Y-4539000D01*
X5591097Y-4548567D01*
X5585678Y-4556678D01*
X5577567Y-4562097D01*
X5568000Y-4564000D01*
X5438000Y-4564000D01*
D14*
D13*
X5438000Y-4269000D02*
X5428433Y-4267097D01*
X5420322Y-4261678D01*
X5414903Y-4253567D01*
X5413000Y-4244000D01*
X5413000Y-4179000D01*
X5414903Y-4169433D01*
X5420322Y-4161322D01*
X5428433Y-4155903D01*
X5438000Y-4154000D01*
X5568000Y-4154000D01*
X5577567Y-4155903D01*
X5585678Y-4161322D01*
X5591097Y-4169433D01*
X5593000Y-4179000D01*
X5593000Y-4244000D01*
X5591097Y-4253567D01*
X5585678Y-4261678D01*
X5577567Y-4267097D01*
X5568000Y-4269000D01*
X5438000Y-4269000D01*
%TD*%
D14*
%TO.C,D10*%
D13*
X4723500Y-2405500D02*
X4725403Y-2395933D01*
X4730822Y-2387822D01*
X4738933Y-2382403D01*
X4748500Y-2380500D01*
X4823500Y-2380500D01*
X4833067Y-2382403D01*
X4841178Y-2387822D01*
X4846597Y-2395933D01*
X4848500Y-2405500D01*
X4848500Y-2530500D01*
X4846597Y-2540067D01*
X4841178Y-2548178D01*
X4833067Y-2553597D01*
X4823500Y-2555500D01*
X4748500Y-2555500D01*
X4738933Y-2553597D01*
X4730822Y-2548178D01*
X4725403Y-2540067D01*
X4723500Y-2530500D01*
X4723500Y-2405500D01*
D14*
D13*
X5003500Y-2405500D02*
X5005403Y-2395933D01*
X5010822Y-2387822D01*
X5018933Y-2382403D01*
X5028500Y-2380500D01*
X5103500Y-2380500D01*
X5113067Y-2382403D01*
X5121178Y-2387822D01*
X5126597Y-2395933D01*
X5128500Y-2405500D01*
X5128500Y-2530500D01*
X5126597Y-2540067D01*
X5121178Y-2548178D01*
X5113067Y-2553597D01*
X5103500Y-2555500D01*
X5028500Y-2555500D01*
X5018933Y-2553597D01*
X5010822Y-2548178D01*
X5005403Y-2540067D01*
X5003500Y-2530500D01*
X5003500Y-2405500D01*
%TD*%
D14*
%TO.C,J5*%
D13*
X6332574Y-2357200D02*
X6331051Y-2364858D01*
X6326713Y-2371350D01*
X6320221Y-2375687D01*
X6312564Y-2377210D01*
X6122584Y-2377210D01*
X6114926Y-2375687D01*
X6108435Y-2371350D01*
X6104097Y-2364858D01*
X6102574Y-2357200D01*
X6102574Y-2167220D01*
X6104097Y-2159563D01*
X6108435Y-2153071D01*
X6114926Y-2148734D01*
X6122584Y-2147210D01*
X6312564Y-2147210D01*
X6320221Y-2148734D01*
X6326713Y-2153071D01*
X6331051Y-2159563D01*
X6332574Y-2167220D01*
X6332574Y-2357200D01*
X6596574Y-2516210D02*
G75*
G03*
X6596574Y-2516210I-125000J0D01*
G01*
X6596574Y-2008210D02*
G75*
G03*
X6596574Y-2008210I-125000J0D01*
G01*
X6088574Y-2516210D02*
G75*
G03*
X6088574Y-2516210I-125000J0D01*
G01*
X6088574Y-2008210D02*
G75*
G03*
X6088574Y-2008210I-125000J0D01*
G01*
%TD*%
%TO.C,J7*%
X11336000Y-4489000D02*
X11336000Y-4659000D01*
X11506000Y-4659000D01*
X11506000Y-4489000D01*
X11336000Y-4489000D01*
X11506000Y-4828000D02*
X11506000Y-4828000D01*
X11506000Y-4828000D02*
G75*
G03*
X11336000Y-4828000I-85000J0D01*
G01*
X11336000Y-4828000D02*
X11336000Y-4828000D01*
X11336000Y-4828000D02*
G75*
G03*
X11506000Y-4828000I85000J0D01*
G01*
X11506000Y-5082000D02*
X11506000Y-5082000D01*
X11506000Y-5082000D02*
G75*
G03*
X11336000Y-5082000I-85000J0D01*
G01*
X11336000Y-5082000D02*
X11336000Y-5082000D01*
X11336000Y-5082000D02*
G75*
G03*
X11506000Y-5082000I85000J0D01*
G01*
%TD*%
D14*
%TO.C,U5*%
D13*
X7313445Y-6470375D02*
X7307705Y-6469233D01*
X7302839Y-6465982D01*
X7299587Y-6461115D01*
X7298445Y-6455375D01*
X7298445Y-6290375D01*
X7299587Y-6284635D01*
X7302839Y-6279768D01*
X7307705Y-6276517D01*
X7313445Y-6275375D01*
X7343445Y-6275375D01*
X7349186Y-6276517D01*
X7354052Y-6279768D01*
X7357304Y-6284635D01*
X7358445Y-6290375D01*
X7358445Y-6455375D01*
X7357304Y-6461115D01*
X7354052Y-6465982D01*
X7349186Y-6469233D01*
X7343445Y-6470375D01*
X7313445Y-6470375D01*
D14*
D13*
X7186445Y-6470375D02*
X7180705Y-6469233D01*
X7175839Y-6465982D01*
X7172587Y-6461115D01*
X7171445Y-6455375D01*
X7171445Y-6290375D01*
X7172587Y-6284635D01*
X7175839Y-6279768D01*
X7180705Y-6276517D01*
X7186445Y-6275375D01*
X7216445Y-6275375D01*
X7222186Y-6276517D01*
X7227052Y-6279768D01*
X7230304Y-6284635D01*
X7231445Y-6290375D01*
X7231445Y-6455375D01*
X7230304Y-6461115D01*
X7227052Y-6465982D01*
X7222186Y-6469233D01*
X7216445Y-6470375D01*
X7186445Y-6470375D01*
D14*
D13*
X7059445Y-6470375D02*
X7053705Y-6469233D01*
X7048839Y-6465982D01*
X7045587Y-6461115D01*
X7044445Y-6455375D01*
X7044445Y-6290375D01*
X7045587Y-6284635D01*
X7048839Y-6279768D01*
X7053705Y-6276517D01*
X7059445Y-6275375D01*
X7089445Y-6275375D01*
X7095186Y-6276517D01*
X7100052Y-6279768D01*
X7103304Y-6284635D01*
X7104445Y-6290375D01*
X7104445Y-6455375D01*
X7103304Y-6461115D01*
X7100052Y-6465982D01*
X7095186Y-6469233D01*
X7089445Y-6470375D01*
X7059445Y-6470375D01*
D14*
D13*
X6932445Y-6470375D02*
X6926705Y-6469233D01*
X6921839Y-6465982D01*
X6918587Y-6461115D01*
X6917445Y-6455375D01*
X6917445Y-6290375D01*
X6918587Y-6284635D01*
X6921839Y-6279768D01*
X6926705Y-6276517D01*
X6932445Y-6275375D01*
X6962445Y-6275375D01*
X6968186Y-6276517D01*
X6973052Y-6279768D01*
X6976304Y-6284635D01*
X6977445Y-6290375D01*
X6977445Y-6455375D01*
X6976304Y-6461115D01*
X6973052Y-6465982D01*
X6968186Y-6469233D01*
X6962445Y-6470375D01*
X6932445Y-6470375D01*
D14*
D13*
X6932445Y-5975375D02*
X6926705Y-5974233D01*
X6921839Y-5970982D01*
X6918587Y-5966115D01*
X6917445Y-5960375D01*
X6917445Y-5795375D01*
X6918587Y-5789635D01*
X6921839Y-5784768D01*
X6926705Y-5781517D01*
X6932445Y-5780375D01*
X6962445Y-5780375D01*
X6968186Y-5781517D01*
X6973052Y-5784768D01*
X6976304Y-5789635D01*
X6977445Y-5795375D01*
X6977445Y-5960375D01*
X6976304Y-5966115D01*
X6973052Y-5970982D01*
X6968186Y-5974233D01*
X6962445Y-5975375D01*
X6932445Y-5975375D01*
D14*
D13*
X7059445Y-5975375D02*
X7053705Y-5974233D01*
X7048839Y-5970982D01*
X7045587Y-5966115D01*
X7044445Y-5960375D01*
X7044445Y-5795375D01*
X7045587Y-5789635D01*
X7048839Y-5784768D01*
X7053705Y-5781517D01*
X7059445Y-5780375D01*
X7089445Y-5780375D01*
X7095186Y-5781517D01*
X7100052Y-5784768D01*
X7103304Y-5789635D01*
X7104445Y-5795375D01*
X7104445Y-5960375D01*
X7103304Y-5966115D01*
X7100052Y-5970982D01*
X7095186Y-5974233D01*
X7089445Y-5975375D01*
X7059445Y-5975375D01*
D14*
D13*
X7186445Y-5975375D02*
X7180705Y-5974233D01*
X7175839Y-5970982D01*
X7172587Y-5966115D01*
X7171445Y-5960375D01*
X7171445Y-5795375D01*
X7172587Y-5789635D01*
X7175839Y-5784768D01*
X7180705Y-5781517D01*
X7186445Y-5780375D01*
X7216445Y-5780375D01*
X7222186Y-5781517D01*
X7227052Y-5784768D01*
X7230304Y-5789635D01*
X7231445Y-5795375D01*
X7231445Y-5960375D01*
X7230304Y-5966115D01*
X7227052Y-5970982D01*
X7222186Y-5974233D01*
X7216445Y-5975375D01*
X7186445Y-5975375D01*
D14*
D13*
X7313445Y-5975375D02*
X7307705Y-5974233D01*
X7302839Y-5970982D01*
X7299587Y-5966115D01*
X7298445Y-5960375D01*
X7298445Y-5795375D01*
X7299587Y-5789635D01*
X7302839Y-5784768D01*
X7307705Y-5781517D01*
X7313445Y-5780375D01*
X7343445Y-5780375D01*
X7349186Y-5781517D01*
X7354052Y-5784768D01*
X7357304Y-5789635D01*
X7358445Y-5795375D01*
X7358445Y-5960375D01*
X7357304Y-5966115D01*
X7354052Y-5970982D01*
X7349186Y-5974233D01*
X7343445Y-5975375D01*
X7313445Y-5975375D01*
%TD*%
D14*
%TO.C,R24*%
D13*
X7513195Y-5180875D02*
X7511292Y-5190442D01*
X7505873Y-5198553D01*
X7497762Y-5203972D01*
X7488195Y-5205875D01*
X7425695Y-5205875D01*
X7416128Y-5203972D01*
X7408018Y-5198553D01*
X7402598Y-5190442D01*
X7400695Y-5180875D01*
X7400695Y-5055875D01*
X7402598Y-5046308D01*
X7408018Y-5038197D01*
X7416128Y-5032778D01*
X7425695Y-5030875D01*
X7488195Y-5030875D01*
X7497762Y-5032778D01*
X7505873Y-5038197D01*
X7511292Y-5046308D01*
X7513195Y-5055875D01*
X7513195Y-5180875D01*
D14*
D13*
X7220695Y-5180875D02*
X7218792Y-5190442D01*
X7213373Y-5198553D01*
X7205262Y-5203972D01*
X7195695Y-5205875D01*
X7133195Y-5205875D01*
X7123628Y-5203972D01*
X7115518Y-5198553D01*
X7110098Y-5190442D01*
X7108195Y-5180875D01*
X7108195Y-5055875D01*
X7110098Y-5046308D01*
X7115518Y-5038197D01*
X7123628Y-5032778D01*
X7133195Y-5030875D01*
X7195695Y-5030875D01*
X7205262Y-5032778D01*
X7213373Y-5038197D01*
X7218792Y-5046308D01*
X7220695Y-5055875D01*
X7220695Y-5180875D01*
%TD*%
%TO.C,C17*%
X10718200Y-5889000D02*
X10718200Y-6049000D01*
X10878200Y-6049000D01*
X10878200Y-5889000D01*
X10718200Y-5889000D01*
X11078200Y-5969000D02*
G75*
G03*
X11078200Y-5969000I-80000J0D01*
G01*
%TD*%
D14*
%TO.C,R22*%
D13*
X4456500Y-3623250D02*
X4446933Y-3621347D01*
X4438822Y-3615928D01*
X4433403Y-3607817D01*
X4431500Y-3598250D01*
X4431500Y-3535750D01*
X4433403Y-3526183D01*
X4438822Y-3518072D01*
X4446933Y-3512653D01*
X4456500Y-3510750D01*
X4581500Y-3510750D01*
X4591067Y-3512653D01*
X4599178Y-3518072D01*
X4604597Y-3526183D01*
X4606500Y-3535750D01*
X4606500Y-3598250D01*
X4604597Y-3607817D01*
X4599178Y-3615928D01*
X4591067Y-3621347D01*
X4581500Y-3623250D01*
X4456500Y-3623250D01*
D14*
D13*
X4456500Y-3330750D02*
X4446933Y-3328847D01*
X4438822Y-3323428D01*
X4433403Y-3315317D01*
X4431500Y-3305750D01*
X4431500Y-3243250D01*
X4433403Y-3233683D01*
X4438822Y-3225572D01*
X4446933Y-3220153D01*
X4456500Y-3218250D01*
X4581500Y-3218250D01*
X4591067Y-3220153D01*
X4599178Y-3225572D01*
X4604597Y-3233683D01*
X4606500Y-3243250D01*
X4606500Y-3305750D01*
X4604597Y-3315317D01*
X4599178Y-3323428D01*
X4591067Y-3328847D01*
X4581500Y-3330750D01*
X4456500Y-3330750D01*
%TD*%
D14*
%TO.C,C11*%
D13*
X5385000Y-3342000D02*
X5394567Y-3343903D01*
X5402678Y-3349322D01*
X5408097Y-3357433D01*
X5410000Y-3367000D01*
X5410000Y-3432000D01*
X5408097Y-3441567D01*
X5402678Y-3449678D01*
X5394567Y-3455097D01*
X5385000Y-3457000D01*
X5255000Y-3457000D01*
X5245433Y-3455097D01*
X5237322Y-3449678D01*
X5231903Y-3441567D01*
X5230000Y-3432000D01*
X5230000Y-3367000D01*
X5231903Y-3357433D01*
X5237322Y-3349322D01*
X5245433Y-3343903D01*
X5255000Y-3342000D01*
X5385000Y-3342000D01*
D14*
D13*
X5385000Y-3637000D02*
X5394567Y-3638903D01*
X5402678Y-3644322D01*
X5408097Y-3652433D01*
X5410000Y-3662000D01*
X5410000Y-3727000D01*
X5408097Y-3736567D01*
X5402678Y-3744678D01*
X5394567Y-3750097D01*
X5385000Y-3752000D01*
X5255000Y-3752000D01*
X5245433Y-3750097D01*
X5237322Y-3744678D01*
X5231903Y-3736567D01*
X5230000Y-3727000D01*
X5230000Y-3662000D01*
X5231903Y-3652433D01*
X5237322Y-3644322D01*
X5245433Y-3638903D01*
X5255000Y-3637000D01*
X5385000Y-3637000D01*
%TD*%
D14*
%TO.C,C20*%
D13*
X8581000Y-5784000D02*
X8590567Y-5785903D01*
X8598678Y-5791322D01*
X8604097Y-5799433D01*
X8606000Y-5809000D01*
X8606000Y-5891500D01*
X8604097Y-5901067D01*
X8598678Y-5909178D01*
X8590567Y-5914597D01*
X8581000Y-5916500D01*
X8451000Y-5916500D01*
X8441433Y-5914597D01*
X8433322Y-5909178D01*
X8427903Y-5901067D01*
X8426000Y-5891500D01*
X8426000Y-5809000D01*
X8427903Y-5799433D01*
X8433322Y-5791322D01*
X8441433Y-5785903D01*
X8451000Y-5784000D01*
X8581000Y-5784000D01*
D14*
D13*
X8581000Y-6096500D02*
X8590567Y-6098403D01*
X8598678Y-6103822D01*
X8604097Y-6111933D01*
X8606000Y-6121500D01*
X8606000Y-6204000D01*
X8604097Y-6213567D01*
X8598678Y-6221678D01*
X8590567Y-6227097D01*
X8581000Y-6229000D01*
X8451000Y-6229000D01*
X8441433Y-6227097D01*
X8433322Y-6221678D01*
X8427903Y-6213567D01*
X8426000Y-6204000D01*
X8426000Y-6121500D01*
X8427903Y-6111933D01*
X8433322Y-6103822D01*
X8441433Y-6098403D01*
X8451000Y-6096500D01*
X8581000Y-6096500D01*
%TD*%
%TO.C,C18*%
X10240000Y-6171000D02*
X10240000Y-6291000D01*
X10360000Y-6291000D01*
X10360000Y-6171000D01*
X10240000Y-6171000D01*
X10160000Y-6231000D02*
G75*
G03*
X10160000Y-6231000I-60000J0D01*
G01*
%TD*%
%TO.C,C12*%
X10591000Y-4351000D02*
X10591000Y-4511000D01*
X10751000Y-4511000D01*
X10751000Y-4351000D01*
X10591000Y-4351000D01*
X11131000Y-4431000D02*
G75*
G03*
X11131000Y-4431000I-80000J0D01*
G01*
%TD*%
%TO.C,C13*%
X10591000Y-5191000D02*
X10591000Y-5351000D01*
X10751000Y-5351000D01*
X10751000Y-5191000D01*
X10591000Y-5191000D01*
X11131000Y-5271000D02*
G75*
G03*
X11131000Y-5271000I-80000J0D01*
G01*
%TD*%
D14*
%TO.C,R26*%
D13*
X7512750Y-4941500D02*
X7510847Y-4951067D01*
X7505428Y-4959178D01*
X7497317Y-4964597D01*
X7487750Y-4966500D01*
X7425250Y-4966500D01*
X7415683Y-4964597D01*
X7407572Y-4959178D01*
X7402153Y-4951067D01*
X7400250Y-4941500D01*
X7400250Y-4816500D01*
X7402153Y-4806933D01*
X7407572Y-4798822D01*
X7415683Y-4793403D01*
X7425250Y-4791500D01*
X7487750Y-4791500D01*
X7497317Y-4793403D01*
X7505428Y-4798822D01*
X7510847Y-4806933D01*
X7512750Y-4816500D01*
X7512750Y-4941500D01*
D14*
D13*
X7220250Y-4941500D02*
X7218347Y-4951067D01*
X7212928Y-4959178D01*
X7204817Y-4964597D01*
X7195250Y-4966500D01*
X7132750Y-4966500D01*
X7123183Y-4964597D01*
X7115072Y-4959178D01*
X7109653Y-4951067D01*
X7107750Y-4941500D01*
X7107750Y-4816500D01*
X7109653Y-4806933D01*
X7115072Y-4798822D01*
X7123183Y-4793403D01*
X7132750Y-4791500D01*
X7195250Y-4791500D01*
X7204817Y-4793403D01*
X7212928Y-4798822D01*
X7218347Y-4806933D01*
X7220250Y-4816500D01*
X7220250Y-4941500D01*
%TD*%
%TO.C,C26*%
X3620000Y-4410000D02*
G75*
G03*
X3620000Y-4410000I-80000J0D01*
G01*
X3870000Y-4410000D02*
G75*
G03*
X3870000Y-4410000I-80000J0D01*
G01*
%TD*%
%TO.C,C7*%
X10246740Y-3495000D02*
X10246740Y-3615000D01*
X10366740Y-3615000D01*
X10366740Y-3495000D01*
X10246740Y-3495000D01*
X10166740Y-3555000D02*
G75*
G03*
X10166740Y-3555000I-60000J0D01*
G01*
%TD*%
D14*
%TO.C,C19*%
D13*
X7613000Y-5802250D02*
X7622567Y-5804153D01*
X7630678Y-5809572D01*
X7636097Y-5817683D01*
X7638000Y-5827250D01*
X7638000Y-5909750D01*
X7636097Y-5919317D01*
X7630678Y-5927428D01*
X7622567Y-5932847D01*
X7613000Y-5934750D01*
X7483000Y-5934750D01*
X7473433Y-5932847D01*
X7465322Y-5927428D01*
X7459903Y-5919317D01*
X7458000Y-5909750D01*
X7458000Y-5827250D01*
X7459903Y-5817683D01*
X7465322Y-5809572D01*
X7473433Y-5804153D01*
X7483000Y-5802250D01*
X7613000Y-5802250D01*
D14*
D13*
X7613000Y-6114750D02*
X7622567Y-6116653D01*
X7630678Y-6122072D01*
X7636097Y-6130183D01*
X7638000Y-6139750D01*
X7638000Y-6222250D01*
X7636097Y-6231817D01*
X7630678Y-6239928D01*
X7622567Y-6245347D01*
X7613000Y-6247250D01*
X7483000Y-6247250D01*
X7473433Y-6245347D01*
X7465322Y-6239928D01*
X7459903Y-6231817D01*
X7458000Y-6222250D01*
X7458000Y-6139750D01*
X7459903Y-6130183D01*
X7465322Y-6122072D01*
X7473433Y-6116653D01*
X7483000Y-6114750D01*
X7613000Y-6114750D01*
%TD*%
%TO.C,C6*%
X10691760Y-3725000D02*
X10691760Y-3845000D01*
X10811760Y-3845000D01*
X10811760Y-3725000D01*
X10691760Y-3725000D01*
X11011760Y-3785000D02*
G75*
G03*
X11011760Y-3785000I-60000J0D01*
G01*
%TD*%
D14*
%TO.C,C22*%
D13*
X4175000Y-4160500D02*
X4165433Y-4158597D01*
X4157322Y-4153178D01*
X4151903Y-4145067D01*
X4150000Y-4135500D01*
X4150000Y-4070500D01*
X4151903Y-4060933D01*
X4157322Y-4052822D01*
X4165433Y-4047403D01*
X4175000Y-4045500D01*
X4305000Y-4045500D01*
X4314567Y-4047403D01*
X4322678Y-4052822D01*
X4328097Y-4060933D01*
X4330000Y-4070500D01*
X4330000Y-4135500D01*
X4328097Y-4145067D01*
X4322678Y-4153178D01*
X4314567Y-4158597D01*
X4305000Y-4160500D01*
X4175000Y-4160500D01*
D14*
D13*
X4175000Y-3865500D02*
X4165433Y-3863597D01*
X4157322Y-3858178D01*
X4151903Y-3850067D01*
X4150000Y-3840500D01*
X4150000Y-3775500D01*
X4151903Y-3765933D01*
X4157322Y-3757822D01*
X4165433Y-3752403D01*
X4175000Y-3750500D01*
X4305000Y-3750500D01*
X4314567Y-3752403D01*
X4322678Y-3757822D01*
X4328097Y-3765933D01*
X4330000Y-3775500D01*
X4330000Y-3840500D01*
X4328097Y-3850067D01*
X4322678Y-3858178D01*
X4314567Y-3863597D01*
X4305000Y-3865500D01*
X4175000Y-3865500D01*
%TD*%
%TO.C,C9*%
X7422000Y-3045000D02*
X7422000Y-3205000D01*
X7582000Y-3205000D01*
X7582000Y-3045000D01*
X7422000Y-3045000D01*
X7382000Y-3125000D02*
G75*
G03*
X7382000Y-3125000I-80000J0D01*
G01*
%TD*%
D14*
%TO.C,C10*%
D13*
X5144000Y-3348000D02*
X5153567Y-3349903D01*
X5161678Y-3355322D01*
X5167097Y-3363433D01*
X5169000Y-3373000D01*
X5169000Y-3438000D01*
X5167097Y-3447567D01*
X5161678Y-3455678D01*
X5153567Y-3461097D01*
X5144000Y-3463000D01*
X5014000Y-3463000D01*
X5004433Y-3461097D01*
X4996322Y-3455678D01*
X4990903Y-3447567D01*
X4989000Y-3438000D01*
X4989000Y-3373000D01*
X4990903Y-3363433D01*
X4996322Y-3355322D01*
X5004433Y-3349903D01*
X5014000Y-3348000D01*
X5144000Y-3348000D01*
D14*
D13*
X5144000Y-3643000D02*
X5153567Y-3644903D01*
X5161678Y-3650322D01*
X5167097Y-3658433D01*
X5169000Y-3668000D01*
X5169000Y-3733000D01*
X5167097Y-3742567D01*
X5161678Y-3750678D01*
X5153567Y-3756097D01*
X5144000Y-3758000D01*
X5014000Y-3758000D01*
X5004433Y-3756097D01*
X4996322Y-3750678D01*
X4990903Y-3742567D01*
X4989000Y-3733000D01*
X4989000Y-3668000D01*
X4990903Y-3658433D01*
X4996322Y-3650322D01*
X5004433Y-3644903D01*
X5014000Y-3643000D01*
X5144000Y-3643000D01*
%TD*%
D14*
%TO.C,R25*%
D13*
X7982695Y-5181500D02*
X7980792Y-5191067D01*
X7975373Y-5199178D01*
X7967262Y-5204597D01*
X7957695Y-5206500D01*
X7895195Y-5206500D01*
X7885628Y-5204597D01*
X7877518Y-5199178D01*
X7872098Y-5191067D01*
X7870195Y-5181500D01*
X7870195Y-5056500D01*
X7872098Y-5046933D01*
X7877518Y-5038822D01*
X7885628Y-5033403D01*
X7895195Y-5031500D01*
X7957695Y-5031500D01*
X7967262Y-5033403D01*
X7975373Y-5038822D01*
X7980792Y-5046933D01*
X7982695Y-5056500D01*
X7982695Y-5181500D01*
D14*
D13*
X7690195Y-5181500D02*
X7688292Y-5191067D01*
X7682873Y-5199178D01*
X7674762Y-5204597D01*
X7665195Y-5206500D01*
X7602695Y-5206500D01*
X7593128Y-5204597D01*
X7585018Y-5199178D01*
X7579598Y-5191067D01*
X7577695Y-5181500D01*
X7577695Y-5056500D01*
X7579598Y-5046933D01*
X7585018Y-5038822D01*
X7593128Y-5033403D01*
X7602695Y-5031500D01*
X7665195Y-5031500D01*
X7674762Y-5033403D01*
X7682873Y-5038822D01*
X7688292Y-5046933D01*
X7690195Y-5056500D01*
X7690195Y-5181500D01*
%TD*%
D14*
%TO.C,D9*%
D13*
X5671500Y-2532500D02*
X5669597Y-2542067D01*
X5664178Y-2550178D01*
X5656067Y-2555597D01*
X5646500Y-2557500D01*
X5571500Y-2557500D01*
X5561933Y-2555597D01*
X5553822Y-2550178D01*
X5548403Y-2542067D01*
X5546500Y-2532500D01*
X5546500Y-2407500D01*
X5548403Y-2397933D01*
X5553822Y-2389822D01*
X5561933Y-2384403D01*
X5571500Y-2382500D01*
X5646500Y-2382500D01*
X5656067Y-2384403D01*
X5664178Y-2389822D01*
X5669597Y-2397933D01*
X5671500Y-2407500D01*
X5671500Y-2532500D01*
D14*
D13*
X5391500Y-2532500D02*
X5389597Y-2542067D01*
X5384178Y-2550178D01*
X5376067Y-2555597D01*
X5366500Y-2557500D01*
X5291500Y-2557500D01*
X5281933Y-2555597D01*
X5273822Y-2550178D01*
X5268403Y-2542067D01*
X5266500Y-2532500D01*
X5266500Y-2407500D01*
X5268403Y-2397933D01*
X5273822Y-2389822D01*
X5281933Y-2384403D01*
X5291500Y-2382500D01*
X5366500Y-2382500D01*
X5376067Y-2384403D01*
X5384178Y-2389822D01*
X5389597Y-2397933D01*
X5391500Y-2407500D01*
X5391500Y-2532500D01*
%TD*%
D14*
%TO.C,U6*%
D13*
X8282125Y-6472000D02*
X8276385Y-6470858D01*
X8271518Y-6467607D01*
X8268267Y-6462740D01*
X8267125Y-6457000D01*
X8267125Y-6292000D01*
X8268267Y-6286260D01*
X8271518Y-6281393D01*
X8276385Y-6278142D01*
X8282125Y-6277000D01*
X8312125Y-6277000D01*
X8317865Y-6278142D01*
X8322732Y-6281393D01*
X8325983Y-6286260D01*
X8327125Y-6292000D01*
X8327125Y-6457000D01*
X8325983Y-6462740D01*
X8322732Y-6467607D01*
X8317865Y-6470858D01*
X8312125Y-6472000D01*
X8282125Y-6472000D01*
D14*
D13*
X8155125Y-6472000D02*
X8149385Y-6470858D01*
X8144518Y-6467607D01*
X8141267Y-6462740D01*
X8140125Y-6457000D01*
X8140125Y-6292000D01*
X8141267Y-6286260D01*
X8144518Y-6281393D01*
X8149385Y-6278142D01*
X8155125Y-6277000D01*
X8185125Y-6277000D01*
X8190865Y-6278142D01*
X8195732Y-6281393D01*
X8198983Y-6286260D01*
X8200125Y-6292000D01*
X8200125Y-6457000D01*
X8198983Y-6462740D01*
X8195732Y-6467607D01*
X8190865Y-6470858D01*
X8185125Y-6472000D01*
X8155125Y-6472000D01*
D14*
D13*
X8028125Y-6472000D02*
X8022385Y-6470858D01*
X8017518Y-6467607D01*
X8014267Y-6462740D01*
X8013125Y-6457000D01*
X8013125Y-6292000D01*
X8014267Y-6286260D01*
X8017518Y-6281393D01*
X8022385Y-6278142D01*
X8028125Y-6277000D01*
X8058125Y-6277000D01*
X8063865Y-6278142D01*
X8068732Y-6281393D01*
X8071983Y-6286260D01*
X8073125Y-6292000D01*
X8073125Y-6457000D01*
X8071983Y-6462740D01*
X8068732Y-6467607D01*
X8063865Y-6470858D01*
X8058125Y-6472000D01*
X8028125Y-6472000D01*
D14*
D13*
X7901125Y-6472000D02*
X7895385Y-6470858D01*
X7890518Y-6467607D01*
X7887267Y-6462740D01*
X7886125Y-6457000D01*
X7886125Y-6292000D01*
X7887267Y-6286260D01*
X7890518Y-6281393D01*
X7895385Y-6278142D01*
X7901125Y-6277000D01*
X7931125Y-6277000D01*
X7936865Y-6278142D01*
X7941732Y-6281393D01*
X7944983Y-6286260D01*
X7946125Y-6292000D01*
X7946125Y-6457000D01*
X7944983Y-6462740D01*
X7941732Y-6467607D01*
X7936865Y-6470858D01*
X7931125Y-6472000D01*
X7901125Y-6472000D01*
D14*
D13*
X7901125Y-5977000D02*
X7895385Y-5975858D01*
X7890518Y-5972607D01*
X7887267Y-5967740D01*
X7886125Y-5962000D01*
X7886125Y-5797000D01*
X7887267Y-5791260D01*
X7890518Y-5786393D01*
X7895385Y-5783142D01*
X7901125Y-5782000D01*
X7931125Y-5782000D01*
X7936865Y-5783142D01*
X7941732Y-5786393D01*
X7944983Y-5791260D01*
X7946125Y-5797000D01*
X7946125Y-5962000D01*
X7944983Y-5967740D01*
X7941732Y-5972607D01*
X7936865Y-5975858D01*
X7931125Y-5977000D01*
X7901125Y-5977000D01*
D14*
D13*
X8028125Y-5977000D02*
X8022385Y-5975858D01*
X8017518Y-5972607D01*
X8014267Y-5967740D01*
X8013125Y-5962000D01*
X8013125Y-5797000D01*
X8014267Y-5791260D01*
X8017518Y-5786393D01*
X8022385Y-5783142D01*
X8028125Y-5782000D01*
X8058125Y-5782000D01*
X8063865Y-5783142D01*
X8068732Y-5786393D01*
X8071983Y-5791260D01*
X8073125Y-5797000D01*
X8073125Y-5962000D01*
X8071983Y-5967740D01*
X8068732Y-5972607D01*
X8063865Y-5975858D01*
X8058125Y-5977000D01*
X8028125Y-5977000D01*
D14*
D13*
X8155125Y-5977000D02*
X8149385Y-5975858D01*
X8144518Y-5972607D01*
X8141267Y-5967740D01*
X8140125Y-5962000D01*
X8140125Y-5797000D01*
X8141267Y-5791260D01*
X8144518Y-5786393D01*
X8149385Y-5783142D01*
X8155125Y-5782000D01*
X8185125Y-5782000D01*
X8190865Y-5783142D01*
X8195732Y-5786393D01*
X8198983Y-5791260D01*
X8200125Y-5797000D01*
X8200125Y-5962000D01*
X8198983Y-5967740D01*
X8195732Y-5972607D01*
X8190865Y-5975858D01*
X8185125Y-5977000D01*
X8155125Y-5977000D01*
D14*
D13*
X8282125Y-5977000D02*
X8276385Y-5975858D01*
X8271518Y-5972607D01*
X8268267Y-5967740D01*
X8267125Y-5962000D01*
X8267125Y-5797000D01*
X8268267Y-5791260D01*
X8271518Y-5786393D01*
X8276385Y-5783142D01*
X8282125Y-5782000D01*
X8312125Y-5782000D01*
X8317865Y-5783142D01*
X8322732Y-5786393D01*
X8325983Y-5791260D01*
X8327125Y-5797000D01*
X8327125Y-5962000D01*
X8325983Y-5967740D01*
X8322732Y-5972607D01*
X8317865Y-5975858D01*
X8312125Y-5977000D01*
X8282125Y-5977000D01*
%TD*%
D14*
%TO.C,D8*%
D13*
X5126500Y-2759500D02*
X5124597Y-2769067D01*
X5119178Y-2777178D01*
X5111067Y-2782597D01*
X5101500Y-2784500D01*
X5026500Y-2784500D01*
X5016933Y-2782597D01*
X5008822Y-2777178D01*
X5003403Y-2769067D01*
X5001500Y-2759500D01*
X5001500Y-2634500D01*
X5003403Y-2624933D01*
X5008822Y-2616822D01*
X5016933Y-2611403D01*
X5026500Y-2609500D01*
X5101500Y-2609500D01*
X5111067Y-2611403D01*
X5119178Y-2616822D01*
X5124597Y-2624933D01*
X5126500Y-2634500D01*
X5126500Y-2759500D01*
D14*
D13*
X4846500Y-2759500D02*
X4844597Y-2769067D01*
X4839178Y-2777178D01*
X4831067Y-2782597D01*
X4821500Y-2784500D01*
X4746500Y-2784500D01*
X4736933Y-2782597D01*
X4728822Y-2777178D01*
X4723403Y-2769067D01*
X4721500Y-2759500D01*
X4721500Y-2634500D01*
X4723403Y-2624933D01*
X4728822Y-2616822D01*
X4736933Y-2611403D01*
X4746500Y-2609500D01*
X4821500Y-2609500D01*
X4831067Y-2611403D01*
X4839178Y-2616822D01*
X4844597Y-2624933D01*
X4846500Y-2634500D01*
X4846500Y-2759500D01*
%TD*%
%TO.C,L2*%
X5092000Y-2142000D02*
G75*
G03*
X5092000Y-2142000I-100000J0D01*
G01*
X5492000Y-2142000D02*
G75*
G03*
X5492000Y-2142000I-100000J0D01*
G01*
%TD*%
%TO.C,U7*%
X4514000Y-3908597D02*
X4514000Y-4028597D01*
X4554000Y-4028597D01*
X4554000Y-3908597D01*
X4514000Y-3908597D01*
X4577500Y-3908597D02*
X4577500Y-4028597D01*
X4617500Y-4028597D01*
X4617500Y-3908597D01*
X4577500Y-3908597D01*
X4641000Y-3908597D02*
X4641000Y-4028597D01*
X4681000Y-4028597D01*
X4681000Y-3908597D01*
X4641000Y-3908597D01*
X4704500Y-3908597D02*
X4704500Y-4028597D01*
X4744500Y-4028597D01*
X4744500Y-3908597D01*
X4704500Y-3908597D01*
X4768000Y-3908597D02*
X4768000Y-4028597D01*
X4808000Y-4028597D01*
X4808000Y-3908597D01*
X4768000Y-3908597D01*
X4831500Y-3908597D02*
X4831500Y-4028597D01*
X4871500Y-4028597D01*
X4871500Y-3908597D01*
X4831500Y-3908597D01*
X4895000Y-3908597D02*
X4895000Y-4028597D01*
X4935000Y-4028597D01*
X4935000Y-3908597D01*
X4895000Y-3908597D01*
X4958500Y-3908597D02*
X4958500Y-4028597D01*
X4998500Y-4028597D01*
X4998500Y-3908597D01*
X4958500Y-3908597D01*
X5022000Y-3908597D02*
X5022000Y-4028597D01*
X5062000Y-4028597D01*
X5062000Y-3908597D01*
X5022000Y-3908597D01*
X5085500Y-3908597D02*
X5085500Y-4028597D01*
X5125500Y-4028597D01*
X5125500Y-3908597D01*
X5085500Y-3908597D01*
X5149000Y-3908597D02*
X5149000Y-4028597D01*
X5189000Y-4028597D01*
X5189000Y-3908597D01*
X5149000Y-3908597D01*
X5212500Y-3908597D02*
X5212500Y-4028597D01*
X5252500Y-4028597D01*
X5252500Y-3908597D01*
X5212500Y-3908597D01*
X5212500Y-4428597D02*
X5212500Y-4548597D01*
X5252500Y-4548597D01*
X5252500Y-4428597D01*
X5212500Y-4428597D01*
X5149000Y-4428597D02*
X5149000Y-4548597D01*
X5189000Y-4548597D01*
X5189000Y-4428597D01*
X5149000Y-4428597D01*
X5085500Y-4428597D02*
X5085500Y-4548597D01*
X5125500Y-4548597D01*
X5125500Y-4428597D01*
X5085500Y-4428597D01*
X5022000Y-4428597D02*
X5022000Y-4548597D01*
X5062000Y-4548597D01*
X5062000Y-4428597D01*
X5022000Y-4428597D01*
X4958500Y-4428597D02*
X4958500Y-4548597D01*
X4998500Y-4548597D01*
X4998500Y-4428597D01*
X4958500Y-4428597D01*
X4895000Y-4428597D02*
X4895000Y-4548597D01*
X4935000Y-4548597D01*
X4935000Y-4428597D01*
X4895000Y-4428597D01*
X4831500Y-4428597D02*
X4831500Y-4548597D01*
X4871500Y-4548597D01*
X4871500Y-4428597D01*
X4831500Y-4428597D01*
X4768000Y-4428597D02*
X4768000Y-4548597D01*
X4808000Y-4548597D01*
X4808000Y-4428597D01*
X4768000Y-4428597D01*
X4704500Y-4428597D02*
X4704500Y-4548597D01*
X4744500Y-4548597D01*
X4744500Y-4428597D01*
X4704500Y-4428597D01*
X4641000Y-4428597D02*
X4641000Y-4548597D01*
X4681000Y-4548597D01*
X4681000Y-4428597D01*
X4641000Y-4428597D01*
X4577500Y-4428597D02*
X4577500Y-4548597D01*
X4617500Y-4548597D01*
X4617500Y-4428597D01*
X4577500Y-4428597D01*
X4514000Y-4428597D02*
X4514000Y-4548597D01*
X4554000Y-4548597D01*
X4554000Y-4428597D01*
X4514000Y-4428597D01*
%TD*%
D14*
%TO.C,R23*%
D13*
X7982750Y-4940500D02*
X7980847Y-4950067D01*
X7975428Y-4958178D01*
X7967317Y-4963597D01*
X7957750Y-4965500D01*
X7895250Y-4965500D01*
X7885683Y-4963597D01*
X7877572Y-4958178D01*
X7872153Y-4950067D01*
X7870250Y-4940500D01*
X7870250Y-4815500D01*
X7872153Y-4805933D01*
X7877572Y-4797822D01*
X7885683Y-4792403D01*
X7895250Y-4790500D01*
X7957750Y-4790500D01*
X7967317Y-4792403D01*
X7975428Y-4797822D01*
X7980847Y-4805933D01*
X7982750Y-4815500D01*
X7982750Y-4940500D01*
D14*
D13*
X7690250Y-4940500D02*
X7688347Y-4950067D01*
X7682928Y-4958178D01*
X7674817Y-4963597D01*
X7665250Y-4965500D01*
X7602750Y-4965500D01*
X7593183Y-4963597D01*
X7585072Y-4958178D01*
X7579653Y-4950067D01*
X7577750Y-4940500D01*
X7577750Y-4815500D01*
X7579653Y-4805933D01*
X7585072Y-4797822D01*
X7593183Y-4792403D01*
X7602750Y-4790500D01*
X7665250Y-4790500D01*
X7674817Y-4792403D01*
X7682928Y-4797822D01*
X7688347Y-4805933D01*
X7690250Y-4815500D01*
X7690250Y-4940500D01*
%TD*%
%TO.C,C5*%
X9257520Y-3060989D02*
X9257520Y-3220989D01*
X9417520Y-3220989D01*
X9417520Y-3060989D01*
X9257520Y-3060989D01*
X9617520Y-3140989D02*
G75*
G03*
X9617520Y-3140989I-80000J0D01*
G01*
%TD*%
%TO.C,Y1*%
X3858000Y-4104000D02*
G75*
G03*
X3858000Y-4104000I-50000J0D01*
G01*
X4048000Y-4104000D02*
G75*
G03*
X4048000Y-4104000I-50000J0D01*
G01*
%TD*%
D14*
%TO.C,C21*%
D13*
X3974500Y-4488000D02*
X3976403Y-4478433D01*
X3981822Y-4470322D01*
X3989933Y-4464903D01*
X3999500Y-4463000D01*
X4064500Y-4463000D01*
X4074067Y-4464903D01*
X4082178Y-4470322D01*
X4087597Y-4478433D01*
X4089500Y-4488000D01*
X4089500Y-4618000D01*
X4087597Y-4627567D01*
X4082178Y-4635678D01*
X4074067Y-4641097D01*
X4064500Y-4643000D01*
X3999500Y-4643000D01*
X3989933Y-4641097D01*
X3981822Y-4635678D01*
X3976403Y-4627567D01*
X3974500Y-4618000D01*
X3974500Y-4488000D01*
D14*
D13*
X4269500Y-4488000D02*
X4271403Y-4478433D01*
X4276822Y-4470322D01*
X4284933Y-4464903D01*
X4294500Y-4463000D01*
X4359500Y-4463000D01*
X4369067Y-4464903D01*
X4377178Y-4470322D01*
X4382597Y-4478433D01*
X4384500Y-4488000D01*
X4384500Y-4618000D01*
X4382597Y-4627567D01*
X4377178Y-4635678D01*
X4369067Y-4641097D01*
X4359500Y-4643000D01*
X4294500Y-4643000D01*
X4284933Y-4641097D01*
X4276822Y-4635678D01*
X4271403Y-4627567D01*
X4269500Y-4618000D01*
X4269500Y-4488000D01*
%TD*%
D14*
%TO.C,C25*%
D13*
X3497000Y-4160000D02*
X3487433Y-4158097D01*
X3479322Y-4152678D01*
X3473903Y-4144567D01*
X3472000Y-4135000D01*
X3472000Y-4070000D01*
X3473903Y-4060433D01*
X3479322Y-4052322D01*
X3487433Y-4046903D01*
X3497000Y-4045000D01*
X3627000Y-4045000D01*
X3636567Y-4046903D01*
X3644678Y-4052322D01*
X3650097Y-4060433D01*
X3652000Y-4070000D01*
X3652000Y-4135000D01*
X3650097Y-4144567D01*
X3644678Y-4152678D01*
X3636567Y-4158097D01*
X3627000Y-4160000D01*
X3497000Y-4160000D01*
D14*
D13*
X3497000Y-3865000D02*
X3487433Y-3863097D01*
X3479322Y-3857678D01*
X3473903Y-3849567D01*
X3472000Y-3840000D01*
X3472000Y-3775000D01*
X3473903Y-3765433D01*
X3479322Y-3757322D01*
X3487433Y-3751903D01*
X3497000Y-3750000D01*
X3627000Y-3750000D01*
X3636567Y-3751903D01*
X3644678Y-3757322D01*
X3650097Y-3765433D01*
X3652000Y-3775000D01*
X3652000Y-3840000D01*
X3650097Y-3849567D01*
X3644678Y-3857678D01*
X3636567Y-3863097D01*
X3627000Y-3865000D01*
X3497000Y-3865000D01*
%TD*%
D14*
%TO.C,C16*%
D13*
X10099740Y-3830500D02*
X10109307Y-3832403D01*
X10117418Y-3837822D01*
X10122837Y-3845933D01*
X10124740Y-3855500D01*
X10124740Y-3920500D01*
X10122837Y-3930067D01*
X10117418Y-3938178D01*
X10109307Y-3943597D01*
X10099740Y-3945500D01*
X9969740Y-3945500D01*
X9960173Y-3943597D01*
X9952062Y-3938178D01*
X9946643Y-3930067D01*
X9944740Y-3920500D01*
X9944740Y-3855500D01*
X9946643Y-3845933D01*
X9952062Y-3837822D01*
X9960173Y-3832403D01*
X9969740Y-3830500D01*
X10099740Y-3830500D01*
D14*
D13*
X10099740Y-4125500D02*
X10109307Y-4127403D01*
X10117418Y-4132822D01*
X10122837Y-4140933D01*
X10124740Y-4150500D01*
X10124740Y-4215500D01*
X10122837Y-4225067D01*
X10117418Y-4233178D01*
X10109307Y-4238597D01*
X10099740Y-4240500D01*
X9969740Y-4240500D01*
X9960173Y-4238597D01*
X9952062Y-4233178D01*
X9946643Y-4225067D01*
X9944740Y-4215500D01*
X9944740Y-4150500D01*
X9946643Y-4140933D01*
X9952062Y-4132822D01*
X9960173Y-4127403D01*
X9969740Y-4125500D01*
X10099740Y-4125500D01*
%TD*%
D14*
%TO.C,C15*%
D13*
X10102000Y-4336500D02*
X10111567Y-4338403D01*
X10119678Y-4343822D01*
X10125097Y-4351933D01*
X10127000Y-4361500D01*
X10127000Y-4426500D01*
X10125097Y-4436067D01*
X10119678Y-4444178D01*
X10111567Y-4449597D01*
X10102000Y-4451500D01*
X9972000Y-4451500D01*
X9962433Y-4449597D01*
X9954322Y-4444178D01*
X9948903Y-4436067D01*
X9947000Y-4426500D01*
X9947000Y-4361500D01*
X9948903Y-4351933D01*
X9954322Y-4343822D01*
X9962433Y-4338403D01*
X9972000Y-4336500D01*
X10102000Y-4336500D01*
D14*
D13*
X10102000Y-4631500D02*
X10111567Y-4633403D01*
X10119678Y-4638822D01*
X10125097Y-4646933D01*
X10127000Y-4656500D01*
X10127000Y-4721500D01*
X10125097Y-4731067D01*
X10119678Y-4739178D01*
X10111567Y-4744597D01*
X10102000Y-4746500D01*
X9972000Y-4746500D01*
X9962433Y-4744597D01*
X9954322Y-4739178D01*
X9948903Y-4731067D01*
X9947000Y-4721500D01*
X9947000Y-4656500D01*
X9948903Y-4646933D01*
X9954322Y-4638822D01*
X9962433Y-4633403D01*
X9972000Y-4631500D01*
X10102000Y-4631500D01*
%TD*%
D14*
%TO.C,R21*%
D13*
X4683500Y-3623250D02*
X4673933Y-3621347D01*
X4665822Y-3615928D01*
X4660403Y-3607817D01*
X4658500Y-3598250D01*
X4658500Y-3535750D01*
X4660403Y-3526183D01*
X4665822Y-3518072D01*
X4673933Y-3512653D01*
X4683500Y-3510750D01*
X4808500Y-3510750D01*
X4818067Y-3512653D01*
X4826178Y-3518072D01*
X4831597Y-3526183D01*
X4833500Y-3535750D01*
X4833500Y-3598250D01*
X4831597Y-3607817D01*
X4826178Y-3615928D01*
X4818067Y-3621347D01*
X4808500Y-3623250D01*
X4683500Y-3623250D01*
D14*
D13*
X4683500Y-3330750D02*
X4673933Y-3328847D01*
X4665822Y-3323428D01*
X4660403Y-3315317D01*
X4658500Y-3305750D01*
X4658500Y-3243250D01*
X4660403Y-3233683D01*
X4665822Y-3225572D01*
X4673933Y-3220153D01*
X4683500Y-3218250D01*
X4808500Y-3218250D01*
X4818067Y-3220153D01*
X4826178Y-3225572D01*
X4831597Y-3233683D01*
X4833500Y-3243250D01*
X4833500Y-3305750D01*
X4831597Y-3315317D01*
X4826178Y-3323428D01*
X4818067Y-3328847D01*
X4808500Y-3330750D01*
X4683500Y-3330750D01*
%TD*%
%TO.C,J6*%
X3583000Y-3395000D02*
X3583000Y-3495000D01*
X3683000Y-3495000D01*
X3683000Y-3395000D01*
X3583000Y-3395000D01*
%TD*%
%TO.C,J4*%
X4125500Y-3404000D02*
X4125500Y-3504000D01*
X4225500Y-3504000D01*
X4225500Y-3404000D01*
X4125500Y-3404000D01*
%TD*%
D14*
%TO.C,D7*%
D13*
X5268500Y-2638500D02*
X5270403Y-2628933D01*
X5275822Y-2620822D01*
X5283933Y-2615403D01*
X5293500Y-2613500D01*
X5368500Y-2613500D01*
X5378067Y-2615403D01*
X5386178Y-2620822D01*
X5391597Y-2628933D01*
X5393500Y-2638500D01*
X5393500Y-2763500D01*
X5391597Y-2773067D01*
X5386178Y-2781178D01*
X5378067Y-2786597D01*
X5368500Y-2788500D01*
X5293500Y-2788500D01*
X5283933Y-2786597D01*
X5275822Y-2781178D01*
X5270403Y-2773067D01*
X5268500Y-2763500D01*
X5268500Y-2638500D01*
D14*
D13*
X5548500Y-2638500D02*
X5550403Y-2628933D01*
X5555822Y-2620822D01*
X5563933Y-2615403D01*
X5573500Y-2613500D01*
X5648500Y-2613500D01*
X5658067Y-2615403D01*
X5666178Y-2620822D01*
X5671597Y-2628933D01*
X5673500Y-2638500D01*
X5673500Y-2763500D01*
X5671597Y-2773067D01*
X5666178Y-2781178D01*
X5658067Y-2786597D01*
X5648500Y-2788500D01*
X5573500Y-2788500D01*
X5563933Y-2786597D01*
X5555822Y-2781178D01*
X5550403Y-2773067D01*
X5548500Y-2763500D01*
X5548500Y-2638500D01*
%TD*%
D14*
%TO.C,J3*%
D13*
X4238574Y-2360200D02*
X4237051Y-2367858D01*
X4232713Y-2374350D01*
X4226221Y-2378687D01*
X4218564Y-2380210D01*
X4028584Y-2380210D01*
X4020926Y-2378687D01*
X4014435Y-2374350D01*
X4010097Y-2367858D01*
X4008574Y-2360200D01*
X4008574Y-2170220D01*
X4010097Y-2162563D01*
X4014435Y-2156071D01*
X4020926Y-2151734D01*
X4028584Y-2150210D01*
X4218564Y-2150210D01*
X4226221Y-2151734D01*
X4232713Y-2156071D01*
X4237051Y-2162563D01*
X4238574Y-2170220D01*
X4238574Y-2360200D01*
X4502574Y-2519210D02*
G75*
G03*
X4502574Y-2519210I-125000J0D01*
G01*
X4502574Y-2011210D02*
G75*
G03*
X4502574Y-2011210I-125000J0D01*
G01*
X3994574Y-2519210D02*
G75*
G03*
X3994574Y-2519210I-125000J0D01*
G01*
X3994574Y-2011210D02*
G75*
G03*
X3994574Y-2011210I-125000J0D01*
G01*
%TD*%
D15*
X3555840Y-2268000D02*
G75*
G03*
X3555840Y-2268000I-154840J0D01*
G01*
D16*
X3060000Y-1815000D02*
X11602000Y-1815000D01*
X11602000Y-6713000D01*
X3060000Y-6713000D01*
X3060000Y-1815000D01*
D15*
X11459840Y-6259000D02*
G75*
G03*
X11459840Y-6259000I-154840J0D01*
G01*
X11453840Y-2268000D02*
G75*
G03*
X11453840Y-2268000I-154840J0D01*
G01*
X3567840Y-6261000D02*
G75*
G03*
X3567840Y-6261000I-154840J0D01*
G01*
%TO.C,J5*%
X5787574Y-1812210D02*
X6647574Y-1812210D01*
%TO.C,J3*%
X3693574Y-1815210D02*
X4553574Y-1815210D01*
%TD*%
M02*
