%TF.GenerationSoftware,KiCad,Pcbnew,7.0.1*%
%TF.CreationDate,2024-02-20T22:54:35+00:00*%
%TF.ProjectId,SI4735,53493437-3335-42e6-9b69-6361645f7063,rev?*%
%TF.SameCoordinates,Original*%
%TF.FileFunction,Soldermask,Top*%
%TF.FilePolarity,Negative*%
%FSLAX45Y45*%
G04 Gerber Fmt 4.5, Leading zero omitted, Abs format (unit mm)*
G04 Created by KiCad (PCBNEW 7.0.1) date 2024-02-20 22:54:35*
%MOMM*%
%LPD*%
G01*
G04 APERTURE LIST*
G04 Aperture macros list*
%AMRoundRect*
0 Rectangle with rounded corners*
0 $1 Rounding radius*
0 $2 $3 $4 $5 $6 $7 $8 $9 X,Y pos of 4 corners*
0 Add a 4 corners polygon primitive as box body*
4,1,4,$2,$3,$4,$5,$6,$7,$8,$9,$2,$3,0*
0 Add four circle primitives for the rounded corners*
1,1,$1+$1,$2,$3*
1,1,$1+$1,$4,$5*
1,1,$1+$1,$6,$7*
1,1,$1+$1,$8,$9*
0 Add four rect primitives between the rounded corners*
20,1,$1+$1,$2,$3,$4,$5,0*
20,1,$1+$1,$4,$5,$6,$7,0*
20,1,$1+$1,$6,$7,$8,$9,0*
20,1,$1+$1,$8,$9,$2,$3,0*%
G04 Aperture macros list end*
%ADD10C,1.970668*%
%ADD11C,0.100000*%
%ADD12RoundRect,0.250000X0.412500X0.650000X-0.412500X0.650000X-0.412500X-0.650000X0.412500X-0.650000X0*%
%ADD13RoundRect,0.250000X0.625000X-0.312500X0.625000X0.312500X-0.625000X0.312500X-0.625000X-0.312500X0*%
%ADD14RoundRect,0.150000X-0.150000X0.587500X-0.150000X-0.587500X0.150000X-0.587500X0.150000X0.587500X0*%
%ADD15RoundRect,0.250000X-0.625000X0.375000X-0.625000X-0.375000X0.625000X-0.375000X0.625000X0.375000X0*%
%ADD16RoundRect,0.250000X0.625000X-0.375000X0.625000X0.375000X-0.625000X0.375000X-0.625000X-0.375000X0*%
%ADD17R,1.700000X1.700000*%
%ADD18O,1.700000X1.700000*%
%ADD19RoundRect,0.250000X-0.650000X0.325000X-0.650000X-0.325000X0.650000X-0.325000X0.650000X0.325000X0*%
%ADD20RoundRect,0.250000X-0.412500X-0.650000X0.412500X-0.650000X0.412500X0.650000X-0.412500X0.650000X0*%
%ADD21RoundRect,0.250000X0.312500X0.625000X-0.312500X0.625000X-0.312500X-0.625000X0.312500X-0.625000X0*%
%ADD22R,1.500000X2.000000*%
%ADD23R,3.800000X2.000000*%
%ADD24RoundRect,0.250000X-0.625000X0.312500X-0.625000X-0.312500X0.625000X-0.312500X0.625000X0.312500X0*%
%ADD25R,1.676400X1.676400*%
%ADD26C,2.076400*%
%ADD27C,1.676400*%
%ADD28RoundRect,0.042000X-0.943000X-0.258000X0.943000X-0.258000X0.943000X0.258000X-0.943000X0.258000X0*%
%ADD29C,1.600000*%
%ADD30C,1.700000*%
%ADD31O,1.600000X1.600000*%
%ADD32R,1.600000X1.600000*%
%ADD33RoundRect,0.200100X0.949900X0.949900X-0.949900X0.949900X-0.949900X-0.949900X0.949900X-0.949900X0*%
%ADD34C,2.500000*%
%ADD35R,1.200000X1.200000*%
%ADD36C,1.200000*%
%ADD37C,2.000000*%
%ADD38C,1.000000*%
%ADD39R,1.000000X1.000000*%
%TA.AperFunction,Profile*%
%ADD40C,0.100000*%
%TD*%
%TA.AperFunction,Profile*%
%ADD41C,0.050000*%
%TD*%
G04 APERTURE END LIST*
D10*
X3500533Y-2269933D02*
G75*
G03*
X3500533Y-2269933I-98533J0D01*
G01*
X11393533Y-2270933D02*
G75*
G03*
X11393533Y-2270933I-98533J0D01*
G01*
D11*
X3767000Y-4921000D02*
X4796540Y-4921000D01*
X4796540Y-5069000D01*
X3767000Y-5069000D01*
X3767000Y-4921000D01*
G36*
X3767000Y-4921000D02*
G01*
X4796540Y-4921000D01*
X4796540Y-5069000D01*
X3767000Y-5069000D01*
X3767000Y-4921000D01*
G37*
X3124000Y-2855000D02*
X5942540Y-2855000D01*
X5942540Y-3003000D01*
X3124000Y-3003000D01*
X3124000Y-2855000D01*
G36*
X3124000Y-2855000D02*
G01*
X5942540Y-2855000D01*
X5942540Y-3003000D01*
X3124000Y-3003000D01*
X3124000Y-2855000D01*
G37*
X5799000Y-2855000D02*
X5947000Y-2855000D01*
X5947000Y-3160540D01*
X5799000Y-3160540D01*
X5799000Y-2855000D01*
G36*
X5799000Y-2855000D02*
G01*
X5947000Y-2855000D01*
X5947000Y-3160540D01*
X5799000Y-3160540D01*
X5799000Y-2855000D01*
G37*
X5800000Y-3474500D02*
X5948000Y-3474500D01*
X5948000Y-5069040D01*
X5800000Y-5069040D01*
X5800000Y-3474500D01*
G36*
X5800000Y-3474500D02*
G01*
X5948000Y-3474500D01*
X5948000Y-5069040D01*
X5800000Y-5069040D01*
X5800000Y-3474500D01*
G37*
X4990960Y-4921500D02*
X5949500Y-4921500D01*
X5949500Y-5069500D01*
X4990960Y-5069500D01*
X4990960Y-4921500D01*
G36*
X4990960Y-4921500D02*
G01*
X5949500Y-4921500D01*
X5949500Y-5069500D01*
X4990960Y-5069500D01*
X4990960Y-4921500D01*
G37*
D10*
X11404533Y-6262933D02*
G75*
G03*
X11404533Y-6262933I-98533J0D01*
G01*
D11*
X3126000Y-2854230D02*
X3274000Y-2854230D01*
X3274000Y-5071770D01*
X3126000Y-5071770D01*
X3126000Y-2854230D01*
G36*
X3126000Y-2854230D02*
G01*
X3274000Y-2854230D01*
X3274000Y-5071770D01*
X3126000Y-5071770D01*
X3126000Y-2854230D01*
G37*
X3122460Y-4923000D02*
X3552000Y-4923000D01*
X3552000Y-5071000D01*
X3122460Y-5071000D01*
X3122460Y-4923000D01*
G36*
X3122460Y-4923000D02*
G01*
X3552000Y-4923000D01*
X3552000Y-5071000D01*
X3122460Y-5071000D01*
X3122460Y-4923000D01*
G37*
D10*
X3509533Y-6266000D02*
G75*
G03*
X3509533Y-6266000I-98533J0D01*
G01*
D12*
%TO.C,C1*%
X4587000Y-4575000D03*
X4274500Y-4575000D03*
%TD*%
D13*
%TO.C,R15*%
X7164945Y-5973875D03*
X7164945Y-5681375D03*
%TD*%
%TO.C,R12*%
X6396320Y-5123000D03*
X6396320Y-4830500D03*
%TD*%
D14*
%TO.C,Q3*%
X4433750Y-5810250D03*
X4243750Y-5810250D03*
X4338750Y-5997750D03*
%TD*%
D15*
%TO.C,D4*%
X8693945Y-4862375D03*
X8693945Y-5142375D03*
%TD*%
D16*
%TO.C,D2*%
X8103000Y-2861000D03*
X8103000Y-2581000D03*
%TD*%
D17*
%TO.C,J1*%
X9198000Y-5415000D03*
D18*
X8944000Y-5415000D03*
X8690000Y-5415000D03*
X8436000Y-5415000D03*
X8182000Y-5415000D03*
X7928000Y-5415000D03*
X7674000Y-5415000D03*
X7420000Y-5415000D03*
X7166000Y-5415000D03*
X6912000Y-5415000D03*
X6658000Y-5415000D03*
X6404000Y-5415000D03*
%TD*%
D19*
%TO.C,C3*%
X6325187Y-3772000D03*
X6325187Y-4067000D03*
%TD*%
D15*
%TO.C,D6*%
X9203000Y-4862000D03*
X9203000Y-5142000D03*
%TD*%
D20*
%TO.C,C2*%
X4775000Y-4577000D03*
X5087500Y-4577000D03*
%TD*%
D13*
%TO.C,R20*%
X7929945Y-5973875D03*
X7929945Y-5681375D03*
%TD*%
D21*
%TO.C,R19*%
X7536187Y-4590000D03*
X7243687Y-4590000D03*
%TD*%
D13*
%TO.C,R6*%
X11207000Y-3668500D03*
X11207000Y-3376000D03*
%TD*%
%TO.C,R9*%
X4641000Y-5584500D03*
X4641000Y-5292000D03*
%TD*%
D16*
%TO.C,D1*%
X8419000Y-2867000D03*
X8419000Y-2587000D03*
%TD*%
D22*
%TO.C,U2*%
X8785250Y-2689500D03*
X9015250Y-2689500D03*
D23*
X9015250Y-2059500D03*
D22*
X9245250Y-2689500D03*
%TD*%
D15*
%TO.C,D5*%
X8955945Y-4864375D03*
X8955945Y-5144375D03*
%TD*%
D13*
%TO.C,R8*%
X4075000Y-5474500D03*
X4075000Y-5182000D03*
%TD*%
%TO.C,R18*%
X6648820Y-5122500D03*
X6648820Y-4830000D03*
%TD*%
D24*
%TO.C,R1*%
X8418000Y-2126500D03*
X8418000Y-2419000D03*
%TD*%
%TO.C,R17*%
X6782187Y-3778000D03*
X6782187Y-4070500D03*
%TD*%
%TO.C,R4*%
X9634000Y-2055000D03*
X9634000Y-2347500D03*
%TD*%
%TO.C,R13*%
X6562187Y-3770500D03*
X6562187Y-4063000D03*
%TD*%
D13*
%TO.C,R16*%
X8185945Y-5975875D03*
X8185945Y-5683375D03*
%TD*%
D16*
%TO.C,D3*%
X9635000Y-2793000D03*
X9635000Y-2513000D03*
%TD*%
D13*
%TO.C,R10*%
X4621750Y-6102000D03*
X4621750Y-5809500D03*
%TD*%
%TO.C,R3*%
X11393371Y-3221131D03*
X11393371Y-2928631D03*
%TD*%
%TO.C,R11*%
X6912945Y-5975875D03*
X6912945Y-5683375D03*
%TD*%
D25*
%TO.C,U4*%
X10306000Y-5920000D03*
D26*
X10306000Y-5666000D03*
D27*
X10306000Y-5412000D03*
X10306000Y-5158000D03*
D26*
X10306000Y-4904000D03*
D27*
X10306000Y-4650000D03*
X10306000Y-4396000D03*
X10306000Y-4142000D03*
X10306000Y-3888000D03*
D26*
X9544000Y-3888000D03*
X9544000Y-4142000D03*
X9544000Y-4396000D03*
X9544000Y-4650000D03*
X9544000Y-4904000D03*
X9544000Y-5158000D03*
X9544000Y-5412000D03*
X9544000Y-5666000D03*
X9544000Y-5920000D03*
%TD*%
D14*
%TO.C,Q2*%
X4449000Y-5295250D03*
X4259000Y-5295250D03*
X4354000Y-5482750D03*
%TD*%
D13*
%TO.C,R7*%
X4056750Y-5995750D03*
X4056750Y-5703250D03*
%TD*%
D14*
%TO.C,Q1*%
X11193379Y-2934119D03*
X11003379Y-2934119D03*
X11098379Y-3121619D03*
%TD*%
D22*
%TO.C,U1*%
X7276000Y-2687000D03*
X7506000Y-2687000D03*
D23*
X7506000Y-2057000D03*
D22*
X7736000Y-2687000D03*
%TD*%
D28*
%TO.C,U3*%
X6289687Y-4257000D03*
X6289687Y-4384000D03*
X6289687Y-4511000D03*
X6289687Y-4638000D03*
X6783687Y-4638000D03*
X6783687Y-4511000D03*
X6783687Y-4384000D03*
X6783687Y-4257000D03*
%TD*%
D19*
%TO.C,C4*%
X7066000Y-3772000D03*
X7066000Y-4067000D03*
%TD*%
D24*
%TO.C,R5*%
X10562000Y-3378500D03*
X10562000Y-3671000D03*
%TD*%
D21*
%TO.C,R14*%
X7539687Y-4365000D03*
X7247187Y-4365000D03*
%TD*%
D24*
%TO.C,R2*%
X8105000Y-2127500D03*
X8105000Y-2420000D03*
%TD*%
D29*
%TO.C,C24*%
X3543000Y-4647000D03*
X3793000Y-4647000D03*
%TD*%
D30*
%TO.C,J2*%
X10418417Y-2808500D03*
X10418417Y-2108500D03*
%TD*%
D29*
%TO.C,L1*%
X6832000Y-2265000D03*
D31*
X6832000Y-2773000D03*
%TD*%
D32*
%TO.C,C8*%
X8954000Y-3128000D03*
D29*
X8754000Y-3128000D03*
%TD*%
D33*
%TO.C,J5*%
X6217574Y-2262210D03*
D34*
X6471574Y-2516210D03*
X6471574Y-2008210D03*
X5963574Y-2516210D03*
X5963574Y-2008210D03*
%TD*%
D17*
%TO.C,J7*%
X11421000Y-4574000D03*
D18*
X11421000Y-4828000D03*
X11421000Y-5082000D03*
%TD*%
D32*
%TO.C,C17*%
X10798200Y-5969000D03*
D29*
X10998200Y-5969000D03*
%TD*%
D35*
%TO.C,C18*%
X10300000Y-6231000D03*
D36*
X10100000Y-6231000D03*
%TD*%
D32*
%TO.C,C12*%
X10671000Y-4431000D03*
D29*
X11051000Y-4431000D03*
%TD*%
D32*
%TO.C,C13*%
X10671000Y-5271000D03*
D29*
X11051000Y-5271000D03*
%TD*%
%TO.C,C26*%
X3540000Y-4410000D03*
X3790000Y-4410000D03*
%TD*%
D35*
%TO.C,C7*%
X10306740Y-3555000D03*
D36*
X10106740Y-3555000D03*
%TD*%
D35*
%TO.C,C6*%
X10751760Y-3785000D03*
D36*
X10951760Y-3785000D03*
%TD*%
D32*
%TO.C,C9*%
X7502000Y-3125000D03*
D29*
X7302000Y-3125000D03*
%TD*%
D37*
%TO.C,L2*%
X4992000Y-2142000D03*
X5392000Y-2142000D03*
%TD*%
D32*
%TO.C,C5*%
X9337520Y-3140989D03*
D29*
X9537520Y-3140989D03*
%TD*%
D38*
%TO.C,Y1*%
X3808000Y-4104000D03*
X3998000Y-4104000D03*
%TD*%
D39*
%TO.C,J6*%
X3633000Y-3445000D03*
%TD*%
%TO.C,J4*%
X4175500Y-3454000D03*
%TD*%
D33*
%TO.C,J3*%
X4123574Y-2265210D03*
D34*
X4377574Y-2519210D03*
X4377574Y-2011210D03*
X3869574Y-2519210D03*
X3869574Y-2011210D03*
%TD*%
D40*
X3555840Y-2268000D02*
G75*
G03*
X3555840Y-2268000I-154840J0D01*
G01*
D41*
X3060000Y-1815000D02*
X11602000Y-1815000D01*
X11602000Y-6713000D01*
X3060000Y-6713000D01*
X3060000Y-1815000D01*
D40*
X11459840Y-6259000D02*
G75*
G03*
X11459840Y-6259000I-154840J0D01*
G01*
X11453840Y-2268000D02*
G75*
G03*
X11453840Y-2268000I-154840J0D01*
G01*
X3567840Y-6261000D02*
G75*
G03*
X3567840Y-6261000I-154840J0D01*
G01*
%TO.C,J5*%
X5787574Y-1812210D02*
X6647574Y-1812210D01*
%TO.C,J3*%
X3693574Y-1815210D02*
X4553574Y-1815210D01*
%TD*%
M02*
